<svg version="1.1" xmlns="http://www.w3.org/2000/svg" viewBox="0 0 230 526" width="230" height="526" filter="invert(93%) hue-rotate(180deg)">
  <!-- svg-source:excalidraw -->
  
  <defs>
    <style class="style-fonts">
      @font-face {
        font-family: "Virgil";
        src: url("https://file%2B.vscode-resource.vscode-cdn.net/home/k/.vscode/extensions/pomdtr.excalidraw-editor-3.7.2/public//dist/excalidraw-assets/Virgil.woff2");
      }
      @font-face {
        font-family: "Cascadia";
        src: url("https://file%2B.vscode-resource.vscode-cdn.net/home/k/.vscode/extensions/pomdtr.excalidraw-editor-3.7.2/public//dist/excalidraw-assets/Cascadia.woff2");
      }
      @font-face {
        font-family: "Assistant";
        src: url("https://file%2B.vscode-resource.vscode-cdn.net/home/k/.vscode/extensions/pomdtr.excalidraw-editor-3.7.2/public//dist/excalidraw-assets/Assistant-Regular.woff2");
      }
    </style>
    
  </defs>
  <rect x="0" y="0" width="230" height="526" fill="#ffffff"></rect><g stroke-linecap="round" transform="translate(10 10) rotate(0 100 18)"><path d="M9 0 C81.21 0.84, 151.88 1.46, 191 0 M9 0 C81.07 -0.54, 153.94 -0.79, 191 0 M191 0 C198.12 -1.59, 201.02 1.34, 200 9 M191 0 C195.09 2.18, 198.87 1.6, 200 9 M200 9 C201.39 11.97, 200.06 18.75, 200 27 M200 9 C199.7 15.49, 200.72 22.49, 200 27 M200 27 C199.92 32.94, 195.2 37.36, 191 36 M200 27 C198.53 31.13, 195.04 36.43, 191 36 M191 36 C140.4 34.87, 86.09 37.31, 9 36 M191 36 C130.36 36.94, 70.74 36.89, 9 36 M9 36 C2.95 37.27, -0.62 34.08, 0 27 M9 36 C1.48 38.12, 0.17 33.03, 0 27 M0 27 C1.44 20.47, 0.54 16.31, 0 9 M0 27 C-0.74 20.07, -0.49 15.43, 0 9 M0 9 C0.52 4.88, 3.98 1.94, 9 0 M0 9 C0.68 1.68, 5.07 -0.59, 9 0" stroke="#1e1e1e" stroke-width="2" fill="none"></path></g><g transform="translate(93.58001708984375 15.5) rotate(0 16.41998291015625 12.5)"><text x="16.41998291015625" y="0" font-family="Virgil, Segoe UI Emoji" font-size="20px" fill="#1e1e1e" text-anchor="middle" style="white-space: pre;" direction="ltr" dominant-baseline="text-before-edge">App</text></g><g stroke-linecap="round"><g transform="translate(110 47) rotate(0 0 31)"><path d="M1.05 0.74 C1.02 10.79, 0.83 50.62, 0.77 60.99 M0.15 0.09 C-0.06 10.2, 0.19 51.83, 0.22 62" stroke="#1e1e1e" stroke-width="2" fill="none"></path></g><g transform="translate(110 47) rotate(0 0 31)"><path d="M-10.16 33.85 C-4.82 45.71, -3.81 56.28, 0.22 62 M-10.16 33.85 C-7.04 43.96, -3.24 54.29, 0.22 62" stroke="#1e1e1e" stroke-width="2" fill="none"></path></g><g transform="translate(110 47) rotate(0 0 31)"><path d="M10.36 33.76 C7.92 45.84, 1.15 56.44, 0.22 62 M10.36 33.76 C5.72 44.09, 1.77 54.46, 0.22 62" stroke="#1e1e1e" stroke-width="2" fill="none"></path></g></g><mask></mask><g stroke-linecap="round" transform="translate(17 114) rotate(0 96.5 25)"><path d="M12.5 0 C77.59 -0.53, 142.83 0.78, 180.5 0 M12.5 0 C51.73 -0.95, 90.7 -1.86, 180.5 0 M180.5 0 C190.55 1, 192.88 5.45, 193 12.5 M180.5 0 C188.08 -0.16, 193.98 6.13, 193 12.5 M193 12.5 C194.97 23.6, 192.95 31.52, 193 37.5 M193 12.5 C192.29 20.02, 192.49 26.19, 193 37.5 M193 37.5 C191.9 45.6, 187.98 50.11, 180.5 50 M193 37.5 C195.12 44.21, 190.88 48.34, 180.5 50 M180.5 50 C123.93 52.07, 68.6 52.57, 12.5 50 M180.5 50 C143.83 49.97, 107.78 49.95, 12.5 50 M12.5 50 C3.14 51.67, 1.77 44.35, 0 37.5 M12.5 50 C3.79 50.75, 1.06 46.29, 0 37.5 M0 37.5 C-0.05 30.81, 0.7 24.03, 0 12.5 M0 37.5 C-0.23 28.67, -0.2 21.79, 0 12.5 M0 12.5 C1.45 6.08, 3.76 0.34, 12.5 0 M0 12.5 C-2.13 3.39, 2.06 -1.3, 12.5 0" stroke="#1e1e1e" stroke-width="2" fill="none"></path></g><g transform="translate(84.83002471923828 126.5) rotate(0 28.66997528076172 12.5)"><text x="28.66997528076172" y="0" font-family="Virgil, Segoe UI Emoji" font-size="20px" fill="#1e1e1e" text-anchor="middle" style="white-space: pre;" direction="ltr" dominant-baseline="text-before-edge">Kernel</text></g><g stroke-linecap="round" transform="translate(23 234) rotate(0 97 23)"><path d="M11.5 0 C62.29 3.2, 115.58 -0.44, 182.5 0 M11.5 0 C65.4 0.28, 117.36 -0.4, 182.5 0 M182.5 0 C189.2 -1.1, 193.86 5.5, 194 11.5 M182.5 0 C188.23 1.01, 191.99 2.98, 194 11.5 M194 11.5 C192.04 20.51, 194.33 26.45, 194 34.5 M194 11.5 C194.41 18.69, 194.02 27.7, 194 34.5 M194 34.5 C194.2 40.85, 189.55 46.57, 182.5 46 M194 34.5 C195.57 42.55, 188.82 46.37, 182.5 46 M182.5 46 C135.03 45.08, 87.78 47.7, 11.5 46 M182.5 46 C139.93 45.14, 96.64 46.34, 11.5 46 M11.5 46 C2.91 46.75, 0.74 42.57, 0 34.5 M11.5 46 C4.03 46.46, -2.06 43.72, 0 34.5 M0 34.5 C0.87 26.94, -0.15 19.11, 0 11.5 M0 34.5 C-0.01 27.45, -0.99 21.23, 0 11.5 M0 11.5 C-0.62 4.52, 4.59 0.61, 11.5 0 M0 11.5 C2.02 5.28, 2.42 0.14, 11.5 0" stroke="#1e1e1e" stroke-width="2" fill="none"></path></g><g transform="translate(90.71002960205078 244.5) rotate(0 29.28997039794922 12.5)"><text x="29.28997039794922" y="0" font-family="Virgil, Segoe UI Emoji" font-size="20px" fill="#1e1e1e" text-anchor="middle" style="white-space: pre;" direction="ltr" dominant-baseline="text-before-edge">Driver</text></g><g stroke-linecap="round"><g transform="translate(114.99812973061773 169) rotate(0 0.0006710572376107393 32)"><path d="M-0.37 0.41 C-0.11 11.1, 0.22 53.64, 0.46 64.37 M1.63 -0.41 C1.87 9.88, -0.12 51.9, -0.25 62.44" stroke="#1e1e1e" stroke-width="2" fill="none"></path></g><g transform="translate(114.99812973061773 169) rotate(0 0.0006710572376107393 32)"><path d="M-9.62 33.94 C-6.94 40.62, -5.08 47.51, -0.25 62.44 M-9.62 33.94 C-6.64 43.63, -2.31 53.7, -0.25 62.44" stroke="#1e1e1e" stroke-width="2" fill="none"></path></g><g transform="translate(114.99812973061773 169) rotate(0 0.0006710572376107393 32)"><path d="M10.89 34.58 C9.33 41.07, 6.95 47.82, -0.25 62.44 M10.89 34.58 C6.43 44.06, 3.31 53.89, -0.25 62.44" stroke="#1e1e1e" stroke-width="2" fill="none"></path></g></g><mask></mask><g stroke-linecap="round" transform="translate(17 351) rotate(0 101.5 82.5)"><path d="M32 0 C70.49 0.97, 108.17 -0.21, 171 0 M32 0 C71 0.47, 110.21 0.3, 171 0 M171 0 C190.76 0.61, 202.61 11.27, 203 32 M171 0 C190.23 -0.53, 202.01 9.75, 203 32 M203 32 C204.07 51.82, 201.81 76.16, 203 133 M203 32 C202.35 69.21, 204.08 106.01, 203 133 M203 133 C202.6 154.92, 192.95 166.95, 171 165 M203 133 C203.42 152.9, 194.23 164.54, 171 165 M171 165 C115.68 165.3, 59.88 163.64, 32 165 M171 165 C114.63 164.29, 59.19 165, 32 165 M32 165 C12.53 164.69, 1.51 155.33, 0 133 M32 165 C12.58 162.72, 1.73 156.08, 0 133 M0 133 C0.64 107.44, -0.05 86.52, 0 32 M0 133 C-0.62 96.02, -1.65 60.44, 0 32 M0 32 C0.04 9.13, 8.74 1.39, 32 0 M0 32 C-0.36 12.02, 9.59 -2.09, 32 0" stroke="#1e1e1e" stroke-width="2" fill="none"></path></g><g transform="translate(98.5400161743164 421) rotate(0 19.959983825683594 12.5)"><text x="19.959983825683594" y="0" font-family="Virgil, Segoe UI Emoji" font-size="20px" fill="#1e1e1e" text-anchor="middle" style="white-space: pre;" direction="ltr" dominant-baseline="text-before-edge">SSD</text></g><g stroke-linecap="round"><g transform="translate(116 283) rotate(0 1 35.5)"><path d="M-0.76 -0.15 C-0.5 11.94, 1.28 59.83, 1.92 71.62 M1.05 -1.27 C1.11 10.55, 0.63 57.66, 0.93 69.83" stroke="#1e1e1e" stroke-width="2" fill="none"></path></g><g transform="translate(116 283) rotate(0 1 35.5)"><path d="M-9.48 41.69 C-6.52 50.9, -1.8 62.07, 0.93 69.83 M-9.48 41.69 C-6.38 49.3, -3.3 57.14, 0.93 69.83" stroke="#1e1e1e" stroke-width="2" fill="none"></path></g><g transform="translate(116 283) rotate(0 1 35.5)"><path d="M11.04 41.58 C7.24 50.7, 5.19 61.9, 0.93 69.83 M11.04 41.58 C8.68 49.08, 6.29 56.95, 0.93 69.83" stroke="#1e1e1e" stroke-width="2" fill="none"></path></g></g><mask></mask></svg>