<svg version="1.1" xmlns="http://www.w3.org/2000/svg" viewBox="0 0 1085.396824266241 885.5436966073707" width="1085.396824266241" height="885.5436966073707" filter="invert(93%) hue-rotate(180deg)">
  <!-- svg-source:excalidraw -->
  
  <defs>
    <style class="style-fonts">
      @font-face {
        font-family: "Virgil";
        src: url("https://file%2B.vscode-resource.vscode-cdn.net/home/k/.vscode/extensions/pomdtr.excalidraw-editor-3.7.2/public//dist/excalidraw-assets/Virgil.woff2");
      }
      @font-face {
        font-family: "Cascadia";
        src: url("https://file%2B.vscode-resource.vscode-cdn.net/home/k/.vscode/extensions/pomdtr.excalidraw-editor-3.7.2/public//dist/excalidraw-assets/Cascadia.woff2");
      }
      @font-face {
        font-family: "Assistant";
        src: url("https://file%2B.vscode-resource.vscode-cdn.net/home/k/.vscode/extensions/pomdtr.excalidraw-editor-3.7.2/public//dist/excalidraw-assets/Assistant-Regular.woff2");
      }
    </style>
    
  </defs>
  <rect x="0" y="0" width="1085.396824266241" height="885.5436966073707" fill="#ffffff"></rect><g stroke-linecap="round" transform="translate(198.39682426624108 369.5436966073707) rotate(0 20 23)"><path d="M10 0 C12.9 -0.34, 20.08 -0.75, 30 0 M10 0 C18.22 -1.06, 25.54 0.4, 30 0 M30 0 C35.99 0.9, 40.38 2.82, 40 10 M30 0 C34.71 1.24, 40.95 3.12, 40 10 M40 10 C37.85 17.33, 40.59 25.29, 40 36 M40 10 C39.93 20.01, 40.51 28.27, 40 36 M40 36 C39.14 43.27, 38.49 46.07, 30 46 M40 36 C39.41 42.01, 35.16 45.55, 30 46 M30 46 C21.47 45.2, 15.35 45.55, 10 46 M30 46 C25.28 46.74, 18.34 45.11, 10 46 M10 46 C2.67 44.11, -1.25 43.81, 0 36 M10 46 C2.52 47.68, 2.02 40.79, 0 36 M0 36 C0.9 31.99, 0.71 26.31, 0 10 M0 36 C0.41 27.51, 0.42 21.69, 0 10 M0 10 C-1.69 2.33, 4.15 -0.12, 10 0 M0 10 C-1.8 4.64, 2.9 2.29, 10 0" stroke="#1e1e1e" stroke-width="2" fill="none"></path></g><g transform="translate(211.51682701282311 380.0436966073707) rotate(0 6.879997253417969 12.5)"><text x="6.879997253417969" y="0" font-family="Virgil, Segoe UI Emoji" font-size="20px" fill="#1e1e1e" text-anchor="middle" style="white-space: pre;" direction="ltr" dominant-baseline="text-before-edge">0</text></g><g stroke-linecap="round" transform="translate(244.39682426624108 370.5436966073707) rotate(0 20 23)"><path d="M10 0 C16.21 -1.11, 19.13 1.52, 30 0 M10 0 C17.12 0.78, 23 -0.44, 30 0 M30 0 C37.9 -1.28, 40.3 3.38, 40 10 M30 0 C38.01 2.29, 41.18 4.91, 40 10 M40 10 C41.34 20.68, 39.58 28.26, 40 36 M40 10 C40.33 16.65, 39.12 21.87, 40 36 M40 36 C38.51 43.65, 36.08 44.59, 30 46 M40 36 C41.06 40.7, 38.48 46.53, 30 46 M30 46 C24.22 47.62, 16.39 45.02, 10 46 M30 46 C22.6 46.33, 14.94 45.34, 10 46 M10 46 C3.81 46.98, 1.95 42.76, 0 36 M10 46 C5.11 44.91, 0.81 44.05, 0 36 M0 36 C-0.83 28.29, -1 18.92, 0 10 M0 36 C0.44 30.7, 0.43 25.99, 0 10 M0 10 C-0.36 1.47, 1.41 1.99, 10 0 M0 10 C-2.26 2.79, 2.67 -1.72, 10 0" stroke="#1e1e1e" stroke-width="2" fill="none"></path></g><g transform="translate(257.5168270128231 381.0436966073707) rotate(0 6.879997253417969 12.5)"><text x="6.879997253417969" y="0" font-family="Virgil, Segoe UI Emoji" font-size="20px" fill="#1e1e1e" text-anchor="middle" style="white-space: pre;" direction="ltr" dominant-baseline="text-before-edge">0</text></g><g stroke-linecap="round" transform="translate(466.3968242662411 373.5436966073707) rotate(0 20 23)"><path d="M10 0 C15.24 1.15, 17.49 -0.58, 30 0 M10 0 C13.8 0.52, 18.17 0.85, 30 0 M30 0 C37.12 0.4, 38.66 4.31, 40 10 M30 0 C37.39 1.75, 39.08 2.09, 40 10 M40 10 C39.52 20.35, 38.65 27.76, 40 36 M40 10 C40.17 19.19, 39.65 27.18, 40 36 M40 36 C41.21 42.72, 36.1 47.48, 30 46 M40 36 C38.96 42.86, 35.44 44.47, 30 46 M30 46 C26.55 46.03, 22.49 47.17, 10 46 M30 46 C25.36 44.82, 18.49 45.52, 10 46 M10 46 C1.84 44.05, -1.44 44.31, 0 36 M10 46 C3.42 45.92, -0.92 43.47, 0 36 M0 36 C1.53 28.16, 0.02 19.43, 0 10 M0 36 C-0.5 28.72, -0.91 20.16, 0 10 M0 10 C-1.19 3.68, 3.18 -1.11, 10 0 M0 10 C0.7 2.05, 3.36 -1.25, 10 0" stroke="#1e1e1e" stroke-width="2" fill="none"></path></g><g transform="translate(483.6868251817684 384.0436966073707) rotate(0 2.7099990844726562 12.5)"><text x="2.7099990844726562" y="0" font-family="Virgil, Segoe UI Emoji" font-size="20px" fill="#1e1e1e" text-anchor="middle" style="white-space: pre;" direction="ltr" dominant-baseline="text-before-edge">1</text></g><g stroke-linecap="round" transform="translate(422.3968242662411 373.5436966073707) rotate(0 20 23)"><path d="M10 0 C15.64 1.04, 23.67 -1.35, 30 0 M10 0 C17.15 0.04, 23.17 0.33, 30 0 M30 0 C37.29 1.52, 39.2 2.25, 40 10 M30 0 C38.08 -1.36, 38.35 2.95, 40 10 M40 10 C40.32 20.01, 41.79 28.15, 40 36 M40 10 C40.48 19.83, 39.6 30.35, 40 36 M40 36 C39.09 42.83, 35.6 44.67, 30 46 M40 36 C37.77 41.5, 37.66 46.7, 30 46 M30 46 C23.69 44.24, 16.18 48.1, 10 46 M30 46 C25.22 44.97, 21.22 46.76, 10 46 M10 46 C3.41 45.93, -0.8 43.36, 0 36 M10 46 C4.13 45.83, 1.09 44.4, 0 36 M0 36 C-0.02 28.72, -1.51 17.57, 0 10 M0 36 C-0.41 27.1, 0.11 17.29, 0 10 M0 10 C0.61 2.22, 3.36 -1.08, 10 0 M0 10 C-0.01 3.76, 1.39 1.73, 10 0" stroke="#1e1e1e" stroke-width="2" fill="none"></path></g><g transform="translate(435.5168270128231 384.0436966073707) rotate(0 6.879997253417969 12.5)"><text x="6.879997253417969" y="0" font-family="Virgil, Segoe UI Emoji" font-size="20px" fill="#1e1e1e" text-anchor="middle" style="white-space: pre;" direction="ltr" dominant-baseline="text-before-edge">0</text></g><g stroke-linecap="round" transform="translate(378.3968242662411 373.5436966073707) rotate(0 20 23)"><path d="M10 0 C17.91 -1.57, 25.55 0.6, 30 0 M10 0 C16.72 0.66, 22.4 -0.64, 30 0 M30 0 C37.9 -1.18, 38.57 3, 40 10 M30 0 C37.76 -1.38, 38.8 3.88, 40 10 M40 10 C41.79 18.12, 40.96 29.35, 40 36 M40 10 C39.47 17.95, 39.39 25.08, 40 36 M40 36 C38.06 41.65, 37.53 46.61, 30 46 M40 36 C39.94 43.36, 37.91 45.58, 30 46 M30 46 C23.9 45.72, 21.16 44.71, 10 46 M30 46 C25.99 46.13, 21.49 46.51, 10 46 M10 46 C4.03 45.86, 0.95 44.18, 0 36 M10 46 C4.33 46, 0.96 42.65, 0 36 M0 36 C1.18 24.66, -0.37 14.94, 0 10 M0 36 C0.33 27.19, 0.03 18.95, 0 10 M0 10 C-0.01 3.7, 1.64 1.51, 10 0 M0 10 C-0.42 5.1, 3.79 -1.56, 10 0" stroke="#1e1e1e" stroke-width="2" fill="none"></path></g><g transform="translate(395.6868251817684 384.0436966073707) rotate(0 2.7099990844726562 12.5)"><text x="2.7099990844726562" y="0" font-family="Virgil, Segoe UI Emoji" font-size="20px" fill="#1e1e1e" text-anchor="middle" style="white-space: pre;" direction="ltr" dominant-baseline="text-before-edge">1</text></g><g stroke-linecap="round" transform="translate(333.3968242662411 372.5436966073707) rotate(0 20 23)"><path d="M10 0 C14.7 -1.39, 19.57 0.58, 30 0 M10 0 C18.14 -0.48, 24.33 -0.06, 30 0 M30 0 C37.61 -1.2, 38.96 3.81, 40 10 M30 0 C37.79 2.24, 40.1 5.11, 40 10 M40 10 C40.15 16, 41.57 22.23, 40 36 M40 10 C38.89 17.51, 40.29 26.33, 40 36 M40 36 C39.95 43.27, 37.75 45.64, 30 46 M40 36 C37.85 40.45, 38.96 43.74, 30 46 M30 46 C22.53 44.41, 20.59 45.93, 10 46 M30 46 C24.42 46, 18.61 46.82, 10 46 M10 46 C4.2 46, 0.84 42.65, 0 36 M10 46 C5.22 44.26, -0.66 43.8, 0 36 M0 36 C0.42 29.87, -1.03 24.65, 0 10 M0 36 C-0.01 29.83, -0.85 24.05, 0 10 M0 10 C-0.37 4.87, 3.73 -1.35, 10 0 M0 10 C-0.29 1.15, 3.93 -1.98, 10 0" stroke="#1e1e1e" stroke-width="2" fill="none"></path></g><g transform="translate(346.5168270128231 383.0436966073707) rotate(0 6.879997253417969 12.5)"><text x="6.879997253417969" y="0" font-family="Virgil, Segoe UI Emoji" font-size="20px" fill="#1e1e1e" text-anchor="middle" style="white-space: pre;" direction="ltr" dominant-baseline="text-before-edge">0</text></g><g stroke-linecap="round" transform="translate(289.3968242662411 372.5436966073707) rotate(0 20 23)"><path d="M10 0 C16.18 -0.87, 18.23 1.17, 30 0 M10 0 C15.29 -0.57, 19.12 0.27, 30 0 M30 0 C37.64 1.95, 40.09 4.88, 40 10 M30 0 C35.58 0.81, 41.39 3.4, 40 10 M40 10 C40.36 16, 38.86 22.2, 40 36 M40 10 C40.09 16.78, 40.65 22.78, 40 36 M40 36 C38.13 40.74, 38.66 44.03, 30 46 M40 36 C39.45 42.01, 34.95 43.76, 30 46 M30 46 C25.37 45.21, 21.58 46.7, 10 46 M30 46 C24.58 46.15, 18.7 46.14, 10 46 M10 46 C4.98 44.49, -0.58 43.65, 0 36 M10 46 C1.72 45.34, -1.37 43.07, 0 36 M0 36 C-0.97 28.42, -0.94 20.78, 0 10 M0 36 C0.04 28.49, 0.42 18.77, 0 10 M0 10 C-0.25 1.43, 3.85 -1.72, 10 0 M0 10 C0.12 1.89, 2.69 -1.94, 10 0" stroke="#1e1e1e" stroke-width="2" fill="none"></path></g><g transform="translate(302.5168270128231 383.0436966073707) rotate(0 6.879997253417969 12.5)"><text x="6.879997253417969" y="0" font-family="Virgil, Segoe UI Emoji" font-size="20px" fill="#1e1e1e" text-anchor="middle" style="white-space: pre;" direction="ltr" dominant-baseline="text-before-edge">0</text></g><g stroke-linecap="round" transform="translate(531.8968242662411 373.0436966073707) rotate(0 44 24.5)"><path d="M12.25 0 C23.04 -0.27, 39.61 0.75, 75.75 0 M12.25 0 C27.79 -1.04, 45.05 -0.27, 75.75 0 M75.75 0 C83.38 0.62, 86.44 5.26, 88 12.25 M75.75 0 C82.21 0.2, 90.19 3.09, 88 12.25 M88 12.25 C86.87 20.73, 88.63 28.52, 88 36.75 M88 12.25 C88.84 17.44, 87.45 22.93, 88 36.75 M88 36.75 C88.91 44.49, 82.11 47.64, 75.75 49 M88 36.75 C89.57 45.28, 82.25 48.76, 75.75 49 M75.75 49 C62.45 48.76, 47.68 48.32, 12.25 49 M75.75 49 C54.23 49.68, 31.24 48.55, 12.25 49 M12.25 49 C3.92 50.26, -0.4 44.69, 0 36.75 M12.25 49 C4.55 50.39, -0.26 47.2, 0 36.75 M0 36.75 C0.05 31.26, 0.87 21.89, 0 12.25 M0 36.75 C-0.95 31.05, -0.63 26.68, 0 12.25 M0 12.25 C0.82 3.59, 4.68 1.88, 12.25 0 M0 12.25 C-1.38 5.02, 3.79 -0.56, 12.25 0" stroke="#1e1e1e" stroke-width="2" fill="none"></path></g><g transform="translate(569.0168270128231 385.0436966073707) rotate(0 6.879997253417969 12.5)"><text x="6.879997253417969" y="0" font-family="Virgil, Segoe UI Emoji" font-size="20px" fill="#1e1e1e" text-anchor="middle" style="white-space: pre;" direction="ltr" dominant-baseline="text-before-edge">0</text></g><g stroke-linecap="round" transform="translate(643.0857934049027 371.0436966073707) rotate(0 44 24.5)"><path d="M12.25 0 C36.49 0.98, 56.84 1.69, 75.75 0 M12.25 0 C27.07 0.41, 41.51 0.94, 75.75 0 M75.75 0 C83.75 -1.07, 88.09 5.63, 88 12.25 M75.75 0 C81.8 1.89, 88.22 5.15, 88 12.25 M88 12.25 C86.9 19.64, 86.23 26.22, 88 36.75 M88 12.25 C87.17 19.89, 88.12 27.83, 88 36.75 M88 36.75 C86.65 44.87, 82.63 48.66, 75.75 49 M88 36.75 C89.17 43.48, 84.93 50.54, 75.75 49 M75.75 49 C57.5 46.59, 38.23 49.98, 12.25 49 M75.75 49 C53.42 49.59, 29.41 49.47, 12.25 49 M12.25 49 C4.39 47.88, -0.78 45.78, 0 36.75 M12.25 49 C2.87 49.6, -0.67 44.85, 0 36.75 M0 36.75 C-1.58 31.16, -0.27 24.19, 0 12.25 M0 36.75 C0.2 29.83, 0.49 22.91, 0 12.25 M0 12.25 C-0.66 6.02, 2.87 1.61, 12.25 0 M0 12.25 C-0.5 2.72, 3.7 -0.95, 12.25 0" stroke="#1e1e1e" stroke-width="2" fill="none"></path></g><g transform="translate(684.37579432043 383.0436966073707) rotate(0 2.7099990844726562 12.5)"><text x="2.7099990844726562" y="0" font-family="Virgil, Segoe UI Emoji" font-size="20px" fill="#1e1e1e" text-anchor="middle" style="white-space: pre;" direction="ltr" dominant-baseline="text-before-edge">1</text></g><g stroke-linecap="round" transform="translate(755.8968242662411 369.5436966073707) rotate(0 20 23)"><path d="M10 0 C15.29 1.84, 18.27 0.09, 30 0 M10 0 C16.01 -0.4, 21.03 0.73, 30 0 M30 0 C37.78 -0.53, 41.66 1.36, 40 10 M30 0 C35.73 -0.23, 38.98 3.68, 40 10 M40 10 C41.05 21.99, 38.06 32.11, 40 36 M40 10 C40.78 19.71, 40.16 29.18, 40 36 M40 36 C38.59 43.12, 37.03 47.77, 30 46 M40 36 C39.67 41.59, 38.61 44.64, 30 46 M30 46 C23.93 46.64, 21.4 45.71, 10 46 M30 46 C23.25 45.2, 18.26 46.33, 10 46 M10 46 C1.62 45.69, -1.7 44, 0 36 M10 46 C2.71 46.32, -0.18 42.16, 0 36 M0 36 C1.9 27.88, 1.36 23.73, 0 10 M0 36 C-1.02 27.85, -0.92 19.5, 0 10 M0 10 C-0.87 3.15, 3.32 1.61, 10 0 M0 10 C-1.96 5.41, 4.09 -0.54, 10 0" stroke="#1e1e1e" stroke-width="2" fill="none"></path></g><g transform="translate(769.0168270128231 380.0436966073707) rotate(0 6.879997253417969 12.5)"><text x="6.879997253417969" y="0" font-family="Virgil, Segoe UI Emoji" font-size="20px" fill="#1e1e1e" text-anchor="middle" style="white-space: pre;" direction="ltr" dominant-baseline="text-before-edge">0</text></g><g stroke-linecap="round" transform="translate(801.8968242662411 370.5436966073707) rotate(0 20 23)"><path d="M10 0 C16.35 -0.04, 22.65 1.7, 30 0 M10 0 C14.98 0.72, 20.23 -0.16, 30 0 M30 0 C38.32 -1.97, 39.18 3.13, 40 10 M30 0 C35.65 0.35, 42.27 3.04, 40 10 M40 10 C38.23 19.58, 41.53 28.23, 40 36 M40 10 C40.06 15.9, 39.44 22.12, 40 36 M40 36 C40.36 44.44, 36.38 45.06, 30 46 M40 36 C41.94 41.31, 35.21 47.06, 30 46 M30 46 C23.23 45.6, 14.62 44.35, 10 46 M30 46 C22.32 45.96, 13.68 45.65, 10 46 M10 46 C1.63 47.34, -0.55 42.95, 0 36 M10 46 C3.15 45.5, -0.84 40.7, 0 36 M0 36 C0.92 29.36, 0.12 20.22, 0 10 M0 36 C-0.61 29.17, -0.18 22.29, 0 10 M0 10 C-0.02 4.95, 1.63 1.81, 10 0 M0 10 C0.76 2.8, 2.97 -1.5, 10 0" stroke="#1e1e1e" stroke-width="2" fill="none"></path></g><g transform="translate(815.0168270128231 381.0436966073707) rotate(0 6.879997253417969 12.5)"><text x="6.879997253417969" y="0" font-family="Virgil, Segoe UI Emoji" font-size="20px" fill="#1e1e1e" text-anchor="middle" style="white-space: pre;" direction="ltr" dominant-baseline="text-before-edge">0</text></g><g stroke-linecap="round" transform="translate(1023.8968242662411 373.5436966073707) rotate(0 20 23)"><path d="M10 0 C17.34 1.88, 24.64 1.12, 30 0 M10 0 C15.52 -0.39, 20.76 -1.11, 30 0 M30 0 C35.85 -0.2, 39.12 3.63, 40 10 M30 0 C38.93 -0.29, 40.35 4.58, 40 10 M40 10 C41.14 21.77, 38.32 30.91, 40 36 M40 10 C39.28 18.29, 40.16 27.01, 40 36 M40 36 C39.72 41.73, 38.36 44.82, 30 46 M40 36 C38.54 43.72, 38.55 44.46, 30 46 M30 46 C23.42 44.26, 18.78 44.25, 10 46 M30 46 C25.08 45.88, 21.03 46.7, 10 46 M10 46 C2.79 46.28, -0.16 42.23, 0 36 M10 46 C2.5 44.03, 0.25 44.59, 0 36 M0 36 C0.19 30.22, -0.91 21.73, 0 10 M0 36 C-0.21 27.87, 0.22 20.73, 0 10 M0 10 C-1.7 5.14, 3.99 -0.47, 10 0 M0 10 C-0.37 1.83, 4.42 -0.02, 10 0" stroke="#1e1e1e" stroke-width="2" fill="none"></path></g><g transform="translate(1041.1868251817684 384.0436966073707) rotate(0 2.7099990844726562 12.5)"><text x="2.7099990844726562" y="0" font-family="Virgil, Segoe UI Emoji" font-size="20px" fill="#1e1e1e" text-anchor="middle" style="white-space: pre;" direction="ltr" dominant-baseline="text-before-edge">1</text></g><g stroke-linecap="round" transform="translate(979.8968242662411 373.5436966073707) rotate(0 20 23)"><path d="M10 0 C14.99 0.94, 21.27 0.1, 30 0 M10 0 C18.06 -0.93, 24.05 -0.05, 30 0 M30 0 C35.78 0.3, 41.97 3.08, 40 10 M30 0 C37.01 1.25, 41.87 1.14, 40 10 M40 10 C38.75 20.67, 40.38 29.05, 40 36 M40 10 C40 18.57, 39.67 24.89, 40 36 M40 36 C41.69 41.49, 35.4 46.92, 30 46 M40 36 C41.88 41.13, 37.22 47, 30 46 M30 46 C26.18 44.13, 16.97 45.93, 10 46 M30 46 C22.85 46.64, 17.12 46.11, 10 46 M10 46 C3.18 45.56, -0.73 40.95, 0 36 M10 46 C3.58 47.93, -1.45 43.98, 0 36 M0 36 C-0.81 24.38, 0.14 14.93, 0 10 M0 36 C0.1 29.07, -0.74 21.43, 0 10 M0 10 C0.66 2.87, 3.01 -1.31, 10 0 M0 10 C1.09 3.32, 3.28 -1.17, 10 0" stroke="#1e1e1e" stroke-width="2" fill="none"></path></g><g transform="translate(993.0168270128231 384.0436966073707) rotate(0 6.879997253417969 12.5)"><text x="6.879997253417969" y="0" font-family="Virgil, Segoe UI Emoji" font-size="20px" fill="#1e1e1e" text-anchor="middle" style="white-space: pre;" direction="ltr" dominant-baseline="text-before-edge">0</text></g><g stroke-linecap="round" transform="translate(935.8968242662411 373.5436966073707) rotate(0 20 23)"><path d="M10 0 C16.86 0.17, 27.02 1, 30 0 M10 0 C15.06 0.1, 20.5 0.35, 30 0 M30 0 C38.64 -0.26, 40.3 4.42, 40 10 M30 0 C38.54 -2.2, 41.59 4.94, 40 10 M40 10 C40.01 20.04, 39.72 29, 40 36 M40 10 C39.9 17.92, 40.89 26.19, 40 36 M40 36 C38.73 43.58, 38.3 44.67, 30 46 M40 36 C40.55 43.66, 36.15 45.88, 30 46 M30 46 C23.76 45.93, 21.7 44.11, 10 46 M30 46 C24.03 46.27, 18.53 45.92, 10 46 M10 46 C2.61 44.29, 0.22 44.34, 0 36 M10 46 C1.88 47.31, 1.65 43.05, 0 36 M0 36 C0.28 25.97, 0.05 18.54, 0 10 M0 36 C-0.85 29.34, 0.33 20.65, 0 10 M0 10 C-0.32 2.03, 4.28 -0.02, 10 0 M0 10 C-0.05 2.17, 4.53 -2.06, 10 0" stroke="#1e1e1e" stroke-width="2" fill="none"></path></g><g transform="translate(949.0168270128231 384.0436966073707) rotate(0 6.879997253417969 12.5)"><text x="6.879997253417969" y="0" font-family="Virgil, Segoe UI Emoji" font-size="20px" fill="#1e1e1e" text-anchor="middle" style="white-space: pre;" direction="ltr" dominant-baseline="text-before-edge">0</text></g><g stroke-linecap="round" transform="translate(890.8968242662411 372.5436966073707) rotate(0 20 23)"><path d="M10 0 C18.36 1.08, 23.74 1.63, 30 0 M10 0 C13.59 0.17, 19.04 -0.11, 30 0 M30 0 C36.97 1.09, 41.63 1.42, 40 10 M30 0 C38.26 1.6, 42.12 1.69, 40 10 M40 10 C39.93 17.79, 40.48 28.75, 40 36 M40 10 C40.81 19.52, 39.33 30.67, 40 36 M40 36 C41.64 41.33, 37.14 46.87, 30 46 M40 36 C39.48 42.54, 34.72 47.99, 30 46 M30 46 C26.01 44.3, 21.1 44.31, 10 46 M30 46 C22.58 45.81, 14.96 45.17, 10 46 M10 46 C3.55 47.67, -1.26 43.8, 0 36 M10 46 C4.99 46.39, 0.44 41.79, 0 36 M0 36 C-0.07 29.87, -0.21 25.45, 0 10 M0 36 C0.55 25.87, 0.06 15.55, 0 10 M0 10 C0.95 3.32, 3.29 -1.01, 10 0 M0 10 C1.2 1.27, 1.4 1.33, 10 0" stroke="#1e1e1e" stroke-width="2" fill="none"></path></g><g transform="translate(904.0168270128231 383.0436966073707) rotate(0 6.879997253417969 12.5)"><text x="6.879997253417969" y="0" font-family="Virgil, Segoe UI Emoji" font-size="20px" fill="#1e1e1e" text-anchor="middle" style="white-space: pre;" direction="ltr" dominant-baseline="text-before-edge">0</text></g><g stroke-linecap="round" transform="translate(846.8968242662411 372.5436966073707) rotate(0 20 23)"><path d="M10 0 C15.76 1.55, 20.6 -0.93, 30 0 M10 0 C16.78 -0.16, 21.74 0.51, 30 0 M30 0 C38.3 -1.91, 41.39 4.73, 40 10 M30 0 C38.79 -1.64, 41.23 3.56, 40 10 M40 10 C40.44 17.96, 41.76 24.9, 40 36 M40 10 C39.59 17.04, 41.04 22.5, 40 36 M40 36 C40.48 43.53, 36.21 45.89, 30 46 M40 36 C38.05 44.66, 34.71 43.77, 30 46 M30 46 C23.59 44.13, 19.13 45.28, 10 46 M30 46 C23.36 45.1, 17.55 46.79, 10 46 M10 46 C2.07 47.14, 1.44 43, 0 36 M10 46 C3.77 45.12, -2.24 42.88, 0 36 M0 36 C-0.18 30.44, 1.62 23.21, 0 10 M0 36 C-0.25 25.2, 0.39 15.7, 0 10 M0 10 C-0.04 2.32, 4.37 -1.79, 10 0 M0 10 C-1.93 4.67, 1.78 0.47, 10 0" stroke="#1e1e1e" stroke-width="2" fill="none"></path></g><g transform="translate(860.0168270128231 383.0436966073707) rotate(0 6.879997253417969 12.5)"><text x="6.879997253417969" y="0" font-family="Virgil, Segoe UI Emoji" font-size="20px" fill="#1e1e1e" text-anchor="middle" style="white-space: pre;" direction="ltr" dominant-baseline="text-before-edge">0</text></g><g stroke-linecap="round" transform="translate(207.39682426624108 511.5436966073707) rotate(0 144 45.5)"><path d="M22.75 0 C114.6 0.19, 205.7 2.11, 265.25 0 M22.75 0 C90.8 -1.56, 157.98 -1.34, 265.25 0 M265.25 0 C281.95 0.26, 286.33 5.75, 288 22.75 M265.25 0 C280.16 -0.98, 289.25 5.86, 288 22.75 M288 22.75 C286.28 35.1, 288.69 43.49, 288 68.25 M288 22.75 C287.52 34.39, 289.07 46.52, 288 68.25 M288 68.25 C287.64 81.91, 279.04 92.51, 265.25 91 M288 68.25 C287.85 83.26, 282.31 90.31, 265.25 91 M265.25 91 C170.13 90.85, 72.8 90.18, 22.75 91 M265.25 91 C192.4 90.91, 120.31 91.21, 22.75 91 M22.75 91 C9.22 92.79, -1.92 83.47, 0 68.25 M22.75 91 C8.93 90.64, -0.38 84.16, 0 68.25 M0 68.25 C-0.21 57.74, -1.75 48.32, 0 22.75 M0 68.25 C-0.38 54.77, 0.05 40.2, 0 22.75 M0 22.75 C-1.03 6.13, 9.24 -0.46, 22.75 0 M0 22.75 C2.24 6.31, 8.22 0.24, 22.75 0" stroke="#1e1e1e" stroke-width="2" fill="none"></path></g><g transform="translate(329.69684257678796 544.5436966073707) rotate(0 21.699981689453125 12.5)"><text x="21.699981689453125" y="0" font-family="Virgil, Segoe UI Emoji" font-size="20px" fill="#1e1e1e" text-anchor="middle" style="white-space: pre;" direction="ltr" dominant-baseline="text-before-edge">ROM</text></g><g stroke-linecap="round" transform="translate(654.5541453167973 512.5436966073707) rotate(0 143.5 45.5)"><path d="M0 0 C100.84 -0.53, 199.59 0.39, 287 0 M0 0 C77.31 1.91, 156.23 1.56, 287 0 M287 0 C286.23 37.9, 287.1 73.95, 287 91 M287 0 C286.87 19.6, 286.3 40.21, 287 91 M287 91 C210.13 92.26, 132.78 91.64, 0 91 M287 91 C194.19 89.85, 100.64 90.43, 0 91 M0 91 C0.7 60.69, -0.39 33.34, 0 0 M0 91 C1.4 70.78, 1.02 49.64, 0 0" stroke="#1e1e1e" stroke-width="2" fill="none"></path></g><g transform="translate(723.7342295453129 545.5436966073707) rotate(0 74.31991577148438 12.5)"><text x="74.31991577148438" y="0" font-family="Virgil, Segoe UI Emoji" font-size="20px" fill="#1e1e1e" text-anchor="middle" style="white-space: pre;" direction="ltr" dominant-baseline="text-before-edge">Processing Unit</text></g><g stroke-linecap="round" transform="translate(187.39682426624108 632.5436966073707) rotate(0 444 121.5)"><path d="M32 0 C273.91 -1.28, 515.32 -1.42, 856 0 M32 0 C280.04 0.18, 528.6 0.22, 856 0 M856 0 C876.49 0.52, 889.51 10.95, 888 32 M856 0 C875.9 0.05, 887.89 10.11, 888 32 M888 32 C887.22 69.07, 889.84 104.71, 888 211 M888 32 C887 86.44, 885.97 140.89, 888 211 M888 211 C888.11 233.62, 878.46 241.99, 856 243 M888 211 C886.55 231.1, 879.53 243.54, 856 243 M856 243 C529.29 245.63, 203.44 245.56, 32 243 M856 243 C537.99 240.45, 219.88 240.39, 32 243 M32 243 C10.58 241.01, 0.05 231.62, 0 211 M32 243 C9.41 242.05, 0.91 232.63, 0 211 M0 211 C-0.21 150.47, -0.35 93.06, 0 32 M0 211 C-1.9 172.8, -1.29 134.29, 0 32 M0 32 C0.57 8.75, 10.37 -1.97, 32 0 M0 32 C-0.16 11, 8.55 0.27, 32 0" stroke="#1e1e1e" stroke-width="2" fill="none"></path></g><g transform="translate(565.0769008653622 741.5436966073707) rotate(0 66.3199234008789 12.5)"><text x="66.3199234008789" y="0" font-family="Virgil, Segoe UI Emoji" font-size="20px" fill="#1e1e1e" text-anchor="middle" style="white-space: pre;" direction="ltr" dominant-baseline="text-before-edge">Storage Cells</text></g><g stroke-linecap="round"><g transform="translate(368.26602985410136 423.6739001995665) rotate(0 153.60216674386447 45.51175310929318)"><path d="M0 0 C-0.85 17.14, -0.89 32.95, 0 54.99 M0 0 C-0.31 19.22, -0.9 38.02, 0 54.99 M0 54.99 C92 53.27, 183.61 52.06, 305.31 53.1 M0 54.99 C101.16 55.95, 201.57 56.17, 305.31 53.1 M305.31 53.1 C307.3 63.32, 306.44 71.29, 307.2 91.02 M305.31 53.1 C306.11 63.07, 306.64 73.91, 307.2 91.02" stroke="#1e1e1e" stroke-width="2" fill="none"></path></g></g><mask></mask><g stroke-linecap="round"><g transform="translate(573.0689188459205 419.88125410712536) rotate(0 63.52682204838845 42.66726853996238)"><path d="M0 0 C0.61 12.98, -4.18 22.85, -3.79 36.03 M0 0 C-1.08 11.39, -3.52 24.21, -3.79 36.03 M-3.79 36.03 C26.77 36.39, 57.04 37.3, 130.85 39.82 M-3.79 36.03 C37.29 37.56, 77.85 39.73, 130.85 39.82 M130.85 39.82 C130.91 49.82, 128.19 59.57, 128.95 85.33 M130.85 39.82 C130.03 55.28, 129.64 71.71, 128.95 85.33" stroke="#1e1e1e" stroke-width="2" fill="none"></path></g></g><mask></mask><g stroke-linecap="round"><g transform="translate(688.744624665374 423.6739001995665) rotate(0 27.496684170198023 41.719107016852035)"><path d="M0 0 C0.48 8.97, 0.95 17.18, 1.9 24.65 M0 0 C0.3 9.11, 1.79 17.47, 1.9 24.65 M1.9 24.65 C14.8 25.28, 25.33 23.81, 54.99 24.65 M1.9 24.65 C15.34 25.26, 28.68 25.34, 54.99 24.65 M54.99 24.65 C55.21 45.24, 52.38 61.77, 51.2 83.44 M54.99 24.65 C54.97 42.09, 53.51 57.36, 51.2 83.44" stroke="#1e1e1e" stroke-width="2" fill="none"></path></g></g><mask></mask><g stroke-linecap="round"><g transform="translate(897.3401597496345 425.57022324578696) rotate(0 0 41.71910701685209)"><path d="M0 0 C-0.08 22.8, -2.18 40.02, 0 83.44 M0 0 C-0.49 28.2, -0.48 54.99, 0 83.44" stroke="#1e1e1e" stroke-width="2" fill="none"></path></g></g><mask></mask><g stroke-linecap="round"><g transform="translate(493.4233509046576 560.209159527446) rotate(0 82.49005251059384 0.9481615231102296)"><path d="M0 0 C62.16 0.99, 120.82 -0.51, 164.98 1.9" stroke="#1e1e1e" stroke-width="2.5" fill="none" stroke-dasharray="8 10"></path></g></g><mask></mask><g stroke-linecap="round"><g transform="translate(798.7313613461658 607.6172356829597) rotate(0 0 13.27426132354384)"><path d="M0 0 C-0.49 5.67, 0.26 10.72, 0 26.55" stroke="#1e1e1e" stroke-width="2.5" fill="none" stroke-dasharray="8 10"></path></g></g><mask></mask><g stroke-linecap="round" transform="translate(236.25 10) rotate(0 103.75 31.25)"><path d="M15.63 0 C60.54 -0.5, 105.66 -1.15, 191.88 0 M15.63 0 C82.54 -0.24, 149.99 -0.34, 191.88 0 M191.88 0 C202.76 0.71, 206.12 5.46, 207.5 15.63 M191.88 0 C200.92 2.21, 206.22 3.82, 207.5 15.63 M207.5 15.63 C208.75 22.64, 205.49 29.92, 207.5 46.88 M207.5 15.63 C207.61 23.01, 206.97 31.6, 207.5 46.88 M207.5 46.88 C207.51 55.58, 201.6 63.14, 191.88 62.5 M207.5 46.88 C207.88 57.29, 200.58 64.7, 191.88 62.5 M191.88 62.5 C134.73 63.21, 79.44 59.35, 15.63 62.5 M191.88 62.5 C135.4 61.84, 79.14 62.7, 15.63 62.5 M15.63 62.5 C4.03 63.82, -0.02 58.68, 0 46.88 M15.63 62.5 C5.45 62.89, -2.05 57.93, 0 46.88 M0 46.88 C0.61 38.39, 1.21 23.99, 0 15.63 M0 46.88 C0.96 38.71, 0.82 28.56, 0 15.63 M0 15.63 C-1.9 5.29, 7.05 -1.71, 15.63 0 M0 15.63 C1.88 5.62, 6.34 2.18, 15.63 0" stroke="#1e1e1e" stroke-width="2" fill="none"></path></g><g transform="translate(311.99002838134766 28.75) rotate(0 28.009971618652344 12.5)"><text x="28.009971618652344" y="0" font-family="Virgil, Segoe UI Emoji" font-size="20px" fill="#1e1e1e" text-anchor="middle" style="white-space: pre;" direction="ltr" dominant-baseline="text-before-edge">Power</text></g><g mask="url(#mask-IYWQL32_xvYIfHX_8sonb)" stroke-linecap="round"><g transform="translate(446.25 36.25) rotate(0 106.25 168.75)"><path d="M0.75 -0.69 C32.12 -0.38, 152.03 -6, 187.33 1.81 C222.63 9.62, 235 30.67, 212.56 46.19 C190.13 61.71, 81.73 46.59, 52.74 94.95 C23.74 143.3, 41.02 296.09, 38.57 336.33 M-0.31 1.56 C31.06 2.02, 151.59 -4.67, 186.95 2.99 C222.3 10.64, 234.14 31.97, 211.83 47.48 C189.52 62.98, 82.13 47.92, 53.11 96.02 C24.08 144.12, 40.5 295.7, 37.67 336.1" stroke="#1e1e1e" stroke-width="2" fill="none"></path></g><g transform="translate(446.25 36.25) rotate(0 106.25 168.75)"><path d="M0.59 -15.69 C-0.24 -10.93, -0.2 -8.79, 0.75 -0.69 M0.59 -15.69 C1.34 -12, 1.08 -7.54, 0.75 -0.69" stroke="#1e1e1e" stroke-width="2" fill="none"></path></g><g transform="translate(446.25 36.25) rotate(0 106.25 168.75)"><path d="M0.91 14.31 C0.02 12.24, -0.02 7.56, 0.75 -0.69 M0.91 14.31 C1.5 9.15, 1.15 4.75, 0.75 -0.69" stroke="#1e1e1e" stroke-width="2" fill="none"></path></g></g><mask id="mask-IYWQL32_xvYIfHX_8sonb"><rect x="0" y="0" fill="#fff" width="758.75" height="473.75"></rect><rect x="620.180046081543" y="70" fill="#000" width="77.13990783691406" height="25" opacity="1"></rect></mask><g transform="translate(620.180046081543 70) rotate(0 -62.16566355589504 133.23322113980842)"><text x="38.56995391845703" y="0" font-family="Virgil, Segoe UI Emoji" font-size="20px" fill="#1e1e1e" text-anchor="middle" style="white-space: pre;" direction="ltr" dominant-baseline="text-before-edge">live wire</text></g><g transform="translate(10 328.75) rotate(0 179.1098175048828 12.5)"><text x="0" y="0" font-family="Virgil, Segoe UI Emoji" font-size="20px" fill="#1e1e1e" text-anchor="start" style="white-space: pre;" direction="ltr" dominant-baseline="text-before-edge">Address register = 0000101 = 0x05</text></g><g stroke-linecap="round"><g transform="translate(515 116.25) rotate(0 -56.25 128.125)"><path d="M-0.05 -0.07 C-15.61 11.78, -74.62 27.52, -93.49 70.21 C-112.37 112.89, -110.32 224.83, -113.31 256.03 M-1.54 -1.16 C-17.21 10.4, -76.09 25.13, -94.3 68.19 C-112.52 111.25, -107.51 226.01, -110.84 257.23" stroke="#1e1e1e" stroke-width="2" fill="none"></path></g></g><mask></mask><g stroke-linecap="round"><g transform="translate(677.5 97.5) rotate(0 0 136.25)"><path d="M-0.68 0.95 C-0.49 46.41, 0.58 228.33, 0.52 273.55 M1.17 0.41 C1.3 45.48, -0.17 226.46, -0.15 271.99" stroke="#1e1e1e" stroke-width="2" fill="none"></path></g></g><mask></mask><g transform="translate(606.25 237.5) rotate(0 92.18988037109375 12.5)"><text x="0" y="0" font-family="Virgil, Segoe UI Emoji" font-size="20px" fill="#1e1e1e" text-anchor="start" style="white-space: pre;" direction="ltr" dominant-baseline="text-before-edge">write == 1 == true</text></g><g stroke-linecap="round"><g transform="translate(716.25 81.25) rotate(0 168.75 147.5)"><path d="M0 -0.14 C40.66 1.25, 186.91 -17.76, 243.06 8.96 C299.2 35.68, 321.26 112.44, 336.85 160.18 C352.43 207.91, 336.76 272.7, 336.57 295.36 M-1.46 -1.25 C39.67 -0.31, 189.2 -20.09, 245.4 6.94 C301.6 33.97, 320.48 112.65, 335.74 160.93 C351 209.22, 336.68 274.57, 336.99 296.65" stroke="#1e1e1e" stroke-width="2" fill="none"></path></g></g><mask></mask><g transform="translate(843.75 335) rotate(0 88.4898910522461 12.5)"><text x="0" y="0" font-family="Virgil, Segoe UI Emoji" font-size="20px" fill="#1e1e1e" text-anchor="start" style="white-space: pre;" direction="ltr" dominant-baseline="text-before-edge">Data register = 1</text></g></svg>