<svg version="1.1" xmlns="http://www.w3.org/2000/svg" viewBox="0 0 903 186" width="903" height="186" filter="invert(93%) hue-rotate(180deg)">
  <!-- svg-source:excalidraw -->
  
  <defs>
    <style class="style-fonts">
      @font-face {
        font-family: "Virgil";
        src: url("https://file%2B.vscode-resource.vscode-cdn.net/home/kiarie404/.vscode/extensions/pomdtr.excalidraw-editor-3.7.4/public//dist/excalidraw-assets/Virgil.woff2");
      }
      @font-face {
        font-family: "Cascadia";
        src: url("https://file%2B.vscode-resource.vscode-cdn.net/home/kiarie404/.vscode/extensions/pomdtr.excalidraw-editor-3.7.4/public//dist/excalidraw-assets/Cascadia.woff2");
      }
      @font-face {
        font-family: "Assistant";
        src: url("https://file%2B.vscode-resource.vscode-cdn.net/home/kiarie404/.vscode/extensions/pomdtr.excalidraw-editor-3.7.4/public//dist/excalidraw-assets/Assistant-Regular.woff2");
      }
    </style>
    
  </defs>
  <rect x="0" y="0" width="903" height="186" fill="#ffffff"></rect><g stroke-linecap="round" transform="translate(10 88) rotate(0 92.49999999999997 21)"><path d="M10.5 0 C60.71 -0.29, 112.09 -3.01, 174.5 0 M10.5 0 C64.79 -1.5, 121.06 -1.53, 174.5 0 M174.5 0 C182.18 -1.57, 185.52 1.99, 185 10.5 M174.5 0 C181.11 -1.88, 187.07 1.52, 185 10.5 M185 10.5 C185.7 17.37, 186.62 21.94, 185 31.5 M185 10.5 C184.66 18.07, 184.57 25.03, 185 31.5 M185 31.5 C185.11 40.12, 182.46 42.27, 174.5 42 M185 31.5 C182.75 39.83, 183.27 42.98, 174.5 42 M174.5 42 C131.99 42.29, 90.07 42.52, 10.5 42 M174.5 42 C122.02 44.01, 69.28 44.16, 10.5 42 M10.5 42 C4.27 40.58, -0.38 39.58, 0 31.5 M10.5 42 C2.19 41.16, -0.99 39.81, 0 31.5 M0 31.5 C-1.14 26.69, -1.19 18.03, 0 10.5 M0 31.5 C-0.79 25.94, 0.85 19.85, 0 10.5 M0 10.5 C1.99 2.6, 1.65 -1.53, 10.5 0 M0 10.5 C-0.65 5.46, 2.2 1.44, 10.5 0" stroke="#1e1e1e" stroke-width="2" fill="none"></path></g><g transform="translate(57.820045471191406 96.5) rotate(0 44.679954528808594 12.5)"><text x="44.679954528808594" y="0" font-family="Virgil, Segoe UI Emoji" font-size="20px" fill="#1e1e1e" text-anchor="middle" style="white-space: pre;" direction="ltr" dominant-baseline="text-before-edge">Init code</text></g><g stroke-linecap="round" transform="translate(328 10) rotate(0 81 23.5)"><path d="M11.75 0 C49.46 -0.92, 91.08 -1.67, 150.25 0 M11.75 0 C48.48 0.11, 85.59 -1.26, 150.25 0 M150.25 0 C160.07 -1, 162.12 3.45, 162 11.75 M150.25 0 C158.18 -0.06, 160.2 4.49, 162 11.75 M162 11.75 C161.1 18.98, 160.46 29.34, 162 35.25 M162 11.75 C162.2 21.75, 162.71 28.98, 162 35.25 M162 35.25 C160.88 41.53, 156.77 48.61, 150.25 47 M162 35.25 C162.62 44.71, 156.05 46.66, 150.25 47 M150.25 47 C111.98 44.79, 74.12 46.09, 11.75 47 M150.25 47 C118.32 46.22, 84.41 45.62, 11.75 47 M11.75 47 C2.85 45.8, 0.84 43.37, 0 35.25 M11.75 47 C2.17 46.96, -1.3 43.46, 0 35.25 M0 35.25 C-0.81 27.22, 1.2 21.18, 0 11.75 M0 35.25 C-0.35 28.36, 1 20.18, 0 11.75 M0 11.75 C-1.03 4.9, 2.37 -0.49, 11.75 0 M0 11.75 C-2.07 1.91, 4.32 1.61, 11.75 0" stroke="#1e1e1e" stroke-width="2" fill="none"></path></g><g transform="translate(340.3600769042969 21) rotate(0 68.63992309570312 12.5)"><text x="68.63992309570312" y="0" font-family="Virgil, Segoe UI Emoji" font-size="20px" fill="#1e1e1e" text-anchor="middle" style="white-space: pre;" direction="ltr" dominant-baseline="text-before-edge">fn main() code</text></g><g stroke-linecap="round" transform="translate(648 52) rotate(0 122.5 62)"><path d="M31 0 C93.51 0.26, 156.42 2.04, 214 0 M31 0 C74.33 1.4, 118.66 0.97, 214 0 M214 0 C233.15 1.02, 243.95 11.11, 245 31 M214 0 C236.56 -1.17, 243.82 11.46, 245 31 M245 31 C243.1 45.15, 246.25 57.09, 245 93 M245 31 C245.2 53.29, 245.06 75.54, 245 93 M245 93 C245.02 112.63, 234.09 122.33, 214 124 M245 93 C246.58 114.94, 234.55 123.85, 214 124 M214 124 C159.3 121.15, 106.22 122.85, 31 124 M214 124 C153.28 124.75, 89.91 124.46, 31 124 M31 124 C8.97 123.74, -0.76 115.65, 0 93 M31 124 C10.74 123.15, 1.79 111.85, 0 93 M0 93 C0.65 76.6, -0.15 60.84, 0 31 M0 93 C0.51 76.95, 0.48 62.03, 0 31 M0 31 C-1.42 8.96, 9.47 -1.34, 31 0 M0 31 C1.25 9.98, 9.79 -0.12, 31 0" stroke="#1e1e1e" stroke-width="2" fill="none"></path></g><g transform="translate(656.6901321411133 76.5) rotate(0 113.80986785888672 37.5)"><text x="113.80986785888672" y="0" font-family="Virgil, Segoe UI Emoji" font-size="20px" fill="#1e1e1e" text-anchor="middle" style="white-space: pre;" direction="ltr" dominant-baseline="text-before-edge">Other code that gets </text><text x="113.80986785888672" y="25" font-family="Virgil, Segoe UI Emoji" font-size="20px" fill="#1e1e1e" text-anchor="middle" style="white-space: pre;" direction="ltr" dominant-baseline="text-before-edge">called by the main </text><text x="113.80986785888672" y="50" font-family="Virgil, Segoe UI Emoji" font-size="20px" fill="#1e1e1e" text-anchor="middle" style="white-space: pre;" direction="ltr" dominant-baseline="text-before-edge">function </text></g><g stroke-linecap="round"><g transform="translate(494.0000000000001 50.986901566414815) rotate(0 76.49999999999994 13.948626429837503)"><path d="M-0.13 -0.1 C25.23 4.33, 127.19 22.31, 152.56 27.14 M-1.66 -1.19 C23.47 3.33, 125.35 23.57, 151.38 28.29" stroke="#1e1e1e" stroke-width="2" fill="none"></path></g><g transform="translate(494.0000000000001 50.986901566414815) rotate(0 76.49999999999994 13.948626429837503)"><path d="M121.77 33.08 C131.46 30.79, 140.24 28.46, 151.38 28.29 M121.77 33.08 C132.8 31.5, 145.12 29.94, 151.38 28.29" stroke="#1e1e1e" stroke-width="2" fill="none"></path></g><g transform="translate(494.0000000000001 50.986901566414815) rotate(0 76.49999999999994 13.948626429837503)"><path d="M125.62 12.93 C134.12 17.35, 141.62 21.74, 151.38 28.29 M125.62 12.93 C135.15 19.05, 145.99 25.22, 151.38 28.29" stroke="#1e1e1e" stroke-width="2" fill="none"></path></g></g><mask></mask><g stroke-linecap="round"><g transform="translate(194 95) rotate(0 66.5 -32.5)"><path d="M0.9 -0.93 C22.74 -11.72, 109.93 -53.42, 132.14 -63.9 M-0.08 1.19 C22.03 -9.97, 112.05 -54.32, 134.4 -65.44" stroke="#1e1e1e" stroke-width="2" fill="none"></path></g><g transform="translate(194 95) rotate(0 66.5 -32.5)"><path d="M113.69 -43.74 C120.11 -53.84, 131.63 -58.96, 134.4 -65.44 M113.69 -43.74 C122.32 -52.45, 130.78 -61.57, 134.4 -65.44" stroke="#1e1e1e" stroke-width="2" fill="none"></path></g><g transform="translate(194 95) rotate(0 66.5 -32.5)"><path d="M104.58 -62.13 C114.7 -65.08, 129.79 -62.99, 134.4 -65.44 M104.58 -62.13 C116.76 -63.51, 128.86 -65.28, 134.4 -65.44" stroke="#1e1e1e" stroke-width="2" fill="none"></path></g></g><mask></mask></svg>