<svg version="1.1" xmlns="http://www.w3.org/2000/svg" viewBox="0 0 1197.5243152436756 578.9999999999999" width="1197.5243152436756" height="578.9999999999999" filter="invert(93%) hue-rotate(180deg)">
  <!-- svg-source:excalidraw -->
  
  <defs>
    <style class="style-fonts">
      @font-face {
        font-family: "Virgil";
        src: url("https://file%2B.vscode-resource.vscode-cdn.net/home/kiarie404/.vscode/extensions/pomdtr.excalidraw-editor-3.7.4/public//dist/excalidraw-assets/Virgil.woff2");
      }
      @font-face {
        font-family: "Cascadia";
        src: url("https://file%2B.vscode-resource.vscode-cdn.net/home/kiarie404/.vscode/extensions/pomdtr.excalidraw-editor-3.7.4/public//dist/excalidraw-assets/Cascadia.woff2");
      }
      @font-face {
        font-family: "Assistant";
        src: url("https://file%2B.vscode-resource.vscode-cdn.net/home/kiarie404/.vscode/extensions/pomdtr.excalidraw-editor-3.7.4/public//dist/excalidraw-assets/Assistant-Regular.woff2");
      }
    </style>
    
  </defs>
  <rect x="0" y="0" width="1197.5243152436756" height="578.9999999999999" fill="#ffffff"></rect><g stroke-linecap="round" transform="translate(244.49999999999994 288.8948412698411) rotate(0 79.5 18.5)"><path d="M9.25 0 C60.2 -1.02, 113.95 -2.19, 149.75 0 M9.25 0 C41.5 0.99, 76.16 1.31, 149.75 0 M149.75 0 C155.7 -0.98, 160.18 4.93, 159 9.25 M149.75 0 C155.01 0.14, 160.42 3.84, 159 9.25 M159 9.25 C157.28 15.43, 159.75 22.57, 159 27.75 M159 9.25 C158.53 16.79, 159.26 23.12, 159 27.75 M159 27.75 C159.55 34.2, 154.88 36.68, 149.75 37 M159 27.75 C160.79 34.2, 154.25 36.33, 149.75 37 M149.75 37 C119.55 39.06, 83.99 38.76, 9.25 37 M149.75 37 C107.29 37.61, 65.25 37.93, 9.25 37 M9.25 37 C3.8 38.69, 1.14 34.3, 0 27.75 M9.25 37 C4.99 37.87, -0.52 35.83, 0 27.75 M0 27.75 C1.05 21.51, -0.08 15.17, 0 9.25 M0 27.75 C0.96 21.61, 0.38 16.02, 0 9.25 M0 9.25 C-1.55 1.62, 1.32 -1.4, 9.25 0 M0 9.25 C-1.74 3.74, 5.01 1.77, 9.25 0" stroke="#1e1e1e" stroke-width="2" fill="none"></path></g><g transform="translate(276.68005371093744 294.8948412698411) rotate(0 47.3199462890625 12.5)"><text x="47.3199462890625" y="0" font-family="Virgil, Segoe UI Emoji" font-size="20px" fill="#1e1e1e" text-anchor="middle" style="white-space: pre;" direction="ltr" dominant-baseline="text-before-edge">C-Runtime</text></g><g stroke-linecap="round" transform="translate(491.49999999999994 285.8948412698411) rotate(0 92 20.5)"><path d="M10.25 0 C51.52 -0.12, 96.42 -1.71, 173.75 0 M10.25 0 C55.97 -0.5, 102.41 0.61, 173.75 0 M173.75 0 C180.77 1.69, 185.93 1.44, 184 10.25 M173.75 0 C182.46 0.03, 182.05 4.99, 184 10.25 M184 10.25 C183.87 16.9, 185.61 23.24, 184 30.75 M184 10.25 C183.94 17.63, 184.66 23.04, 184 30.75 M184 30.75 C182.83 38.66, 180.82 40.86, 173.75 41 M184 30.75 C184.43 37.94, 178.41 42.96, 173.75 41 M173.75 41 C110.77 39.8, 46.61 39.6, 10.25 41 M173.75 41 C136.98 42.23, 98.43 41.71, 10.25 41 M10.25 41 C1.47 42.62, 0.53 37.24, 0 30.75 M10.25 41 C5.56 40.02, 1.12 37.36, 0 30.75 M0 30.75 C1.02 25.28, 0.5 17.99, 0 10.25 M0 30.75 C-0.99 24.21, -0.35 18.59, 0 10.25 M0 10.25 C1.48 4.04, 3.21 1.08, 10.25 0 M0 10.25 C0.61 2.85, 4.39 0.97, 10.25 0" stroke="#1e1e1e" stroke-width="2" fill="none"></path></g><g transform="translate(518.1900787353516 293.8948412698411) rotate(0 65.30992126464844 12.5)"><text x="65.30992126464844" y="0" font-family="Virgil, Segoe UI Emoji" font-size="20px" fill="#1e1e1e" text-anchor="middle" style="white-space: pre;" direction="ltr" dominant-baseline="text-before-edge">Rust Runtime</text></g><g stroke-linecap="round" transform="translate(759.5 281.8948412698411) rotate(0 104 23)"><path d="M11.5 0 C53.48 -0.64, 93.58 -3.31, 196.5 0 M11.5 0 C66.52 0.16, 121.19 0.6, 196.5 0 M196.5 0 C202.98 1.11, 209.29 3, 208 11.5 M196.5 0 C205.52 -2.25, 207.73 3.72, 208 11.5 M208 11.5 C206.62 17.43, 209.45 19, 208 34.5 M208 11.5 C207.44 17.9, 208.52 23.93, 208 34.5 M208 34.5 C209.3 41.78, 203.8 46.49, 196.5 46 M208 34.5 C208.95 43.44, 204.55 45.92, 196.5 46 M196.5 46 C143.26 45.7, 85.86 48.86, 11.5 46 M196.5 46 C132.7 47, 68.49 46.8, 11.5 46 M11.5 46 C5.17 45.27, 1.57 43.85, 0 34.5 M11.5 46 C4.88 43.81, -0.94 42.27, 0 34.5 M0 34.5 C-1.18 29.8, -1.23 21.13, 0 11.5 M0 34.5 C0.07 28.8, 0.4 22.04, 0 11.5 M0 11.5 C0.67 3.97, 1.87 -1.69, 11.5 0 M0 11.5 C-0.43 2.73, 5.91 2.11, 11.5 0" stroke="#1e1e1e" stroke-width="2" fill="none"></path></g><g transform="translate(799.0300674438477 292.3948412698411) rotate(0 64.46993255615234 12.5)"><text x="64.46993255615234" y="0" font-family="Virgil, Segoe UI Emoji" font-size="20px" fill="#1e1e1e" text-anchor="middle" style="white-space: pre;" direction="ltr" dominant-baseline="text-before-edge">Main function</text></g><g stroke-linecap="round"><g transform="translate(401.49999999999994 306.8948412698411) rotate(0 45.5 0.5)"><path d="M0.39 0.68 C15.35 0.59, 75.2 0.52, 90.21 0.4 M-0.86 -0.01 C14.43 -0.02, 77.47 1.51, 92.5 1.63" stroke="#1e1e1e" stroke-width="2" fill="none"></path></g><g transform="translate(401.49999999999994 306.8948412698411) rotate(0 45.5 0.5)"><path d="M64.14 11.4 C74.87 6.66, 82.4 3.69, 92.5 1.63 M64.14 11.4 C70.62 8.82, 75.48 7.99, 92.5 1.63" stroke="#1e1e1e" stroke-width="2" fill="none"></path></g><g transform="translate(401.49999999999994 306.8948412698411) rotate(0 45.5 0.5)"><path d="M64.49 -9.11 C75.26 -6.87, 82.67 -2.84, 92.5 1.63 M64.49 -9.11 C71.1 -7.33, 75.89 -3.81, 92.5 1.63" stroke="#1e1e1e" stroke-width="2" fill="none"></path></g></g><mask></mask><g stroke-linecap="round"><g transform="translate(677.5 304.8948412698411) rotate(0 42 -0.5)"><path d="M0.51 0.68 C14.25 0.28, 69.76 -1.26, 83.57 -1.4 M-0.68 -0.01 C12.76 0.28, 68.56 0.27, 82.4 -0.07" stroke="#1e1e1e" stroke-width="2" fill="none"></path></g><g transform="translate(677.5 304.8948412698411) rotate(0 42 -0.5)"><path d="M54.31 10.48 C66.44 5.48, 75.73 1.02, 82.4 -0.07 M54.31 10.48 C64.88 7.12, 74.07 2.26, 82.4 -0.07" stroke="#1e1e1e" stroke-width="2" fill="none"></path></g><g transform="translate(677.5 304.8948412698411) rotate(0 42 -0.5)"><path d="M54.1 -10.04 C66.49 -6.94, 75.86 -3.3, 82.4 -0.07 M54.1 -10.04 C64.92 -5.79, 74.19 -3.03, 82.4 -0.07" stroke="#1e1e1e" stroke-width="2" fill="none"></path></g></g><mask></mask><g stroke-linecap="round" transform="translate(233.49999999999994 207.8948412698411) rotate(0 226 65.5)"><path d="M32 0 C140.46 0.88, 248.79 1.17, 420 0 M32 0 C180.84 0.89, 328.89 0.19, 420 0 M420 0 C440.91 1.66, 453.38 10.73, 452 32 M420 0 C441.79 0.21, 450.83 12.09, 452 32 M452 32 C451.9 54.05, 452.57 79.53, 452 99 M452 32 C452.43 55.32, 453.02 80.02, 452 99 M452 99 C453.57 121.79, 441.93 132.73, 420 131 M452 99 C450.04 122.61, 439.56 129.25, 420 131 M420 131 C285.74 130.65, 150.59 129.81, 32 131 M420 131 C274.6 130, 128.43 129.74, 32 131 M32 131 C12.26 130.91, -1.11 119.19, 0 99 M32 131 C9.38 130.61, 1.11 120.83, 0 99 M0 99 C1.56 74.3, 1.31 50.66, 0 32 M0 99 C-0.21 76.7, 0.57 56.42, 0 32 M0 32 C0.73 8.74, 10.45 -1.19, 32 0 M0 32 C-2.1 12.74, 9.62 2.12, 32 0" stroke="#1e1e1e" stroke-width="2" fill="none"></path></g><g transform="translate(379.49999999999994 225.8948412698411) rotate(0 41.419952392578125 12.5)"><text x="0" y="0" font-family="Virgil, Segoe UI Emoji" font-size="20px" fill="#1e1e1e" text-anchor="start" style="white-space: pre;" direction="ltr" dominant-baseline="text-before-edge">init code</text></g><g stroke-linecap="round" transform="translate(693.5 206.8948412698411) rotate(0 154.5 70.5)"><path d="M32 0 C96.13 1.35, 159.38 -0.65, 277 0 M32 0 C114.6 -1.24, 196.89 -0.46, 277 0 M277 0 C299.71 0.01, 309.95 11.2, 309 32 M277 0 C296.58 0.53, 308.47 12.45, 309 32 M309 32 C308.97 52.45, 308.42 77.37, 309 109 M309 32 C309.31 56.19, 309.34 81.28, 309 109 M309 109 C307.28 129.12, 297.97 140.76, 277 141 M309 109 C308.4 128.7, 296.42 141.62, 277 141 M277 141 C187.17 139.77, 99.38 140.46, 32 141 M277 141 C189.54 140.52, 101.54 141.87, 32 141 M32 141 C10.84 139.63, 0.71 130.6, 0 109 M32 141 C9.92 142.48, 1.96 129.59, 0 109 M0 109 C1.69 92, -1.99 73.99, 0 32 M0 109 C0.25 86.79, -0.83 63.77, 0 32 M0 32 C-0.4 9.09, 11.34 1.71, 32 0 M0 32 C0.64 10.63, 8.58 -2.28, 32 0" stroke="#1e1e1e" stroke-width="2" fill="none"></path></g><g transform="translate(795.5 229.8948412698411) rotate(0 56.85993957519531 12.5)"><text x="0" y="0" font-family="Virgil, Segoe UI Emoji" font-size="20px" fill="#1e1e1e" text-anchor="start" style="white-space: pre;" direction="ltr" dominant-baseline="text-before-edge">normal code</text></g><g stroke-linecap="round"><g transform="translate(239.74999999999994 302.20039682539664) rotate(0 -58.52001356850896 -31.413834783836407)"><path d="M-0.8 -0.69 C-8.64 -7.97, -26.77 -33.61, -46.19 -44.03 C-65.61 -54.45, -105.7 -60.05, -117.31 -63.2" stroke="#1e1e1e" stroke-width="2.5" fill="none" stroke-dasharray="8 10"></path></g><g transform="translate(239.74999999999994 302.20039682539664) rotate(0 -58.52001356850896 -31.413834783836407)"><path d="M-27.49 -14.39 C-18.79 -11.13, -6.16 -4.52, -0.8 -0.69" stroke="#1e1e1e" stroke-width="2.5" fill="none"></path></g><g transform="translate(239.74999999999994 302.20039682539664) rotate(0 -58.52001356850896 -31.413834783836407)"><path d="M-12.43 -28.34 C-9.34 -20.01, -2.28 -8.24, -0.8 -0.69" stroke="#1e1e1e" stroke-width="2.5" fill="none"></path></g></g><mask></mask><g transform="translate(10 210.86706349206332) rotate(0 55.709938049316406 12.5)"><text x="0" y="0" font-family="Virgil, Segoe UI Emoji" font-size="20px" fill="#1e1e1e" text-anchor="start" style="white-space: pre;" direction="ltr" dominant-baseline="text-before-edge">Entry Point</text></g><g transform="translate(229.0237717183395 41.954904471904214) rotate(178.73309032035561 410.91725435039996 68.2592592749753)" stroke="none"><path fill="#1e1e1e" d="M 2.46,-0.19 Q 2.46,-0.19 2.67,1.60 2.89,3.41 3.06,4.51 3.24,5.62 3.55,6.81 3.87,7.99 4.19,10.05 4.52,12.10 4.55,13.46 4.58,14.82 5.21,16.99 5.84,19.16 6.79,20.77 7.74,22.39 8.33,23.31 8.93,24.23 10.09,25.33 11.25,26.43 12.04,27.27 12.84,28.11 13.73,29.08 14.62,30.04 15.56,31.06 16.49,32.09 18.05,33.71 19.61,35.34 21.36,37.24 23.10,39.15 23.99,39.81 24.88,40.48 25.80,41.05 26.72,41.61 27.84,42.26 28.97,42.91 30.28,43.74 31.60,44.57 32.48,45.23 33.37,45.90 35.03,46.84 36.69,47.79 37.65,48.30 38.60,48.81 40.10,49.72 41.59,50.62 42.68,51.34 43.76,52.05 45.16,52.94 46.57,53.83 47.93,54.92 49.30,56.02 50.46,56.62 51.62,57.22 54.33,58.25 57.04,59.29 58.74,59.93 60.43,60.58 63.32,61.22 66.21,61.85 68.41,62.49 70.60,63.12 72.81,63.39 75.02,63.66 76.48,64.01 77.95,64.35 79.72,64.52 81.50,64.68 83.71,64.81 85.93,64.94 88.94,65.32 91.96,65.70 94.31,65.87 96.67,66.04 98.80,66.12 100.94,66.20 103.83,66.25 106.73,66.29 109.96,66.31 113.19,66.34 116.34,66.65 119.49,66.97 124.17,67.10 128.85,67.23 132.00,67.29 135.14,67.35 139.04,67.38 142.94,67.41 146.30,67.42 149.67,67.43 152.53,67.44 155.38,67.44 157.74,67.45 160.09,67.45 162.51,67.45 164.94,67.45 169.68,67.46 174.41,67.46 178.95,67.16 183.48,66.86 186.87,66.74 190.26,66.61 193.13,66.55 196.00,66.50 198.65,66.48 201.29,66.45 204.64,66.15 207.99,65.84 211.46,65.71 214.94,65.58 219.27,65.52 223.60,65.46 227.72,65.44 231.83,65.42 236.15,65.41 240.46,65.40 245.43,65.39 250.40,65.39 254.22,65.39 258.05,65.38 266.77,65.09 275.50,64.79 282.08,64.66 288.66,64.53 294.31,64.48 299.95,64.42 304.35,64.40 308.75,64.38 312.32,64.37 315.90,64.36 318.56,64.35 321.23,64.35 323.50,64.35 325.77,64.35 328.24,64.65 330.71,64.95 333.95,65.07 337.19,65.20 340.00,65.25 342.82,65.30 344.31,65.22 345.79,65.13 347.44,65.37 349.08,65.62 350.43,65.99 351.77,66.37 353.16,66.80 354.54,67.23 355.61,67.74 356.68,68.25 358.49,69.26 360.29,70.26 361.42,71.04 362.54,71.83 363.87,72.81 365.20,73.78 366.01,74.63 366.83,75.49 368.37,76.69 369.92,77.89 370.82,78.50 371.72,79.11 372.99,80.04 374.26,80.97 375.48,82.05 376.69,83.12 377.52,83.85 378.34,84.57 379.15,85.66 379.97,86.76 380.59,87.83 381.21,88.90 381.79,90.38 382.37,91.86 382.67,93.24 382.97,94.62 383.27,96.28 383.57,97.94 383.77,99.38 383.96,100.81 384.02,102.36 384.09,103.91 384.10,105.46 384.12,107.01 383.98,109.17 383.84,111.32 383.86,112.83 383.88,114.34 384.00,116.28 384.12,118.22 384.03,120.13 383.94,122.05 383.91,123.76 383.88,125.48 383.92,126.80 383.96,128.12 383.97,129.58 383.99,131.04 383.99,132.56 383.99,134.08 384.29,135.24 384.59,136.41 384.94,137.91 385.28,139.41 385.34,139.94 385.40,140.47 385.39,140.80 385.38,141.14 385.29,141.46 385.20,141.79 385.04,142.08 384.87,142.37 384.64,142.62 384.42,142.86 384.13,143.04 383.85,143.23 383.53,143.34 383.22,143.45 382.88,143.48 382.55,143.51 382.22,143.46 381.88,143.41 381.57,143.28 381.26,143.16 380.99,142.96 380.72,142.76 380.51,142.50 380.29,142.24 380.14,141.94 379.99,141.64 379.92,141.31 379.85,140.98 380.21,139.45 380.56,137.91 380.68,136.63 380.80,135.34 381.03,132.95 381.25,130.56 381.24,129.22 381.24,127.88 381.30,126.13 381.36,124.37 381.33,123.02 381.31,121.68 381.20,120.14 381.10,118.60 381.36,116.37 381.63,114.14 381.74,112.00 381.85,109.85 381.88,107.45 381.90,105.05 382.30,103.09 382.70,101.12 382.85,99.58 383.00,98.05 383.75,95.47 384.50,92.89 385.75,91.25 387.01,89.61 388.13,88.25 389.25,86.90 390.70,85.64 392.16,84.37 393.76,83.46 395.36,82.54 397.16,81.66 398.97,80.79 401.44,80.39 403.91,79.99 405.95,79.60 407.98,79.21 410.11,79.03 412.23,78.84 413.98,78.71 415.73,78.59 417.91,78.61 420.09,78.63 422.04,78.36 424.00,78.08 426.37,77.97 428.74,77.87 430.88,77.83 433.02,77.80 435.93,77.79 438.84,77.79 442.30,77.50 445.75,77.20 448.99,77.08 452.22,76.96 454.45,76.91 456.67,76.86 459.91,76.84 463.14,76.82 467.08,76.81 471.02,76.81 474.69,76.81 478.35,76.80 482.19,76.80 486.03,76.80 492.79,76.81 499.56,76.81 503.86,76.81 508.15,76.81 512.83,76.81 517.51,76.81 522.35,76.81 527.18,76.81 531.00,77.11 534.82,77.41 538.67,77.54 542.52,77.66 546.82,78.32 551.11,78.98 553.72,79.25 556.34,79.53 560.31,79.94 564.29,80.36 569.07,80.53 573.85,80.71 581.29,80.78 588.74,80.86 594.48,80.89 600.21,80.92 605.50,80.94 610.79,80.95 616.74,80.95 622.69,80.96 627.22,80.96 631.74,80.97 638.51,80.97 645.28,80.97 650.72,80.97 656.16,80.97 663.60,80.97 671.05,80.97 679.34,80.97 687.63,80.97 692.87,80.97 698.10,80.97 703.18,80.97 708.25,80.97 712.69,80.97 717.13,80.97 720.72,80.97 724.32,80.97 727.84,80.97 731.36,80.97 735.33,80.38 739.30,79.79 743.31,79.23 747.32,78.68 751.07,78.44 754.81,78.20 759.13,77.22 763.45,76.24 767.01,75.23 770.56,74.22 773.53,73.48 776.50,72.74 779.63,71.27 782.77,69.81 785.58,68.57 788.40,67.32 790.07,66.24 791.74,65.16 793.03,64.28 794.31,63.41 795.91,61.99 797.51,60.58 799.41,59.03 801.31,57.49 802.61,56.22 803.92,54.96 804.96,53.59 806.00,52.22 807.33,50.21 808.65,48.20 809.46,46.49 810.26,44.78 811.51,42.24 812.75,39.70 814.13,36.56 815.52,33.42 816.39,31.20 817.26,28.99 817.50,27.76 817.74,26.52 818.11,25.06 818.49,23.60 818.58,22.24 818.68,20.88 818.71,19.41 818.75,17.94 818.80,16.13 818.85,14.32 818.85,12.64 818.85,10.97 818.71,9.23 818.57,7.50 818.47,5.74 818.37,3.98 818.37,2.58 818.36,1.19 818.66,-0.28 818.95,-1.75 819.09,-3.52 819.23,-5.28 819.34,-5.69 819.45,-6.10 819.69,-6.45 819.93,-6.80 820.27,-7.05 820.61,-7.31 821.01,-7.45 821.41,-7.58 821.83,-7.58 822.26,-7.58 822.66,-7.44 823.06,-7.31 823.40,-7.05 823.73,-6.79 823.97,-6.44 824.21,-6.09 824.32,-5.68 824.43,-5.27 824.41,-4.85 824.39,-4.43 824.23,-4.04 824.07,-3.64 823.80,-3.32 823.52,-3.00 823.16,-2.78 822.80,-2.56 822.38,-2.47 821.97,-2.38 821.55,-2.43 821.13,-2.47 820.74,-2.65 820.36,-2.83 820.05,-3.12 819.74,-3.41 819.54,-3.79 819.35,-4.16 819.28,-4.58 819.21,-5.00 819.28,-5.42 819.35,-5.83 819.55,-6.21 819.75,-6.58 820.05,-6.87 820.36,-7.17 820.75,-7.34 821.13,-7.52 821.55,-7.57 821.98,-7.61 822.39,-7.52 822.80,-7.43 823.17,-7.21 823.53,-6.99 823.80,-6.67 824.08,-6.34 824.23,-5.95 824.39,-5.55 824.41,-5.13 824.43,-4.71 824.43,-4.71 824.43,-4.71 823.87,-1.74 823.31,1.22 823.31,2.60 823.30,3.98 823.20,5.74 823.10,7.51 822.94,9.26 822.78,11.01 822.75,12.70 822.72,14.39 822.71,16.27 822.70,18.15 822.57,19.75 822.44,21.35 822.16,23.00 821.88,24.65 821.37,26.04 820.86,27.44 820.36,28.72 819.86,29.99 819.00,32.27 818.14,34.55 816.77,37.76 815.41,40.97 814.21,43.53 813.02,46.10 812.11,47.97 811.21,49.83 809.85,52.03 808.49,54.22 807.23,55.71 805.98,57.19 804.56,58.44 803.14,59.69 801.31,61.23 799.48,62.77 797.68,64.41 795.88,66.05 794.53,66.72 793.17,67.40 791.32,68.56 789.46,69.73 786.67,70.96 783.87,72.19 780.51,73.74 777.14,75.29 774.21,76.01 771.28,76.74 767.66,77.77 764.03,78.80 759.51,79.81 754.98,80.82 751.33,81.05 747.68,81.28 743.68,81.84 739.68,82.39 735.52,82.99 731.37,83.60 727.84,83.60 724.32,83.60 720.72,83.60 717.13,83.60 712.69,83.60 708.25,83.60 703.18,83.60 698.10,83.60 692.87,83.60 687.63,83.60 679.34,83.60 671.05,83.60 663.60,83.60 656.16,83.60 650.72,83.59 645.28,83.59 638.51,83.59 631.74,83.59 627.21,83.59 622.69,83.59 616.73,83.58 610.78,83.58 605.49,83.56 600.20,83.55 594.46,83.52 588.72,83.49 581.23,83.41 573.75,83.33 568.88,83.15 564.01,82.97 560.04,82.56 556.06,82.14 553.38,81.86 550.71,81.58 546.57,80.94 542.43,80.29 538.52,80.16 534.61,80.03 530.90,79.74 527.18,79.44 522.35,79.44 517.51,79.44 512.83,79.44 508.15,79.45 503.86,79.45 499.56,79.45 492.80,79.45 486.03,79.45 482.20,79.46 478.36,79.46 474.69,79.47 471.02,79.47 467.09,79.49 463.16,79.50 459.95,79.53 456.74,79.56 454.54,79.62 452.33,79.68 449.16,79.82 445.99,79.96 442.43,80.29 438.86,80.61 435.98,80.66 433.10,80.70 431.01,80.78 428.92,80.86 426.69,81.02 424.47,81.18 422.31,81.53 420.15,81.89 418.03,81.98 415.90,82.07 414.23,82.11 412.56,82.15 410.65,82.37 408.74,82.58 406.66,83.12 404.58,83.66 402.72,84.06 400.86,84.45 399.20,85.44 397.53,86.43 396.31,87.08 395.10,87.74 393.96,88.77 392.82,89.79 391.86,91.02 390.90,92.25 389.94,93.87 388.98,95.48 388.44,96.95 387.90,98.41 387.81,100.17 387.72,101.94 387.53,103.52 387.35,105.10 387.36,106.47 387.36,107.85 387.32,108.97 387.28,110.09 387.21,111.31 387.14,112.52 386.97,114.08 386.81,115.64 386.51,117.12 386.20,118.61 386.09,120.15 385.98,121.69 385.95,123.04 385.91,124.40 385.95,126.18 385.99,127.96 385.95,129.31 385.90,130.66 386.02,133.21 386.13,135.75 385.77,138.11 385.40,140.47 385.39,140.80 385.38,141.14 385.29,141.46 385.20,141.78 385.04,142.08 384.87,142.37 384.64,142.62 384.42,142.86 384.13,143.04 383.85,143.23 383.53,143.34 383.22,143.45 382.88,143.48 382.55,143.51 382.22,143.46 381.88,143.41 381.57,143.28 381.26,143.16 380.99,142.96 380.72,142.76 380.51,142.50 380.29,142.24 380.14,141.94 379.99,141.64 379.92,141.31 379.85,140.98 379.87,139.65 379.88,138.31 379.61,136.19 379.34,134.08 379.35,132.56 379.35,131.04 379.36,129.58 379.38,128.12 379.41,126.80 379.45,125.48 379.42,123.76 379.40,122.05 379.31,120.14 379.21,118.22 379.33,116.29 379.44,114.36 379.45,112.85 379.46,111.35 379.30,109.23 379.13,107.11 379.09,105.63 379.04,104.15 378.97,102.79 378.90,101.43 378.77,100.24 378.64,99.05 378.05,96.41 377.46,93.77 376.54,91.73 375.62,89.69 374.52,88.27 373.42,86.85 372.40,85.95 371.38,85.06 370.06,84.17 368.74,83.29 367.59,82.43 366.44,81.57 365.59,80.74 364.74,79.91 363.59,78.76 362.45,77.60 361.09,76.69 359.73,75.77 358.06,74.45 356.39,73.12 354.80,72.05 353.21,70.97 351.86,70.44 350.51,69.90 349.45,69.42 348.39,68.94 347.06,68.57 345.74,68.19 344.25,68.06 342.77,67.93 339.93,67.87 337.09,67.82 333.74,67.69 330.39,67.56 328.08,67.27 325.77,66.97 323.50,66.97 321.23,66.98 318.57,66.98 315.91,66.98 312.33,66.99 308.76,67.00 304.37,67.03 299.98,67.05 294.34,67.10 288.71,67.16 282.15,67.28 275.59,67.41 266.82,67.71 258.05,68.01 254.23,68.01 250.40,68.02 245.44,68.02 240.47,68.02 236.16,68.03 231.85,68.04 227.74,68.07 223.63,68.09 219.34,68.15 215.04,68.20 211.63,68.33 208.23,68.46 204.77,68.77 201.32,69.08 198.68,69.11 196.05,69.13 193.20,69.18 190.36,69.24 187.01,69.36 183.65,69.49 179.03,69.79 174.41,70.09 169.68,70.09 164.94,70.09 162.51,70.09 160.09,70.09 157.73,70.09 155.38,70.09 152.52,70.09 149.66,70.09 146.29,70.08 142.92,70.07 139.01,70.05 135.10,70.03 131.94,69.98 128.78,69.93 124.00,69.81 119.22,69.68 116.20,69.39 113.18,69.10 109.95,69.10 106.71,69.10 103.78,69.10 100.86,69.09 98.67,69.05 96.49,69.02 94.05,68.91 91.61,68.80 88.72,68.52 85.82,68.24 83.51,68.23 81.20,68.21 79.04,68.04 76.88,67.87 75.78,67.42 74.68,66.98 72.21,66.79 69.74,66.61 67.62,66.17 65.51,65.74 62.28,65.26 59.05,64.78 57.08,64.21 55.11,63.64 53.64,63.05 52.17,62.45 50.78,62.03 49.39,61.60 47.80,60.78 46.21,59.96 45.12,59.12 44.04,58.28 41.55,56.84 39.06,55.41 37.45,54.67 35.84,53.93 34.84,53.39 33.85,52.85 32.85,52.28 31.85,51.71 30.21,50.53 28.57,49.34 27.67,48.77 26.78,48.20 25.29,47.22 23.80,46.24 22.69,45.53 21.57,44.81 20.36,43.87 19.14,42.94 17.32,41.10 15.49,39.27 13.94,37.63 12.40,36.00 11.42,35.02 10.44,34.04 9.52,33.11 8.60,32.18 7.81,31.36 7.02,30.54 6.00,29.43 4.98,28.32 4.02,27.11 3.06,25.90 2.59,24.34 2.12,22.79 1.49,21.78 0.86,20.77 0.40,19.31 -0.04,17.85 -0.37,16.40 -0.69,14.95 -0.71,13.69 -0.73,12.43 -0.82,10.81 -0.90,9.19 -1.32,6.67 -1.75,4.14 -2.10,2.36 -2.46,0.58 -2.47,0.28 -2.48,-0.01 -2.42,-0.30 -2.36,-0.60 -2.23,-0.87 -2.10,-1.14 -1.91,-1.37 -1.72,-1.61 -1.48,-1.78 -1.24,-1.96 -0.96,-2.08 -0.68,-2.20 -0.38,-2.25 -0.09,-2.29 0.20,-2.27 0.50,-2.24 0.79,-2.15 1.07,-2.05 1.33,-1.89 1.58,-1.73 1.79,-1.51 2.00,-1.29 2.14,-1.03 2.29,-0.77 2.38,-0.48 2.46,-0.19 2.46,-0.19 L 2.46,-0.19 Z"></path></g><g transform="translate(637.3452380952381 10) rotate(0 73.29991912841797 12.5)"><text x="0" y="0" font-family="Virgil, Segoe UI Emoji" font-size="20px" fill="#e03131" text-anchor="start" style="white-space: pre;" direction="ltr" dominant-baseline="text-before-edge">Hello_worls.app</text></g><g transform="translate(321.345238095238 443.99999999999983) rotate(0 433.08953857421875 62.50000000000003)"><text x="0" y="0" font-family="Virgil, Segoe UI Emoji" font-size="20px" fill="#e03131" text-anchor="start" style="white-space: pre;" direction="ltr" dominant-baseline="text-before-edge">the Hello_world App includes both init-code AND main_function code.</text><text x="0" y="25" font-family="Virgil, Segoe UI Emoji" font-size="20px" fill="#e03131" text-anchor="start" style="white-space: pre;" direction="ltr" dominant-baseline="text-before-edge">It will get loaded in the RAM or ROM by a loader.  </text><text x="0" y="50" font-family="Virgil, Segoe UI Emoji" font-size="20px" fill="#e03131" text-anchor="start" style="white-space: pre;" direction="ltr" dominant-baseline="text-before-edge"></text><text x="0" y="75" font-family="Virgil, Segoe UI Emoji" font-size="20px" fill="#e03131" text-anchor="start" style="white-space: pre;" direction="ltr" dominant-baseline="text-before-edge">The Loader might be a primary-loader, a bootloader or a normal program loader found </text><text x="0" y="100" font-family="Virgil, Segoe UI Emoji" font-size="20px" fill="#e03131" text-anchor="start" style="white-space: pre;" direction="ltr" dominant-baseline="text-before-edge">in every OS.  </text></g></svg>