<svg version="1.1" xmlns="http://www.w3.org/2000/svg" viewBox="0 0 818.0454545454545 937" width="818.0454545454545" height="937" filter="invert(93%) hue-rotate(180deg)">
  <!-- svg-source:excalidraw -->
  
  <defs>
    <style class="style-fonts">
      @font-face {
        font-family: "Virgil";
        src: url("https://file%2B.vscode-resource.vscode-cdn.net/home/k/.vscode/extensions/pomdtr.excalidraw-editor-3.7.2/public//dist/excalidraw-assets/Virgil.woff2");
      }
      @font-face {
        font-family: "Cascadia";
        src: url("https://file%2B.vscode-resource.vscode-cdn.net/home/k/.vscode/extensions/pomdtr.excalidraw-editor-3.7.2/public//dist/excalidraw-assets/Cascadia.woff2");
      }
      @font-face {
        font-family: "Assistant";
        src: url("https://file%2B.vscode-resource.vscode-cdn.net/home/k/.vscode/extensions/pomdtr.excalidraw-editor-3.7.2/public//dist/excalidraw-assets/Assistant-Regular.woff2");
      }
    </style>
    
  </defs>
  <rect x="0" y="0" width="818.0454545454545" height="937" fill="#ffffff"></rect><g stroke-linecap="round" transform="translate(464.090909090909 170.8571428571429) rotate(0 151.5 24.5)"><path d="M12.25 0 C90.23 0.97, 167.14 -0.12, 290.75 0 M12.25 0 C111.28 0.74, 210.79 0.62, 290.75 0 M290.75 0 C300.66 -1, 302.88 4.44, 303 12.25 M290.75 0 C299.95 1.02, 303.24 4.55, 303 12.25 M303 12.25 C301.22 19.27, 304.3 26.46, 303 36.75 M303 12.25 C303.25 18.8, 303.37 23.52, 303 36.75 M303 36.75 C301.62 46.79, 297.53 47.36, 290.75 49 M303 36.75 C301.47 45.24, 297.93 46.85, 290.75 49 M290.75 49 C184.49 46.04, 74.68 48.07, 12.25 49 M290.75 49 C198.71 47.43, 107.56 46.96, 12.25 49 M12.25 49 C5.44 47.48, 0.84 45.98, 0 36.75 M12.25 49 C5.19 47.28, -1.78 44.32, 0 36.75 M0 36.75 C-1.43 28.54, -0.08 20.92, 0 12.25 M0 36.75 C-0.42 27.76, -0.17 18.42, 0 12.25 M0 12.25 C1.69 6.07, 2.77 -1.88, 12.25 0 M0 12.25 C0.11 2.73, 4.6 0.7, 12.25 0" stroke="#1e1e1e" stroke-width="2" fill="none"></path></g><g transform="translate(599.1709261807528 182.8571428571429) rotate(0 16.41998291015625 12.5)"><text x="16.41998291015625" y="0" font-family="Virgil, Segoe UI Emoji" font-size="20px" fill="#1e1e1e" text-anchor="middle" style="white-space: pre;" direction="ltr" dominant-baseline="text-before-edge">App</text></g><g stroke-linecap="round" transform="translate(10 160.8571428571429) rotate(0 153 40.5)"><path d="M20.25 0 C80.4 -1.96, 142.78 -2.08, 285.75 0 M20.25 0 C108.59 0.08, 195.96 -0.2, 285.75 0 M285.75 0 C297.57 0.08, 307.03 7.63, 306 20.25 M285.75 0 C298.02 2.01, 304.43 6.02, 306 20.25 M306 20.25 C305.22 30.41, 307.88 39.08, 306 60.75 M306 20.25 C306.3 33.7, 306.95 46.4, 306 60.75 M306 60.75 C306.79 74.53, 300.99 80.02, 285.75 81 M306 60.75 C306.62 72.67, 300.62 82.19, 285.75 81 M285.75 81 C200.22 78.99, 117.28 79.99, 20.25 81 M285.75 81 C200.6 79.14, 114.67 78.25, 20.25 81 M20.25 81 C5.98 80.87, -1.54 72.7, 0 60.75 M20.25 81 C7.24 81.05, -0.09 75.8, 0 60.75 M0 60.75 C-2.33 50.98, -1.22 40.55, 0 20.25 M0 60.75 C-0.6 45.86, -0.44 30.12, 0 20.25 M0 20.25 C0.6 5.34, 6.23 1.45, 20.25 0 M0 20.25 C2.28 9.01, 8.07 -0.92, 20.25 0" stroke="#1e1e1e" stroke-width="2" fill="none"></path></g><g transform="translate(134.33002471923828 188.8571428571429) rotate(0 28.66997528076172 12.5)"><text x="28.66997528076172" y="0" font-family="Virgil, Segoe UI Emoji" font-size="20px" fill="#1e1e1e" text-anchor="middle" style="white-space: pre;" direction="ltr" dominant-baseline="text-before-edge">Kernel</text></g><g stroke-linecap="round" transform="translate(401.2857142857141 416.42857142857144) rotate(0 202.35714285714295 42.5)"><path d="M21.25 0 C132.69 2.86, 245.36 2.26, 383.46 0 M21.25 0 C133.26 -1.12, 245.52 -1.69, 383.46 0 M383.46 0 C398.4 -1.69, 404.08 8.47, 404.71 21.25 M383.46 0 C395.8 -0.3, 406.09 7.48, 404.71 21.25 M404.71 21.25 C403.65 31.12, 403.13 40.01, 404.71 63.75 M404.71 21.25 C405.74 31.51, 405.83 43.59, 404.71 63.75 M404.71 63.75 C405.13 78.29, 398.19 85.82, 383.46 85 M404.71 63.75 C406.92 78.1, 395.85 85.7, 383.46 85 M383.46 85 C300.55 85.16, 217.95 83.01, 21.25 85 M383.46 85 C258.49 85.39, 132.56 85.26, 21.25 85 M21.25 85 C9.01 83.04, -1.91 79.3, 0 63.75 M21.25 85 C6.37 82.78, 2.28 76.74, 0 63.75 M0 63.75 C0.96 49.25, 0.42 31.13, 0 21.25 M0 63.75 C0.82 48.82, 0.55 33.82, 0 21.25 M0 21.25 C0.98 8.02, 7.2 0.9, 21.25 0 M0 21.25 C0.69 8.56, 5.26 1.26, 21.25 0" stroke="#1e1e1e" stroke-width="2" fill="none"></path></g><g transform="translate(449.22302682059126 433.92857142857144) rotate(0 154.41983032226562 25)"><text x="154.41983032226562" y="0" font-family="Virgil, Segoe UI Emoji" font-size="20px" fill="#1e1e1e" text-anchor="middle" style="white-space: pre;" direction="ltr" dominant-baseline="text-before-edge">Driver API exposes </text><text x="154.41983032226562" y="25" font-family="Virgil, Segoe UI Emoji" font-size="20px" fill="#1e1e1e" text-anchor="middle" style="white-space: pre;" direction="ltr" dominant-baseline="text-before-edge">'read_from_adress(x)' function</text></g><g stroke-linecap="round" transform="translate(402.71428571428567 520.8571428571428) rotate(0 202.5714285714285 42.14285714285717)"><path d="M21.07 0 C141.67 -0.44, 263.11 -1.61, 384.07 0 M21.07 0 C99.5 -2.09, 176.89 -2.41, 384.07 0 M384.07 0 C397.43 0.89, 405.23 5.5, 405.14 21.07 M384.07 0 C400.29 0.57, 403.59 5.13, 405.14 21.07 M405.14 21.07 C405.39 30.93, 404.46 42.53, 405.14 63.21 M405.14 21.07 C405.37 33.61, 405.88 46.96, 405.14 63.21 M405.14 63.21 C405.25 77.58, 398.94 83.21, 384.07 84.29 M405.14 63.21 C405.85 78.77, 396.45 82.76, 384.07 84.29 M384.07 84.29 C250.83 82.97, 116.31 83.52, 21.07 84.29 M384.07 84.29 C260.54 85.38, 135.46 85.3, 21.07 84.29 M21.07 84.29 C5.66 85.83, 0.11 77.95, 0 63.21 M21.07 84.29 C5.51 86.55, 0.08 77.09, 0 63.21 M0 63.21 C1.71 50.87, -0.43 34.8, 0 21.07 M0 63.21 C-0.66 45.96, 0.15 29.75, 0 21.07 M0 21.07 C-0.9 7.46, 8.59 -0.11, 21.07 0 M0 21.07 C-1.98 5.51, 8.39 -0.08, 21.07 0" stroke="#1e1e1e" stroke-width="2" fill="none"></path></g><g transform="translate(410.0159388950892 538) rotate(0 195.269775390625 25)"><text x="195.269775390625" y="0" font-family="Virgil, Segoe UI Emoji" font-size="20px" fill="#1e1e1e" text-anchor="middle" style="white-space: pre;" direction="ltr" dominant-baseline="text-before-edge">Driver contains 'read_from_adress(x)' </text><text x="195.269775390625" y="25" font-family="Virgil, Segoe UI Emoji" font-size="20px" fill="#1e1e1e" text-anchor="middle" style="white-space: pre;" direction="ltr" dominant-baseline="text-before-edge">function definition </text></g><g stroke-linecap="round" transform="translate(394.0454545454545 363) rotate(0 207 131.5)"><path d="M32 0 C169.87 -1.24, 307.13 -0.48, 382 0 M382 0 C404.29 -0.97, 414.7 10.2, 414 32 M414 32 C414.46 98.79, 415.98 164.55, 414 231 M414 231 C413.66 254.32, 401.93 263.1, 382 263 M382 263 C247.41 261.04, 112.63 263.03, 32 263 M32 263 C12.07 263.87, -0.67 253.62, 0 231 M0 231 C1.42 176.73, 1.53 117.77, 0 32 M0 32 C1.63 10.92, 10.62 -1.76, 32 0" stroke="#1e1e1e" stroke-width="2.5" fill="none" stroke-dasharray="8 10"></path></g><g stroke-linecap="round"><g transform="translate(167.36363636363626 205.79220779220788) rotate(0 0 0)"><path d="M0.02 0.06 C0.05 0.11, 0.22 0.28, 0.19 0.32 M-0.4 -0.21 C-0.39 -0.26, 0.01 -0.13, 0.01 -0.14" stroke="#1e1e1e" stroke-width="2" fill="none"></path></g><g transform="translate(167.36363636363626 205.79220779220788) rotate(0 0 0)"><path d="M0.01 -0.14 C0.01 -0.14, 0.01 -0.14, 0.01 -0.14 M0.01 -0.14 C0.01 -0.14, 0.01 -0.14, 0.01 -0.14" stroke="#1e1e1e" stroke-width="2" fill="none"></path></g><g transform="translate(167.36363636363626 205.79220779220788) rotate(0 0 0)"><path d="M0.01 -0.14 C0.01 -0.14, 0.01 -0.14, 0.01 -0.14 M0.01 -0.14 C0.01 -0.14, 0.01 -0.14, 0.01 -0.14" stroke="#1e1e1e" stroke-width="2" fill="none"></path></g></g><mask></mask><g mask="url(#mask-IkriZPoH6IAQDgjScxAhC)" stroke-linecap="round"><g transform="translate(464.090909090909 179.50249271484114) rotate(0 -159.02272727272725 -72.25124635742057)"><path d="M-0.45 -0.7 C-26.55 -24.97, -103.76 -140.81, -156.68 -144.88 C-209.59 -148.95, -291.2 -45.14, -317.93 -25.15 M1.51 1.54 C-24.18 -22.61, -100.94 -139.26, -154.3 -143.54 C-207.65 -147.83, -291.63 -44.09, -318.64 -24.17" stroke="#1e1e1e" stroke-width="2" fill="none"></path></g><g transform="translate(464.090909090909 179.50249271484114) rotate(0 -159.02272727272725 -72.25124635742057)"><path d="M-305.24 -51.01 C-310.16 -44.27, -313.53 -35.19, -318.64 -24.17 M-305.24 -51.01 C-309.06 -43.61, -311.47 -38.68, -318.64 -24.17" stroke="#1e1e1e" stroke-width="2" fill="none"></path></g><g transform="translate(464.090909090909 179.50249271484114) rotate(0 -159.02272727272725 -72.25124635742057)"><path d="M-291.12 -36.12 C-300.25 -33.78, -307.75 -29.05, -318.64 -24.17 M-291.12 -36.12 C-298.54 -32.43, -304.42 -31.17, -318.64 -24.17" stroke="#1e1e1e" stroke-width="2" fill="none"></path></g></g><mask id="mask-IkriZPoH6IAQDgjScxAhC"><rect x="0" y="0" fill="#fff" width="882.1363636363635" height="424.0049854296823"></rect><rect x="205.6455750898881" y="10" fill="#000" width="204.7997589111328" height="50" opacity="1"></rect></mask><g transform="translate(205.6455750898881 10) rotate(0 99.88028729421336 97.77590118765427)"><text x="102.3998794555664" y="0" font-family="Virgil, Segoe UI Emoji" font-size="20px" fill="#1e1e1e" text-anchor="middle" style="white-space: pre;" direction="ltr" dominant-baseline="text-before-edge">App calls 'sys_read </text><text x="102.3998794555664" y="25" font-family="Virgil, Segoe UI Emoji" font-size="20px" fill="#1e1e1e" text-anchor="middle" style="white-space: pre;" direction="ltr" dominant-baseline="text-before-edge">(file_x)' function</text></g><g mask="url(#mask-ndP_bDMP6SgcN7TN9OWF_)" stroke-linecap="round"><g transform="translate(109.0454545454545 242) rotate(0 138.82531111161512 119.63970014872484)"><path d="M0.9 0.34 C0.18 24.39, -15.46 108.48, -3.19 143.63 C9.07 178.78, 26.37 195.39, 74.49 211.25 C122.61 227.11, 250.47 234.19, 285.52 238.81 M-0.09 -0.53 C-0.56 23.76, -13.45 109.52, -1.1 144.97 C11.24 180.42, 26.21 196.37, 73.98 212.17 C121.75 227.98, 250.12 235.28, 285.52 239.81" stroke="#1e1e1e" stroke-width="2" fill="none"></path></g><g transform="translate(109.0454545454545 242) rotate(0 138.82531111161512 119.63970014872484)"><path d="M256.48 247.35 C268.47 242.19, 278.68 242.04, 285.52 239.81 M256.48 247.35 C262.43 245.6, 270.03 243.65, 285.52 239.81" stroke="#1e1e1e" stroke-width="2" fill="none"></path></g><g transform="translate(109.0454545454545 242) rotate(0 138.82531111161512 119.63970014872484)"><path d="M258.43 226.92 C269.53 229.79, 278.98 237.65, 285.52 239.81 M258.43 226.92 C263.83 230.02, 270.97 232.91, 285.52 239.81" stroke="#1e1e1e" stroke-width="2" fill="none"></path></g></g><mask id="mask-ndP_bDMP6SgcN7TN9OWF_"><rect x="0" y="0" fill="#fff" width="497.0454545454546" height="581.0111155882197"></rect><rect x="29.074346295689224" y="380.3062925051687" fill="#000" width="211.6397705078125" height="100" opacity="1"></rect></mask><g transform="translate(29.074346295689224 380.3062925051687) rotate(0 218.7964193613804 -18.666592356443857)"><text x="105.81988525390625" y="0" font-family="Virgil, Segoe UI Emoji" font-size="20px" fill="#1e1e1e" text-anchor="middle" style="white-space: pre;" direction="ltr" dominant-baseline="text-before-edge">The sys_read </text><text x="105.81988525390625" y="25" font-family="Virgil, Segoe UI Emoji" font-size="20px" fill="#1e1e1e" text-anchor="middle" style="white-space: pre;" direction="ltr" dominant-baseline="text-before-edge">function calls the </text><text x="105.81988525390625" y="50" font-family="Virgil, Segoe UI Emoji" font-size="20px" fill="#1e1e1e" text-anchor="middle" style="white-space: pre;" direction="ltr" dominant-baseline="text-before-edge">read_from_adress(x)</text><text x="105.81988525390625" y="75" font-family="Virgil, Segoe UI Emoji" font-size="20px" fill="#1e1e1e" text-anchor="middle" style="white-space: pre;" direction="ltr" dominant-baseline="text-before-edge"> driver function. </text></g><g transform="translate(550.0454545454545 377) rotate(0 63.67993927001953 12.5)"><text x="0" y="0" font-family="Virgil, Segoe UI Emoji" font-size="20px" fill="#1e1e1e" text-anchor="start" style="white-space: pre;" direction="ltr" dominant-baseline="text-before-edge">SSD DRIVER</text></g><g mask="url(#mask-PXur9dTMWomg7QwjQcI2B)" stroke-linecap="round"><g transform="translate(599.0454545454545 604) rotate(0 2.5 121)"><path d="M-0.95 -1.15 C-0.08 39.16, 4.26 200.86, 5.4 241.31 M0.76 0.85 C1.48 41.36, 3.85 202.18, 4.66 242.48" stroke="#1e1e1e" stroke-width="2" fill="none"></path></g><g transform="translate(599.0454545454545 604) rotate(0 2.5 121)"><path d="M-6.08 214.47 C-4.74 224.07, -0.58 233.73, 4.66 242.48 M-6.08 214.47 C-3.08 221.21, -0.48 229.7, 4.66 242.48" stroke="#1e1e1e" stroke-width="2" fill="none"></path></g><g transform="translate(599.0454545454545 604) rotate(0 2.5 121)"><path d="M14.44 214.12 C9.28 223.67, 6.96 233.44, 4.66 242.48 M14.44 214.12 C12.05 221.05, 9.25 229.63, 4.66 242.48" stroke="#1e1e1e" stroke-width="2" fill="none"></path></g></g><mask id="mask-PXur9dTMWomg7QwjQcI2B"><rect x="0" y="0" fill="#fff" width="704.0454545454545" height="946"></rect><rect x="492.1055894331498" y="662.5" fill="#000" width="218.87973022460938" height="125" opacity="1"></rect></mask><g transform="translate(492.1055894331498 662.5) rotate(0 109.16502258218827 62.16289336905817)"><text x="109.43986511230469" y="0" font-family="Virgil, Segoe UI Emoji" font-size="20px" fill="#1e1e1e" text-anchor="middle" style="white-space: pre;" direction="ltr" dominant-baseline="text-before-edge">the </text><text x="109.43986511230469" y="25" font-family="Virgil, Segoe UI Emoji" font-size="20px" fill="#1e1e1e" text-anchor="middle" style="white-space: pre;" direction="ltr" dominant-baseline="text-before-edge">read_from_adress(x)</text><text x="109.43986511230469" y="50" font-family="Virgil, Segoe UI Emoji" font-size="20px" fill="#1e1e1e" text-anchor="middle" style="white-space: pre;" direction="ltr" dominant-baseline="text-before-edge"> definition manipulates</text><text x="109.43986511230469" y="75" font-family="Virgil, Segoe UI Emoji" font-size="20px" fill="#1e1e1e" text-anchor="middle" style="white-space: pre;" direction="ltr" dominant-baseline="text-before-edge">the registers of the </text><text x="109.43986511230469" y="100" font-family="Virgil, Segoe UI Emoji" font-size="20px" fill="#1e1e1e" text-anchor="middle" style="white-space: pre;" direction="ltr" dominant-baseline="text-before-edge">SSD</text></g><g stroke-linecap="round" transform="translate(386.0454545454545 844) rotate(0 205 41.5)"><path d="M4.87 5.56 C4.87 5.56, 4.87 5.56, 4.87 5.56 M4.87 5.56 C4.87 5.56, 4.87 5.56, 4.87 5.56 M0.41 22.88 C4.27 18.35, 9.2 12.09, 19.43 0.99 M0.41 22.88 C6.4 14.69, 14.79 6.85, 19.43 0.99 M0.54 34.92 C11.34 25.04, 18.91 12.29, 30.72 0.2 M0.54 34.92 C8.01 25.91, 15.37 18.56, 30.72 0.2 M0.67 46.96 C8.95 36.42, 20.96 23.42, 41.35 0.17 M0.67 46.96 C15.34 30.73, 29.66 15.39, 41.35 0.17 M0.81 59 C16.7 40.23, 31.53 23.56, 51.98 0.14 M0.81 59 C16.6 41.97, 29.56 25.38, 51.98 0.14 M1.6 70.29 C15.18 54.26, 31.48 35.15, 62.61 0.1 M1.6 70.29 C25.04 43.31, 47.96 15.87, 62.61 0.1 M5.67 77.8 C21.17 61.36, 35.21 45.01, 72.58 0.82 M5.67 77.8 C24.61 56.09, 44.76 31.67, 72.58 0.82 M13.02 81.54 C30.24 60.04, 50.66 39.94, 83.21 0.79 M13.02 81.54 C28 65.06, 42.19 46.69, 83.21 0.79 M22.33 83.02 C49.18 48.5, 76.86 17.94, 93.84 0.75 M22.33 83.02 C46.59 56.1, 70.92 26.34, 93.84 0.75 M32.96 82.98 C61.96 51.73, 86.4 21.24, 104.47 0.72 M32.96 82.98 C57.19 54.79, 81.42 27.69, 104.47 0.72 M43.59 82.95 C71.58 50.47, 97.38 20.05, 115.1 0.68 M43.59 82.95 C67.92 56.17, 91.73 28.56, 115.1 0.68 M54.22 82.91 C79.23 56.63, 100.12 27.36, 125.73 0.65 M54.22 82.91 C69.79 67.3, 83.36 49.45, 125.73 0.65 M64.85 82.88 C91.05 55.24, 115.02 24.81, 136.36 0.61 M64.85 82.88 C88.37 52.63, 114.71 24.57, 136.36 0.61 M75.48 82.84 C99.05 55.74, 124.1 28.17, 146.99 0.58 M75.48 82.84 C91.93 62.56, 108.3 43.63, 146.99 0.58 M86.11 82.81 C105.13 62.7, 123.42 38.71, 157.62 0.54 M86.11 82.81 C109.77 57.58, 130.45 33.1, 157.62 0.54 M96.74 82.77 C116.66 58.6, 136.16 38.93, 168.25 0.51 M96.74 82.77 C123.78 50.92, 149.6 20.61, 168.25 0.51 M107.37 82.74 C133.23 53.63, 157.01 24.35, 178.88 0.48 M107.37 82.74 C128.74 58.25, 152.13 32.52, 178.88 0.48 M118 82.7 C141.88 58.37, 162.4 33.48, 189.52 0.44 M118 82.7 C146.45 50.46, 174.31 19.83, 189.52 0.44 M128.63 82.67 C143.78 66.01, 160.15 46.37, 200.15 0.41 M128.63 82.67 C148.93 59.37, 168.28 35.9, 200.15 0.41 M139.26 82.64 C166.44 49.39, 196.72 18.85, 210.78 0.37 M139.26 82.64 C161.97 56.22, 186.91 27.82, 210.78 0.37 M149.89 82.6 C170.64 58.5, 188.53 39.98, 221.41 0.34 M149.89 82.6 C174.09 54.47, 199.3 27.64, 221.41 0.34 M160.52 82.57 C182.01 60.14, 199.75 36.47, 232.04 0.3 M160.52 82.57 C178.91 60.8, 199.49 37.57, 232.04 0.3 M171.16 82.53 C185.7 67.11, 198.41 47.05, 242.67 0.27 M171.16 82.53 C188.45 64.23, 204.14 44.91, 242.67 0.27 M181.13 83.25 C200.11 61.8, 219.11 36.71, 252.64 0.99 M181.13 83.25 C209.43 52.37, 235.94 22.25, 252.64 0.99 M191.76 83.22 C207.36 63.46, 228.15 43.36, 263.27 0.95 M191.76 83.22 C211.94 59.11, 231.78 36.31, 263.27 0.95 M202.39 83.18 C231.8 49.99, 260.73 18.65, 273.9 0.92 M202.39 83.18 C220.39 62.06, 238.97 42.21, 273.9 0.92 M213.02 83.15 C238.56 55.94, 259.84 29.86, 284.53 0.89 M213.02 83.15 C233.21 60.3, 251.72 37.25, 284.53 0.89 M223.65 83.11 C247.19 57.08, 269.22 30.59, 295.16 0.85 M223.65 83.11 C251.4 53.12, 277.5 22.74, 295.16 0.85 M234.28 83.08 C253.27 57.98, 275.28 36.22, 305.79 0.82 M234.28 83.08 C258.42 55.61, 280.99 27.83, 305.79 0.82 M244.91 83.05 C262.19 63.31, 278.97 43.17, 316.42 0.78 M244.91 83.05 C260.83 63.6, 278.74 43.06, 316.42 0.78 M255.54 83.01 C280.54 57.34, 301.41 29.5, 327.05 0.75 M255.54 83.01 C273.1 63.23, 292.06 42.18, 327.05 0.75 M266.17 82.98 C288.88 57.64, 308.79 31.34, 337.68 0.71 M266.17 82.98 C285.47 59.99, 303.73 37.63, 337.68 0.71 M276.8 82.94 C298.46 55.6, 320.61 30.7, 348.31 0.68 M276.8 82.94 C304.53 52.39, 329.53 21.07, 348.31 0.68 M287.43 82.91 C304.76 61.04, 323.35 38.77, 358.94 0.64 M287.43 82.91 C305.84 60.86, 325.42 39.21, 358.94 0.64 M298.06 82.87 C316.31 64.74, 334.21 42.68, 369.57 0.61 M298.06 82.87 C320.48 57.19, 341.92 32.72, 369.57 0.61 M308.69 82.84 C321.79 67.75, 338.63 49.07, 380.2 0.58 M308.69 82.84 C333.64 52.24, 360.41 22.23, 380.2 0.58 M319.32 82.8 C337.24 62.78, 356.39 37.63, 390.83 0.54 M319.32 82.8 C335.03 64.2, 352.44 45.42, 390.83 0.54 M329.95 82.77 C356.4 52.68, 381.69 18.79, 399.49 2.77 M329.95 82.77 C348.97 59.38, 369.62 36.72, 399.49 2.77 M340.58 82.73 C366.09 53.24, 390.28 23.75, 406.19 7.26 M340.58 82.73 C363.38 55.77, 385.98 30.36, 406.19 7.26 M351.21 82.7 C365.82 64.91, 382.82 44.71, 409.6 15.53 M351.21 82.7 C367.43 63.11, 384.81 43.7, 409.6 15.53 M361.84 82.67 C382.6 61.21, 400.42 38.69, 410.39 26.82 M361.84 82.67 C374.89 68.51, 386.58 54.57, 410.39 26.82 M371.81 83.39 C382.65 73.88, 389.99 63.55, 409.87 39.61 M371.81 83.39 C386.89 65.67, 401.19 48.76, 409.87 39.61 M382.44 83.35 C392.18 75.31, 399.03 61.66, 410 51.65 M382.44 83.35 C392.29 71.53, 403.75 59.08, 410 51.65 M393.73 82.56 C397.45 76.27, 403.06 69.68, 410.13 63.69 M393.73 82.56 C399.32 75.06, 405.74 68.86, 410.13 63.69" stroke="#a5d8ff" stroke-width="1" fill="none"></path><path d="M20.75 0 C124.03 2.59, 225.34 1.01, 389.25 0 M20.75 0 C132.08 2.7, 243.66 2.52, 389.25 0 M389.25 0 C401.97 0.45, 408.69 6.26, 410 20.75 M389.25 0 C404.8 -1.03, 408.81 8, 410 20.75 M410 20.75 C409.85 29.62, 411.14 37.64, 410 62.25 M410 20.75 C410.25 36.76, 408.93 52.54, 410 62.25 M410 62.25 C411.59 75.06, 401.39 81.07, 389.25 83 M410 62.25 C408.27 74.22, 401.46 82.82, 389.25 83 M389.25 83 C296.11 81.94, 204.69 83.97, 20.75 83 M389.25 83 C243.39 84.3, 95.83 83.66, 20.75 83 M20.75 83 C6.51 81.35, -0.32 76.16, 0 62.25 M20.75 83 C7.76 82.46, 0.09 73.99, 0 62.25 M0 62.25 C1.55 46.35, 1.5 29.11, 0 20.75 M0 62.25 C-0.26 50.07, 0.43 38.74, 0 20.75 M0 20.75 C1.69 5.19, 5.79 -0.46, 20.75 0 M0 20.75 C-0.5 7.06, 7.14 -0.14, 20.75 0" stroke="#1e1e1e" stroke-width="2" fill="none"></path></g><g transform="translate(493.94556288285685 873) rotate(0 97.09989166259766 12.5)"><text x="97.09989166259766" y="0" font-family="Virgil, Segoe UI Emoji" font-size="20px" fill="#1e1e1e" text-anchor="middle" style="white-space: pre;" direction="ltr" dominant-baseline="text-before-edge">SSD storage device</text></g></svg>