<svg version="1.1" xmlns="http://www.w3.org/2000/svg" viewBox="0 0 1031.7254343829686 1361.7610763156756" width="1031.7254343829686" height="1361.7610763156756" filter="invert(93%) hue-rotate(180deg)">
  <!-- svg-source:excalidraw -->
  
  <defs>
    <style class="style-fonts">
      @font-face {
        font-family: "Virgil";
        src: url("https://file%2B.vscode-resource.vscode-cdn.net/home/kiarie404/.vscode/extensions/pomdtr.excalidraw-editor-3.7.4/public//dist/excalidraw-assets/Virgil.woff2");
      }
      @font-face {
        font-family: "Cascadia";
        src: url("https://file%2B.vscode-resource.vscode-cdn.net/home/kiarie404/.vscode/extensions/pomdtr.excalidraw-editor-3.7.4/public//dist/excalidraw-assets/Cascadia.woff2");
      }
      @font-face {
        font-family: "Assistant";
        src: url("https://file%2B.vscode-resource.vscode-cdn.net/home/kiarie404/.vscode/extensions/pomdtr.excalidraw-editor-3.7.4/public//dist/excalidraw-assets/Assistant-Regular.woff2");
      }
    </style>
    
  </defs>
  <rect x="0" y="0" width="1031.7254343829686" height="1361.7610763156756" fill="#ffffff"></rect><g stroke-linecap="round" transform="translate(71.1904761904762 176.8032692825261) rotate(0 436.2142857142858 22.64285714285714)"><path d="M11.32 0 C236.82 3.88, 462.43 2.81, 861.11 0 M11.32 0 C317.05 1.32, 622.54 1.4, 861.11 0 M861.11 0 C869.43 -0.36, 874.36 3.33, 872.43 11.32 M861.11 0 C867.03 -1.93, 870.54 3.4, 872.43 11.32 M872.43 11.32 C871.87 15.36, 871.91 20.53, 872.43 33.96 M872.43 11.32 C873.32 16.13, 873.17 20.04, 872.43 33.96 M872.43 33.96 C871.39 40.31, 869.73 44.26, 861.11 45.29 M872.43 33.96 C873.86 39.72, 870.95 45.84, 861.11 45.29 M861.11 45.29 C674.75 45.62, 486.18 44.41, 11.32 45.29 M861.11 45.29 C615.14 41.81, 369.11 41.69, 11.32 45.29 M11.32 45.29 C2.96 44.25, 1.68 43.13, 0 33.96 M11.32 45.29 C3.58 44.25, 1.45 40.42, 0 33.96 M0 33.96 C1.47 27.26, -0.01 22.72, 0 11.32 M0 33.96 C0.88 24.6, -0.19 17.78, 0 11.32 M0 11.32 C0.01 4.78, 1.99 1.13, 11.32 0 M0 11.32 C-1.37 5.67, 2.28 1.61, 11.32 0" stroke="#1e1e1e" stroke-width="2" fill="none"></path></g><g transform="translate(292.31496393112917 186.94612642538323) rotate(0 215.0897979736328 12.5)"><text x="215.0897979736328" y="0" font-family="Virgil, Segoe UI Emoji" font-size="20px" fill="#1e1e1e" text-anchor="middle" style="white-space: pre;" direction="ltr" dominant-baseline="text-before-edge">An External Interface (eg SATA interface)</text></g><g stroke-linecap="round" transform="translate(270.28571428571405 339.46993594919275) rotate(0 138.35714285714283 18.214285714285694)"><path d="M9.11 0 C64.82 -0.53, 121.48 -1.25, 267.61 0 M9.11 0 C104.29 0.42, 199.97 0.77, 267.61 0 M267.61 0 C271.72 -1.63, 274.86 5.01, 276.71 9.11 M267.61 0 C274.25 -0.31, 277.67 3.12, 276.71 9.11 M276.71 9.11 C277.04 13.8, 278.14 22.91, 276.71 27.32 M276.71 9.11 C276.54 15.09, 276.67 21.48, 276.71 27.32 M276.71 27.32 C275.91 34.21, 272.36 36.5, 267.61 36.43 M276.71 27.32 C276.83 34.61, 271.4 35.1, 267.61 36.43 M267.61 36.43 C171.16 38.34, 74.58 39.01, 9.11 36.43 M267.61 36.43 C183.56 36.06, 101.36 36.13, 9.11 36.43 M9.11 36.43 C3.74 36.7, 1.95 31.91, 0 27.32 M9.11 36.43 C4.37 37.44, -0.03 33.21, 0 27.32 M0 27.32 C-1.84 21.56, 0.72 13.18, 0 9.11 M0 27.32 C-0.32 21.17, 0.52 15.99, 0 9.11 M0 9.11 C-0.14 1.94, 4.64 -1.17, 9.11 0 M0 9.11 C2.05 4.16, 2.19 0.08, 9.11 0" stroke="#1e1e1e" stroke-width="2" fill="none"></path></g><g transform="translate(293.6429792131694 345.1842216634784) rotate(0 114.9998779296875 12.5)"><text x="114.9998779296875" y="0" font-family="Virgil, Segoe UI Emoji" font-size="20px" fill="#1e1e1e" text-anchor="middle" style="white-space: pre;" direction="ltr" dominant-baseline="text-before-edge">Memory Address Buffer</text></g><g stroke-linecap="round" transform="translate(572.4285714285718 337.46993594919275) rotate(0 224.42857142857122 17.5)"><path d="M8.75 0 C166.92 0.96, 326.73 0.57, 440.11 0 M8.75 0 C163.2 0.88, 317.31 0.38, 440.11 0 M440.11 0 C444.52 1.41, 450.56 2.7, 448.86 8.75 M440.11 0 C446.73 0.49, 450.64 0.62, 448.86 8.75 M448.86 8.75 C450.34 13.21, 447.5 16.15, 448.86 26.25 M448.86 8.75 C448.44 16.15, 448.43 21.79, 448.86 26.25 M448.86 26.25 C449.09 33.02, 446.92 34.29, 440.11 35 M448.86 26.25 C448.13 30.83, 447.39 35.08, 440.11 35 M440.11 35 C269.39 36.56, 100.06 37.37, 8.75 35 M440.11 35 C269.01 36.57, 97.34 37.3, 8.75 35 M8.75 35 C2.02 34.46, 1.89 31.69, 0 26.25 M8.75 35 C2.29 34.77, 1.95 32.94, 0 26.25 M0 26.25 C1 21.43, 1.49 17.82, 0 8.75 M0 26.25 C-0.72 19.81, -0.4 12.09, 0 8.75 M0 8.75 C-0.15 4.21, 1.36 -0.61, 8.75 0 M0 8.75 C0.43 4.12, 4.97 0.24, 8.75 0" stroke="#1e1e1e" stroke-width="2" fill="none"></path></g><g transform="translate(732.6272157941546 342.46993594919275) rotate(0 64.22992706298828 12.5)"><text x="64.22992706298828" y="0" font-family="Virgil, Segoe UI Emoji" font-size="20px" fill="#1e1e1e" text-anchor="middle" style="white-space: pre;" direction="ltr" dominant-baseline="text-before-edge">Data Buffer</text></g><g stroke-linecap="round" transform="translate(10 472.1366026158594) rotate(0 505.8627171914843 29.512305046551603)"><path d="M0 0 C226.7 3.68, 453.22 4.55, 1011.73 0 M0 0 C269.83 2.54, 540.08 2.81, 1011.73 0 M1011.73 0 C1011.78 18.82, 1013.23 39.22, 1011.73 59.02 M1011.73 0 C1010.69 16.22, 1010.6 34.36, 1011.73 59.02 M1011.73 59.02 C611.41 60.15, 211.15 60.08, 0 59.02 M1011.73 59.02 C620.91 60.75, 229.7 60.78, 0 59.02 M0 59.02 C1.43 45.11, 1.3 29.08, 0 0 M0 59.02 C-0.93 37.63, -1.02 16.86, 0 0" stroke="#1e1e1e" stroke-width="1" fill="none"></path></g><g transform="translate(316.2016454141405 487.214198535921) rotate(0 199.66107177734375 14.434709126489963)"><text x="199.66107177734375" y="0" font-family="Virgil, Segoe UI Emoji" font-size="23.09553460238392px" fill="#1e1e1e" text-anchor="middle" style="white-space: pre;" direction="ltr" dominant-baseline="text-before-edge">MicroProcessor within the hard-disk</text></g><g stroke-linecap="round" transform="translate(92.30955346023819 595.9597064526619) rotate(0 117.20983810709839 175.5260629781178)"><path d="M0 0 C76.82 0.23, 153.31 2.34, 234.42 0 M0 0 C88.63 -0.94, 176.89 -1.82, 234.42 0 M234.42 0 C232.1 84.04, 232.7 166.48, 234.42 351.05 M234.42 0 C236.62 76.61, 236.77 154.68, 234.42 351.05 M234.42 351.05 C148.97 353.99, 65.84 353.54, 0 351.05 M234.42 351.05 C168.88 350.47, 104.3 350.56, 0 351.05 M0 351.05 C-2.63 241.74, -3.17 132.85, 0 0 M0 351.05 C0.15 257.81, -0.2 164.44, 0 0" stroke="#1e1e1e" stroke-width="1" fill="none"></path></g><g transform="translate(119.53747323237565 684.87751467184) rotate(0 89.98191833496094 86.60825475893972)"><text x="89.98191833496094" y="0" font-family="Virgil, Segoe UI Emoji" font-size="23.09553460238392px" fill="#1e1e1e" text-anchor="middle" style="white-space: pre;" direction="ltr" dominant-baseline="text-before-edge">ROM containing </text><text x="89.98191833496094" y="28.8694182529799" font-family="Virgil, Segoe UI Emoji" font-size="23.09553460238392px" fill="#1e1e1e" text-anchor="middle" style="white-space: pre;" direction="ltr" dominant-baseline="text-before-edge">Firmware</text><text x="89.98191833496094" y="57.7388365059598" font-family="Virgil, Segoe UI Emoji" font-size="23.09553460238392px" fill="#1e1e1e" text-anchor="middle" style="white-space: pre;" direction="ltr" dominant-baseline="text-before-edge">[disk spinning]</text><text x="89.98191833496094" y="86.60825475893971" font-family="Virgil, Segoe UI Emoji" font-size="23.09553460238392px" fill="#1e1e1e" text-anchor="middle" style="white-space: pre;" direction="ltr" dominant-baseline="text-before-edge">[arm writing]</text><text x="89.98191833496094" y="115.4776730119196" font-family="Virgil, Segoe UI Emoji" font-size="23.09553460238392px" fill="#1e1e1e" text-anchor="middle" style="white-space: pre;" direction="ltr" dominant-baseline="text-before-edge">[arm reading]</text><text x="89.98191833496094" y="144.34709126489952" font-family="Virgil, Segoe UI Emoji" font-size="23.09553460238392px" fill="#1e1e1e" text-anchor="middle" style="white-space: pre;" direction="ltr" dominant-baseline="text-before-edge"></text></g><g stroke-linecap="round" transform="translate(376.3846290695604 597.1144831827811) rotate(0 106.23945917096603 200.35376267568046)"><path d="M0 0 C0 0, 0 0, 0 0 M0 0 C0 0, 0 0, 0 0 M-0.26 6.4 C1.45 5.2, 3.47 2.08, 4.99 0.36 M-0.26 6.4 C1.11 5.11, 2.75 2.86, 4.99 0.36 M0.13 12.04 C3.36 8.02, 4.39 5.76, 10.63 -0.03 M0.13 12.04 C2.94 8.57, 6.15 6.33, 10.63 -0.03 M-0.13 18.44 C4.99 13.71, 9.46 4.93, 15.62 0.33 M-0.13 18.44 C6.3 12.3, 10.11 6.14, 15.62 0.33 M0.27 24.08 C9.32 15.54, 15.41 9.14, 21.26 -0.07 M0.27 24.08 C8.12 14.21, 16.39 5.5, 21.26 -0.07 M0 30.48 C5.76 25.42, 13.87 15.32, 26.25 0.29 M0 30.48 C9.32 21.77, 17.33 12.5, 26.25 0.29 M-0.26 36.88 C7.4 26.27, 16.12 15.44, 31.89 -0.1 M-0.26 36.88 C10.22 24.69, 21.13 10.79, 31.89 -0.1 M0.14 42.52 C8.64 30.86, 16.56 20.21, 36.88 0.26 M0.14 42.52 C10.96 29.1, 22.15 15.19, 36.88 0.26 M-0.12 48.92 C15.13 33.24, 28.41 17.19, 42.52 -0.14 M-0.12 48.92 C9.69 38.18, 19.56 25.53, 42.52 -0.14 M0.27 54.56 C16.56 34.96, 35.39 14.27, 47.51 0.22 M0.27 54.56 C15.37 38.41, 31.28 19.18, 47.51 0.22 M0.01 60.96 C18.93 40.27, 38.97 16.02, 53.15 -0.17 M0.01 60.96 C20.86 36.8, 41.11 13.83, 53.15 -0.17 M-0.25 67.36 C19.2 46.18, 35.97 25.14, 58.14 0.19 M-0.25 67.36 C15.77 48.79, 31.42 29.86, 58.14 0.19 M0.14 73 C17.77 51.52, 37.73 26.9, 63.78 -0.21 M0.14 73 C15.98 53.83, 31.83 36.6, 63.78 -0.21 M-0.12 79.4 C16.42 62.25, 30.63 42.82, 68.77 0.15 M-0.12 79.4 C28.14 48.17, 55.05 16.13, 68.77 0.15 M0.28 85.04 C30.81 51.86, 57.49 20.26, 74.41 -0.24 M0.28 85.04 C20.61 63.05, 38.6 39.95, 74.41 -0.24 M0.01 91.44 C26.8 57.39, 58.28 27.74, 79.4 0.12 M0.01 91.44 C20.18 66.52, 41.25 44.15, 79.4 0.12 M-0.25 97.84 C33.98 58.14, 68.95 21.5, 85.04 -0.28 M-0.25 97.84 C18.28 75.85, 37.43 52.21, 85.04 -0.28 M0.15 103.48 C30.13 70.79, 60.6 34.25, 90.03 0.08 M0.15 103.48 C29.13 69.82, 56.26 37.41, 90.03 0.08 M-0.11 109.88 C32.35 68.55, 67.47 31.67, 95.67 -0.31 M-0.11 109.88 C31.25 74.59, 62.52 38.72, 95.67 -0.31 M0.28 115.52 C29.94 82.05, 64.16 46.54, 100.66 0.05 M0.28 115.52 C37.83 71, 76.74 28.29, 100.66 0.05 M0.02 121.92 C28 90.34, 56.39 58.25, 106.3 -0.34 M0.02 121.92 C28.28 90.06, 57.42 56.76, 106.3 -0.34 M-0.24 128.32 C28.25 95.17, 56.37 61.03, 111.29 0.02 M-0.24 128.32 C37.99 86.3, 75.63 43.07, 111.29 0.02 M0.15 133.96 C43.02 83.24, 89.44 30.36, 116.27 0.38 M0.15 133.96 C44.05 81.85, 90.65 30.48, 116.27 0.38 M-0.11 140.36 C29.26 104.64, 58.83 71, 121.92 -0.02 M-0.11 140.36 C27.95 108.93, 54.6 76.68, 121.92 -0.02 M0.29 146 C42.13 95.77, 85.77 45.72, 126.91 0.34 M0.29 146 C43.03 97.33, 85.71 47.45, 126.91 0.34 M0.02 152.4 C44.86 98.75, 90.33 49, 132.55 -0.05 M0.02 152.4 C49.97 92.83, 101.01 35.15, 132.55 -0.05 M-0.24 158.8 C53.28 97.82, 102.67 37.79, 137.54 0.31 M-0.24 158.8 C50.01 101.54, 101.26 43.53, 137.54 0.31 M0.16 164.44 C51.02 106.6, 100.24 52.53, 143.18 -0.09 M0.16 164.44 C38.76 118.6, 78.29 73.85, 143.18 -0.09 M-0.1 170.84 C48.14 113.75, 94.74 59.61, 148.17 0.27 M-0.1 170.84 C37.95 127.55, 75.48 83.01, 148.17 0.27 M0.29 176.48 C36.97 131.52, 74.76 89.8, 153.81 -0.12 M0.29 176.48 C41.97 129.58, 81.64 83.16, 153.81 -0.12 M0.03 182.88 C45.73 131.32, 88.24 80.64, 158.8 0.24 M0.03 182.88 C34.47 144.19, 68.91 105.88, 158.8 0.24 M-0.23 189.27 C55.43 123.81, 111.48 57.06, 164.44 -0.16 M-0.23 189.27 C42.44 140.36, 84.67 91.32, 164.44 -0.16 M0.16 194.92 C49.49 140.47, 97.74 86.33, 169.43 0.2 M0.16 194.92 C59.7 126.14, 117.97 59.99, 169.43 0.2 M-0.1 201.32 C60.97 130.09, 122.63 60.82, 175.07 -0.19 M-0.1 201.32 C44.04 150.17, 87.72 99.25, 175.07 -0.19 M0.3 206.96 C40.13 160.93, 82.35 111.79, 180.06 0.17 M0.3 206.96 C69.7 128.02, 138.96 49, 180.06 0.17 M0.03 213.36 C52.32 153.27, 104.28 94.58, 185.7 -0.23 M0.03 213.36 C75.64 129.5, 148.31 45.58, 185.7 -0.23 M-0.23 219.75 C71.92 135.4, 143.26 53.01, 190.69 0.13 M-0.23 219.75 C72.53 134.61, 144.29 51.86, 190.69 0.13 M0.17 225.4 C70.72 143.19, 140.43 60.52, 196.33 -0.26 M0.17 225.4 C63.16 154.78, 122.39 85.26, 196.33 -0.26 M-0.09 231.8 C50.51 172.75, 100.74 115.71, 201.32 0.1 M-0.09 231.8 C40.36 186.09, 80.72 139.56, 201.32 0.1 M0.3 237.44 C66.68 161.34, 132.62 86.37, 206.96 -0.3 M0.3 237.44 C77.05 145.77, 155.48 55.96, 206.96 -0.3 M0.04 243.84 C65.85 166.59, 131.16 91.31, 211.95 0.06 M0.04 243.84 C47.73 186.51, 95.7 131.3, 211.95 0.06 M-0.22 250.23 C62.69 175.67, 128.3 100.51, 213 4.95 M-0.22 250.23 C53.74 188.14, 109.09 124.18, 213 4.95 M0.17 255.88 C65.62 179.72, 129.82 107.24, 212.73 11.35 M0.17 255.88 C55.03 193.07, 111.68 129.27, 212.73 11.35 M-0.09 262.27 C76.01 175.1, 152.28 89.35, 213.13 16.99 M-0.09 262.27 C78.71 172.61, 158.08 80.53, 213.13 16.99 M0.3 267.92 C65.43 193.54, 132.6 116.71, 212.87 23.39 M0.3 267.92 C46.31 211.95, 93.53 157.96, 212.87 23.39 M0.04 274.32 C73.5 191.2, 143.7 109.07, 213.26 29.03 M0.04 274.32 C44.38 223.87, 88.15 173.33, 213.26 29.03 M-0.22 280.71 C58.22 211.86, 118.73 142.52, 213 35.43 M-0.22 280.71 C50.68 221.71, 101.11 163.2, 213 35.43 M0.18 286.36 C45.32 236.42, 89.19 185.96, 212.74 41.83 M0.18 286.36 C45.82 233.22, 92.36 180.89, 212.74 41.83 M-0.08 292.75 C70.37 215.04, 139.89 134.49, 213.13 47.47 M-0.08 292.75 C77.03 201.41, 156.89 111.15, 213.13 47.47 M0.31 298.4 C71.96 216.08, 142.62 132.58, 212.87 53.87 M0.31 298.4 C69.98 218.92, 140.63 137.75, 212.87 53.87 M0.05 304.8 C84.13 207.56, 169.12 108.33, 213.27 59.51 M0.05 304.8 C60.42 237.05, 121.1 168.67, 213.27 59.51 M-0.21 311.19 C47.78 260.13, 93.32 206.95, 213.01 65.91 M-0.21 311.19 C49.34 254.51, 98.4 198.06, 213.01 65.91 M0.18 316.84 C47.53 263.95, 96.68 206.17, 212.74 72.31 M0.18 316.84 C76.28 228.95, 153.39 141.81, 212.74 72.31 M-0.08 323.23 C67.16 243.43, 134.38 165.02, 213.14 77.95 M-0.08 323.23 C60.81 255.16, 120.93 186.86, 213.14 77.95 M0.31 328.88 C82.19 235.43, 164.81 140.89, 212.88 84.35 M0.31 328.88 C43.16 277.2, 87.33 226.45, 212.88 84.35 M0.05 335.27 C50.68 274.73, 104.56 213.9, 213.27 89.99 M0.05 335.27 C44.33 285.46, 87.81 236.06, 213.27 89.99 M-0.21 341.67 C45.71 286.61, 90.49 234.26, 213.01 96.39 M-0.21 341.67 C73.72 257.69, 147.74 172.02, 213.01 96.39 M0.19 347.32 C45.7 295.7, 88.33 247.03, 212.75 102.79 M0.19 347.32 C82.64 251.8, 165.57 156.67, 212.75 102.79 M-0.08 353.71 C66.67 277.39, 132.38 200.77, 213.14 108.43 M-0.08 353.71 C66.84 276.12, 134.48 197.64, 213.14 108.43 M0.32 359.36 C65.85 286.12, 128.82 211.93, 212.88 114.83 M0.32 359.36 C42.34 309.97, 86.38 261.72, 212.88 114.83 M0.06 365.75 C48.64 312.34, 95.18 259.05, 213.28 120.47 M0.06 365.75 C79.54 273.66, 158.42 181.99, 213.28 120.47 M-0.2 372.15 C56.48 311.16, 109.67 248.16, 213.02 126.87 M-0.2 372.15 C54.88 307.87, 110.55 242.86, 213.02 126.87 M0.19 377.79 C75.69 290.44, 152.72 203.31, 212.75 133.27 M0.19 377.79 C83.12 283.3, 165.15 188.86, 212.75 133.27 M-0.07 384.19 C64.27 311.79, 124.12 240.98, 213.15 138.91 M-0.07 384.19 C78.18 294.11, 156.82 203.79, 213.15 138.91 M0.32 389.84 C60.32 321.51, 118.04 251.89, 212.89 145.31 M0.32 389.84 C72.77 306.22, 145.4 222.34, 212.89 145.31 M0.06 396.23 C51.9 334.33, 104.72 273.01, 213.28 150.95 M0.06 396.23 C79.72 303.44, 159.48 210.91, 213.28 150.95 M1.11 401.12 C49.6 344.81, 98.2 288.91, 213.02 157.35 M1.11 401.12 C54.9 339.56, 107.64 278.27, 213.02 157.35 M6.76 400.73 C62.33 335.01, 117.43 274.14, 212.76 163.75 M6.76 400.73 C71.41 326.01, 135.63 250.97, 212.76 163.75 M11.74 401.09 C90.61 312.24, 166.16 221.92, 213.15 169.39 M11.74 401.09 C60.81 345.97, 109.42 290.44, 213.15 169.39 M17.39 400.69 C76.23 332.23, 130.69 268.88, 212.89 175.79 M17.39 400.69 C73.95 336.33, 129.35 271.33, 212.89 175.79 M22.37 401.05 C94.57 317.44, 166.57 234.3, 213.29 181.43 M22.37 401.05 C71.69 348.22, 119.22 294.02, 213.29 181.43 M28.02 400.66 C98.63 318.24, 171.13 235.65, 213.03 187.83 M28.02 400.66 C91.79 326.77, 153.55 255.2, 213.03 187.83 M33 401.02 C74.61 356.4, 111.77 311.4, 212.76 194.23 M33 401.02 C92.93 332.38, 153.63 263.39, 212.76 194.23 M38.65 400.62 C76.55 356.33, 115.88 314.99, 213.16 199.87 M38.65 400.62 C77.59 357.44, 114.42 314.71, 213.16 199.87 M43.63 400.98 C104.12 332.33, 165.38 260.67, 212.9 206.27 M43.63 400.98 C105.39 330.81, 168.43 258.97, 212.9 206.27 M49.28 400.59 C107.88 336.67, 164.89 271.06, 212.64 212.67 M49.28 400.59 C83.72 362.77, 117.29 324.2, 212.64 212.67 M54.26 400.95 C87.72 362.23, 122.14 325.71, 213.03 218.31 M54.26 400.95 C110.02 338.13, 165.52 275.55, 213.03 218.31 M59.91 400.55 C118.98 336.31, 175.11 268.48, 212.77 224.71 M59.91 400.55 C102.13 352.91, 143.33 303.78, 212.77 224.71 M64.89 400.91 C103.22 355.78, 141.77 313.53, 213.16 230.35 M64.89 400.91 C105.49 352.76, 147.17 305.26, 213.16 230.35 M70.54 400.52 C126.37 339.83, 177.68 279.48, 212.9 236.75 M70.54 400.52 C120.13 342.76, 170.1 284.46, 212.9 236.75 M75.52 400.88 C117.31 350.74, 162.1 299.31, 212.64 243.15 M75.52 400.88 C117.79 354.08, 158.13 306.99, 212.64 243.15 M81.17 400.49 C115.53 362.41, 148.05 325.64, 213.04 248.79 M81.17 400.49 C111.2 365.08, 143.16 328.84, 213.04 248.79 M86.15 400.85 C121.57 361.09, 158.39 316.35, 212.77 255.19 M86.15 400.85 C129.57 352.04, 171.21 303.09, 212.77 255.19 M91.8 400.45 C113.66 372.2, 139.04 342.51, 213.17 260.83 M91.8 400.45 C125.65 359.91, 161.64 320.13, 213.17 260.83 M96.78 400.81 C120.32 371.66, 145.36 343.44, 212.91 267.23 M96.78 400.81 C126.63 365.39, 158.31 328.47, 212.91 267.23 M102.43 400.42 C130.06 367.86, 155.67 338.07, 212.65 273.63 M102.43 400.42 C142.96 353.53, 182.28 308.13, 212.65 273.63 M107.41 400.78 C146.25 352.95, 189.19 305.82, 213.04 279.27 M107.41 400.78 C145.33 356.68, 183.25 312.55, 213.04 279.27 M112.4 401.14 C142.71 368.44, 171.71 330.49, 212.78 285.67 M112.4 401.14 C135.83 375.38, 157.56 348.85, 212.78 285.67 M118.04 400.74 C145.07 371.41, 172.98 338.67, 213.17 291.31 M118.04 400.74 C138.37 376.5, 159.06 353.53, 213.17 291.31 M123.03 401.1 C148.93 370.31, 176.4 342.57, 212.91 297.71 M123.03 401.1 C154.96 362.9, 188.36 323.82, 212.91 297.71 M128.67 400.71 C148.52 379.39, 165.96 360.74, 212.65 304.11 M128.67 400.71 C148.46 377.29, 170.27 353.03, 212.65 304.11 M133.66 401.07 C154.05 377.62, 176.18 353.86, 213.04 309.75 M133.66 401.07 C151.35 380.5, 168.68 361.8, 213.04 309.75 M139.3 400.67 C156.1 378.89, 175.14 355.07, 212.78 316.15 M139.3 400.67 C166.87 368.98, 194.77 335.36, 212.78 316.15 M144.29 401.03 C162.77 381.3, 180.76 362.95, 213.18 321.79 M144.29 401.03 C163.44 378.58, 182.52 358.46, 213.18 321.79 M149.93 400.64 C171.97 373.45, 192.48 347.8, 212.92 328.19 M149.93 400.64 C173.37 373.96, 197.47 345.99, 212.92 328.19 M154.92 401 C167.64 385.33, 177.31 372.98, 212.65 334.58 M154.92 401 C167.06 386.91, 178.96 373.57, 212.65 334.58 M160.56 400.6 C179.32 378.21, 202.7 354.9, 213.05 340.23 M160.56 400.6 C175.19 382.91, 189.69 367.7, 213.05 340.23 M165.55 400.96 C179.92 385.82, 193.1 367.99, 212.79 346.63 M165.55 400.96 C182.14 382.63, 198.87 363.7, 212.79 346.63 M171.19 400.57 C185.12 383.78, 198.21 370.83, 213.18 352.27 M171.19 400.57 C187.47 382.57, 202.55 364.47, 213.18 352.27 M176.18 400.93 C191.35 383.52, 202.94 368.3, 212.92 358.67 M176.18 400.93 C183.76 393.1, 190.49 384.2, 212.92 358.67 M181.83 400.54 C190.21 390.66, 197.14 383.02, 212.66 365.06 M181.83 400.54 C190.57 391, 198.38 380.6, 212.66 365.06 M186.81 400.9 C194 392.3, 204.92 379.46, 213.05 370.71 M186.81 400.9 C195.54 390.68, 205.18 379.46, 213.05 370.71 M192.46 400.5 C200.77 390.14, 205.09 384.07, 212.79 377.1 M192.46 400.5 C200.79 390.42, 207.41 381.46, 212.79 377.1 M197.44 400.86 C202.95 394.9, 207.23 387.31, 213.19 382.75 M197.44 400.86 C203.19 395.37, 207.67 390.26, 213.19 382.75 M203.09 400.47 C205.67 395.55, 210.85 392.85, 212.93 389.15 M203.09 400.47 C204.94 397.96, 208.53 394.89, 212.93 389.15 M208.07 400.83 C208.59 399.54, 210.58 398.13, 212.66 395.54 M208.07 400.83 C209.06 399.1, 210.82 397.59, 212.66 395.54" stroke="#a5d8ff" stroke-width="0.5" fill="none"></path><path d="M0 0 C60.06 0.74, 121.88 -1.07, 212.48 0 M0 0 C53.89 -1.01, 107.52 -1.29, 212.48 0 M212.48 0 C213.6 97.84, 214.04 193.62, 212.48 400.71 M212.48 0 C213.98 110.56, 213.61 220.07, 212.48 400.71 M212.48 400.71 C158.87 399.87, 103.29 398.3, 0 400.71 M212.48 400.71 C148.25 400.06, 84.48 399.72, 0 400.71 M0 400.71 C1.58 296.77, 1.06 195, 0 0 M0 400.71 C-2.19 270.3, -1.19 139.82, 0 0" stroke="#1e1e1e" stroke-width="1" fill="none"></path></g><g transform="translate(404.7582358845694 739.7294093525018) rotate(0 77.86585235595703 57.738836505959796)"><text x="77.86585235595703" y="0" font-family="Virgil, Segoe UI Emoji" font-size="23.09553460238392px" fill="#2f9e44" text-anchor="middle" style="white-space: pre;" direction="ltr" dominant-baseline="text-before-edge">Circuit that </text><text x="77.86585235595703" y="28.8694182529799" font-family="Virgil, Segoe UI Emoji" font-size="23.09553460238392px" fill="#2f9e44" text-anchor="middle" style="white-space: pre;" direction="ltr" dominant-baseline="text-before-edge">executes the</text><text x="77.86585235595703" y="57.7388365059598" font-family="Virgil, Segoe UI Emoji" font-size="23.09553460238392px" fill="#2f9e44" text-anchor="middle" style="white-space: pre;" direction="ltr" dominant-baseline="text-before-edge">actuator arm</text><text x="77.86585235595703" y="86.60825475893971" font-family="Virgil, Segoe UI Emoji" font-size="23.09553460238392px" fill="#2f9e44" text-anchor="middle" style="white-space: pre;" direction="ltr" dominant-baseline="text-before-edge">movement</text></g><g stroke-linecap="round" transform="translate(111.94075787226444 1004.1732805497977) rotate(0 236.72922967443517 173.793897882939)"><path d="M0 0 C0 0, 0 0, 0 0 M0 0 C0 0, 0 0, 0 0 M-0.26 6.4 C0.9 4.63, 2.41 3.36, 4.99 0.36 M-0.26 6.4 C1.78 4.56, 3.67 2.03, 4.99 0.36 M0.13 12.04 C4.07 8.65, 8.21 4.46, 10.63 -0.03 M0.13 12.04 C2.97 8.48, 5.54 5.68, 10.63 -0.03 M-0.13 18.44 C3.83 13.39, 11.88 7.68, 15.62 0.33 M-0.13 18.44 C4.68 12.06, 8.62 8, 15.62 0.33 M0.27 24.08 C5.59 18.8, 11.74 10.53, 21.26 -0.07 M0.27 24.08 C5.2 17.71, 11.33 13.04, 21.26 -0.07 M0 30.48 C7.14 23.47, 14.76 15.69, 26.25 0.29 M0 30.48 C6.7 20.98, 14.71 13.55, 26.25 0.29 M-0.26 36.88 C8.45 27.19, 19.97 15.99, 31.89 -0.1 M-0.26 36.88 C8.36 27.21, 16.51 17.98, 31.89 -0.1 M0.14 42.52 C12.1 26.42, 29.19 12.24, 36.88 0.26 M0.14 42.52 C8.14 32.61, 16.04 24.5, 36.88 0.26 M-0.12 48.92 C15.71 32.06, 27.99 14.18, 42.52 -0.14 M-0.12 48.92 C7.74 39.33, 16.45 29.84, 42.52 -0.14 M0.27 54.56 C12.48 38.75, 27.85 23.5, 47.51 0.22 M0.27 54.56 C17.64 35.55, 33.1 16.78, 47.51 0.22 M0.01 60.96 C13.87 45.63, 26.4 33.23, 53.15 -0.17 M0.01 60.96 C21.09 37.1, 41.68 13.48, 53.15 -0.17 M-0.25 67.36 C22.36 45.19, 40.15 19.63, 58.14 0.19 M-0.25 67.36 C16.62 46.84, 35.54 26.01, 58.14 0.19 M0.14 73 C17.33 56.43, 31.31 36.6, 63.78 -0.21 M0.14 73 C20.69 48.34, 41.99 23.19, 63.78 -0.21 M-0.12 79.4 C20.67 55.41, 40.69 31.37, 68.77 0.15 M-0.12 79.4 C17.38 59.19, 35.43 38.99, 68.77 0.15 M0.28 85.04 C22.02 61.98, 43.89 36.09, 74.41 -0.24 M0.28 85.04 C26.57 54.27, 52.09 25.98, 74.41 -0.24 M0.01 91.44 C32.06 57.29, 63.79 21.04, 79.4 0.12 M0.01 91.44 C27.39 60.12, 54.29 28.02, 79.4 0.12 M-0.25 97.84 C21.98 74.21, 46.79 46.56, 85.04 -0.28 M-0.25 97.84 C31.6 61.56, 63.62 24.71, 85.04 -0.28 M0.15 103.48 C29.86 68.73, 57.98 37.68, 90.03 0.08 M0.15 103.48 C22.39 78.46, 44.6 53.56, 90.03 0.08 M-0.11 109.88 C26.88 80.1, 53.96 44.25, 95.67 -0.31 M-0.11 109.88 C28.03 76.59, 57.23 43.31, 95.67 -0.31 M0.28 115.52 C27.83 83.08, 57.74 46.47, 100.66 0.05 M0.28 115.52 C24.09 88.09, 48.37 60.6, 100.66 0.05 M0.02 121.92 C38.06 79.45, 72.8 37.87, 106.3 -0.34 M0.02 121.92 C33.79 82.27, 68.01 41.86, 106.3 -0.34 M-0.24 128.32 C33.23 89.25, 66.35 50.58, 111.29 0.02 M-0.24 128.32 C33.4 90.56, 66.62 51.03, 111.29 0.02 M0.15 133.96 C41.8 89.21, 77.2 44.6, 116.27 0.38 M0.15 133.96 C40.28 86.95, 81.25 38.4, 116.27 0.38 M-0.11 140.36 C34.92 102.23, 69.73 59.78, 121.92 -0.02 M-0.11 140.36 C26.49 109.64, 53.47 78.84, 121.92 -0.02 M0.29 146 C40.31 104.34, 74.53 57.01, 126.91 0.34 M0.29 146 C47.8 93.28, 94.54 39.18, 126.91 0.34 M0.02 152.4 C27.43 120.66, 54.54 88.45, 132.55 -0.05 M0.02 152.4 C39.4 108.45, 80.23 63.06, 132.55 -0.05 M-0.24 158.8 C53.54 95.84, 107.62 34.51, 137.54 0.31 M-0.24 158.8 C43.29 109.35, 85.73 57.63, 137.54 0.31 M0.16 164.44 C46.92 112.33, 94.79 55.77, 143.18 -0.09 M0.16 164.44 C34.53 124.53, 69.31 85.71, 143.18 -0.09 M-0.1 170.84 C40.29 126.88, 77.19 84.85, 148.17 0.27 M-0.1 170.84 C59.1 105.18, 117.14 37.51, 148.17 0.27 M0.29 176.48 C51.41 117.34, 103.76 58.98, 153.81 -0.12 M0.29 176.48 C39.67 128.99, 81.6 82.82, 153.81 -0.12 M0.03 182.88 C45.08 129.64, 94.66 74.95, 158.8 0.24 M0.03 182.88 C56.25 119.89, 111.96 56.15, 158.8 0.24 M-0.23 189.27 C36.89 146.22, 74.37 104.2, 164.44 -0.16 M-0.23 189.27 C63.12 115.69, 127.91 41.94, 164.44 -0.16 M0.16 194.92 C63.68 121.13, 131.04 44.6, 169.43 0.2 M0.16 194.92 C35.06 155.8, 69.83 115.74, 169.43 0.2 M-0.1 201.32 C40.21 157.28, 77.18 113.43, 175.07 -0.19 M-0.1 201.32 C61.04 130.42, 121.66 60.55, 175.07 -0.19 M0.3 206.96 C64.14 133.25, 131.16 55.39, 180.06 0.17 M0.3 206.96 C58.2 139.67, 116.33 72.75, 180.06 0.17 M0.03 213.36 C48.56 156.87, 95.86 103.07, 185.7 -0.23 M0.03 213.36 C50.41 157.24, 100.63 99.32, 185.7 -0.23 M-0.23 219.75 C67.05 145.37, 132.49 69.33, 190.69 0.13 M-0.23 219.75 C65.69 144.09, 130.95 70.07, 190.69 0.13 M0.17 225.4 C56.43 159.95, 114.6 95.32, 196.33 -0.26 M0.17 225.4 C39.8 179.29, 80.53 131.98, 196.33 -0.26 M-0.09 231.8 C81.91 138.35, 160.93 47.62, 201.32 0.1 M-0.09 231.8 C47.46 174.74, 95.86 119.56, 201.32 0.1 M0.3 237.44 C82.38 145, 160.7 54.02, 206.96 -0.3 M0.3 237.44 C44.01 186.8, 87.24 137.83, 206.96 -0.3 M0.04 243.84 C55.23 181.46, 108.94 117.69, 211.95 0.06 M0.04 243.84 C55.55 180.17, 110.67 115.54, 211.95 0.06 M-0.22 250.23 C51.06 189.87, 101.37 132.12, 217.59 -0.33 M-0.22 250.23 C50.12 190.38, 101.68 130.75, 217.59 -0.33 M0.17 255.88 C54.35 194.34, 109.84 131.27, 222.58 0.03 M0.17 255.88 C49.62 200.05, 98.77 143.18, 222.58 0.03 M-0.09 262.27 C57.72 198.25, 114.39 134.27, 228.22 -0.36 M-0.09 262.27 C60.98 192.89, 120.58 124.01, 228.22 -0.36 M0.3 267.92 C75.86 179.92, 152.82 92.5, 233.21 0 M0.3 267.92 C84 169.29, 168.58 72.07, 233.21 0 M0.04 274.32 C59.58 211.2, 115.12 145.69, 238.19 0.36 M0.04 274.32 C85.91 174.72, 171.95 76.87, 238.19 0.36 M-0.22 280.71 C62.45 209.07, 125.8 137.8, 243.84 -0.04 M-0.22 280.71 C78.17 193.53, 154.42 105.3, 243.84 -0.04 M0.18 286.36 C89.15 184.67, 175.72 84.43, 248.82 0.32 M0.18 286.36 C51.59 224.79, 105.04 163.68, 248.82 0.32 M-0.08 292.75 C60.24 224.31, 121.48 155.14, 254.47 -0.07 M-0.08 292.75 C89.14 191.16, 177.31 89.32, 254.47 -0.07 M0.31 298.4 C87.75 196.27, 174.99 93.78, 259.45 0.29 M0.31 298.4 C55.35 234.82, 111.12 171.03, 259.45 0.29 M0.05 304.8 C68.39 229.2, 133.13 151.74, 265.1 -0.11 M0.05 304.8 C81.39 214.24, 160.08 123.22, 265.1 -0.11 M-0.21 311.19 C73.7 222.96, 150.94 136.96, 270.08 0.25 M-0.21 311.19 C99.47 197.81, 197.76 83.95, 270.08 0.25 M0.18 316.84 C93.12 209.22, 186.83 101.74, 275.73 -0.14 M0.18 316.84 C69.77 235.51, 141.06 154.29, 275.73 -0.14 M-0.08 323.23 C73.54 237.59, 147.65 151.73, 280.71 0.22 M-0.08 323.23 C103.51 201.66, 208.51 80.63, 280.71 0.22 M0.31 328.88 C88.49 225.35, 177.86 120.83, 286.36 -0.18 M0.31 328.88 C79.53 240.69, 157.82 150.87, 286.36 -0.18 M0.05 335.27 C88.44 235.61, 174.75 134.85, 291.34 0.18 M0.05 335.27 C103.3 218.45, 206.06 99.95, 291.34 0.18 M-0.21 341.67 C76.24 253.02, 153.22 165.89, 296.99 -0.21 M-0.21 341.67 C73.61 257.06, 148.2 171.66, 296.99 -0.21 M0.19 347.32 C62.56 273.83, 124.77 199.68, 301.97 0.15 M0.19 347.32 C97.78 233.81, 195.71 119.73, 301.97 0.15 M4.52 348.43 C69.99 273.08, 134.74 197.32, 307.62 -0.25 M4.52 348.43 C82.82 259.53, 160.94 169.42, 307.62 -0.25 M10.16 348.04 C111.13 229.45, 213.57 112.62, 312.6 0.11 M10.16 348.04 C110.43 233.48, 209.44 120.23, 312.6 0.11 M15.15 348.4 C107.67 241.55, 199.2 137.82, 318.25 -0.28 M15.15 348.4 C80.79 272.5, 146.3 197.56, 318.25 -0.28 M20.79 348 C96.02 261.49, 171.47 175.86, 323.23 0.08 M20.79 348 C107.92 247.02, 196.45 144.53, 323.23 0.08 M25.78 348.36 C146.76 211.21, 266.98 72.57, 328.88 -0.31 M25.78 348.36 C88.55 274.81, 151.31 203.47, 328.88 -0.31 M31.42 347.97 C95.17 275.37, 158.49 201.39, 333.86 0.05 M31.42 347.97 C143.51 218.17, 256.33 89.25, 333.86 0.05 M36.41 348.33 C112.98 261.98, 188.16 175.46, 339.51 -0.35 M36.41 348.33 C147.6 221.65, 258.83 94.03, 339.51 -0.35 M42.05 347.93 C141.94 235.01, 239.78 122.07, 344.49 0.01 M42.05 347.93 C108.24 271.83, 173.81 195.97, 344.49 0.01 M47.04 348.29 C157.57 218.22, 270.18 88.73, 349.48 0.37 M47.04 348.29 C164.81 212.08, 283.05 75.17, 349.48 0.37 M52.68 347.9 C172.93 208.01, 293.98 69.58, 355.12 -0.02 M52.68 347.9 C140.94 245.47, 228.81 144.09, 355.12 -0.02 M57.67 348.26 C161.76 225.73, 268.01 104.7, 360.11 0.34 M57.67 348.26 C128.79 266.13, 200.05 183.61, 360.11 0.34 M63.31 347.86 C142.47 256.12, 222.22 164.26, 365.75 -0.06 M63.31 347.86 C175.3 221.28, 286.04 93.64, 365.75 -0.06 M68.3 348.22 C167.94 231.03, 268.48 116.22, 370.74 0.3 M68.3 348.22 C132.91 275.28, 198.3 200.95, 370.74 0.3 M73.28 348.58 C153.73 255.83, 234.28 163.33, 376.38 -0.09 M73.28 348.58 C139.26 272.95, 204.42 197.7, 376.38 -0.09 M78.93 348.19 C181.18 231.27, 282.5 115.12, 381.37 0.27 M78.93 348.19 C167.66 248.57, 254.82 146.74, 381.37 0.27 M83.91 348.55 C194.73 220.81, 304.41 95.4, 387.01 -0.13 M83.91 348.55 C183.43 232.73, 283.17 117.19, 387.01 -0.13 M89.56 348.15 C195.46 226.97, 299.45 106.63, 392 0.23 M89.56 348.15 C210.9 210.34, 330.74 73.07, 392 0.23 M94.55 348.51 C169.77 263.84, 242.94 181.19, 397.64 -0.16 M94.55 348.51 C156.26 276.65, 217.82 206.26, 397.64 -0.16 M100.19 348.12 C164.04 274.13, 229.28 200.03, 402.63 0.2 M100.19 348.12 C196.53 239.69, 291.17 130.48, 402.63 0.2 M105.18 348.48 C223.55 209.6, 343.94 72.77, 408.27 -0.2 M105.18 348.48 C176.29 266.66, 247.24 185.75, 408.27 -0.2 M110.82 348.09 C217.49 223.4, 324.68 100.44, 413.26 0.16 M110.82 348.09 C229.1 212.92, 347.32 77.01, 413.26 0.16 M115.81 348.45 C187.6 265.6, 261.52 181.16, 418.9 -0.23 M115.81 348.45 C184.19 267.66, 254.14 187.49, 418.9 -0.23 M121.45 348.05 C198.15 258.28, 275.03 169.05, 423.89 0.13 M121.45 348.05 C185.87 270.84, 252.37 194.14, 423.89 0.13 M126.44 348.41 C187.56 277.34, 251.7 203.07, 429.53 -0.26 M126.44 348.41 C222.31 240.16, 317.31 130.48, 429.53 -0.26 M132.08 348.02 C243.39 219.65, 354.89 90.21, 434.52 0.1 M132.08 348.02 C243.17 222.53, 353.12 95.37, 434.52 0.1 M137.07 348.38 C210.82 263.07, 287.36 176.75, 440.16 -0.3 M137.07 348.38 C200.49 275.96, 263.53 203.38, 440.16 -0.3 M142.71 347.98 C207.46 270.96, 274.99 195.86, 445.15 0.06 M142.71 347.98 C216.52 264.81, 290.36 180.03, 445.15 0.06 M147.7 348.34 C247.76 234.22, 345.37 122.52, 450.79 -0.33 M147.7 348.34 C252.43 227.72, 355.36 108.67, 450.79 -0.33 M153.34 347.95 C239.64 247.94, 327.56 146.76, 455.78 0.03 M153.34 347.95 C221.01 268.43, 288.78 189.74, 455.78 0.03 M158.33 348.31 C254.7 236.38, 352.25 124.23, 461.42 -0.37 M158.33 348.31 C265.93 223.54, 375.18 97.45, 461.42 -0.37 M163.97 347.91 C263.83 232.83, 364.78 116.73, 466.41 -0.01 M163.97 347.91 C267.22 227.61, 372.74 106.56, 466.41 -0.01 M168.96 348.27 C271.67 230.54, 372.26 113.51, 471.4 0.35 M168.96 348.27 C232.17 275.15, 296.6 201.75, 471.4 0.35 M174.6 347.88 C256.49 252.93, 338.75 158.73, 473.76 3.73 M174.6 347.88 C291.31 211.65, 409.51 75.02, 473.76 3.73 M179.59 348.24 C297.09 213.68, 412.99 80.92, 474.16 9.37 M179.59 348.24 C253.08 264.35, 326.19 180.2, 474.16 9.37 M185.23 347.84 C271.62 247.9, 358.92 148.01, 473.89 15.77 M185.23 347.84 C246.75 275.4, 310.08 203.32, 473.89 15.77 M190.22 348.2 C284.64 243.75, 376.18 137.05, 474.29 21.41 M190.22 348.2 C286.83 238.67, 382.79 128.08, 474.29 21.41 M195.2 348.56 C298.8 230.02, 401.86 110.99, 474.03 27.81 M195.2 348.56 C257.02 278.46, 319.68 207.39, 474.03 27.81 M200.85 348.17 C276.78 259.68, 352.49 173.06, 473.77 34.21 M200.85 348.17 C298.17 236.67, 393.62 126.31, 473.77 34.21 M205.83 348.53 C286.87 256.47, 368.01 164.23, 474.16 39.85 M205.83 348.53 C276.19 266.63, 349.22 183.83, 474.16 39.85 M211.48 348.13 C273.39 278.24, 332.77 209.08, 473.9 46.25 M211.48 348.13 C280.25 266.74, 350.52 186.4, 473.9 46.25 M216.46 348.49 C291.5 264.06, 364.66 179.91, 474.29 51.89 M216.46 348.49 C313.99 234.87, 412.19 122.41, 474.29 51.89 M222.11 348.1 C287.66 274.22, 355.49 197.29, 474.03 58.29 M222.11 348.1 C291.17 267.5, 359.75 188.28, 474.03 58.29 M227.09 348.46 C320.04 237.09, 415.71 127.62, 473.77 64.69 M227.09 348.46 C284.36 281.78, 343.09 214.95, 473.77 64.69 M232.74 348.07 C297.81 271.91, 366.7 195.18, 474.17 70.33 M232.74 348.07 C296.27 274.54, 360.27 200.79, 474.17 70.33 M237.72 348.43 C292.09 288.58, 343.37 228.46, 473.9 76.73 M237.72 348.43 C302.1 275.14, 366.39 200.68, 473.9 76.73 M243.37 348.03 C313.98 268.59, 383.79 188.57, 473.64 83.13 M243.37 348.03 C322.08 257.56, 402.47 164.09, 473.64 83.13 M248.35 348.39 C314.16 275.95, 376.54 201.13, 474.04 88.77 M248.35 348.39 C334.36 247.96, 419.96 149.28, 474.04 88.77 M254 348 C332.38 253.59, 413.46 161.82, 473.78 95.17 M254 348 C326.43 265.28, 398.95 181.74, 473.78 95.17 M258.98 348.36 C310.46 289.51, 359.29 232.81, 474.17 100.81 M258.98 348.36 C306.99 295.2, 354.75 241.47, 474.17 100.81 M264.63 347.96 C312.41 292.67, 361.09 236.57, 473.91 107.21 M264.63 347.96 C311.99 293.18, 359.59 237.41, 473.91 107.21 M269.61 348.32 C310.95 302.28, 350.63 254.14, 473.65 113.61 M269.61 348.32 C329.94 281.43, 389.35 212.44, 473.65 113.61 M275.26 347.93 C327.31 287.82, 381.01 226.22, 474.04 119.25 M275.26 347.93 C350.18 263.82, 424.06 178.47, 474.04 119.25 M280.24 348.29 C333.41 287.18, 385.25 225.84, 473.78 125.65 M280.24 348.29 C333.03 289.43, 385 228.91, 473.78 125.65 M285.89 347.89 C354.66 270.06, 421.68 191.09, 474.18 131.29 M285.89 347.89 C342.12 283.84, 397.82 220.64, 474.18 131.29 M290.87 348.25 C330.01 301.32, 369.1 254.68, 473.91 137.69 M290.87 348.25 C342.14 290.89, 392.65 231.2, 473.91 137.69 M296.52 347.86 C335.01 303.31, 377.86 254.13, 473.65 144.09 M296.52 347.86 C338.19 298.1, 381.19 248.79, 473.65 144.09 M301.5 348.22 C362.91 278.33, 422.39 205.98, 474.05 149.73 M301.5 348.22 C337.91 308.81, 371.35 269.07, 474.05 149.73 M306.49 348.58 C351.92 294.16, 401.14 241.39, 473.79 156.13 M306.49 348.58 C348.8 298.33, 391.63 249.9, 473.79 156.13 M312.13 348.18 C357.85 295.67, 405.08 242.44, 474.18 161.77 M312.13 348.18 C375.36 277.79, 437.27 207.9, 474.18 161.77 M317.12 348.54 C374.44 280.51, 432.92 215.62, 473.92 168.17 M317.12 348.54 C362.74 295.17, 411.09 240.2, 473.92 168.17 M322.76 348.15 C379.48 283.03, 435.45 220.34, 473.66 174.57 M322.76 348.15 C371.32 295.1, 418.52 240.26, 473.66 174.57 M327.75 348.51 C366.61 305.71, 400.96 263.77, 474.05 180.21 M327.75 348.51 C377.63 289.91, 427.77 233.41, 474.05 180.21 M333.39 348.12 C364.3 310.52, 397.96 272.3, 473.79 186.61 M333.39 348.12 C383.23 291.08, 433.33 234.05, 473.79 186.61 M338.38 348.48 C376.99 302.06, 417.6 254.98, 474.19 192.25 M338.38 348.48 C371.99 309.7, 404.85 269.91, 474.19 192.25 M344.02 348.08 C377.96 307.84, 413.45 266.35, 473.92 198.65 M344.02 348.08 C374.96 313.59, 404.14 280.13, 473.92 198.65 M349.01 348.44 C395.95 290.29, 445.67 236.37, 473.66 205.05 M349.01 348.44 C386.64 303.99, 424.66 259.2, 473.66 205.05 M354.65 348.05 C397.24 297.11, 439.83 249.67, 474.06 210.69 M354.65 348.05 C388.18 307.39, 424.46 266.2, 474.06 210.69 M359.64 348.41 C391.08 314.75, 422.61 278.27, 473.8 217.09 M359.64 348.41 C394.74 308.04, 429.38 269.34, 473.8 217.09 M365.28 348.01 C400.65 307.92, 434.63 270.58, 474.19 222.73 M365.28 348.01 C396.93 312.21, 429.04 275.33, 474.19 222.73 M370.27 348.37 C405.66 309.61, 439.22 270.28, 473.93 229.13 M370.27 348.37 C394.49 321.96, 418.13 293.67, 473.93 229.13 M375.91 347.98 C399.13 319.89, 423.81 294.43, 473.67 235.53 M375.91 347.98 C397.11 325.56, 417.58 301.74, 473.67 235.53 M380.9 348.34 C402.43 323.19, 425.97 297.65, 474.06 241.17 M380.9 348.34 C417.52 305.66, 455.06 263.65, 474.06 241.17 M386.54 347.94 C404.99 324.34, 423.18 302.7, 473.8 247.57 M386.54 347.94 C420.32 309.41, 454.2 268.49, 473.8 247.57 M391.53 348.3 C421.51 314.69, 447.96 284.11, 474.19 253.21 M391.53 348.3 C416.47 317.51, 443.58 286.67, 474.19 253.21 M397.17 347.91 C422.76 317.69, 449.64 284.91, 473.93 259.61 M397.17 347.91 C415.84 327.34, 433.78 306.34, 473.93 259.61 M402.16 348.27 C417.52 328.52, 435.94 310.22, 473.67 266.01 M402.16 348.27 C416.81 331.94, 431.83 313.61, 473.67 266.01 M407.8 347.87 C430.67 318.39, 454.72 292.73, 474.07 271.65 M407.8 347.87 C428.92 324.01, 449.62 301.38, 474.07 271.65 M412.79 348.23 C437.26 318.92, 462.48 293.54, 473.81 278.05 M412.79 348.23 C430.64 326.27, 450.67 305.35, 473.81 278.05 M417.78 348.59 C430.35 337.55, 439.99 323.74, 474.2 283.69 M417.78 348.59 C430.65 333.4, 443.39 317.87, 474.2 283.69 M423.42 348.2 C441.66 329.66, 458.05 308.09, 473.94 290.09 M423.42 348.2 C441.23 328.95, 457.62 309.72, 473.94 290.09 M428.41 348.56 C438.6 339.39, 446.7 325.45, 473.68 296.48 M428.41 348.56 C444.39 327.8, 463.18 308.79, 473.68 296.48 M434.05 348.17 C445.37 335.19, 459.21 318.77, 474.07 302.13 M434.05 348.17 C443.22 337.19, 453.66 326.22, 474.07 302.13 M439.04 348.53 C454.89 332.45, 464.93 315.3, 473.81 308.53 M439.04 348.53 C452.6 331.91, 465.97 315.82, 473.81 308.53 M444.68 348.13 C456.82 337.89, 464.24 324.72, 474.2 314.17 M444.68 348.13 C452.39 339.36, 460.9 327.85, 474.2 314.17 M449.67 348.49 C455.71 339.15, 465.72 330.28, 473.94 320.57 M449.67 348.49 C456.42 340.95, 461.32 333.8, 473.94 320.57 M455.31 348.1 C459.62 342.74, 462.12 337.36, 473.68 326.96 M455.31 348.1 C460.66 340.57, 465.86 334.81, 473.68 326.96 M460.3 348.46 C464.53 344.75, 465.51 339.75, 474.08 332.61 M460.3 348.46 C464.28 343.88, 466.57 342.2, 474.08 332.61 M465.94 348.06 C468.91 345.64, 471.62 342.44, 473.81 339.01 M465.94 348.06 C468.48 345.01, 471.24 342.9, 473.81 339.01 M470.93 348.42 C471.66 347.2, 472.63 346.09, 474.21 344.65 M470.93 348.42 C471.97 347.23, 473.14 346.18, 474.21 344.65" stroke="#a5d8ff" stroke-width="0.5" fill="none"></path><path d="M0 0 C154.72 0.54, 308.43 0.22, 473.46 0 M0 0 C146.71 0.56, 292.79 1.11, 473.46 0 M473.46 0 C472.95 124.8, 473.86 246.69, 473.46 347.59 M473.46 0 C474.96 115.79, 474.41 232.77, 473.46 347.59 M473.46 347.59 C295.93 348.52, 119.26 348.39, 0 347.59 M473.46 347.59 C338.88 348.77, 204.01 349.35, 0 347.59 M0 347.59 C1.66 264.05, 0.67 182.83, 0 0 M0 347.59 C-0.1 246.51, -0.87 143.73, 0 0" stroke="#1e1e1e" stroke-width="1" fill="none"></path></g><g stroke-linecap="round" transform="translate(617.7329656644724 599.4240366430195) rotate(0 171.4843444227006 373.5702721935599)"><path d="M0 0 C0 0, 0 0, 0 0 M0 0 C0 0, 0 0, 0 0 M-0.26 6.4 C1.45 4.36, 4.03 1.77, 4.99 0.36 M-0.26 6.4 C1.32 4.86, 3.31 2.2, 4.99 0.36 M0.13 12.04 C3.77 8.79, 8.17 2.76, 10.63 -0.03 M0.13 12.04 C4.85 7.08, 8.73 2.89, 10.63 -0.03 M-0.13 18.44 C5.89 12.83, 9.26 7.21, 15.62 0.33 M-0.13 18.44 C3.82 13.79, 7.72 8.37, 15.62 0.33 M0.27 24.08 C5.1 17.55, 12.05 7.9, 21.26 -0.07 M0.27 24.08 C5.44 17.11, 10.98 11.74, 21.26 -0.07 M0 30.48 C6.32 24.55, 10.65 16.49, 26.25 0.29 M0 30.48 C10.98 18.6, 21.08 5.89, 26.25 0.29 M-0.26 36.88 C13.61 22.19, 24.02 9.31, 31.89 -0.1 M-0.26 36.88 C9.12 27.71, 16.07 17.32, 31.89 -0.1 M0.14 42.52 C11.61 25.87, 28.01 13.58, 36.88 0.26 M0.14 42.52 C9.59 30.58, 19.68 20.83, 36.88 0.26 M-0.12 48.92 C17.09 28.34, 35.4 10.85, 42.52 -0.14 M-0.12 48.92 C8.83 38.31, 18.36 25.75, 42.52 -0.14 M0.27 54.56 C16.43 38.23, 32.97 17.73, 47.51 0.22 M0.27 54.56 C15.85 36.67, 29.6 19.65, 47.51 0.22 M0.01 60.96 C17.48 37.3, 37.57 17.7, 53.15 -0.17 M0.01 60.96 C17.56 41.73, 34.99 21.78, 53.15 -0.17 M-0.25 67.36 C16.23 48.3, 37.62 27.56, 58.14 0.19 M-0.25 67.36 C21.59 41.09, 44.64 16.64, 58.14 0.19 M0.14 73 C16.97 54.28, 33.88 35.38, 63.78 -0.21 M0.14 73 C17.13 54.03, 34.75 34, 63.78 -0.21 M-0.12 79.4 C17.46 58.83, 34.79 37.12, 68.77 0.15 M-0.12 79.4 C23.43 53.31, 46.86 26.43, 68.77 0.15 M0.28 85.04 C26.93 53.22, 56.8 19.37, 74.41 -0.24 M0.28 85.04 C28.06 51.75, 58.19 19.34, 74.41 -0.24 M0.01 91.44 C19.58 67.56, 38.95 45.65, 79.4 0.12 M0.01 91.44 C18.43 70.87, 35.34 49.83, 79.4 0.12 M-0.25 97.84 C27.41 63.8, 57.01 29.9, 85.04 -0.28 M-0.25 97.84 C28.3 65.29, 57.1 31.39, 85.04 -0.28 M0.15 103.48 C30.73 66.42, 61.66 33.69, 90.03 0.08 M0.15 103.48 C33.94 62.71, 68.78 23.79, 90.03 0.08 M-0.11 109.88 C37.74 67.04, 71.08 25.04, 95.67 -0.31 M-0.11 109.88 C34.69 70.33, 70.8 29.86, 95.67 -0.31 M0.28 115.52 C36.64 74.39, 71.04 37.75, 100.66 0.05 M0.28 115.52 C27.44 83.03, 55.27 51.85, 100.66 0.05 M0.02 121.92 C34.64 80.43, 67.17 42.39, 106.3 -0.34 M0.02 121.92 C27.53 91, 54.18 58.74, 106.3 -0.34 M-0.24 128.32 C26.17 95.27, 53.54 65.85, 111.29 0.02 M-0.24 128.32 C30.34 94.12, 58.94 60.3, 111.29 0.02 M0.15 133.96 C34.15 96.03, 64.16 59.35, 116.27 0.38 M0.15 133.96 C25.4 105.79, 50.99 77.95, 116.27 0.38 M-0.11 140.36 C40.69 92.14, 81.79 42.07, 121.92 -0.02 M-0.11 140.36 C31.56 104.3, 62.65 67.97, 121.92 -0.02 M0.29 146 C37.7 105.23, 74.09 65.07, 126.91 0.34 M0.29 146 C45.14 94.01, 88.8 44.89, 126.91 0.34 M0.02 152.4 C46.09 98.23, 92.79 46.4, 132.55 -0.05 M0.02 152.4 C33.42 113.71, 66.22 75.22, 132.55 -0.05 M-0.24 158.8 C30.15 123.85, 63.03 85.37, 137.54 0.31 M-0.24 158.8 C53.03 98.18, 106.24 37.71, 137.54 0.31 M0.16 164.44 C40.13 118.06, 80.1 73.33, 143.18 -0.09 M0.16 164.44 C58.79 99.9, 114.43 35.54, 143.18 -0.09 M-0.1 170.84 C56.05 104.9, 111.26 41.02, 148.17 0.27 M-0.1 170.84 C56.47 104.43, 111.88 40.48, 148.17 0.27 M0.29 176.48 C55.52 112.06, 109.8 46.77, 153.81 -0.12 M0.29 176.48 C50.04 120.94, 95.87 66.62, 153.81 -0.12 M0.03 182.88 C39.92 135.82, 79.71 90.89, 158.8 0.24 M0.03 182.88 C31.88 146.95, 63.64 110.3, 158.8 0.24 M-0.23 189.27 C52.43 128.31, 104.95 68.9, 164.44 -0.16 M-0.23 189.27 C60.63 115.94, 123.2 44.44, 164.44 -0.16 M0.16 194.92 C52.89 132.89, 104.81 72.99, 169.43 0.2 M0.16 194.92 C38.3 148.77, 76.49 104.82, 169.43 0.2 M-0.1 201.32 C51.19 140.08, 105.49 77.96, 175.07 -0.19 M-0.1 201.32 C44.14 150.54, 89.66 97.85, 175.07 -0.19 M0.3 206.96 C55.87 142.2, 110.1 81.36, 180.06 0.17 M0.3 206.96 C46.53 154.01, 94.68 100.15, 180.06 0.17 M0.03 213.36 C66.22 137.35, 132.78 62.98, 185.7 -0.23 M0.03 213.36 C68.54 135.47, 137.67 55.07, 185.7 -0.23 M-0.23 219.75 C58.06 153.17, 118.58 84.04, 190.69 0.13 M-0.23 219.75 C40.95 169.28, 83.4 120.81, 190.69 0.13 M0.17 225.4 C67.95 148.85, 132.38 73.28, 196.33 -0.26 M0.17 225.4 C41.02 178.95, 81.28 132.43, 196.33 -0.26 M-0.09 231.8 C54.98 166.82, 112.15 101.34, 201.32 0.1 M-0.09 231.8 C48.01 176.06, 95.58 120.83, 201.32 0.1 M0.3 237.44 C44.25 188.9, 86.92 139.82, 206.96 -0.3 M0.3 237.44 C44.66 185.76, 89.93 134.92, 206.96 -0.3 M0.04 243.84 C70.07 166.62, 139.17 86.55, 211.95 0.06 M0.04 243.84 C76.66 153.05, 156.05 63.35, 211.95 0.06 M-0.22 250.23 C73.18 165.87, 145.63 80.35, 217.59 -0.33 M-0.22 250.23 C71.18 168.77, 143.53 85.63, 217.59 -0.33 M0.17 255.88 C87.88 154.38, 176.54 50.98, 222.58 0.03 M0.17 255.88 C63.16 185.19, 126.38 113.83, 222.58 0.03 M-0.09 262.27 C51.08 207.51, 99.84 150.68, 228.22 -0.36 M-0.09 262.27 C52.97 201.56, 105.51 141.12, 228.22 -0.36 M0.3 267.92 C52.29 209.65, 105.98 146.73, 233.21 0 M0.3 267.92 C83.73 171.66, 168.05 76.1, 233.21 0 M0.04 274.32 C75.18 185.47, 150.38 97.97, 238.19 0.36 M0.04 274.32 C67.93 198.27, 135.02 121.88, 238.19 0.36 M-0.22 280.71 C93.84 173.19, 188.62 64.6, 243.84 -0.04 M-0.22 280.71 C49.1 221.57, 99.79 163.32, 243.84 -0.04 M0.18 286.36 C59.64 215.53, 122.16 144.61, 248.82 0.32 M0.18 286.36 C51.73 228.27, 102.39 170.52, 248.82 0.32 M-0.08 292.75 C54.57 227.48, 108.53 164.7, 254.47 -0.07 M-0.08 292.75 C88.17 192.25, 176.57 90.11, 254.47 -0.07 M0.31 298.4 C55.23 235.94, 107.6 176, 259.45 0.29 M0.31 298.4 C100.89 182.02, 202.07 65.86, 259.45 0.29 M0.05 304.8 C83 210, 164.83 115.02, 265.1 -0.11 M0.05 304.8 C83.38 208.18, 167.48 110.89, 265.1 -0.11 M-0.21 311.19 C82.63 217.68, 163.27 123.54, 270.08 0.25 M-0.21 311.19 C53.6 248.49, 109.11 186.55, 270.08 0.25 M0.18 316.84 C62.16 247.68, 122.36 178.61, 275.73 -0.14 M0.18 316.84 C102.83 198.03, 205 79.79, 275.73 -0.14 M-0.08 323.23 C73.59 242.06, 144.37 159.27, 280.71 0.22 M-0.08 323.23 C72.74 238.33, 146.34 152.93, 280.71 0.22 M0.31 328.88 C102.15 211.66, 204.69 94.79, 286.36 -0.18 M0.31 328.88 C111.45 201.82, 221.54 75.13, 286.36 -0.18 M0.05 335.27 C86.9 236.83, 170.42 139.35, 291.34 0.18 M0.05 335.27 C106.96 212.14, 214.3 88.76, 291.34 0.18 M-0.21 341.67 C83.44 245.9, 165.81 148.93, 296.99 -0.21 M-0.21 341.67 C101.12 224.63, 202.68 107.57, 296.99 -0.21 M0.19 347.32 C74.35 259.91, 149.36 173.24, 301.97 0.15 M0.19 347.32 C113.12 216.13, 226.44 85.24, 301.97 0.15 M-0.08 353.71 C70.79 272.08, 141.64 190.58, 307.62 -0.25 M-0.08 353.71 C77.8 264.29, 155.1 174.97, 307.62 -0.25 M0.32 359.36 C84.16 261.76, 167.35 167.62, 312.6 0.11 M0.32 359.36 C98.54 245.9, 196.91 132.02, 312.6 0.11 M0.06 365.75 C122.97 225.37, 243.79 84.37, 318.25 -0.28 M0.06 365.75 C77.47 278.27, 154.33 190.08, 318.25 -0.28 M-0.2 372.15 C95.45 261.38, 188.48 153.97, 323.23 0.08 M-0.2 372.15 C92.46 265.82, 184.35 159.41, 323.23 0.08 M0.19 377.79 C124.31 234.25, 248.54 91.18, 328.88 -0.31 M0.19 377.79 C83.43 285.32, 165.14 191.57, 328.88 -0.31 M-0.07 384.19 C128.06 235.28, 257.73 86.53, 333.86 0.05 M-0.07 384.19 C114.15 252.31, 227.26 121.93, 333.86 0.05 M0.32 389.84 C76.15 305.69, 148.98 220.74, 339.51 -0.35 M0.32 389.84 C113.31 260.33, 226.39 130.68, 339.51 -0.35 M0.06 396.23 C74.69 310.42, 149.39 226.47, 343.18 1.52 M0.06 396.23 C75.13 311.4, 148.62 226.68, 343.18 1.52 M-0.2 402.63 C122.41 261.69, 245.5 119.5, 342.92 7.92 M-0.2 402.63 C125.47 258.87, 251.88 113.8, 342.92 7.92 M0.2 408.27 C121.54 271.66, 241.59 133.54, 343.31 13.56 M0.2 408.27 C71.4 328.41, 141.72 247.54, 343.31 13.56 M-0.07 414.67 C73.33 331.27, 146.69 248.36, 343.05 19.96 M-0.07 414.67 C119.8 278.32, 239.06 141.73, 343.05 19.96 M-0.33 421.07 C129.32 274.88, 256.99 126.48, 342.79 26.36 M-0.33 421.07 C93.89 313.44, 187.29 205.17, 342.79 26.36 M0.07 426.71 C88.57 324.45, 176.71 224.04, 343.19 32 M0.07 426.71 C95.32 315.41, 191.87 204.56, 343.19 32 M-0.19 433.11 C130.15 286.46, 257.51 139.35, 342.93 38.4 M-0.19 433.11 C119.67 294.01, 240.01 155.19, 342.93 38.4 M0.2 438.75 C107.86 312.82, 217.36 186.9, 343.32 44.04 M0.2 438.75 C103.56 321.1, 205.39 203.64, 343.32 44.04 M-0.06 445.15 C86.15 346.84, 171.13 249.36, 343.06 50.44 M-0.06 445.15 C80.31 352.2, 161.7 258.81, 343.06 50.44 M-0.32 451.55 C97.88 340, 196.06 226.1, 342.8 56.84 M-0.32 451.55 C115.95 318, 231.76 184.37, 342.8 56.84 M0.07 457.19 C67.49 377.4, 136.74 297.53, 343.19 62.48 M0.07 457.19 C99.64 341.93, 200.82 226.19, 343.19 62.48 M-0.19 463.59 C69.46 381.28, 140.51 299.79, 342.93 68.88 M-0.19 463.59 C90.45 357.74, 182.56 251.59, 342.93 68.88 M0.21 469.23 C84.29 372.44, 167.58 276.49, 343.32 74.52 M0.21 469.23 C123.88 326.51, 246.84 184.98, 343.32 74.52 M-0.06 475.63 C130.8 323.45, 263.03 172.24, 343.06 80.92 M-0.06 475.63 C123.73 332.95, 247.88 189.92, 343.06 80.92 M-0.32 482.03 C103.45 364.74, 205.68 245.31, 342.8 87.32 M-0.32 482.03 C77.95 393.14, 155.66 303.13, 342.8 87.32 M0.08 487.67 C96.2 378, 191.9 267.66, 343.2 92.96 M0.08 487.67 C74.37 401.66, 149.21 315.9, 343.2 92.96 M-0.18 494.07 C100.84 379.08, 201.89 264.39, 342.93 99.36 M-0.18 494.07 C125.29 347.97, 252.02 201.92, 342.93 99.36 M0.21 499.71 C74.09 415.79, 145.82 333.84, 343.33 105 M0.21 499.71 C84.43 402.8, 170.11 304.58, 343.33 105 M-0.05 506.11 C90.71 403.31, 181.25 299.83, 343.07 111.4 M-0.05 506.11 C75.5 420.03, 149.83 335.01, 343.07 111.4 M-0.31 512.51 C86.62 410.54, 174.55 308.62, 342.81 117.8 M-0.31 512.51 C130.75 361.62, 262.25 209.73, 342.81 117.8 M0.08 518.15 C86.99 420.37, 173.17 322.17, 343.2 123.44 M0.08 518.15 C93.6 410.72, 186.83 304.2, 343.2 123.44 M-0.18 524.55 C120.14 384.62, 240.45 245.39, 342.94 129.84 M-0.18 524.55 C127.71 377.55, 255.15 230.84, 342.94 129.84 M0.22 530.19 C72.21 446.57, 142.79 364.88, 343.33 135.48 M0.22 530.19 C70.06 449.41, 139.4 369.77, 343.33 135.48 M-0.05 536.59 C134.04 383.05, 269.64 228.5, 343.07 141.88 M-0.05 536.59 C94.52 427.56, 188.56 319.96, 343.07 141.88 M-0.31 542.99 C100.6 426.64, 201.92 309.02, 342.81 148.27 M-0.31 542.99 C117.78 408.56, 235.94 272.76, 342.81 148.27 M0.09 548.63 C111.34 420.48, 222.49 293.45, 343.21 153.92 M0.09 548.63 C127.82 400.56, 256.4 252.34, 343.21 153.92 M-0.17 555.03 C129.98 404.59, 259.63 254.69, 342.94 160.32 M-0.17 555.03 C69.93 476.95, 138.31 397.82, 342.94 160.32 M0.22 560.67 C89.74 457.37, 178.25 355.68, 343.34 165.96 M0.22 560.67 C95.8 452.29, 189.62 343.79, 343.34 165.96 M-0.04 567.07 C115.13 434.21, 231.48 300.25, 343.08 172.36 M-0.04 567.07 C118.09 432.83, 235.19 298.07, 343.08 172.36 M-0.3 573.47 C122.94 429.61, 245.94 287.67, 342.82 178.75 M-0.3 573.47 C132.1 419.79, 264.07 267.44, 342.82 178.75 M0.09 579.11 C119.02 441.05, 237.63 303.54, 343.21 184.4 M0.09 579.11 C104.93 459.45, 208.56 340.26, 343.21 184.4 M-0.17 585.51 C121.75 444.83, 245.22 304.53, 342.95 190.8 M-0.17 585.51 C83.11 488.41, 167.58 391.8, 342.95 190.8 M0.22 591.15 C67.85 511.69, 138.49 431.43, 343.34 196.44 M0.22 591.15 C99.4 476.91, 199.38 362.49, 343.34 196.44 M-0.04 597.55 C77.13 509.08, 155.13 419.27, 343.08 202.84 M-0.04 597.55 C138.28 439.79, 275.09 282.8, 343.08 202.84 M-0.3 603.95 C69.66 525.22, 138.14 445.68, 342.82 209.23 M-0.3 603.95 C92.39 496.05, 187.31 387.25, 342.82 209.23 M0.1 609.59 C107.2 486.58, 213.07 364.59, 343.22 214.88 M0.1 609.59 C109.29 484.03, 219.25 357.59, 343.22 214.88 M-0.16 615.99 C85.06 517.45, 170.3 419.12, 342.95 221.27 M-0.16 615.99 C102.67 499.14, 204.32 382.16, 342.95 221.27 M0.23 621.63 C70.57 539.99, 141.03 457.83, 343.35 226.92 M0.23 621.63 C98.49 506.94, 197.13 393.08, 343.35 226.92 M-0.03 628.03 C122.62 486.59, 246.01 345.69, 343.09 233.32 M-0.03 628.03 C123.27 485.63, 245.98 344.36, 343.09 233.32 M-0.29 634.43 C90.61 529.39, 183.02 423.8, 342.83 239.71 M-0.29 634.43 C104.45 511.59, 210.41 389.69, 342.83 239.71 M0.1 640.07 C121.92 500.09, 245 359.18, 343.22 245.36 M0.1 640.07 C116.19 506.5, 231.88 373.58, 343.22 245.36 M-0.16 646.47 C106.49 523.86, 213.21 401.93, 342.96 251.75 M-0.16 646.47 C68.86 567.73, 136.96 488.47, 342.96 251.75 M0.23 652.11 C125.28 506.6, 252.53 360.69, 343.35 257.4 M0.23 652.11 C94.64 546.78, 187.54 439.36, 343.35 257.4 M-0.03 658.51 C103.9 538.09, 208.39 416.17, 343.09 263.8 M-0.03 658.51 C102.08 539.43, 204.58 421.65, 343.09 263.8 M-0.29 664.91 C114.2 532.82, 229.11 401.65, 342.83 270.19 M-0.29 664.91 C93.09 558.05, 184.26 453.09, 342.83 270.19 M0.11 670.55 C95.16 559.54, 192.29 449.62, 343.23 275.84 M0.11 670.55 C122.2 528.61, 244.61 387.96, 343.23 275.84 M-0.16 676.95 C99.89 559.9, 200.78 444.97, 342.96 282.23 M-0.16 676.95 C69.04 597.33, 138.62 517.3, 342.96 282.23 M0.24 682.59 C75.69 594.96, 152.83 506.5, 343.36 287.88 M0.24 682.59 C83.83 585.97, 168.95 488.04, 343.36 287.88 M-0.02 688.99 C104.84 569.62, 209.48 449.11, 343.1 294.27 M-0.02 688.99 C74.91 603.66, 148.84 519.28, 343.1 294.27 M-0.28 695.39 C126.95 548.74, 256 400.95, 342.84 300.67 M-0.28 695.39 C87.18 594.32, 175.6 492.56, 342.84 300.67 M0.11 701.03 C111.31 571.57, 224.14 442.71, 343.23 306.32 M0.11 701.03 C74.53 616.75, 148.46 530.26, 343.23 306.32 M-0.15 707.43 C117.41 574.77, 233.31 440.07, 342.97 312.71 M-0.15 707.43 C133.7 552.95, 268.21 398.14, 342.97 312.71 M0.24 713.07 C113.24 581.91, 226.84 451.14, 343.36 318.36 M0.24 713.07 C131 562.37, 262.56 410.29, 343.36 318.36 M-0.02 719.47 C131.27 571.42, 259.66 421.77, 343.1 324.75 M-0.02 719.47 C94.61 610.99, 187.82 503.32, 343.1 324.75 M-0.28 725.86 C134.79 570.42, 268.85 416.78, 342.84 331.15 M-0.28 725.86 C90.55 622.78, 179.61 520.3, 342.84 331.15 M0.12 731.51 C107.01 611.4, 212.94 487.68, 343.23 336.79 M0.12 731.51 C81.87 637.36, 163.67 541.93, 343.23 336.79 M-0.15 737.91 C134.05 584.18, 269.85 428.41, 342.97 343.19 M-0.15 737.91 C88.36 638.66, 175.19 538.31, 342.97 343.19 M0.25 743.55 C69.91 660.91, 141.89 578.72, 343.37 348.84 M0.25 743.55 C84.63 643.36, 170.71 544.71, 343.37 348.84 M1.96 747.68 C113.68 620.62, 224.43 492.54, 343.11 355.23 M1.96 747.68 C118.43 611.69, 235.95 476.79, 343.11 355.23 M6.94 748.04 C109.16 630.36, 211.49 511.9, 342.85 361.63 M6.94 748.04 C134.86 602.73, 261.52 457.09, 342.85 361.63 M12.59 747.65 C143.54 598.09, 273.38 448.82, 343.24 367.27 M12.59 747.65 C137.64 605.43, 262 461.8, 343.24 367.27 M17.57 748.01 C114.1 634.95, 211.21 523.29, 342.98 373.67 M17.57 748.01 C119.78 631.73, 221.78 513.79, 342.98 373.67 M23.22 747.61 C118.91 637.36, 215.25 527.91, 343.37 379.32 M23.22 747.61 C139.17 614.57, 254.9 481.39, 343.37 379.32 M28.2 747.97 C99.37 664.38, 172.39 580.27, 343.11 385.71 M28.2 747.97 C112.36 652.16, 196.12 556.25, 343.11 385.71 M33.85 747.58 C146.09 618.45, 258.47 487.61, 342.85 392.11 M33.85 747.58 C152.26 611.91, 270.91 475.66, 342.85 392.11 M38.83 747.94 C104.4 673.38, 167.7 599.57, 343.24 397.75 M38.83 747.94 C118.94 657.17, 197.9 566.79, 343.24 397.75 M44.48 747.54 C105.71 677.17, 166.64 605.78, 342.98 404.15 M44.48 747.54 C129.85 651.98, 214.12 554.56, 342.98 404.15 M49.46 747.9 C138.05 644.73, 228.43 543.31, 343.38 409.79 M49.46 747.9 C118 666.39, 187.87 585.98, 343.38 409.79 M55.11 747.51 C130.83 661.76, 206.29 574.74, 343.12 416.19 M55.11 747.51 C164.35 625.04, 272.51 500.23, 343.12 416.19 M60.09 747.87 C125.44 671.05, 191.61 595.64, 342.85 422.59 M60.09 747.87 C161.42 631.31, 263.76 514.27, 342.85 422.59 M65.74 747.48 C139.78 662.2, 213.94 578.9, 343.25 428.23 M65.74 747.48 C159.9 638.2, 255.25 528.76, 343.25 428.23 M70.72 747.84 C148.52 662.77, 223.28 574.73, 342.99 434.63 M70.72 747.84 C152.52 651.92, 235.7 557.45, 342.99 434.63 M76.37 747.44 C171.61 636.32, 268.84 523.96, 343.38 440.27 M76.37 747.44 C165.26 646.66, 253.96 544.6, 343.38 440.27 M81.35 747.8 C181.52 636.04, 280.82 521.74, 343.12 446.67 M81.35 747.8 C177.38 637.47, 273.03 527.61, 343.12 446.67 M87 747.41 C142.36 682.83, 197.51 618.99, 342.86 453.07 M87 747.41 C153.79 671.89, 219.46 595.82, 342.86 453.07 M91.98 747.77 C149.14 682.87, 205.73 617.89, 343.25 458.71 M91.98 747.77 C182.02 647.46, 269.01 546.44, 343.25 458.71 M97.63 747.37 C168.13 666.02, 236.31 588.39, 342.99 465.11 M97.63 747.37 C171.48 660.16, 247.13 574.23, 342.99 465.11 M102.61 747.73 C192.28 643.26, 284.56 539.32, 343.39 470.75 M102.61 747.73 C173.78 666.91, 244.02 585.44, 343.39 470.75 M108.26 747.34 C185.72 656.07, 264.99 566.95, 343.13 477.15 M108.26 747.34 C162.16 687.51, 215.25 625.64, 343.13 477.15 M113.24 747.7 C193.86 655.92, 273.52 563.09, 342.86 483.55 M113.24 747.7 C190.65 658.58, 267.22 569.41, 342.86 483.55 M118.23 748.06 C196.66 658.24, 272.81 570.95, 343.26 489.19 M118.23 748.06 C171.69 688.84, 222.94 629.5, 343.26 489.19 M123.87 747.66 C191.2 672.14, 257 597.85, 343 495.59 M123.87 747.66 C178.64 686.16, 232.05 625.07, 343 495.59 M128.86 748.02 C214.86 647.93, 300.63 549.3, 343.39 501.23 M128.86 748.02 C195.96 671.61, 261.19 596.26, 343.39 501.23 M134.5 747.63 C212.35 657.82, 289.06 569.84, 343.13 507.63 M134.5 747.63 C196.7 676.17, 259.45 604.51, 343.13 507.63 M139.49 747.99 C219.33 653.92, 299.73 560.15, 342.87 514.03 M139.49 747.99 C202.81 676.11, 263.71 604.74, 342.87 514.03 M145.13 747.59 C212.84 674.31, 276.02 596.99, 343.26 519.67 M145.13 747.59 C221.84 658.66, 299.01 569.76, 343.26 519.67 M150.12 747.95 C216.42 670.48, 280.59 594.09, 343 526.07 M150.12 747.95 C197.71 692.24, 244.8 638.94, 343 526.07 M155.76 747.56 C218.93 676.81, 283.48 603.35, 343.4 531.71 M155.76 747.56 C218.98 674.06, 283.88 600.97, 343.4 531.71 M160.75 747.92 C204.56 699.39, 247.36 650.75, 343.14 538.11 M160.75 747.92 C199.29 704.49, 238.06 660.97, 343.14 538.11 M166.39 747.53 C232.37 670.7, 301.34 592.71, 342.87 544.51 M166.39 747.53 C234.57 672.05, 300.98 595.55, 342.87 544.51 M171.38 747.89 C203.95 709.04, 239.08 668.3, 343.27 550.15 M171.38 747.89 C215.98 697.7, 258.73 646.94, 343.27 550.15 M177.02 747.49 C213.32 702.88, 250.56 661.09, 343.01 556.55 M177.02 747.49 C218 699.72, 261.09 651.47, 343.01 556.55 M182.01 747.85 C239.02 682.52, 295.81 615.38, 343.4 562.19 M182.01 747.85 C230.55 693.31, 278.72 638.9, 343.4 562.19 M187.65 747.46 C231.2 696.96, 274.27 645.38, 343.14 568.59 M187.65 747.46 C239.41 687.08, 290.22 628.34, 343.14 568.59 M192.64 747.82 C244.99 688.26, 296.02 627.53, 342.88 574.99 M192.64 747.82 C226.02 708.66, 260.16 670.84, 342.88 574.99 M198.28 747.42 C245.67 691.36, 296.75 636.49, 343.27 580.63 M198.28 747.42 C240.54 698.16, 282.68 649.84, 343.27 580.63 M203.27 747.78 C257.05 684.13, 314.06 618.69, 343.01 587.03 M203.27 747.78 C258.63 685.38, 313.34 621.53, 343.01 587.03 M208.91 747.39 C238.18 716.09, 264.88 682.88, 343.41 592.67 M208.91 747.39 C241.1 709.4, 275.02 670.85, 343.41 592.67 M213.9 747.75 C248.17 707.82, 284.92 667.62, 343.15 599.07 M213.9 747.75 C257.43 699.24, 299.72 651.28, 343.15 599.07 M219.54 747.35 C256.68 705.14, 293.19 662.28, 342.88 605.47 M219.54 747.35 C245.85 718.57, 269.97 690.13, 342.88 605.47 M224.53 747.71 C260.79 705.84, 299.67 661.97, 343.28 611.11 M224.53 747.71 C251.1 719.02, 275.89 690.45, 343.28 611.11 M230.17 747.32 C257.11 717.2, 283.94 688.62, 343.02 617.51 M230.17 747.32 C275.44 696.04, 321 642.55, 343.02 617.51 M235.16 747.68 C274.54 699.42, 316.17 652.96, 343.41 623.15 M235.16 747.68 C278.99 697.69, 320.5 647.93, 343.41 623.15 M240.15 748.04 C265.09 717.12, 292.76 689.9, 343.15 629.55 M240.15 748.04 C278.94 703.31, 317.98 658.21, 343.15 629.55 M245.79 747.64 C282.98 705.7, 317.28 663.8, 342.89 635.95 M245.79 747.64 C277.43 711.74, 308.37 675.04, 342.89 635.95 M250.78 748 C285.57 708.65, 321.86 665.35, 343.28 641.59 M250.78 748 C282.51 712.7, 312.17 678.45, 343.28 641.59 M256.42 747.61 C275.21 722.9, 297.98 699.81, 343.02 647.99 M256.42 747.61 C287.63 711.89, 319.97 676.2, 343.02 647.99 M261.41 747.97 C281.54 723.94, 305.78 698.08, 342.76 654.39 M261.41 747.97 C286.92 718.99, 313.74 686.78, 342.76 654.39 M267.05 747.57 C298.95 712.74, 327.97 677.06, 343.15 660.03 M267.05 747.57 C295.66 713.92, 324.22 681.93, 343.15 660.03 M272.04 747.93 C300.78 716.39, 326.43 686.23, 342.89 666.43 M272.04 747.93 C291.41 725.85, 310.55 702.82, 342.89 666.43 M277.68 747.54 C300.02 722.99, 317.52 702.4, 343.29 672.07 M277.68 747.54 C303.3 718.47, 330.51 688.29, 343.29 672.07 M282.67 747.9 C306.24 723.28, 326.12 697.39, 343.03 678.47 M282.67 747.9 C306 721.98, 329.31 695.73, 343.03 678.47 M288.31 747.51 C304.32 726.34, 319.45 711.28, 342.77 684.86 M288.31 747.51 C304.57 727.42, 321.37 708.96, 342.77 684.86 M293.3 747.87 C309.72 729.13, 323.31 713.31, 343.16 690.51 M293.3 747.87 C309.31 730.11, 322.71 713.08, 343.16 690.51 M298.94 747.47 C314.87 729.44, 331.51 709.08, 342.9 696.91 M298.94 747.47 C315.34 727.16, 332.21 707.87, 342.9 696.91 M303.93 747.83 C312.57 735.37, 321.43 726.1, 343.29 702.55 M303.93 747.83 C318.57 729.22, 335.02 711.21, 343.29 702.55 M309.57 747.44 C321.27 732.8, 331.6 718.62, 343.03 708.95 M309.57 747.44 C319.63 734.51, 332.57 721.84, 343.03 708.95 M314.56 747.8 C323.68 739.13, 331.67 727.44, 342.77 715.34 M314.56 747.8 C320.18 741.37, 327.46 733.34, 342.77 715.34 M320.2 747.4 C328.01 737.02, 336.38 728.68, 343.16 720.99 M320.2 747.4 C325.84 741.45, 332.06 734.12, 343.16 720.99 M325.19 747.76 C331.89 738.78, 337.71 731, 342.9 727.39 M325.19 747.76 C330.11 741.93, 335.58 736.01, 342.9 727.39 M330.83 747.37 C334.3 742.12, 338.5 739.24, 343.3 733.03 M330.83 747.37 C335.5 742.58, 337.91 738.62, 343.3 733.03 M335.82 747.73 C338.04 744.75, 341.19 742.59, 343.04 739.43 M335.82 747.73 C337.27 745.62, 339.79 743.07, 343.04 739.43 M341.46 747.33 C341.74 746.86, 342.41 746.28, 342.77 745.82 M341.46 747.33 C341.84 747.03, 341.96 746.75, 342.77 745.82" stroke="#b2f2bb" stroke-width="0.5" fill="none"></path><path d="M0 0 C99.59 2.08, 200.01 1.37, 342.97 0 M0 0 C128.2 0.42, 255.55 0.47, 342.97 0 M342.97 0 C340.57 253.15, 341.88 507.31, 342.97 747.14 M342.97 0 C343.26 187.49, 343.69 374.48, 342.97 747.14 M342.97 747.14 C207.57 747.65, 73.02 747.74, 0 747.14 M342.97 747.14 C272.57 745.91, 201.55 745.82, 0 747.14 M0 747.14 C1.86 552.16, 1.16 356.97, 0 0 M0 747.14 C-0.32 580.77, -0.44 414.45, 0 0" stroke="#1e1e1e" stroke-width="1" fill="none"></path></g><g transform="translate(664.3757726115871 604.4240366430195) rotate(0 124.84153747558594 28.869418252979926)"><text x="124.84153747558594" y="0" font-family="Virgil, Segoe UI Emoji" font-size="23.09553460238392px" fill="#1e1e1e" text-anchor="middle" style="white-space: pre;" direction="ltr" dominant-baseline="text-before-edge">Circuit that executes</text><text x="124.84153747558594" y="28.8694182529799" font-family="Virgil, Segoe UI Emoji" font-size="23.09553460238392px" fill="#1e1e1e" text-anchor="middle" style="white-space: pre;" direction="ltr" dominant-baseline="text-before-edge">the Disk Spinning</text></g><g stroke-linecap="round" transform="translate(501.10051592243354 785.3430901922101) rotate(0 258.09259918164037 271.94991994307065)"><path d="M253.57 0.54 C272.95 -4.09, 295.48 2, 315.78 6.8 C336.09 11.61, 356.89 19.54, 375.37 29.38 C393.86 39.22, 411.16 51.74, 426.69 65.84 C442.22 79.93, 456.82 96.3, 468.54 113.92 C480.25 131.54, 489.54 151.24, 496.98 171.55 C504.41 191.85, 510.3 214.22, 513.13 235.77 C515.95 257.32, 516.15 279.26, 513.94 300.84 C511.74 322.43, 506.61 345.11, 499.9 365.29 C493.18 385.47, 485.02 403.99, 473.66 421.94 C462.29 439.89, 447.16 458.31, 431.69 473.01 C416.22 487.7, 398.82 499.73, 380.83 510.12 C362.85 520.51, 343.65 529.85, 323.78 535.35 C303.91 540.86, 282.04 542.83, 261.61 543.17 C241.19 543.51, 221.2 542.08, 201.23 537.38 C181.26 532.68, 160.3 524.71, 141.81 514.98 C123.31 505.25, 105.94 493.12, 90.24 479.01 C74.54 464.89, 59.54 448.09, 47.6 430.28 C35.67 412.48, 26.2 392.51, 18.64 372.16 C11.08 351.8, 5.18 329.74, 2.26 308.15 C-0.66 286.57, -1.2 263.93, 1.12 242.65 C3.44 221.38, 9.31 200.67, 16.2 180.51 C23.08 160.35, 31.23 139.95, 42.46 121.67 C53.68 103.39, 68.37 85.43, 83.56 70.81 C98.76 56.2, 115.55 44.4, 133.62 33.97 C151.68 23.54, 170.86 13.83, 191.96 8.24 C213.06 2.66, 248.31 0.87, 260.23 0.44 C272.15 0.01, 263.72 1.29, 263.49 5.66 M370.05 28.13 C389.55 32.85, 408.03 48.34, 424.06 62.14 C440.09 75.94, 454.31 93.35, 466.24 110.91 C478.18 128.48, 487.7 147.75, 495.67 167.53 C503.65 187.3, 511.07 208.18, 514.1 229.57 C517.12 250.95, 515.66 274.35, 513.81 295.85 C511.96 317.35, 509.38 338.2, 502.98 358.57 C496.57 378.94, 486.6 399.67, 475.4 418.07 C464.19 436.47, 450.94 453.83, 435.74 468.98 C420.54 484.12, 401.89 498.14, 384.21 508.92 C366.54 519.71, 349.51 528.04, 329.69 533.7 C309.87 539.35, 286 542.17, 265.31 542.85 C244.62 543.53, 225.31 541.88, 205.55 537.77 C185.8 533.66, 165.66 527.79, 146.79 518.2 C127.93 508.61, 108.14 494.32, 92.35 480.22 C76.57 466.12, 64.24 451.02, 52.08 433.62 C39.93 416.22, 27.44 395.56, 19.44 375.8 C11.44 356.05, 7.31 336.47, 4.09 315.09 C0.87 293.71, -1.31 269.52, 0.12 247.52 C1.56 225.52, 5.83 203.42, 12.7 183.11 C19.57 162.79, 30.18 143.67, 41.36 125.63 C52.54 107.59, 65.14 89.74, 79.78 74.87 C94.42 60, 110.95 47.4, 129.2 36.42 C147.44 25.43, 169.04 15, 189.25 8.97 C209.46 2.93, 229.97 0.83, 250.44 0.19 C270.91 -0.44, 291.85 0.48, 312.08 5.13 C332.3 9.79, 362.49 23.85, 371.78 28.14 C381.07 32.43, 369.91 26.99, 367.82 30.86" stroke="none" stroke-width="0" fill="#1e1e1e"></path><path d="M178.28 13.59 C195.37 3.08, 217.92 2.48, 238.38 0.87 C258.84 -0.73, 280.53 0.43, 301.05 3.97 C321.57 7.51, 342.43 13.55, 361.49 22.1 C380.55 30.65, 399.01 41.93, 415.4 55.28 C431.8 68.63, 447.24 85.21, 459.85 102.2 C472.47 119.19, 482.51 137.52, 491.1 157.21 C499.69 176.9, 507.11 199.15, 511.4 220.32 C515.68 241.48, 517.72 262.54, 516.78 284.2 C515.85 305.85, 511.73 329.34, 505.78 350.26 C499.82 371.18, 491.68 391.15, 481.07 409.72 C470.46 428.28, 456.5 446.26, 442.12 461.65 C427.73 477.03, 412.16 490.67, 394.75 502.02 C377.35 513.37, 357.48 522.82, 337.68 529.76 C317.89 536.69, 296.34 541.89, 276 543.66 C255.66 545.44, 235.83 544.12, 215.62 540.4 C195.42 536.69, 173.65 530.02, 154.79 521.38 C135.92 512.74, 118.62 501.58, 102.44 488.56 C86.27 475.54, 70.74 460.37, 57.76 443.25 C44.77 426.13, 33.37 405.63, 24.55 385.84 C15.72 366.05, 8.69 345.67, 4.82 324.49 C0.94 303.31, 0.26 280.47, 1.29 258.78 C2.32 237.09, 5.23 215.06, 11 194.35 C16.77 173.64, 25.64 153.1, 35.93 134.52 C46.21 115.95, 58.47 98.49, 72.71 82.92 C86.94 67.35, 102.08 53.21, 121.35 41.1 C140.62 28.99, 175.6 15.09, 188.35 10.27 C201.1 5.45, 196.69 7.7, 197.84 12.2 M140.65 29.9 C156.47 16.27, 179.82 10.78, 199.85 5.98 C219.89 1.18, 240.27 0.49, 260.86 1.09 C281.45 1.69, 303.33 4.19, 323.38 9.58 C343.43 14.97, 363.24 23.4, 381.16 33.43 C399.08 43.46, 415.96 55.18, 430.91 69.76 C445.85 84.35, 459.22 102.71, 470.8 120.92 C482.39 139.13, 492.86 158.82, 500.41 179.05 C507.96 199.28, 513.86 220.72, 516.1 242.28 C518.34 263.84, 516.6 287.1, 513.87 308.39 C511.14 329.68, 507.3 349.86, 499.71 370.02 C492.12 390.18, 480.72 411.3, 468.33 429.35 C455.94 447.41, 440.92 464.34, 425.39 478.35 C409.86 492.36, 393.44 503.71, 375.14 513.4 C356.84 523.09, 335.44 531.59, 315.6 536.49 C295.75 541.38, 276.29 542.74, 256.07 542.77 C235.85 542.8, 214.64 542.07, 194.28 536.68 C173.92 531.28, 152.01 521.21, 133.9 510.4 C115.78 499.59, 100.8 486.4, 85.59 471.84 C70.37 457.28, 54.39 441.01, 42.6 423.03 C30.81 405.05, 21.7 384.31, 14.86 363.96 C8.03 343.61, 3.82 322.38, 1.59 300.94 C-0.64 279.5, -1.32 256.85, 1.48 235.35 C4.29 213.84, 10.71 192.22, 18.41 171.91 C26.11 151.6, 36.11 131.08, 47.71 113.47 C59.3 95.86, 72.69 80.38, 87.98 66.25 C103.28 52.11, 130.5 33.71, 139.49 28.65 C148.48 23.59, 139.54 31.67, 141.92 35.91" stroke="#1e1e1e" stroke-width="1" fill="none"></path></g><g transform="translate(714.0992699334399 1028.6259593474167) rotate(0 45.094818115234375 28.869418252979926)"><text x="45.094818115234375" y="0" font-family="Virgil, Segoe UI Emoji" font-size="23.09553460238392px" fill="#fd7e14" text-anchor="middle" style="white-space: pre;" direction="ltr" dominant-baseline="text-before-edge">Spinnning</text><text x="45.094818115234375" y="28.8694182529799" font-family="Virgil, Segoe UI Emoji" font-size="23.09553460238392px" fill="#fd7e14" text-anchor="middle" style="white-space: pre;" direction="ltr" dominant-baseline="text-before-edge">DISKS</text></g><g stroke-linecap="round"><g transform="translate(320.955346023839 1129.4665557677304) rotate(0 188.80599537448853 -45.03629247464863)"><path d="M0 0 C142 -34.99, 284.26 -70.13, 377.61 -90.07 M0 0 C125.31 -29.61, 251.48 -59.81, 377.61 -90.07" stroke="#2f9e44" stroke-width="4" fill="none"></path></g></g><mask></mask><g stroke-linecap="round"><g transform="translate(335.96744351538854 1122.5378953870152) rotate(0 -22.518146237324316 30.60158334815867)"><path d="M-0.2 0.43 C-6.84 4.61, -33.37 15.34, -40.89 25.52 C-48.42 35.71, -44.84 55.67, -45.37 61.54 M-1.77 -0.4 C-8.51 3.86, -34.67 15.94, -42.09 26.51 C-49.52 37.09, -46.11 57.19, -46.32 63.03" stroke="#2f9e44" stroke-width="4" fill="none"></path></g></g><mask></mask><g stroke-linecap="round"><g transform="translate(292.0859277708591 1187.2053922736902) rotate(0 203.8180928660381 -59.471001601138596)"><path d="M0.45 -0.32 C5.58 4.12, 13.88 26.98, 31.55 26.39 C49.21 25.79, 43.79 24.46, 106.44 -3.91 C169.09 -32.27, 357.17 -120.21, 407.43 -143.8 M-0.77 -1.53 C4.68 2.61, 16.09 24.99, 33.85 24.78 C51.61 24.56, 43.49 25.65, 105.78 -2.82 C168.07 -31.3, 357.41 -122.27, 407.57 -146.07" stroke="#2f9e44" stroke-width="4" fill="none"></path></g></g><mask></mask><g transform="translate(120.70832830407682 1236.4566427528832) rotate(0 166.16302555384874 48.24076349131519)"><text x="166.16302555384874" y="0" font-family="Virgil, Segoe UI Emoji" font-size="25.72840719536807px" fill="#2f9e44" text-anchor="middle" style="white-space: pre;" direction="ltr" dominant-baseline="text-before-edge">Circuit that executes the</text><text x="166.16302555384874" y="32.16050899421009" font-family="Virgil, Segoe UI Emoji" font-size="25.72840719536807px" fill="#2f9e44" text-anchor="middle" style="white-space: pre;" direction="ltr" dominant-baseline="text-before-edge">actuator arm</text><text x="166.16302555384874" y="64.32101798842018" font-family="Virgil, Segoe UI Emoji" font-size="25.72840719536807px" fill="#2f9e44" text-anchor="middle" style="white-space: pre;" direction="ltr" dominant-baseline="text-before-edge">movement</text></g><g transform="translate(333.3707720301107 1117.1263058784596) rotate(339.57453228947924 104.74969040891537 14.434709126489906)"><text x="0" y="0" font-family="Virgil, Segoe UI Emoji" font-size="23.09553460238392px" fill="#fd7e14" text-anchor="start" style="white-space: pre;" direction="ltr" dominant-baseline="text-before-edge">The Actuator Arm</text></g><g stroke-linecap="round"><g transform="translate(139.14354985767824 531.0648195604962) rotate(0 0 33.02245435232874)"><path d="M-0.38 0.7 C-0.34 11.79, 0.44 56.37, 0.55 67.24" stroke="#1e1e1e" stroke-width="2.5" fill="none" stroke-dasharray="1.5 8"></path></g></g><mask></mask><g stroke-linecap="round"><g transform="translate(155.57279084958049 530.1134345535725) rotate(0 0 32.23620543917801)"><path d="M0.55 1.2 C0.66 11.81, 0.34 53.65, 0.28 64.36" stroke="#1e1e1e" stroke-width="2.5" fill="none" stroke-dasharray="1.5 8"></path></g></g><mask></mask><g stroke-linecap="round"><g transform="translate(170.76707174744132 530.1838250029944) rotate(0 0 32.236205439178036)"><path d="M0.28 -0.12 C0.22 10.59, 0.37 54.75, 0.19 65.44" stroke="#1e1e1e" stroke-width="2.5" fill="none" stroke-dasharray="1.5 8"></path></g></g><mask></mask><g stroke-linecap="round"><g transform="translate(187.27829892360563 529.3975760898436) rotate(0 0 32.23620543917801)"><path d="M0.19 0.97 C0 11.67, -0.84 53.31, -0.83 64.06" stroke="#1e1e1e" stroke-width="2.5" fill="none" stroke-dasharray="1.5 8"></path></g></g><mask></mask><g stroke-linecap="round"><g transform="translate(205.36202392607146 528.611327176693) rotate(0 0 32.236205439178036)"><path d="M-0.83 -0.41 C-0.82 10.35, 0.26 54.63, 0.25 65.51" stroke="#1e1e1e" stroke-width="2.5" fill="none" stroke-dasharray="1.5 8"></path></g></g><mask></mask><g stroke-linecap="round"><g transform="translate(219.8589570445052 527.7546878141204) rotate(0 0 35.7743255483561)"><path d="M0.25 1.04 C0.25 13.1, -0.89 60.3, -0.88 71.95" stroke="#1e1e1e" stroke-width="2.5" fill="none" stroke-dasharray="1.5 8"></path></g></g><mask></mask><g stroke-linecap="round"><g transform="translate(236.28819803640744 532.3070451992515) rotate(0 0 32.236205439178036)"><path d="M-0.88 0.41 C-0.88 10.88, -0.01 53.14, 0.28 63.89" stroke="#1e1e1e" stroke-width="2.5" fill="none" stroke-dasharray="1.5 8"></path></g></g><mask></mask><g stroke-linecap="round"><g transform="translate(251.48247893426827 532.3774356486734) rotate(0 0 32.236205439178036)"><path d="M0.28 -0.58 C0.57 10.18, 0.99 54.2, 0.86 64.97" stroke="#1e1e1e" stroke-width="2.5" fill="none" stroke-dasharray="1.5 8"></path></g></g><mask></mask><g stroke-linecap="round"><g transform="translate(448.8484450420304 532.8092804381464) rotate(0 1.7321650951788001 31.178971713218317)"><path d="M0.21 1.13 C0.45 11.49, 1.83 52.89, 2.27 63" stroke="#1e1e1e" stroke-width="2.5" fill="none" stroke-dasharray="1.5 8"></path></g></g><mask></mask><g stroke-linecap="round"><g transform="translate(473.0891207021662 533.5226725296501) rotate(0 1.1547767301192096 31.178971713218317)"><path d="M0.11 0.35 C0.58 10.72, 1.19 51.5, 1.76 61.83" stroke="#1e1e1e" stroke-width="2.5" fill="none" stroke-dasharray="1.5 8"></path></g></g><mask></mask><g stroke-linecap="round"><g transform="translate(496.1846553045502 531.2131190694117) rotate(0 0.5773883650595906 35.79807863369507)"><path d="M1.18 -0.88 C1.58 10.69, 1.98 58.43, 1.78 70.59" stroke="#1e1e1e" stroke-width="2.5" fill="none" stroke-dasharray="1.5 8"></path></g></g><mask></mask><g stroke-linecap="round"><g transform="translate(523.8992968274108 527.7487888790541) rotate(0 0 34.64330190357586)"><path d="M-0.88 1.05 C-0.77 12.73, -0.09 58.89, 0.09 70.23" stroke="#1e1e1e" stroke-width="2.5" fill="none" stroke-dasharray="1.5 8"></path></g></g><mask></mask><g stroke-linecap="round"><g transform="translate(742.5710689709936 534.9555421436011) rotate(0 1.7321650951788001 31.17897171321829)"><path d="M-0.58 1.02 C-0.05 11.32, 1.58 52.5, 2.28 62.71" stroke="#1e1e1e" stroke-width="2.5" fill="none" stroke-dasharray="1.5 8"></path></g></g><mask></mask><g stroke-linecap="round"><g transform="translate(766.8117446311296 535.6689342351048) rotate(0 1.1547767301191811 31.17897171321829)"><path d="M-1.19 0.35 C-0.68 10.56, 2.01 51.85, 2.44 62.27" stroke="#1e1e1e" stroke-width="2.5" fill="none" stroke-dasharray="1.5 8"></path></g></g><mask></mask><g stroke-linecap="round"><g transform="translate(789.9072792335135 533.3593807748663) rotate(0 0.577388365059619 35.7980786336951)"><path d="M0.13 -0.09 C0.37 11.88, 0.2 60.3, 0.24 72.12" stroke="#1e1e1e" stroke-width="2.5" fill="none" stroke-dasharray="1.5 8"></path></g></g><mask></mask><g stroke-linecap="round"><g transform="translate(817.621920756374 529.8950505845087) rotate(0 0 34.64330190357586)"><path d="M-0.91 0.53 C-1.06 11.96, -0.8 57.24, -0.77 68.54" stroke="#1e1e1e" stroke-width="2.5" fill="none" stroke-dasharray="1.5 8"></path></g></g><mask></mask><g mask="url(#mask-W-wFykNnbxrIAePII2f0j)" stroke-linecap="round"><g transform="translate(538.0412427292771 170.87097276564367) rotate(0 2.967867346344036 -80.03952908517633)"><path d="M1.1 -1.15 C1.86 -28.13, 3.85 -134.54, 4.77 -160.87 M0.22 0.85 C1.3 -26.07, 5.86 -132.78, 6.87 -159.75" stroke="#1e1e1e" stroke-width="2" fill="none"></path></g><g transform="translate(538.0412427292771 170.87097276564367) rotate(0 2.967867346344036 -80.03952908517633)"><path d="M-8.54 -29.56 C-7.15 -22.51, -3.47 -10.33, 1.1 -1.15 M-8.54 -29.56 C-4.46 -19.66, -1.95 -7.87, 1.1 -1.15" stroke="#1e1e1e" stroke-width="2" fill="none"></path></g><g transform="translate(538.0412427292771 170.87097276564367) rotate(0 2.967867346344036 -80.03952908517633)"><path d="M11.98 -29.11 C6.8 -22.02, 3.92 -9.98, 1.1 -1.15 M11.98 -29.11 C8.3 -19.26, 3.05 -7.64, 1.1 -1.15" stroke="#1e1e1e" stroke-width="2" fill="none"></path></g><g transform="translate(538.0412427292771 170.87097276564367) rotate(0 2.967867346344036 -80.03952908517633)"><path d="M15.98 -131.17 C10.92 -142.17, 8.6 -148.22, 6.87 -159.75 M15.98 -131.17 C12.77 -142.71, 8.19 -152.47, 6.87 -159.75" stroke="#1e1e1e" stroke-width="2" fill="none"></path></g><g transform="translate(538.0412427292771 170.87097276564367) rotate(0 2.967867346344036 -80.03952908517633)"><path d="M-4.52 -131.99 C-3.02 -142.92, 1.22 -148.7, 6.87 -159.75 M-4.52 -131.99 C0.02 -143.35, 3.19 -152.8, 6.87 -159.75" stroke="#1e1e1e" stroke-width="2" fill="none"></path></g></g><mask id="mask-W-wFykNnbxrIAePII2f0j"><rect x="0" y="0" fill="#fff" width="643.9769774219651" height="430.9500309359963"></rect><rect x="458.53692684808203" y="60.831443680467345" fill="#000" width="164.94436645507812" height="60" opacity="1"></rect></mask><g transform="translate(458.536926848082 60.831443680467345) rotate(0 83.04643282294276 30.031384686268865)"><text x="82.47218322753906" y="0" font-family="Virgil, Segoe UI Emoji" font-size="16px" fill="#1e1e1e" text-anchor="middle" style="white-space: pre;" direction="ltr" dominant-baseline="text-before-edge">External connection </text><text x="82.47218322753906" y="20" font-family="Virgil, Segoe UI Emoji" font-size="16px" fill="#1e1e1e" text-anchor="middle" style="white-space: pre;" direction="ltr" dominant-baseline="text-before-edge">to the Motherboard </text><text x="82.47218322753906" y="40" font-family="Virgil, Segoe UI Emoji" font-size="16px" fill="#1e1e1e" text-anchor="middle" style="white-space: pre;" direction="ltr" dominant-baseline="text-before-edge">of Host Computer</text></g><g stroke-linecap="round" transform="translate(18.761596932800046 340.48474394763264) rotate(0 121.21428571428578 17.5)"><path d="M8.75 0 C55.49 -1.61, 100.33 -0.59, 233.68 0 M8.75 0 C94.61 -2.22, 180.3 -2.39, 233.68 0 M233.68 0 C240.4 -0.56, 243.33 4.18, 242.43 8.75 M233.68 0 C238.17 -1.98, 243.17 2.56, 242.43 8.75 M242.43 8.75 C243.95 16.94, 241.56 22.3, 242.43 26.25 M242.43 8.75 C242.63 14.67, 242.89 20.21, 242.43 26.25 M242.43 26.25 C242.47 33.28, 241.16 34.37, 233.68 35 M242.43 26.25 C240.75 33.26, 240.24 34.54, 233.68 35 M233.68 35 C149.12 32.83, 63.81 33.59, 8.75 35 M233.68 35 C147.4 33.78, 60.44 32.98, 8.75 35 M8.75 35 C2.15 35.47, -1.21 32.8, 0 26.25 M8.75 35 C3.6 37.2, 0.6 32.82, 0 26.25 M0 26.25 C0.25 22.53, -0.97 18.83, 0 8.75 M0 26.25 C-0.12 19.45, -0.19 12.83, 0 8.75 M0 8.75 C0.66 3.64, 2.07 1.08, 8.75 0 M0 8.75 C1.24 2.12, 3.35 0.12, 8.75 0" stroke="#1e1e1e" stroke-width="2" fill="none"></path></g><g transform="translate(52.955977556753794 345.48474394763264) rotate(0 87.01990509033203 12.5)"><text x="87.01990509033203" y="0" font-family="Virgil, Segoe UI Emoji" font-size="20px" fill="#1e1e1e" text-anchor="middle" style="white-space: pre;" direction="ltr" dominant-baseline="text-before-edge">Istruction Buffer</text></g><g stroke-linecap="round"><g transform="translate(91.98836267896212 377.0323629952519) rotate(0 -1.1368683772161603e-13 46.66666666666666)"><path d="M-0.22 0.3 C-0.28 15.75, -0.51 78.24, -0.45 93.82" stroke="#1e1e1e" stroke-width="2.5" fill="none" stroke-dasharray="1.5 8"></path></g></g><mask></mask><g stroke-linecap="round"><g transform="translate(116.98836267896189 375.3656963285853) rotate(0 -1.6666666666666288 49.99999999999997)"><path d="M-0.24 -0.58 C-0.49 16.37, -2 84.32, -2.36 101.04" stroke="#1e1e1e" stroke-width="2.5" fill="none" stroke-dasharray="1.5 8"></path></g></g><mask></mask><g stroke-linecap="round"><g transform="translate(140.32169601229538 377.0323629952519) rotate(0 0.8333333333332575 49.16666666666666)"><path d="M-0.32 -0.97 C-0.09 15.39, 1.29 82.14, 1.48 98.57" stroke="#1e1e1e" stroke-width="2.5" fill="none" stroke-dasharray="1.5 8"></path></g></g><mask></mask><g stroke-linecap="round"><g transform="translate(161.9883626789619 377.0323629952519) rotate(0 0 51.66666666666666)"><path d="M1.06 -1.06 C1.26 15.88, 0.64 85.24, 0.5 102.56" stroke="#1e1e1e" stroke-width="2.5" fill="none" stroke-dasharray="1.5 8"></path></g></g><mask></mask><g stroke-linecap="round"><g transform="translate(391.6670336804267 378.5401760616203) rotate(0 -1.1368683772161603e-13 46.66666666666666)"><path d="M0.34 -1.08 C0.44 14.65, 0.93 78.1, 1.02 93.87" stroke="#1e1e1e" stroke-width="2.5" fill="none" stroke-dasharray="1.5 8"></path></g></g><mask></mask><g stroke-linecap="round"><g transform="translate(416.66703368042647 376.87350939495354) rotate(0 1.1368683772161603e-13 50.833333333333286)"><path d="M1.02 0.53 C1.11 17.69, 0.9 85.17, 0.9 101.86" stroke="#1e1e1e" stroke-width="2.5" fill="none" stroke-dasharray="1.5 8"></path></g></g><mask></mask><g stroke-linecap="round"><g transform="translate(440.00036701375996 378.5401760616203) rotate(0 0.8333333333332575 49.16666666666666)"><path d="M0.9 0.2 C1.18 16.33, 2.68 81.18, 2.68 97.35" stroke="#1e1e1e" stroke-width="2.5" fill="none" stroke-dasharray="1.5 8"></path></g></g><mask></mask><g stroke-linecap="round"><g transform="translate(461.66703368042647 378.5401760616203) rotate(0 2.4999999999998863 51.66666666666666)"><path d="M1.01 -0.99 C1.57 16.02, 3.54 84.96, 4.22 102.21" stroke="#1e1e1e" stroke-width="2.5" fill="none" stroke-dasharray="1.5 8"></path></g></g><mask></mask><g stroke-linecap="round"><g transform="translate(698.3337003470931 376.87350939495354) rotate(0 -1.1368683772161603e-13 46.66666666666666)"><path d="M0.99 0.67 C0.75 16.25, -0.6 77.1, -0.67 92.7" stroke="#1e1e1e" stroke-width="2.5" fill="none" stroke-dasharray="1.5 8"></path></g></g><mask></mask><g stroke-linecap="round"><g transform="translate(723.3337003470929 375.20684272828703) rotate(0 -0.8333333333332575 49.99999999999997)"><path d="M-0.67 -0.63 C-1.02 16.09, -0.89 84.01, -1.12 100.97" stroke="#1e1e1e" stroke-width="2.5" fill="none" stroke-dasharray="1.5 8"></path></g></g><mask></mask><g stroke-linecap="round"><g transform="translate(746.6670336804264 376.87350939495354) rotate(0 -0.8333333333333712 48.333333333333314)"><path d="M0.55 0.97 C0.32 17.38, -1.68 81.81, -2.05 97.8" stroke="#1e1e1e" stroke-width="2.5" fill="none" stroke-dasharray="1.5 8"></path></g></g><mask></mask><g stroke-linecap="round"><g transform="translate(768.3337003470929 376.87350939495354) rotate(0 0 51.66666666666666)"><path d="M-0.39 1.13 C-0.48 18.24, 0 86.52, -0.04 103.6" stroke="#1e1e1e" stroke-width="2.5" fill="none" stroke-dasharray="1.5 8"></path></g></g><mask></mask><g stroke-linecap="round"><g transform="translate(791.6670336804264 375.2068427282869) rotate(0 -1.1368683772161603e-13 46.66666666666666)"><path d="M-0.73 1.17 C-0.49 16.71, 0.55 78.42, 0.61 93.84" stroke="#1e1e1e" stroke-width="2.5" fill="none" stroke-dasharray="1.5 8"></path></g></g><mask></mask><g stroke-linecap="round"><g transform="translate(816.6670336804261 373.5401760616204) rotate(0 1.1368683772161603e-13 49.16666666666663)"><path d="M0.61 0.5 C0.66 16.75, -0.2 82.19, -0.39 98.68" stroke="#1e1e1e" stroke-width="2.5" fill="none" stroke-dasharray="1.5 8"></path></g></g><mask></mask><g stroke-linecap="round"><g transform="translate(840.0003670137596 375.2068427282869) rotate(0 -0.8333333333334849 48.33333333333334)"><path d="M-0.39 0.34 C-0.85 16.56, -1.9 81.76, -2.16 97.77" stroke="#1e1e1e" stroke-width="2.5" fill="none" stroke-dasharray="1.5 8"></path></g></g><mask></mask><g stroke-linecap="round"><g transform="translate(861.6670336804261 375.2068427282869) rotate(0 0 51.66666666666666)"><path d="M-0.49 1.11 C-0.47 18.24, -0.51 85.9, -0.24 103.12" stroke="#1e1e1e" stroke-width="2.5" fill="none" stroke-dasharray="1.5 8"></path></g></g><mask></mask><g stroke-linecap="round"><g transform="translate(94.16481067118443 231.67074487577364) rotate(0 -1.1368683772161603e-13 46.66666666666666)"><path d="M-0.77 1.04 C-0.9 16.65, -0.72 77.91, -0.78 93.27" stroke="#1e1e1e" stroke-width="2.5" fill="none" stroke-dasharray="1.5 8"></path></g></g><mask></mask><g stroke-linecap="round"><g transform="translate(119.1648106711842 230.004078209107) rotate(0 -1.6666666666666288 49.99999999999997)"><path d="M-0.78 -0.07 C-1.4 16.41, -4.13 82.98, -4.48 99.86" stroke="#1e1e1e" stroke-width="2.5" fill="none" stroke-dasharray="1.5 8"></path></g></g><mask></mask><g stroke-linecap="round"><g transform="translate(142.49814400451768 231.67074487577364) rotate(0 0.8333333333332575 49.16666666666666)"><path d="M-1.14 -0.14 C-0.66 16.45, 1.77 83.08, 2.13 99.52" stroke="#1e1e1e" stroke-width="2.5" fill="none" stroke-dasharray="1.5 8"></path></g></g><mask></mask><g stroke-linecap="round"><g transform="translate(164.1648106711842 231.67074487577364) rotate(0 0 51.66666666666666)"><path d="M0.47 1.19 C0.55 18.46, -0.72 86.68, -0.61 103.51" stroke="#1e1e1e" stroke-width="2.5" fill="none" stroke-dasharray="1.5 8"></path></g></g><mask></mask><g stroke-linecap="round"><g transform="translate(395.5101483393158 228.1785579421419) rotate(0 -0.8333333333333712 57.760235859888326)"><path d="M-0.61 0.18 C-0.78 19.03, -0.18 95.26, -0.55 114.33" stroke="#1e1e1e" stroke-width="2.5" fill="none" stroke-dasharray="1.5 8"></path></g></g><mask></mask><g stroke-linecap="round"><g transform="translate(418.8434816726488 231.51189127547516) rotate(0 0.8333333333332575 56.09356919322167)"><path d="M1.12 -1.19 C1.3 17.32, 0.38 92.22, 0.5 111.23" stroke="#1e1e1e" stroke-width="2.5" fill="none" stroke-dasharray="1.5 8"></path></g></g><mask></mask><g stroke-linecap="round"><g transform="translate(443.84348167264903 228.1785579421419) rotate(0 -0.8333333333334849 56.66666666666666)"><path d="M-1.17 -0.95 C-1.61 18.26, -1.42 94.91, -1.53 114.06" stroke="#1e1e1e" stroke-width="2.5" fill="none" stroke-dasharray="1.5 8"></path></g></g><mask></mask><g stroke-linecap="round"><g transform="translate(467.17681500598206 226.51189127547528) rotate(0 0.8333333333332575 54.99999999999997)"><path d="M0.14 0.73 C0.58 19.32, 1.33 92.42, 1.48 110.59" stroke="#1e1e1e" stroke-width="2.5" fill="none" stroke-dasharray="1.5 8"></path></g></g><mask></mask><g stroke-linecap="round"><g transform="translate(700.5101483393155 231.51189127547516) rotate(0 -1.1368683772161603e-13 54.99999999999997)"><path d="M-0.19 0.59 C-0.32 18.76, -0.9 91.46, -0.67 109.76" stroke="#1e1e1e" stroke-width="2.5" fill="none" stroke-dasharray="1.5 8"></path></g></g><mask></mask><g stroke-linecap="round"><g transform="translate(725.5101483393153 229.84522460880865) rotate(0 -0.8333333333332575 49.99999999999997)"><path d="M-0.67 -0.24 C-0.72 16.39, -0.25 83.49, -0.47 100.4" stroke="#1e1e1e" stroke-width="2.5" fill="none" stroke-dasharray="1.5 8"></path></g></g><mask></mask><g stroke-linecap="round"><g transform="translate(748.8434816726487 231.51189127547516) rotate(0 -0.8333333333333712 48.333333333333314)"><path d="M1.2 0.4 C0.99 16.75, -1.35 81.61, -1.95 97.84" stroke="#1e1e1e" stroke-width="2.5" fill="none" stroke-dasharray="1.5 8"></path></g></g><mask></mask><g stroke-linecap="round"><g transform="translate(770.5101483393153 231.51189127547516) rotate(0 0 51.66666666666666)"><path d="M-0.28 1.18 C-0.6 18.52, -0.82 87.45, -0.71 104.46" stroke="#1e1e1e" stroke-width="2.5" fill="none" stroke-dasharray="1.5 8"></path></g></g><mask></mask><g stroke-linecap="round"><g transform="translate(793.8434816726487 229.84522460880854) rotate(0 -1.1368683772161603e-13 54.99999999999997)"><path d="M-0.71 1.13 C-0.6 19.25, 0.08 91.89, 0.37 109.92" stroke="#1e1e1e" stroke-width="2.5" fill="none" stroke-dasharray="1.5 8"></path></g></g><mask></mask><g stroke-linecap="round"><g transform="translate(818.8434816726485 228.17855794214202) rotate(0 1.1368683772161603e-13 49.16666666666663)"><path d="M0.37 -0.08 C0.65 16.01, 1.14 81.08, 1 97.65" stroke="#1e1e1e" stroke-width="2.5" fill="none" stroke-dasharray="1.5 8"></path></g></g><mask></mask><g stroke-linecap="round"><g transform="translate(842.176815005982 229.84522460880854) rotate(0 -0.8333333333334849 48.33333333333334)"><path d="M1 -0.69 C0.59 15.61, -1.84 81.3, -2.1 97.68" stroke="#1e1e1e" stroke-width="2.5" fill="none" stroke-dasharray="1.5 8"></path></g></g><mask></mask><g stroke-linecap="round"><g transform="translate(863.8434816726485 229.84522460880854) rotate(0 0 51.66666666666666)"><path d="M-0.43 1.01 C-0.42 18.51, 0.89 87.37, 1.1 104.28" stroke="#1e1e1e" stroke-width="2.5" fill="none" stroke-dasharray="1.5 8"></path></g></g><mask></mask></svg>