<svg version="1.1" xmlns="http://www.w3.org/2000/svg" viewBox="0 0 1520.0102803442214 1186.5435202916462" width="1520.0102803442214" height="1186.5435202916462" filter="invert(93%) hue-rotate(180deg)">
  <!-- svg-source:excalidraw -->
  
  <defs>
    <style class="style-fonts">
      @font-face {
        font-family: "Virgil";
        src: url("https://file%2B.vscode-resource.vscode-cdn.net/home/kiarie404/.vscode/extensions/pomdtr.excalidraw-editor-3.7.4/public//dist/excalidraw-assets/Virgil.woff2");
      }
      @font-face {
        font-family: "Cascadia";
        src: url("https://file%2B.vscode-resource.vscode-cdn.net/home/kiarie404/.vscode/extensions/pomdtr.excalidraw-editor-3.7.4/public//dist/excalidraw-assets/Cascadia.woff2");
      }
      @font-face {
        font-family: "Assistant";
        src: url("https://file%2B.vscode-resource.vscode-cdn.net/home/kiarie404/.vscode/extensions/pomdtr.excalidraw-editor-3.7.4/public//dist/excalidraw-assets/Assistant-Regular.woff2");
      }
    </style>
    
  </defs>
  <rect x="0" y="0" width="1520.0102803442214" height="1186.5435202916462" fill="#ffffff"></rect><g stroke-linecap="round" transform="translate(633.7563304275627 981.842394552849) rotate(0 138.35714285714283 18.214285714285708)"><path d="M9.11 0 C102.38 2.16, 195.87 0.94, 267.61 0 M9.11 0 C75.54 1.91, 141.27 1.6, 267.61 0 M267.61 0 C272.03 -0.46, 278.23 2.74, 276.71 9.11 M267.61 0 C275.79 -0.65, 278.99 0.83, 276.71 9.11 M276.71 9.11 C275.22 12.26, 275.54 17.78, 276.71 27.32 M276.71 9.11 C276.64 17.03, 276.95 23.39, 276.71 27.32 M276.71 27.32 C274.79 32.29, 275.54 35.11, 267.61 36.43 M276.71 27.32 C275.93 34.47, 273.89 37.14, 267.61 36.43 M267.61 36.43 C168.77 37.41, 72.86 37.47, 9.11 36.43 M267.61 36.43 C203.73 36.9, 140.72 35.97, 9.11 36.43 M9.11 36.43 C3.75 37.74, 0.05 34.57, 0 27.32 M9.11 36.43 C3.92 35.03, 1.8 34.32, 0 27.32 M0 27.32 C1.18 22.87, 1.07 19.72, 0 9.11 M0 27.32 C0.05 22.73, 0.41 19.26, 0 9.11 M0 9.11 C-0.52 3.82, 2.57 0.12, 9.11 0 M0 9.11 C0.58 1, 2.93 1.87, 9.11 0" stroke="#1e1e1e" stroke-width="2" fill="none"></path></g><g transform="translate(673.9835904722055 987.5566802671347) rotate(0 98.1298828125 12.5)"><text x="98.1298828125" y="0" font-family="Virgil, Segoe UI Emoji" font-size="20px" fill="#1e1e1e" text-anchor="middle" style="white-space: pre;" direction="ltr" dominant-baseline="text-before-edge">Memory Address Buffer</text></g><g stroke-linecap="round" transform="translate(935.8991875704204 979.842394552849) rotate(0 224.42857142857122 17.5)"><path d="M8.75 0 C148.42 1.37, 288.36 1.2, 440.11 0 M8.75 0 C172.85 -1.07, 338.18 -1.03, 440.11 0 M440.11 0 C447.78 -0.56, 450.83 1, 448.86 8.75 M440.11 0 C444.02 1.5, 451.04 0.88, 448.86 8.75 M448.86 8.75 C450.29 12.47, 447.09 17.75, 448.86 26.25 M448.86 8.75 C448.08 15.12, 449.73 21.87, 448.86 26.25 M448.86 26.25 C448.17 33.02, 446.13 35.62, 440.11 35 M448.86 26.25 C450.66 31.35, 446.83 33.48, 440.11 35 M440.11 35 C305.37 35.46, 171.83 34.83, 8.75 35 M440.11 35 C293.35 33.66, 146.24 33.62, 8.75 35 M8.75 35 C3.68 33.78, 1.56 32.89, 0 26.25 M8.75 35 C0.74 36.17, -0.11 33.69, 0 26.25 M0 26.25 C-1.49 20.07, -1.66 16.91, 0 8.75 M0 26.25 C-0.27 22.42, -0.25 17.96, 0 8.75 M0 8.75 C0.51 1.14, 2.82 1.62, 8.75 0 M0 8.75 C2.13 3.29, 5.15 1.05, 8.75 0" stroke="#1e1e1e" stroke-width="2" fill="none"></path></g><g transform="translate(1113.0328371239916 984.842394552849) rotate(0 47.294921875 12.5)"><text x="47.294921875" y="0" font-family="Virgil, Segoe UI Emoji" font-size="20px" fill="#1e1e1e" text-anchor="middle" style="white-space: pre;" direction="ltr" dominant-baseline="text-before-edge">Data Buffer</text></g><g stroke-linecap="round" transform="translate(374.7206161418486 1114.5090612195156) rotate(0 505.86271719148425 29.512305046551617)"><path d="M0 0 C327.29 -0.84, 653.63 -0.9, 1011.73 0 M0 0 C280.81 0.49, 561.28 0.22, 1011.73 0 M1011.73 0 C1010.34 11.92, 1010.69 26.43, 1011.73 59.02 M1011.73 0 C1011.47 23.88, 1011.81 46.05, 1011.73 59.02 M1011.73 59.02 C804.78 62.52, 599.27 62.87, 0 59.02 M1011.73 59.02 C677.09 57.48, 342.19 57.94, 0 59.02 M0 59.02 C0.47 39.44, 1.13 22, 0 0 M0 59.02 C-0.19 46.38, 0.17 31.95, 0 0" stroke="#1e1e1e" stroke-width="1" fill="none"></path></g><g transform="translate(680.922261555989 1129.5866571395773) rotate(0 199.66107177734378 14.434709126489949)"><text x="199.66107177734375" y="0" font-family="Virgil, Segoe UI Emoji" font-size="23.09553460238392px" fill="#1e1e1e" text-anchor="middle" style="white-space: pre;" direction="ltr" dominant-baseline="text-before-edge">MicroProcessor within the hard-disk</text></g><g stroke-linecap="round" transform="translate(382.23221307464866 982.857202551289) rotate(0 121.21428571428578 17.5)"><path d="M8.75 0 C73.11 1.57, 139.47 2.24, 233.68 0 M8.75 0 C75.91 -0.7, 143.69 -1.51, 233.68 0 M233.68 0 C239.42 1.62, 244.28 3.24, 242.43 8.75 M233.68 0 C241.74 1.05, 242.55 2.59, 242.43 8.75 M242.43 8.75 C242.85 13.61, 243.98 23.18, 242.43 26.25 M242.43 8.75 C242.99 12.29, 242.96 15.61, 242.43 26.25 M242.43 26.25 C242.98 31.65, 240.64 34.98, 233.68 35 M242.43 26.25 C241.04 31.52, 238.42 34.52, 233.68 35 M233.68 35 C185.97 34.19, 138.06 34.05, 8.75 35 M233.68 35 C145.38 37.65, 55.96 37.43, 8.75 35 M8.75 35 C2.92 34.05, -1.71 33.82, 0 26.25 M8.75 35 C2.11 36.87, -0.02 33.69, 0 26.25 M0 26.25 C-1.45 17.75, -0.68 14.09, 0 8.75 M0 26.25 C0.59 19.71, 0.29 13.28, 0 8.75 M0 8.75 C1.53 1.67, 4.26 0.72, 8.75 0 M0 8.75 C0.95 3.19, 0.91 1.53, 8.75 0" stroke="#1e1e1e" stroke-width="2" fill="none"></path></g><g transform="translate(436.70333472643443 987.857202551289) rotate(0 66.7431640625 12.5)"><text x="66.7431640625" y="0" font-family="Virgil, Segoe UI Emoji" font-size="20px" fill="#1e1e1e" text-anchor="middle" style="white-space: pre;" direction="ltr" dominant-baseline="text-before-edge">Istruction Buffer</text></g><g stroke-linecap="round"><g transform="translate(455.4589788208107 1019.4048215989083) rotate(0 0.3905929045822347 46.66666666666666)"><path d="M0.32 -0.01 C0.42 15.75, 0.44 78.23, 0.47 93.8" stroke="#1e1e1e" stroke-width="2.5" fill="none" stroke-dasharray="1.5 8"></path></g></g><mask></mask><g stroke-linecap="round"><g transform="translate(480.4589788208105 1017.7381549322415) rotate(0 -1.6666666666666288 49.99999999999997)"><path d="M-0.31 0.47 C-0.97 17.15, -3.16 83.66, -3.61 100.07" stroke="#1e1e1e" stroke-width="2.5" fill="none" stroke-dasharray="1.5 8"></path></g></g><mask></mask><g stroke-linecap="round"><g transform="translate(503.792312154144 1019.4048215989083) rotate(0 0.8333333333332575 49.16666666666666)"><path d="M-0.28 0.07 C0.1 16.21, 1.66 80.73, 1.97 97.27" stroke="#1e1e1e" stroke-width="2.5" fill="none" stroke-dasharray="1.5 8"></path></g></g><mask></mask><g stroke-linecap="round"><g transform="translate(525.4589788208104 1019.4048215989083) rotate(0 0 51.66666666666666)"><path d="M0.3 -1.06 C0.34 16.31, -0.19 86.88, -0.06 104.31" stroke="#1e1e1e" stroke-width="2.5" fill="none" stroke-dasharray="1.5 8"></path></g></g><mask></mask><g stroke-linecap="round"><g transform="translate(755.1376498222753 1020.9126346652765) rotate(0 0.4439648961663636 46.29821327711953)"><path d="M-0.06 0.97 C0.23 16.62, 1.65 77.43, 2 92.79" stroke="#1e1e1e" stroke-width="2.5" fill="none" stroke-dasharray="1.5 8"></path></g></g><mask></mask><g stroke-linecap="round"><g transform="translate(780.1376498222751 1019.2459679986098) rotate(0 1.1368683772161603e-13 50.833333333333286)"><path d="M1.11 0.19 C1.32 17.07, 1.34 85.33, 1.16 102.22" stroke="#1e1e1e" stroke-width="2.5" fill="none" stroke-dasharray="1.5 8"></path></g></g><mask></mask><g stroke-linecap="round"><g transform="translate(803.4709831556086 1020.9126346652765) rotate(0 0.8333333333332575 49.16666666666666)"><path d="M1.16 0.55 C1.27 16.88, 1.5 81.88, 1.73 98.16" stroke="#1e1e1e" stroke-width="2.5" fill="none" stroke-dasharray="1.5 8"></path></g></g><mask></mask><g stroke-linecap="round"><g transform="translate(825.1376498222751 1020.9126346652765) rotate(0 2.4999999999998863 51.66666666666666)"><path d="M0.06 -0.17 C0.85 16.95, 4.94 85.95, 5.91 103.25" stroke="#1e1e1e" stroke-width="2.5" fill="none" stroke-dasharray="1.5 8"></path></g></g><mask></mask><g stroke-linecap="round"><g transform="translate(1061.8043164889418 1019.2459679986098) rotate(0 0.5111133169238542 46.66666666666666)"><path d="M0.91 -0.08 C1.21 15.55, 2.04 77.88, 1.87 93.63" stroke="#1e1e1e" stroke-width="2.5" fill="none" stroke-dasharray="1.5 8"></path></g></g><mask></mask><g stroke-linecap="round"><g transform="translate(1086.8043164889414 1017.5793013319433) rotate(0 -0.8333333333332575 49.99999999999997)"><path d="M0.85 0.3 C0.22 17.15, -2.57 84.64, -2.84 101.07" stroke="#1e1e1e" stroke-width="2.5" fill="none" stroke-dasharray="1.5 8"></path></g></g><mask></mask><g stroke-linecap="round"><g transform="translate(1110.1376498222749 1019.2459679986098) rotate(0 -0.8333333333333712 48.333333333333314)"><path d="M-1.18 1.07 C-1.45 16.95, -0.55 79.7, -0.78 95.58" stroke="#1e1e1e" stroke-width="2.5" fill="none" stroke-dasharray="1.5 8"></path></g></g><mask></mask><g stroke-linecap="round"><g transform="translate(1131.8043164889414 1019.2459679986098) rotate(0 0 51.66666666666666)"><path d="M0.89 -1.09 C0.94 15.89, -0.9 85.61, -0.89 102.99" stroke="#1e1e1e" stroke-width="2.5" fill="none" stroke-dasharray="1.5 8"></path></g></g><mask></mask><g stroke-linecap="round"><g transform="translate(1155.1376498222749 1017.5793013319432) rotate(0 0.5286139086998105 46.66666666666666)"><path d="M-0.89 -0.35 C-0.7 15.37, 1.53 77.67, 2.01 93.18" stroke="#1e1e1e" stroke-width="2.5" fill="none" stroke-dasharray="1.5 8"></path></g></g><mask></mask><g stroke-linecap="round"><g transform="translate(1180.1376498222749 1015.9126346652766) rotate(0 0.5517181854401656 48.79821327711949)"><path d="M0.95 -0.16 C1.43 16.06, 1.93 80.72, 2.01 96.96" stroke="#1e1e1e" stroke-width="2.5" fill="none" stroke-dasharray="1.5 8"></path></g></g><mask></mask><g stroke-linecap="round"><g transform="translate(1203.4709831556083 1017.5793013319432) rotate(0 -0.8333333333334849 48.33333333333334)"><path d="M0.91 -0.63 C0.53 15.46, -1.02 80.19, -1.33 96.41" stroke="#1e1e1e" stroke-width="2.5" fill="none" stroke-dasharray="1.5 8"></path></g></g><mask></mask><g stroke-linecap="round"><g transform="translate(1225.1376498222749 1017.5793013319432) rotate(0 0 51.66666666666666)"><path d="M0.33 -0.26 C0.29 17.07, 0.86 86.11, 0.68 103.32" stroke="#1e1e1e" stroke-width="2.5" fill="none" stroke-dasharray="1.5 8"></path></g></g><mask></mask><g stroke-linecap="round" transform="translate(10.777777777777715 529.9879647360906) rotate(0 154.99999999999994 127.22222222222217)"><path d="M32 0 C86.54 2.05, 143.32 1.5, 278 0 M32 0 C108.85 0.97, 185.61 0.23, 278 0 M278 0 C298.1 0.7, 309.8 12.11, 310 32 M278 0 C300.14 0.16, 308.09 9.7, 310 32 M310 32 C312.65 94.82, 312.92 162.54, 310 222.44 M310 32 C309.32 79.99, 309.46 127.69, 310 222.44 M310 222.44 C308.74 244.52, 298.23 253.74, 278 254.44 M310 222.44 C307.9 245.76, 300.5 256.16, 278 254.44 M278 254.44 C193.92 255.9, 113.36 255.64, 32 254.44 M278 254.44 C179.69 254.53, 82.48 255.61, 32 254.44 M32 254.44 C8.76 253.72, 1.89 245.54, 0 222.44 M32 254.44 C11.53 255.48, 0.66 245.4, 0 222.44 M0 222.44 C-3.01 147.99, -0.52 75.64, 0 32 M0 222.44 C1.2 175.48, 2.04 129.41, 0 32 M0 32 C1.92 8.82, 11.27 1.16, 32 0 M0 32 C-0.44 12.78, 10.87 0.33, 32 0" stroke="#1e1e1e" stroke-width="2" fill="none"></path></g><g transform="translate(22.567938910590158 534.9879647360906) rotate(0 143.2098388671875 112.5)"><text x="143.2098388671875" y="0" font-family="Virgil, Segoe UI Emoji" font-size="20px" fill="#1e1e1e" text-anchor="middle" style="white-space: pre;" direction="ltr" dominant-baseline="text-before-edge">ASSUMPTIONS 1</text><text x="143.2098388671875" y="25" font-family="Virgil, Segoe UI Emoji" font-size="20px" fill="#1e1e1e" text-anchor="middle" style="white-space: pre;" direction="ltr" dominant-baseline="text-before-edge"></text><text x="143.2098388671875" y="50" font-family="Virgil, Segoe UI Emoji" font-size="20px" fill="#1e1e1e" text-anchor="middle" style="white-space: pre;" direction="ltr" dominant-baseline="text-before-edge">1. The Instruction Buffer is </text><text x="143.2098388671875" y="75" font-family="Virgil, Segoe UI Emoji" font-size="20px" fill="#1e1e1e" text-anchor="middle" style="white-space: pre;" direction="ltr" dominant-baseline="text-before-edge">4-bits long</text><text x="143.2098388671875" y="100" font-family="Virgil, Segoe UI Emoji" font-size="20px" fill="#1e1e1e" text-anchor="middle" style="white-space: pre;" direction="ltr" dominant-baseline="text-before-edge">2. The Data Buffer is 8-</text><text x="143.2098388671875" y="125" font-family="Virgil, Segoe UI Emoji" font-size="20px" fill="#1e1e1e" text-anchor="middle" style="white-space: pre;" direction="ltr" dominant-baseline="text-before-edge">bits long</text><text x="143.2098388671875" y="150" font-family="Virgil, Segoe UI Emoji" font-size="20px" fill="#1e1e1e" text-anchor="middle" style="white-space: pre;" direction="ltr" dominant-baseline="text-before-edge">3. The Address Buffer is 4-</text><text x="143.2098388671875" y="175" font-family="Virgil, Segoe UI Emoji" font-size="20px" fill="#1e1e1e" text-anchor="middle" style="white-space: pre;" direction="ltr" dominant-baseline="text-before-edge">bits long</text><text x="143.2098388671875" y="200" font-family="Virgil, Segoe UI Emoji" font-size="20px" fill="#1e1e1e" text-anchor="middle" style="white-space: pre;" direction="ltr" dominant-baseline="text-before-edge"> </text></g><g stroke-linecap="round" transform="translate(10 816.5435202916462) rotate(0 154.99999999999994 180)"><path d="M32 0 C115.78 3.34, 196.78 3.15, 278 0 M32 0 C84.62 -0.41, 137.67 -1.21, 278 0 M278 0 C300.84 -0.58, 309.7 12.17, 310 32 M278 0 C299.65 -0.2, 312.17 11.11, 310 32 M310 32 C309.56 99.85, 311.3 170.86, 310 328 M310 32 C310.81 132.23, 310.93 233.86, 310 328 M310 328 C309.26 348.26, 300.47 359.07, 278 360 M310 328 C308.73 350.21, 298.4 360.36, 278 360 M278 360 C198.37 356.82, 116.89 359.01, 32 360 M278 360 C201.46 358.44, 125.01 358.4, 32 360 M32 360 C8.92 360.17, 1.63 349.93, 0 328 M32 360 C9.39 358.61, 0.93 348.51, 0 328 M0 328 C-1.65 263.57, -0.12 200.07, 0 32 M0 328 C1.66 236.73, 1.58 144.47, 0 32 M0 32 C-1.58 9.16, 12.11 0.86, 32 0 M0 32 C-2.03 11.6, 10.42 1.07, 32 0" stroke="#1e1e1e" stroke-width="2" fill="none"></path></g><g transform="translate(18.120147705078068 821.5435202916462) rotate(0 146.87985229492188 175)"><text x="146.87985229492188" y="0" font-family="Virgil, Segoe UI Emoji" font-size="20px" fill="#1e1e1e" text-anchor="middle" style="white-space: pre;" direction="ltr" dominant-baseline="text-before-edge">ASSUMPTIONS 2</text><text x="146.87985229492188" y="25" font-family="Virgil, Segoe UI Emoji" font-size="20px" fill="#1e1e1e" text-anchor="middle" style="white-space: pre;" direction="ltr" dominant-baseline="text-before-edge"></text><text x="146.87985229492188" y="50" font-family="Virgil, Segoe UI Emoji" font-size="20px" fill="#1e1e1e" text-anchor="middle" style="white-space: pre;" direction="ltr" dominant-baseline="text-before-edge">The Instruction register can </text><text x="146.87985229492188" y="75" font-family="Virgil, Segoe UI Emoji" font-size="20px" fill="#1e1e1e" text-anchor="middle" style="white-space: pre;" direction="ltr" dominant-baseline="text-before-edge">only take in 3 variant signals</text><text x="146.87985229492188" y="100" font-family="Virgil, Segoe UI Emoji" font-size="20px" fill="#1e1e1e" text-anchor="middle" style="white-space: pre;" direction="ltr" dominant-baseline="text-before-edge">: </text><text x="146.87985229492188" y="125" font-family="Virgil, Segoe UI Emoji" font-size="20px" fill="#1e1e1e" text-anchor="middle" style="white-space: pre;" direction="ltr" dominant-baseline="text-before-edge"> 1. The bits 0000 - means </text><text x="146.87985229492188" y="150" font-family="Virgil, Segoe UI Emoji" font-size="20px" fill="#1e1e1e" text-anchor="middle" style="white-space: pre;" direction="ltr" dominant-baseline="text-before-edge">`no instruction`</text><text x="146.87985229492188" y="175" font-family="Virgil, Segoe UI Emoji" font-size="20px" fill="#1e1e1e" text-anchor="middle" style="white-space: pre;" direction="ltr" dominant-baseline="text-before-edge"></text><text x="146.87985229492188" y="200" font-family="Virgil, Segoe UI Emoji" font-size="20px" fill="#1e1e1e" text-anchor="middle" style="white-space: pre;" direction="ltr" dominant-baseline="text-before-edge">2. The bits 0001 means </text><text x="146.87985229492188" y="225" font-family="Virgil, Segoe UI Emoji" font-size="20px" fill="#1e1e1e" text-anchor="middle" style="white-space: pre;" direction="ltr" dominant-baseline="text-before-edge">`Write-to-address-x`</text><text x="146.87985229492188" y="250" font-family="Virgil, Segoe UI Emoji" font-size="20px" fill="#1e1e1e" text-anchor="middle" style="white-space: pre;" direction="ltr" dominant-baseline="text-before-edge"></text><text x="146.87985229492188" y="275" font-family="Virgil, Segoe UI Emoji" font-size="20px" fill="#1e1e1e" text-anchor="middle" style="white-space: pre;" direction="ltr" dominant-baseline="text-before-edge">3. The bits 0010 means </text><text x="146.87985229492188" y="300" font-family="Virgil, Segoe UI Emoji" font-size="20px" fill="#1e1e1e" text-anchor="middle" style="white-space: pre;" direction="ltr" dominant-baseline="text-before-edge">`Read-from-address-x`</text><text x="146.87985229492188" y="325" font-family="Virgil, Segoe UI Emoji" font-size="20px" fill="#1e1e1e" text-anchor="middle" style="white-space: pre;" direction="ltr" dominant-baseline="text-before-edge"></text></g><g stroke-linecap="round" transform="translate(377.9743639628092 923.9785872565377) rotate(0 124.44444444444443 15.555555555555543)"><path d="M7.78 0 C60.67 -1.75, 115 -1.54, 241.11 0 M7.78 0 C61.28 -1.19, 113.45 -0.72, 241.11 0 M241.11 0 C245.28 -1.16, 247.52 0.94, 248.89 7.78 M241.11 0 C246.15 0.6, 247.55 0.56, 248.89 7.78 M248.89 7.78 C247.92 12.08, 250.02 15.06, 248.89 23.33 M248.89 7.78 C248.19 14.38, 248.58 19.58, 248.89 23.33 M248.89 23.33 C247.03 26.6, 246.77 30.1, 241.11 31.11 M248.89 23.33 C247.43 29.26, 244.13 32.88, 241.11 31.11 M241.11 31.11 C157.43 31.96, 72.6 31.78, 7.78 31.11 M241.11 31.11 C168.69 29.9, 96.05 29.65, 7.78 31.11 M7.78 31.11 C3.24 32.34, -1.47 29.57, 0 23.33 M7.78 31.11 C2.45 28.9, 0.94 29.13, 0 23.33 M0 23.33 C0.86 18.61, -1.69 14.54, 0 7.78 M0 23.33 C-0.77 19.97, -0.07 14.51, 0 7.78 M0 7.78 C-0.96 2.54, 4.18 1.16, 7.78 0 M0 7.78 C1.08 2.33, 0.36 2.15, 7.78 0" stroke="#1e1e1e" stroke-width="2" fill="none"></path></g><g stroke-linecap="round" transform="translate(379.08547507392035 923.9785872565376) rotate(0 29.99999999999997 18.6111111111112)"><path d="M9.31 0 C24.25 -0.33, 37.43 -1.83, 50.69 0 M9.31 0 C23.35 0.33, 37.21 -0.41, 50.69 0 M50.69 0 C55.52 -1.65, 59.87 3.62, 60 9.31 M50.69 0 C55.56 -2.03, 59.24 3.94, 60 9.31 M60 9.31 C61.17 15.36, 61.59 24.6, 60 27.92 M60 9.31 C59.37 16.17, 58.96 23.07, 60 27.92 M60 27.92 C60.47 33.11, 55.63 37.87, 50.69 37.22 M60 27.92 C57.84 35.89, 58.23 38.25, 50.69 37.22 M50.69 37.22 C35.21 37.38, 23.6 37.93, 9.31 37.22 M50.69 37.22 C39.94 36.15, 29.33 37.61, 9.31 37.22 M9.31 37.22 C1.64 38.28, -0.12 32.2, 0 27.92 M9.31 37.22 C4.05 37.84, 0.53 36.14, 0 27.92 M0 27.92 C-1.98 22.21, -0.81 14.6, 0 9.31 M0 27.92 C0.19 23.43, -0.28 20.45, 0 9.31 M0 9.31 C1.59 4.26, 4.04 -0.23, 9.31 0 M0 9.31 C-2.24 5.25, 1.36 -1.1, 9.31 0" stroke="#1e1e1e" stroke-width="2" fill="none"></path></g><g transform="translate(402.2054778205023 930.0896983676488) rotate(0 6.879997253417969 12.5)"><text x="6.879997253417969" y="0" font-family="Virgil, Segoe UI Emoji" font-size="20px" fill="#1e1e1e" text-anchor="middle" style="white-space: pre;" direction="ltr" dominant-baseline="text-before-edge">0</text></g><g stroke-linecap="round" transform="translate(442.4188084072536 925.0896983676489) rotate(0 29.99999999999997 18.0555555555556)"><path d="M9.03 0 C18.62 -1.87, 32.01 1.52, 50.97 0 M9.03 0 C19.42 -0.65, 30.15 -0.89, 50.97 0 M50.97 0 C56.87 0.52, 58.84 1.24, 60 9.03 M50.97 0 C56.23 0.83, 62.1 1.49, 60 9.03 M60 9.03 C61.79 15.32, 61.82 18.44, 60 27.08 M60 9.03 C59.08 14.75, 60.13 21.75, 60 27.08 M60 27.08 C58.74 33.75, 55.11 37.65, 50.97 36.11 M60 27.08 C61.33 34.13, 57.68 35.84, 50.97 36.11 M50.97 36.11 C37.97 36.77, 23.77 36.47, 9.03 36.11 M50.97 36.11 C41.03 36.37, 29.7 36.29, 9.03 36.11 M9.03 36.11 C2.89 34.19, 0.82 33.64, 0 27.08 M9.03 36.11 C3.54 38.13, 2.03 34.58, 0 27.08 M0 27.08 C-0.49 22.41, -1.62 13.97, 0 9.03 M0 27.08 C-0.44 19.95, 0.71 13.39, 0 9.03 M0 9.03 C0.94 2.78, 1.06 1.87, 9.03 0 M0 9.03 C-1.74 1.91, 4.46 1.64, 9.03 0" stroke="#1e1e1e" stroke-width="2" fill="none"></path></g><g transform="translate(465.5388111538356 930.6452539232045) rotate(0 6.879997253417969 12.5)"><text x="6.879997253417969" y="0" font-family="Virgil, Segoe UI Emoji" font-size="20px" fill="#1e1e1e" text-anchor="middle" style="white-space: pre;" direction="ltr" dominant-baseline="text-before-edge">0</text></g><g stroke-linecap="round" transform="translate(569.0854750739204 926.20080947876) rotate(0 29.444444444444372 17.5)"><path d="M8.75 0 C21.03 1.83, 30.78 0.09, 50.14 0 M8.75 0 C21.14 -0.58, 34.84 0.5, 50.14 0 M50.14 0 C54.81 -1.76, 58.23 3.64, 58.89 8.75 M50.14 0 C58.07 -1.52, 59.11 4.51, 58.89 8.75 M58.89 8.75 C60.69 11.14, 60.19 16.11, 58.89 26.25 M58.89 8.75 C58.93 12.68, 58.17 17.78, 58.89 26.25 M58.89 26.25 C57.01 33.63, 57.13 35.9, 50.14 35 M58.89 26.25 C59.58 31.81, 56.32 32.9, 50.14 35 M50.14 35 C36.77 35.48, 23.81 35.32, 8.75 35 M50.14 35 C40.47 35.78, 32.21 34.29, 8.75 35 M8.75 35 C3.74 35.53, 0.46 33.84, 0 26.25 M8.75 35 C4.94 36.47, 0.45 29.79, 0 26.25 M0 26.25 C-1.68 18.05, 1.7 12.95, 0 8.75 M0 26.25 C0.78 22.94, 0.5 18.5, 0 8.75 M0 8.75 C-1.95 4.79, 1.4 -0.96, 8.75 0 M0 8.75 C1.45 4.56, 2.63 -1.25, 8.75 0" stroke="#1e1e1e" stroke-width="2" fill="none"></path></g><g transform="translate(595.8199204338921 931.20080947876) rotate(0 2.7099990844726562 12.5)"><text x="2.7099990844726562" y="0" font-family="Virgil, Segoe UI Emoji" font-size="20px" fill="#1e1e1e" text-anchor="middle" style="white-space: pre;" direction="ltr" dominant-baseline="text-before-edge">1</text></g><g stroke-linecap="round" transform="translate(505.39317237006304 925.0247653325403) rotate(0 29.99999999999997 18.055555555555543)"><path d="M9.03 0 C16.67 -0.62, 26.23 -1.32, 50.97 0 M9.03 0 C19.12 0.61, 28.76 -0.54, 50.97 0 M50.97 0 C56.33 0.73, 61.83 1.69, 60 9.03 M50.97 0 C57.21 1.6, 58.48 5.13, 60 9.03 M60 9.03 C61.34 14.29, 59.26 19.6, 60 27.08 M60 9.03 C59.47 13, 59.19 17.09, 60 27.08 M60 27.08 C61.16 34, 57.59 35.88, 50.97 36.11 M60 27.08 C60.35 31, 57.1 36.36, 50.97 36.11 M50.97 36.11 C35.94 36.37, 21.43 36.83, 9.03 36.11 M50.97 36.11 C35.76 35.37, 21.07 36.6, 9.03 36.11 M9.03 36.11 C3.47 37.87, 1.76 34.38, 0 27.08 M9.03 36.11 C3.46 33.81, 1.87 32.25, 0 27.08 M0 27.08 C1.87 20.62, -1.29 13.19, 0 9.03 M0 27.08 C0.28 21.61, -1.02 17.19, 0 9.03 M0 9.03 C-1.52 2.05, 4.27 1.43, 9.03 0 M0 9.03 C-0.28 1.76, 1.36 -2.06, 9.03 0" stroke="#1e1e1e" stroke-width="2" fill="none"></path></g><g transform="translate(528.513175116645 930.5803208880957) rotate(0 6.879997253417969 12.5)"><text x="6.879997253417969" y="0" font-family="Virgil, Segoe UI Emoji" font-size="20px" fill="#1e1e1e" text-anchor="middle" style="white-space: pre;" direction="ltr" dominant-baseline="text-before-edge">0</text></g><g stroke-linecap="round" transform="translate(647.7538583013743 925.1876401901246) rotate(0 124.44444444444443 15.555555555555543)"><path d="M7.78 0 C82.81 0.56, 161.28 3.04, 241.11 0 M7.78 0 C93.32 0.74, 177.75 0.88, 241.11 0 M241.11 0 C244.72 0.28, 248.19 3.51, 248.89 7.78 M241.11 0 C244 2.28, 247.36 3.47, 248.89 7.78 M248.89 7.78 C247.77 11.34, 250.3 15.78, 248.89 23.33 M248.89 7.78 C249.21 13.87, 249.49 18.81, 248.89 23.33 M248.89 23.33 C250.5 27.44, 247.62 31.84, 241.11 31.11 M248.89 23.33 C247.39 26.62, 244.41 32.58, 241.11 31.11 M241.11 31.11 C167.53 31.11, 92.47 32.42, 7.78 31.11 M241.11 31.11 C164.24 31.27, 89.16 31.94, 7.78 31.11 M7.78 31.11 C0.81 30.24, -0.03 26.73, 0 23.33 M7.78 31.11 C4.39 30.8, 2.22 30.29, 0 23.33 M0 23.33 C-0.27 16.89, 0.66 11.34, 0 7.78 M0 23.33 C0.05 19.27, 0.3 16.89, 0 7.78 M0 7.78 C0.39 3.85, 2.61 0.31, 7.78 0 M0 7.78 C0.68 3.78, 4.03 2.06, 7.78 0" stroke="#1e1e1e" stroke-width="2" fill="none"></path></g><g stroke-linecap="round" transform="translate(648.8649694124855 925.1876401901245) rotate(0 29.99999999999997 18.6111111111112)"><path d="M9.31 0 C18.24 1.64, 27.27 -1.36, 50.69 0 M9.31 0 C21.63 0.63, 33.01 -0.19, 50.69 0 M50.69 0 C56.2 0.91, 58 5.09, 60 9.31 M50.69 0 C55.37 0.88, 59.25 1.63, 60 9.31 M60 9.31 C61.69 15.22, 61.15 21.88, 60 27.92 M60 9.31 C60.8 13.03, 60.83 17.29, 60 27.92 M60 27.92 C61.32 34.85, 55.6 35.57, 50.69 37.22 M60 27.92 C58.11 35.59, 57.35 36.79, 50.69 37.22 M50.69 37.22 C36.34 37.03, 21.28 37.54, 9.31 37.22 M50.69 37.22 C37.72 37.22, 22.28 36.55, 9.31 37.22 M9.31 37.22 C3.07 35.43, 1.56 33.85, 0 27.92 M9.31 37.22 C5.32 38.99, 1.29 32.38, 0 27.92 M0 27.92 C0.7 20.17, -1.28 13.01, 0 9.31 M0 27.92 C0.22 24.01, 0.2 19.07, 0 9.31 M0 9.31 C0.02 3.41, 3.69 1.03, 9.31 0 M0 9.31 C1.43 5.16, 2.93 -1.98, 9.31 0" stroke="#1e1e1e" stroke-width="2" fill="none"></path></g><g transform="translate(671.9849721590675 931.2987513012357) rotate(0 6.879997253417969 12.5)"><text x="6.879997253417969" y="0" font-family="Virgil, Segoe UI Emoji" font-size="20px" fill="#1e1e1e" text-anchor="middle" style="white-space: pre;" direction="ltr" dominant-baseline="text-before-edge">0</text></g><g stroke-linecap="round" transform="translate(712.1983027458188 926.2987513012357) rotate(0 29.99999999999997 18.0555555555556)"><path d="M9.03 0 C24.27 1.76, 41.24 0.51, 50.97 0 M9.03 0 C25.25 0.4, 41.17 0.93, 50.97 0 M50.97 0 C55.67 0.76, 59.35 1.73, 60 9.03 M50.97 0 C57.86 -1.51, 59.12 5.25, 60 9.03 M60 9.03 C58.82 14.83, 60.97 20.54, 60 27.08 M60 9.03 C60.74 13.78, 59.56 17.12, 60 27.08 M60 27.08 C58.36 34.38, 57.38 35.73, 50.97 36.11 M60 27.08 C61.42 34.46, 55.33 36.82, 50.97 36.11 M50.97 36.11 C38.82 34.92, 24.23 37.81, 9.03 36.11 M50.97 36.11 C37.42 35.03, 24.68 35.79, 9.03 36.11 M9.03 36.11 C4.94 37.65, 1.12 31.59, 0 27.08 M9.03 36.11 C4.31 35.53, -1.34 33.91, 0 27.08 M0 27.08 C-0.71 22.54, -1.04 18.77, 0 9.03 M0 27.08 C-0.03 20.23, 0.23 13.57, 0 9.03 M0 9.03 C1.25 4.8, 2.86 -1.73, 9.03 0 M0 9.03 C2.16 3.76, 4.44 -1.53, 9.03 0" stroke="#1e1e1e" stroke-width="2" fill="none"></path></g><g transform="translate(739.4883036613461 931.8543068567913) rotate(0 2.7099990844726562 12.5)"><text x="2.7099990844726562" y="0" font-family="Virgil, Segoe UI Emoji" font-size="20px" fill="#1e1e1e" text-anchor="middle" style="white-space: pre;" direction="ltr" dominant-baseline="text-before-edge">1</text></g><g stroke-linecap="round" transform="translate(838.8649694124855 927.4098624123468) rotate(0 29.444444444444372 17.5)"><path d="M8.75 0 C25.98 -1.61, 39.69 -0.73, 50.14 0 M8.75 0 C22.4 -0.03, 37.04 -1.05, 50.14 0 M50.14 0 C56.73 -1.31, 58.13 4.86, 58.89 8.75 M50.14 0 C55.51 1.58, 58.89 1.26, 58.89 8.75 M58.89 8.75 C58 16.13, 58.03 21.86, 58.89 26.25 M58.89 8.75 C58.06 15.2, 58.95 20.36, 58.89 26.25 M58.89 26.25 C60.13 33.27, 54.53 35.62, 50.14 35 M58.89 26.25 C59.01 32.71, 56.68 35.75, 50.14 35 M50.14 35 C40.92 33.54, 29.92 35.3, 8.75 35 M50.14 35 C42.39 35.71, 33.27 34.19, 8.75 35 M8.75 35 C4.05 34.5, -1.16 32.78, 0 26.25 M8.75 35 C1.55 33.36, -2.02 31.01, 0 26.25 M0 26.25 C1.64 21.54, 1.21 16.16, 0 8.75 M0 26.25 C0.49 21.52, -0.12 14.46, 0 8.75 M0 8.75 C1.88 3.57, 4.16 -1.33, 8.75 0 M0 8.75 C1.43 1.53, 2.2 1.53, 8.75 0" stroke="#1e1e1e" stroke-width="2" fill="none"></path></g><g transform="translate(865.5994147724572 932.4098624123468) rotate(0 2.7099990844726562 12.5)"><text x="2.7099990844726562" y="0" font-family="Virgil, Segoe UI Emoji" font-size="20px" fill="#1e1e1e" text-anchor="middle" style="white-space: pre;" direction="ltr" dominant-baseline="text-before-edge">1</text></g><g stroke-linecap="round" transform="translate(775.1726667086282 926.2338182661271) rotate(0 29.99999999999997 18.055555555555543)"><path d="M9.03 0 C19.22 -1.85, 29.57 -1.18, 50.97 0 M9.03 0 C23.59 -0.39, 37.01 1.24, 50.97 0 M50.97 0 C56.59 1.37, 60 1.57, 60 9.03 M50.97 0 C57.94 1.07, 61.78 1.74, 60 9.03 M60 9.03 C60.56 14.73, 58.41 21.29, 60 27.08 M60 9.03 C60.59 16.13, 59.38 22.45, 60 27.08 M60 27.08 C60.11 33.64, 57.61 36.76, 50.97 36.11 M60 27.08 C58.48 31.8, 58.8 36.63, 50.97 36.11 M50.97 36.11 C40.34 37.67, 33.01 38.04, 9.03 36.11 M50.97 36.11 C35.72 35.54, 18.76 36.14, 9.03 36.11 M9.03 36.11 C1.82 34.69, -1.76 32.17, 0 27.08 M9.03 36.11 C2.75 34.62, 0.48 35.1, 0 27.08 M0 27.08 C0.16 21.84, 0.82 16.66, 0 9.03 M0 27.08 C0.86 20.35, 0.58 12.42, 0 9.03 M0 9.03 C1.24 1.8, 2.39 1.33, 9.03 0 M0 9.03 C0.28 4.79, 3.5 -1.37, 9.03 0" stroke="#1e1e1e" stroke-width="2" fill="none"></path></g><g transform="translate(798.2926694552102 931.7893738216826) rotate(0 6.879997253417969 12.5)"><text x="6.879997253417969" y="0" font-family="Virgil, Segoe UI Emoji" font-size="20px" fill="#1e1e1e" text-anchor="middle" style="white-space: pre;" direction="ltr" dominant-baseline="text-before-edge">0</text></g><g stroke-linecap="round" transform="translate(936.58548368348 925.1386692788867) rotate(0 109.62440187735797 13.703050234669737)"><path d="M6.85 0 C85.28 0.07, 162.08 -1.85, 212.4 0 M6.85 0 C52.64 1.04, 97.69 -0.43, 212.4 0 M212.4 0 C218.12 1.51, 218.84 3.75, 219.25 6.85 M212.4 0 C217.98 1.28, 220.49 2.75, 219.25 6.85 M219.25 6.85 C218.34 11.37, 220.34 16.72, 219.25 20.55 M219.25 6.85 C219.71 9.32, 219.99 12.94, 219.25 20.55 M219.25 20.55 C220.83 24.73, 216 26.13, 212.4 27.41 M219.25 20.55 C218.09 24.32, 217.62 28.45, 212.4 27.41 M212.4 27.41 C168.94 27.74, 124.33 27.18, 6.85 27.41 M212.4 27.41 C156.02 25.29, 100 26.32, 6.85 27.41 M6.85 27.41 C1.5 29.18, 1 25.26, 0 20.55 M6.85 27.41 C2.42 25.21, 0.75 23.92, 0 20.55 M0 20.55 C-0.66 16.18, 0.64 11.95, 0 6.85 M0 20.55 C-0.61 15.96, -0.49 10.66, 0 6.85 M0 6.85 C1.41 4.17, 1.35 -1.49, 6.85 0 M0 6.85 C0.82 0.7, 3.72 1.6, 6.85 0" stroke="#1e1e1e" stroke-width="2" fill="none"></path></g><g stroke-linecap="round" transform="translate(937.5642729859564 925.1386692788866) rotate(0 26.427311166863063 16.394720816479957)"><path d="M8.2 0 C20.61 -1.8, 29.82 1.87, 44.66 0 M8.2 0 C17.85 -1.08, 29.7 0.43, 44.66 0 M44.66 0 C49.71 1.47, 53.74 3.85, 52.85 8.2 M44.66 0 C51.36 0.46, 55.09 4.59, 52.85 8.2 M52.85 8.2 C53.91 11.78, 51.46 18.5, 52.85 24.59 M52.85 8.2 C53.76 13.47, 53.6 18.61, 52.85 24.59 M52.85 24.59 C51.89 28.78, 49.11 32.09, 44.66 32.79 M52.85 24.59 C53.51 31.1, 48.1 34.87, 44.66 32.79 M44.66 32.79 C35.05 34.19, 26.99 34.5, 8.2 32.79 M44.66 32.79 C36.76 33.51, 29.68 33.56, 8.2 32.79 M8.2 32.79 C3.73 32.92, 0.12 28.15, 0 24.59 M8.2 32.79 C3.48 31.58, -0.42 31.32, 0 24.59 M0 24.59 C0.93 18.65, 1.06 14.83, 0 8.2 M0 24.59 C-0.44 18.32, 0.72 12.88, 0 8.2 M0 8.2 C-0.94 1.24, 3.45 -1.38, 8.2 0 M0 8.2 C1.44 4.33, 0.63 1.65, 8.2 0" stroke="#1e1e1e" stroke-width="2" fill="none"></path></g><g transform="translate(957.9339669653194 930.5220104425069) rotate(0 6.0576171875 11.011379652859619)"><text x="6.0576171875" y="0" font-family="Virgil, Segoe UI Emoji" font-size="17.61820744457539px" fill="#1e1e1e" text-anchor="middle" style="white-space: pre;" direction="ltr" dominant-baseline="text-before-edge">0</text></g><g stroke-linecap="round" transform="translate(993.3552632271118 926.1174585813632) rotate(0 26.427311166863092 16.5)"><path d="M8.25 0 C15.78 -0.34, 25.64 -1.99, 44.6 0 M8.25 0 C16.24 0.46, 25.08 0.28, 44.6 0 M44.6 0 C51.18 0.4, 54.8 4.36, 52.85 8.25 M44.6 0 C49.94 -1.71, 51.3 4.4, 52.85 8.25 M52.85 8.25 C53.1 12.94, 51.33 17.32, 52.85 24.75 M52.85 8.25 C52.59 12.65, 52.57 17.81, 52.85 24.75 M52.85 24.75 C53.42 31.15, 48.34 34.81, 44.6 33 M52.85 24.75 C51.35 30.39, 52.08 31.79, 44.6 33 M44.6 33 C29.72 32.25, 18.19 32.05, 8.25 33 M44.6 33 C31.14 33.39, 16.74 32.37, 8.25 33 M8.25 33 C3.4 31.95, -0.36 31.35, 0 24.75 M8.25 33 C2.71 32.03, -0.86 31.46, 0 24.75 M0 24.75 C1.23 19.4, 0.73 15.8, 0 8.25 M0 24.75 C-0.5 19.25, 0.18 14.42, 0 8.25 M0 8.25 C1.25 4.14, 0.92 1.43, 8.25 0 M0 8.25 C0.5 5.03, 4.31 -0.04, 8.25 0" stroke="#1e1e1e" stroke-width="2" fill="none"></path></g><g transform="translate(1013.7249572064749 931.6060789285035) rotate(0 6.0576171875 11.011379652859619)"><text x="6.0576171875" y="0" font-family="Virgil, Segoe UI Emoji" font-size="17.61820744457539px" fill="#1e1e1e" text-anchor="middle" style="white-space: pre;" direction="ltr" dominant-baseline="text-before-edge">0</text></g><g stroke-linecap="round" transform="translate(1104.9372437094225 927.0962478838395) rotate(0 25.937916515624806 16.5)"><path d="M8.25 0 C17.39 1.44, 31.04 -0.12, 43.63 0 M8.25 0 C22 0, 35.65 0.61, 43.63 0 M43.63 0 C48.98 -1.49, 50.52 4.19, 51.88 8.25 M43.63 0 C47.41 -1.78, 52.85 3.27, 51.88 8.25 M51.88 8.25 C51.71 15.48, 51.41 19.3, 51.88 24.75 M51.88 8.25 C52.03 12.52, 51.07 16.79, 51.88 24.75 M51.88 24.75 C50.57 30.38, 50.85 31.95, 43.63 33 M51.88 24.75 C53.13 29.61, 50.74 30.7, 43.63 33 M43.63 33 C36.47 32, 27.74 33.79, 8.25 33 M43.63 33 C33.1 32.14, 21.74 33.21, 8.25 33 M8.25 33 C2.71 32.15, -0.75 31.3, 0 24.75 M8.25 33 C1.27 34.38, 0.03 32.11, 0 24.75 M0 24.75 C-0.15 22.42, 1.47 17, 0 8.25 M0 24.75 C0.46 21.6, -0.81 17.9, 0 8.25 M0 8.25 C0.43 4.73, 4.11 -0.03, 8.25 0 M0 8.25 C-0.6 1.78, 2.09 -0.8, 8.25 0" stroke="#1e1e1e" stroke-width="2" fill="none"></path></g><g transform="translate(1124.8175430375475 932.5848682309799) rotate(0 6.0576171875 11.011379652859619)"><text x="6.0576171875" y="0" font-family="Virgil, Segoe UI Emoji" font-size="17.61820744457539px" fill="#1e1e1e" text-anchor="middle" style="white-space: pre;" direction="ltr" dominant-baseline="text-before-edge">0</text></g><g stroke-linecap="round" transform="translate(1048.8300336264601 926.0602583972357) rotate(0 26.427311166863092 16.5)"><path d="M8.25 0 C22.72 0.96, 35.37 1.15, 44.6 0 M8.25 0 C19.81 -1.04, 30.84 0.43, 44.6 0 M44.6 0 C48.61 -1.55, 53.7 3.2, 52.85 8.25 M44.6 0 C51.46 -1.95, 55.13 2.71, 52.85 8.25 M52.85 8.25 C51.77 13.68, 52.25 21.23, 52.85 24.75 M52.85 8.25 C52.17 14, 53.42 19.21, 52.85 24.75 M52.85 24.75 C53.94 29.69, 51.51 31, 44.6 33 M52.85 24.75 C51.7 29.5, 48.72 34.93, 44.6 33 M44.6 33 C35.26 33.3, 23.73 33.83, 8.25 33 M44.6 33 C35.59 32.78, 26.23 33.72, 8.25 33 M8.25 33 C1.46 34.2, 0.03 31.86, 0 24.75 M8.25 33 C0.71 34.15, -1.64 30.15, 0 24.75 M0 24.75 C-1.39 19.23, -1.29 13.56, 0 8.25 M0 24.75 C0.33 19.47, 0.71 12.55, 0 8.25 M0 8.25 C-0.52 1.91, 2.18 -0.7, 8.25 0 M0 8.25 C0.93 4.16, 1.7 -0.03, 8.25 0" stroke="#1e1e1e" stroke-width="2" fill="none"></path></g><g transform="translate(1069.1997276058232 931.548878744376) rotate(0 6.0576171875 11.011379652859619)"><text x="6.0576171875" y="0" font-family="Virgil, Segoe UI Emoji" font-size="17.61820744457539px" fill="#1e1e1e" text-anchor="middle" style="white-space: pre;" direction="ltr" dominant-baseline="text-before-edge">0</text></g><g stroke-linecap="round" transform="translate(1166.1673685413398 926.3360583572916) rotate(0 109.62440187735797 13.703050234669737)"><path d="M6.85 0 C77.96 0.75, 149.79 -1.12, 212.4 0 M6.85 0 C52.55 -2.01, 99.96 -1.11, 212.4 0 M212.4 0 C218.15 -1.69, 221.23 2.25, 219.25 6.85 M212.4 0 C218.79 -0.46, 218.14 0.82, 219.25 6.85 M219.25 6.85 C219.82 9.07, 220.44 12.8, 219.25 20.55 M219.25 6.85 C219.74 10.86, 219.85 14.56, 219.25 20.55 M219.25 20.55 C218.24 24.47, 215.76 29.09, 212.4 27.41 M219.25 20.55 C218.35 27.17, 218.11 27.56, 212.4 27.41 M212.4 27.41 C148.56 27.68, 87.58 27.97, 6.85 27.41 M212.4 27.41 C158.87 28.9, 106.5 29.09, 6.85 27.41 M6.85 27.41 C0.51 28.41, -1.43 25.04, 0 20.55 M6.85 27.41 C3.9 29.57, -1.08 23.41, 0 20.55 M0 20.55 C1.05 14.7, 1.08 11.65, 0 6.85 M0 20.55 C-0.27 14.8, -0.29 9.38, 0 6.85 M0 6.85 C0.81 3.51, 1.37 -0.03, 6.85 0 M0 6.85 C-1.81 4.5, 2.99 2.23, 6.85 0" stroke="#1e1e1e" stroke-width="2" fill="none"></path></g><g stroke-linecap="round" transform="translate(1167.1461578438161 926.3360583572914) rotate(0 26.427311166863035 16.394720816479957)"><path d="M8.2 0 C22.72 -0.5, 32.52 -1.71, 44.66 0 M8.2 0 C22.18 0.51, 35.9 -0.56, 44.66 0 M44.66 0 C52.1 -0.03, 54.44 2.34, 52.85 8.2 M44.66 0 C49.02 -1.47, 51.7 1.93, 52.85 8.2 M52.85 8.2 C54.41 12.51, 53.03 20.38, 52.85 24.59 M52.85 8.2 C53.52 11.43, 52.53 16.04, 52.85 24.59 M52.85 24.59 C51.65 31.74, 49.34 34.57, 44.66 32.79 M52.85 24.59 C54 30.21, 50.26 30.6, 44.66 32.79 M44.66 32.79 C33.63 32.69, 19.56 31.98, 8.2 32.79 M44.66 32.79 C31.82 33.82, 18.07 33.51, 8.2 32.79 M8.2 32.79 C1.3 32.71, 1.41 31.94, 0 24.59 M8.2 32.79 C1.66 31.08, 0.82 28.47, 0 24.59 M0 24.59 C1.06 19, 1.51 13.82, 0 8.2 M0 24.59 C-0.19 19.42, 0.38 15.31, 0 8.2 M0 8.2 C-0.91 2.71, 1.16 1.93, 8.2 0 M0 8.2 C0.7 4.96, 4.89 0.51, 8.2 0" stroke="#1e1e1e" stroke-width="2" fill="none"></path></g><g transform="translate(1191.1873987592144 931.7193995209118) rotate(0 2.3860702514648438 11.011379652859619)"><text x="2.3860702514648438" y="0" font-family="Virgil, Segoe UI Emoji" font-size="17.61820744457539px" fill="#1e1e1e" text-anchor="middle" style="white-space: pre;" direction="ltr" dominant-baseline="text-before-edge">1</text></g><g stroke-linecap="round" transform="translate(1222.9371480849713 927.3148476597679) rotate(0 26.427311166863092 16.5)"><path d="M8.25 0 C20.33 -1.25, 27.99 1.1, 44.6 0 M8.25 0 C20.97 0.29, 32.5 0.11, 44.6 0 M44.6 0 C49.14 -1.27, 51.85 2.05, 52.85 8.25 M44.6 0 C50.76 1.04, 50.83 4.83, 52.85 8.25 M52.85 8.25 C52 13.02, 52.4 17.15, 52.85 24.75 M52.85 8.25 C52.28 12.24, 52.45 15.58, 52.85 24.75 M52.85 24.75 C53.85 30.38, 50.23 31.09, 44.6 33 M52.85 24.75 C53.6 29.04, 49.69 34.27, 44.6 33 M44.6 33 C34.81 31.58, 24.12 32.89, 8.25 33 M44.6 33 C30.05 33.14, 17.63 34.12, 8.25 33 M8.25 33 C1.81 31.51, 0.71 28.87, 0 24.75 M8.25 33 C4.19 34.6, -2.1 31.9, 0 24.75 M0 24.75 C-0.19 19.01, -0.86 13.66, 0 8.25 M0 24.75 C-0.44 20.36, -0.72 16.79, 0 8.25 M0 8.25 C0.61 4.69, 4.63 0.44, 8.25 0 M0 8.25 C2.11 3.43, 3.08 1.59, 8.25 0" stroke="#1e1e1e" stroke-width="2" fill="none"></path></g><g transform="translate(1243.3068420643344 932.8034680069082) rotate(0 6.0576171875 11.011379652859619)"><text x="6.0576171875" y="0" font-family="Virgil, Segoe UI Emoji" font-size="17.61820744457539px" fill="#1e1e1e" text-anchor="middle" style="white-space: pre;" direction="ltr" dominant-baseline="text-before-edge">0</text></g><g stroke-linecap="round" transform="translate(1334.5191285672822 928.2936369622444) rotate(0 25.937916515624806 16.5)"><path d="M8.25 0 C16.68 1.03, 22.51 1.83, 43.63 0 M8.25 0 C18.33 -0.57, 28.86 -0.28, 43.63 0 M43.63 0 C49.7 0.9, 50.11 4.56, 51.88 8.25 M43.63 0 C47.62 0.14, 53.86 1.54, 51.88 8.25 M51.88 8.25 C50.18 13.27, 51.29 18.95, 51.88 24.75 M51.88 8.25 C52.22 14.64, 51.86 20.14, 51.88 24.75 M51.88 24.75 C52.53 29.2, 48.76 34.1, 43.63 33 M51.88 24.75 C51.84 29.28, 48.27 34.21, 43.63 33 M43.63 33 C36.91 31.23, 27.96 31.57, 8.25 33 M43.63 33 C32.69 32.59, 23.05 32.64, 8.25 33 M8.25 33 C4 34.39, -1.83 31.68, 0 24.75 M8.25 33 C3.25 35.28, 1.56 30.21, 0 24.75 M0 24.75 C-0.51 20.9, 1.08 14.96, 0 8.25 M0 24.75 C0.38 20.62, 0.91 15.08, 0 8.25 M0 8.25 C1.83 3.34, 3.03 1.39, 8.25 0 M0 8.25 C-2.13 1.34, 0.81 -1.36, 8.25 0" stroke="#1e1e1e" stroke-width="2" fill="none"></path></g><g transform="translate(1354.3994278954071 933.7822573093847) rotate(0 6.0576171875 11.011379652859619)"><text x="6.0576171875" y="0" font-family="Virgil, Segoe UI Emoji" font-size="17.61820744457539px" fill="#1e1e1e" text-anchor="middle" style="white-space: pre;" direction="ltr" dominant-baseline="text-before-edge">0</text></g><g stroke-linecap="round" transform="translate(1278.4119184843198 927.2576474756404) rotate(0 26.427311166863092 16.5)"><path d="M8.25 0 C21.27 1.22, 33.96 -1.32, 44.6 0 M8.25 0 C17.12 0.58, 24.55 1.03, 44.6 0 M44.6 0 C48.8 0.13, 54.58 1.7, 52.85 8.25 M44.6 0 C51.36 -0.64, 54.47 0.45, 52.85 8.25 M52.85 8.25 C54.19 11.72, 54.27 17.31, 52.85 24.75 M52.85 8.25 C53.13 12.88, 52.71 18.83, 52.85 24.75 M52.85 24.75 C52.82 29.4, 49.36 34.05, 44.6 33 M52.85 24.75 C51.37 31.63, 50.13 34.86, 44.6 33 M44.6 33 C36.84 34.15, 31.12 31.8, 8.25 33 M44.6 33 C37.03 33.44, 27.3 33.47, 8.25 33 M8.25 33 C3.18 34.98, 1.36 30.22, 0 24.75 M8.25 33 C2.15 32.03, -0.66 29.45, 0 24.75 M0 24.75 C-0.12 17.83, 1.49 14.01, 0 8.25 M0 24.75 C0.6 18.45, -0.04 12.23, 0 8.25 M0 8.25 C-1.85 1.53, 1.07 -1.18, 8.25 0 M0 8.25 C-1.7 1.33, 3 0.26, 8.25 0" stroke="#1e1e1e" stroke-width="2" fill="none"></path></g><g transform="translate(1302.453159399718 932.7462678227809) rotate(0 2.3860702514648438 11.011379652859619)"><text x="2.3860702514648438" y="0" font-family="Virgil, Segoe UI Emoji" font-size="17.61820744457539px" fill="#1e1e1e" text-anchor="middle" style="white-space: pre;" direction="ltr" dominant-baseline="text-before-edge">1</text></g><g stroke-linecap="round" transform="translate(365.01028034422177 420) rotate(0 77.5 22.5)"><path d="M11.25 0 C59.88 -0.05, 109.45 -1.96, 143.75 0 M11.25 0 C57.63 -0.9, 102.04 1, 143.75 0 M143.75 0 C151.06 0.82, 154.88 3.96, 155 11.25 M143.75 0 C149.84 -2.17, 153.84 1.65, 155 11.25 M155 11.25 C155.43 15.89, 152.95 22.89, 155 33.75 M155 11.25 C155.44 21.11, 155.72 29.62, 155 33.75 M155 33.75 C153.78 39.69, 151.06 43.87, 143.75 45 M155 33.75 C153.2 39.31, 151.45 44.72, 143.75 45 M143.75 45 C110.15 43.53, 73.27 46.34, 11.25 45 M143.75 45 C111.92 45.23, 81.32 45.79, 11.25 45 M11.25 45 C2.21 45.42, 1.35 39.74, 0 33.75 M11.25 45 C1.6 42.73, 1.63 40.36, 0 33.75 M0 33.75 C0.73 27.22, 1.51 19.89, 0 11.25 M0 33.75 C-0.72 29.56, 0.14 22.65, 0 11.25 M0 11.25 C-0.2 5.31, 4.55 -1.65, 11.25 0 M0 11.25 C-1.32 5.63, 5.83 -1.54, 11.25 0" stroke="#1e1e1e" stroke-width="2" fill="none"></path></g><g transform="translate(405.634120676253 425) rotate(0 36.87615966796875 17.5)"><text x="36.87615966796875" y="0" font-family="Virgil, Segoe UI Emoji" font-size="28px" fill="#1e1e1e" text-anchor="middle" style="white-space: pre;" direction="ltr" dominant-baseline="text-before-edge">reg A</text></g><g stroke-linecap="round" transform="translate(530.843613677555 417.4999999999998) rotate(0 77.5 22.5)"><path d="M11.25 0 C40.45 0.95, 72.61 -2.53, 143.75 0 M11.25 0 C48.84 -1.1, 88.9 0.37, 143.75 0 M143.75 0 C149.91 -0.91, 155.03 2.63, 155 11.25 M143.75 0 C151.89 1.31, 155.17 2.43, 155 11.25 M155 11.25 C154.9 18.14, 155.21 25.29, 155 33.75 M155 11.25 C155.16 18.13, 154.49 23.91, 155 33.75 M155 33.75 C155.47 42.11, 149.36 45.74, 143.75 45 M155 33.75 C153.67 39.21, 151.72 43.98, 143.75 45 M143.75 45 C102.98 43.57, 62.67 42.92, 11.25 45 M143.75 45 C109.91 42.91, 76.25 43.2, 11.25 45 M11.25 45 C2.7 45.79, 0.61 41.56, 0 33.75 M11.25 45 C2.29 43.43, -1.42 39.64, 0 33.75 M0 33.75 C1.75 27.98, 1.47 21.57, 0 11.25 M0 33.75 C-0.14 25.56, -0.84 15.82, 0 11.25 M0 11.25 C-0.06 2.66, 4.09 -0.23, 11.25 0 M0 11.25 C0.74 3.96, 3.61 0.06, 11.25 0" stroke="#1e1e1e" stroke-width="2" fill="none"></path></g><g transform="translate(570.4734507136878 422.4999999999998) rotate(0 37.87016296386719 17.5)"><text x="37.87016296386719" y="0" font-family="Virgil, Segoe UI Emoji" font-size="28px" fill="#1e1e1e" text-anchor="middle" style="white-space: pre;" direction="ltr" dominant-baseline="text-before-edge">reg B</text></g><g stroke-linecap="round" transform="translate(1175.843613677555 415.83333333333303) rotate(0 77.5 22.5)"><path d="M11.25 0 C63.84 2.56, 117.63 -0.65, 143.75 0 M11.25 0 C42.73 -1.65, 75.56 -1.76, 143.75 0 M143.75 0 C151.81 1.14, 155.15 2.6, 155 11.25 M143.75 0 C152.06 -1.09, 153.79 3.76, 155 11.25 M155 11.25 C155.09 17.56, 156.91 23.53, 155 33.75 M155 11.25 C155.11 18.59, 153.93 25.44, 155 33.75 M155 33.75 C153.84 39.47, 151.66 44.11, 143.75 45 M155 33.75 C155.15 40.91, 151.06 44.84, 143.75 45 M143.75 45 C111.89 42.06, 79.82 43.85, 11.25 45 M143.75 45 C113.87 44.74, 85.34 44.49, 11.25 45 M11.25 45 C2.48 43.64, -1.24 39.85, 0 33.75 M11.25 45 C3.01 47.11, 1.47 43.5, 0 33.75 M0 33.75 C1.73 27.13, -1.26 19.48, 0 11.25 M0 33.75 C0.15 24.84, 0.35 16.91, 0 11.25 M0 11.25 C0.64 3.93, 3.62 0.05, 11.25 0 M0 11.25 C-0.13 2.05, 1.76 -1.07, 11.25 0" stroke="#1e1e1e" stroke-width="2" fill="none"></path></g><g transform="translate(1218.4274607234534 420.83333333333303) rotate(0 34.91615295410156 17.5)"><text x="34.91615295410156" y="0" font-family="Virgil, Segoe UI Emoji" font-size="28px" fill="#1e1e1e" text-anchor="middle" style="white-space: pre;" direction="ltr" dominant-baseline="text-before-edge">reg Y</text></g><g stroke-linecap="round" transform="translate(864.1769470108883 415.83333333333303) rotate(0 77.5 22.5)"><path d="M11.25 0 C60.16 2.73, 113.17 -0.24, 143.75 0 M11.25 0 C45.28 1.32, 78.83 0.17, 143.75 0 M143.75 0 C151.95 -0.95, 153.95 3.76, 155 11.25 M143.75 0 C150.5 0.37, 153.8 3.81, 155 11.25 M155 11.25 C155.35 17.24, 153.29 25.88, 155 33.75 M155 11.25 C154.21 18.07, 154.99 26.23, 155 33.75 M155 33.75 C155.13 40.95, 151.09 44.87, 143.75 45 M155 33.75 C153.48 41.47, 148.98 43.99, 143.75 45 M143.75 45 C113.23 45.77, 84.86 44.05, 11.25 45 M143.75 45 C98.11 44.52, 53.11 44.5, 11.25 45 M11.25 45 C3.11 46.83, 1.28 43.21, 0 33.75 M11.25 45 C4.05 46.93, -0.14 43.45, 0 33.75 M0 33.75 C1.55 24.93, -0.13 19.23, 0 11.25 M0 33.75 C0.28 28.32, -0.1 22.73, 0 11.25 M0 11.25 C-0.11 2.27, 2.02 -0.93, 11.25 0 M0 11.25 C1.37 2.19, 4.12 0.89, 11.25 0" stroke="#1e1e1e" stroke-width="2" fill="none"></path></g><g transform="translate(903.0647796524898 420.83333333333303) rotate(0 38.61216735839844 17.5)"><text x="38.61216735839844" y="0" font-family="Virgil, Segoe UI Emoji" font-size="28px" fill="#1e1e1e" text-anchor="middle" style="white-space: pre;" direction="ltr" dominant-baseline="text-before-edge">reg D</text></g><g stroke-linecap="round" transform="translate(697.5102803442218 417.5000000000001) rotate(0 77.5 22.5)"><path d="M11.25 0 C60.91 0.92, 111.25 1.44, 143.75 0 M11.25 0 C58.93 0.29, 105.37 0.76, 143.75 0 M143.75 0 C150.6 0.32, 153.95 3.8, 155 11.25 M143.75 0 C151.59 2.15, 155.28 3.91, 155 11.25 M155 11.25 C155.64 14.88, 155.53 21.13, 155 33.75 M155 11.25 C155.11 15.85, 154.96 20.68, 155 33.75 M155 33.75 C153.68 41.44, 149.28 44.12, 143.75 45 M155 33.75 C153.13 38.99, 151.42 43.2, 143.75 45 M143.75 45 C100.34 44.91, 55.64 43.04, 11.25 45 M143.75 45 C112.71 44.99, 82.94 45.05, 11.25 45 M11.25 45 C4.01 46.68, -0.12 43.17, 0 33.75 M11.25 45 C4.24 43.76, -0.21 42.9, 0 33.75 M0 33.75 C-1.06 29.12, -0.2 24.46, 0 11.25 M0 33.75 C-0.04 26.06, -0.85 19.38, 0 11.25 M0 11.25 C1.19 2.39, 4.07 0.77, 11.25 0 M0 11.25 C1.9 4.55, 1.91 -1.71, 11.25 0" stroke="#1e1e1e" stroke-width="2" fill="none"></path></g><g transform="translate(738.3021199438311 422.5000000000001) rotate(0 36.708160400390625 17.5)"><text x="36.708160400390625" y="0" font-family="Virgil, Segoe UI Emoji" font-size="28px" fill="#1e1e1e" text-anchor="middle" style="white-space: pre;" direction="ltr" dominant-baseline="text-before-edge">reg C</text></g><g stroke-linecap="round" transform="translate(1339.176947010888 417.5000000000001) rotate(0 77.5 22.5)"><path d="M11.25 0 C58.99 -1.45, 110.58 -1.05, 143.75 0 M11.25 0 C38.53 0.21, 66.75 -0.88, 143.75 0 M143.75 0 C151.95 -0.63, 153.36 3.26, 155 11.25 M143.75 0 C151.24 1.2, 154.84 3.19, 155 11.25 M155 11.25 C156.58 16.4, 154.46 24.83, 155 33.75 M155 11.25 C155.6 19.6, 156.16 27.44, 155 33.75 M155 33.75 C155.37 43.03, 152.95 46.13, 143.75 45 M155 33.75 C153.33 43.16, 150.54 46.64, 143.75 45 M143.75 45 C95.53 42.96, 47.4 43.84, 11.25 45 M143.75 45 C115.42 46.12, 87.91 45.07, 11.25 45 M11.25 45 C2.42 43.99, -0.23 39.38, 0 33.75 M11.25 45 C5.5 42.99, 0.5 41.28, 0 33.75 M0 33.75 C-1.16 29.65, 0.26 20.54, 0 11.25 M0 33.75 C-0.94 28.78, -0.26 24.65, 0 11.25 M0 11.25 C0.37 5.63, 5.48 0.22, 11.25 0 M0 11.25 C-1.11 4.58, 2.33 -1.41, 11.25 0" stroke="#1e1e1e" stroke-width="2" fill="none"></path></g><g transform="translate(1377.8267806900872 422.5000000000001) rotate(0 38.85016632080078 17.5)"><text x="38.85016632080078" y="0" font-family="Virgil, Segoe UI Emoji" font-size="28px" fill="#1e1e1e" text-anchor="middle" style="white-space: pre;" direction="ltr" dominant-baseline="text-before-edge">reg Z</text></g><g transform="translate(1071.6769470108884 439.9999999999999) rotate(0 0.00004999999998744897 0.00004999999998744897)" stroke="none"><path fill="#1e1e1e" d="M 3.14,-3.14 Q 3.14,-3.14 3.55,-2.55 3.97,-1.97 4.18,-1.28 4.40,-0.59 4.38,0.11 4.36,0.83 4.11,1.51 3.86,2.18 3.41,2.74 2.96,3.30 2.36,3.69 1.75,4.08 1.05,4.25 0.36,4.42 -0.35,4.36 -1.07,4.31 -1.73,4.02 -2.39,3.74 -2.92,3.26 -3.46,2.78 -3.81,2.15 -4.16,1.53 -4.30,0.82 -4.43,0.11 -4.34,-0.59 -4.24,-1.30 -3.92,-1.94 -3.60,-2.59 -3.09,-3.09 -2.59,-3.60 -1.94,-3.92 -1.30,-4.24 -0.59,-4.34 0.12,-4.43 0.82,-4.30 1.53,-4.16 2.15,-3.81 2.78,-3.46 3.26,-2.92 3.74,-2.39 4.02,-1.73 4.31,-1.07 4.36,-0.35 4.42,0.36 4.25,1.05 4.07,1.75 3.69,2.36 3.30,2.96 2.74,3.41 2.18,3.86 1.51,4.11 0.83,4.36 0.11,4.38 -0.60,4.40 -1.28,4.18 -1.97,3.97 -2.55,3.55 -3.14,3.13 -3.14,3.14 -3.14,3.14 -3.47,2.71 -3.80,2.29 -4.02,1.80 -4.24,1.32 -4.33,0.79 -4.43,0.26 -4.40,-0.26 -4.36,-0.80 -4.20,-1.31 -4.04,-1.82 -3.77,-2.28 -3.49,-2.73 -3.11,-3.11 -2.73,-3.49 -2.28,-3.77 -1.82,-4.05 -1.31,-4.20 -0.80,-4.36 -0.26,-4.40 0.26,-4.43 0.79,-4.33 1.32,-4.24 1.80,-4.02 2.29,-3.80 2.71,-3.47 3.14,-3.14 3.14,-3.14 L 3.14,-3.14 Z"></path></g><g transform="translate(1071.6769470108884 439.9999999999999) rotate(0 0.00004999999998744897 0.00004999999998744897)" stroke="none"><path fill="#1e1e1e" d="M 3.14,-3.14 Q 3.14,-3.14 3.55,-2.55 3.97,-1.97 4.18,-1.28 4.40,-0.59 4.38,0.11 4.36,0.83 4.11,1.51 3.86,2.18 3.41,2.74 2.96,3.30 2.36,3.69 1.75,4.08 1.05,4.25 0.36,4.42 -0.35,4.36 -1.07,4.31 -1.73,4.02 -2.39,3.74 -2.92,3.26 -3.46,2.78 -3.81,2.15 -4.16,1.53 -4.30,0.82 -4.43,0.11 -4.34,-0.59 -4.24,-1.30 -3.92,-1.94 -3.60,-2.59 -3.09,-3.09 -2.59,-3.60 -1.94,-3.92 -1.30,-4.24 -0.59,-4.34 0.12,-4.43 0.82,-4.30 1.53,-4.16 2.15,-3.81 2.78,-3.46 3.26,-2.92 3.74,-2.39 4.02,-1.73 4.31,-1.07 4.36,-0.35 4.42,0.36 4.25,1.05 4.07,1.75 3.69,2.36 3.30,2.96 2.74,3.41 2.18,3.86 1.51,4.11 0.83,4.36 0.11,4.38 -0.60,4.40 -1.28,4.18 -1.97,3.97 -2.55,3.55 -3.14,3.13 -3.14,3.14 -3.14,3.14 -3.47,2.71 -3.80,2.29 -4.02,1.80 -4.24,1.32 -4.33,0.79 -4.43,0.26 -4.40,-0.26 -4.36,-0.80 -4.20,-1.31 -4.04,-1.82 -3.77,-2.28 -3.49,-2.73 -3.11,-3.11 -2.73,-3.49 -2.28,-3.77 -1.82,-4.05 -1.31,-4.20 -0.80,-4.36 -0.26,-4.40 0.26,-4.43 0.79,-4.33 1.32,-4.24 1.80,-4.02 2.29,-3.80 2.71,-3.47 3.14,-3.14 3.14,-3.14 L 3.14,-3.14 Z"></path></g><g transform="translate(1100.0102803442219 439.9999999999999) rotate(0 0.00004999999998744897 0.00004999999998744897)" stroke="none"><path fill="#1e1e1e" d="M 3.14,-3.14 Q 3.14,-3.14 3.55,-2.55 3.97,-1.97 4.18,-1.28 4.40,-0.59 4.38,0.11 4.36,0.83 4.11,1.51 3.86,2.18 3.41,2.74 2.96,3.30 2.36,3.69 1.75,4.08 1.05,4.25 0.36,4.42 -0.35,4.36 -1.07,4.31 -1.73,4.02 -2.39,3.74 -2.92,3.26 -3.46,2.78 -3.81,2.15 -4.16,1.53 -4.30,0.82 -4.43,0.11 -4.34,-0.59 -4.24,-1.30 -3.92,-1.94 -3.60,-2.59 -3.09,-3.09 -2.59,-3.60 -1.94,-3.92 -1.30,-4.24 -0.59,-4.34 0.12,-4.43 0.82,-4.30 1.53,-4.16 2.15,-3.81 2.78,-3.46 3.26,-2.92 3.74,-2.39 4.02,-1.73 4.31,-1.07 4.36,-0.35 4.42,0.36 4.25,1.05 4.07,1.75 3.69,2.36 3.30,2.96 2.74,3.41 2.18,3.86 1.51,4.11 0.83,4.36 0.11,4.38 -0.60,4.40 -1.28,4.18 -1.97,3.97 -2.55,3.55 -3.14,3.13 -3.14,3.14 -3.14,3.14 -3.47,2.71 -3.80,2.29 -4.02,1.80 -4.24,1.32 -4.33,0.79 -4.43,0.26 -4.40,-0.26 -4.36,-0.80 -4.20,-1.31 -4.04,-1.82 -3.77,-2.28 -3.49,-2.73 -3.11,-3.11 -2.73,-3.49 -2.28,-3.77 -1.82,-4.05 -1.31,-4.20 -0.80,-4.36 -0.26,-4.40 0.26,-4.43 0.79,-4.33 1.32,-4.24 1.80,-4.02 2.29,-3.80 2.71,-3.47 3.14,-3.14 3.14,-3.14 L 3.14,-3.14 Z"></path></g><g transform="translate(1100.0102803442219 439.9999999999999) rotate(0 0.00004999999998744897 0.00004999999998744897)" stroke="none"><path fill="#1e1e1e" d="M 3.14,-3.14 Q 3.14,-3.14 3.55,-2.55 3.97,-1.97 4.18,-1.28 4.40,-0.59 4.38,0.11 4.36,0.83 4.11,1.51 3.86,2.18 3.41,2.74 2.96,3.30 2.36,3.69 1.75,4.08 1.05,4.25 0.36,4.42 -0.35,4.36 -1.07,4.31 -1.73,4.02 -2.39,3.74 -2.92,3.26 -3.46,2.78 -3.81,2.15 -4.16,1.53 -4.30,0.82 -4.43,0.11 -4.34,-0.59 -4.24,-1.30 -3.92,-1.94 -3.60,-2.59 -3.09,-3.09 -2.59,-3.60 -1.94,-3.92 -1.30,-4.24 -0.59,-4.34 0.12,-4.43 0.82,-4.30 1.53,-4.16 2.15,-3.81 2.78,-3.46 3.26,-2.92 3.74,-2.39 4.02,-1.73 4.31,-1.07 4.36,-0.35 4.42,0.36 4.25,1.05 4.07,1.75 3.69,2.36 3.30,2.96 2.74,3.41 2.18,3.86 1.51,4.11 0.83,4.36 0.11,4.38 -0.60,4.40 -1.28,4.18 -1.97,3.97 -2.55,3.55 -3.14,3.13 -3.14,3.14 -3.14,3.14 -3.47,2.71 -3.80,2.29 -4.02,1.80 -4.24,1.32 -4.33,0.79 -4.43,0.26 -4.40,-0.26 -4.36,-0.80 -4.20,-1.31 -4.04,-1.82 -3.77,-2.28 -3.49,-2.73 -3.11,-3.11 -2.73,-3.49 -2.28,-3.77 -1.82,-4.05 -1.31,-4.20 -0.80,-4.36 -0.26,-4.40 0.26,-4.43 0.79,-4.33 1.32,-4.24 1.80,-4.02 2.29,-3.80 2.71,-3.47 3.14,-3.14 3.14,-3.14 L 3.14,-3.14 Z"></path></g><g transform="translate(1126.6769470108884 439.9999999999999) rotate(0 0.00004999999998744897 0.00004999999998744897)" stroke="none"><path fill="#1e1e1e" d="M 3.14,-3.14 Q 3.14,-3.14 3.55,-2.55 3.97,-1.97 4.18,-1.28 4.40,-0.59 4.38,0.11 4.36,0.83 4.11,1.51 3.86,2.18 3.41,2.74 2.96,3.30 2.36,3.69 1.75,4.08 1.05,4.25 0.36,4.42 -0.35,4.36 -1.07,4.31 -1.73,4.02 -2.39,3.74 -2.92,3.26 -3.46,2.78 -3.81,2.15 -4.16,1.53 -4.30,0.82 -4.43,0.11 -4.34,-0.59 -4.24,-1.30 -3.92,-1.94 -3.60,-2.59 -3.09,-3.09 -2.59,-3.60 -1.94,-3.92 -1.30,-4.24 -0.59,-4.34 0.12,-4.43 0.82,-4.30 1.53,-4.16 2.15,-3.81 2.78,-3.46 3.26,-2.92 3.74,-2.39 4.02,-1.73 4.31,-1.07 4.36,-0.35 4.42,0.36 4.25,1.05 4.07,1.75 3.69,2.36 3.30,2.96 2.74,3.41 2.18,3.86 1.51,4.11 0.83,4.36 0.11,4.38 -0.60,4.40 -1.28,4.18 -1.97,3.97 -2.55,3.55 -3.14,3.13 -3.14,3.14 -3.14,3.14 -3.47,2.71 -3.80,2.29 -4.02,1.80 -4.24,1.32 -4.33,0.79 -4.43,0.26 -4.40,-0.26 -4.36,-0.80 -4.20,-1.31 -4.04,-1.82 -3.77,-2.28 -3.49,-2.73 -3.11,-3.11 -2.73,-3.49 -2.28,-3.77 -1.82,-4.05 -1.31,-4.20 -0.80,-4.36 -0.26,-4.40 0.26,-4.43 0.79,-4.33 1.32,-4.24 1.80,-4.02 2.29,-3.80 2.71,-3.47 3.14,-3.14 3.14,-3.14 L 3.14,-3.14 Z"></path></g><g transform="translate(1126.6769470108884 439.9999999999999) rotate(0 0.00004999999998744897 0.00004999999998744897)" stroke="none"><path fill="#1e1e1e" d="M 3.14,-3.14 Q 3.14,-3.14 3.55,-2.55 3.97,-1.97 4.18,-1.28 4.40,-0.59 4.38,0.11 4.36,0.83 4.11,1.51 3.86,2.18 3.41,2.74 2.96,3.30 2.36,3.69 1.75,4.08 1.05,4.25 0.36,4.42 -0.35,4.36 -1.07,4.31 -1.73,4.02 -2.39,3.74 -2.92,3.26 -3.46,2.78 -3.81,2.15 -4.16,1.53 -4.30,0.82 -4.43,0.11 -4.34,-0.59 -4.24,-1.30 -3.92,-1.94 -3.60,-2.59 -3.09,-3.09 -2.59,-3.60 -1.94,-3.92 -1.30,-4.24 -0.59,-4.34 0.12,-4.43 0.82,-4.30 1.53,-4.16 2.15,-3.81 2.78,-3.46 3.26,-2.92 3.74,-2.39 4.02,-1.73 4.31,-1.07 4.36,-0.35 4.42,0.36 4.25,1.05 4.07,1.75 3.69,2.36 3.30,2.96 2.74,3.41 2.18,3.86 1.51,4.11 0.83,4.36 0.11,4.38 -0.60,4.40 -1.28,4.18 -1.97,3.97 -2.55,3.55 -3.14,3.13 -3.14,3.14 -3.14,3.14 -3.47,2.71 -3.80,2.29 -4.02,1.80 -4.24,1.32 -4.33,0.79 -4.43,0.26 -4.40,-0.26 -4.36,-0.80 -4.20,-1.31 -4.04,-1.82 -3.77,-2.28 -3.49,-2.73 -3.11,-3.11 -2.73,-3.49 -2.28,-3.77 -1.82,-4.05 -1.31,-4.20 -0.80,-4.36 -0.26,-4.40 0.26,-4.43 0.79,-4.33 1.32,-4.24 1.80,-4.02 2.29,-3.80 2.71,-3.47 3.14,-3.14 3.14,-3.14 L 3.14,-3.14 Z"></path></g><g stroke-linecap="round" transform="translate(348.34361367755514 308.3333333333335) rotate(0 579.9999999999999 80.83333333333331)"><path d="M32 0 C446.74 -3.84, 862.59 -3.43, 1128 0 M32 0 C337.15 -4.28, 642.78 -4.22, 1128 0 M1128 0 C1147.88 1.85, 1160.79 12.14, 1160 32 M1128 0 C1150.23 1.83, 1157.94 9.66, 1160 32 M1160 32 C1159.3 59.77, 1162.34 82.68, 1160 129.67 M1160 32 C1160.08 70.25, 1161.16 109.28, 1160 129.67 M1160 129.67 C1158.81 152.55, 1151.22 162.2, 1128 161.67 M1160 129.67 C1159.31 150.38, 1150.94 163.03, 1128 161.67 M1128 161.67 C750.49 158.72, 372.24 158.99, 32 161.67 M1128 161.67 C885.06 158.66, 641.27 158.88, 32 161.67 M32 161.67 C10.26 162.61, -1.11 151.38, 0 129.67 M32 161.67 C10.58 159.37, -0.88 151.57, 0 129.67 M0 129.67 C-0.43 98.02, 1.06 62.79, 0 32 M0 129.67 C-0.89 105.21, -0.5 81.22, 0 32 M0 32 C-1.14 10.82, 12.13 -0.78, 32 0 M0 32 C1.26 8.56, 11.73 1.57, 32 0" stroke="#1e1e1e" stroke-width="2" fill="none"></path></g><g transform="translate(850.7692957454261 313.3333333333335) rotate(0 77.5743179321289 17.5)"><text x="77.5743179321289" y="0" font-family="Virgil, Segoe UI Emoji" font-size="28px" fill="#1e1e1e" text-anchor="middle" style="white-space: pre;" direction="ltr" dominant-baseline="text-before-edge">Host's CPU</text></g><g stroke-linecap="round" transform="translate(321.6769470108884 10) rotate(0 594.1666666666665 92.5)"><path d="M32 0 C413.22 -0.17, 795.76 -0.18, 1156.33 0 M32 0 C415.41 2.01, 798.75 2.12, 1156.33 0 M1156.33 0 C1176.83 -1.34, 1190.06 9.7, 1188.33 32 M1156.33 0 C1177.8 0.27, 1190.05 9.72, 1188.33 32 M1188.33 32 C1188.92 71.66, 1188.59 113.19, 1188.33 153 M1188.33 32 C1186.89 71.88, 1187.93 113.13, 1188.33 153 M1188.33 153 C1187.97 173.35, 1179.36 183.92, 1156.33 185 M1188.33 153 C1189.96 174.8, 1176.88 184.28, 1156.33 185 M1156.33 185 C825.08 187.31, 493.74 187.34, 32 185 M1156.33 185 C924.67 187.85, 692.88 188.25, 32 185 M32 185 C11.06 184.59, -0.96 176.2, 0 153 M32 185 C11.59 185.37, -0.34 173.96, 0 153 M0 153 C-0.99 127.41, -0.36 101.86, 0 32 M0 153 C-1.17 119.81, -0.41 87.68, 0 32 M0 32 C1.29 11.74, 10.99 -0.31, 32 0 M0 32 C1.09 10.11, 9.25 -0.03, 32 0" stroke="#1e1e1e" stroke-width="2" fill="none"></path></g><g transform="translate(495.81385903888304 15) rotate(0 420.0297546386719 87.5)"><text x="420.0297546386719" y="0" font-family="Virgil, Segoe UI Emoji" font-size="28px" fill="#1e1e1e" text-anchor="middle" style="white-space: pre;" direction="ltr" dominant-baseline="text-before-edge">Host's RAM containing executable code that looks somewhat</text><text x="420.0297546386719" y="35" font-family="Virgil, Segoe UI Emoji" font-size="28px" fill="#1e1e1e" text-anchor="middle" style="white-space: pre;" direction="ltr" dominant-baseline="text-before-edge">like this : </text><text x="420.0297546386719" y="70" font-family="Virgil, Segoe UI Emoji" font-size="28px" fill="#1e1e1e" text-anchor="middle" style="white-space: pre;" direction="ltr" dominant-baseline="text-before-edge">mov 0b001 reg A;</text><text x="420.0297546386719" y="105" font-family="Virgil, Segoe UI Emoji" font-size="28px" fill="#1e1e1e" text-anchor="middle" style="white-space: pre;" direction="ltr" dominant-baseline="text-before-edge"> mov 0b0101 reg B; </text><text x="420.0297546386719" y="140" font-family="Virgil, Segoe UI Emoji" font-size="28px" fill="#1e1e1e" text-anchor="middle" style="white-space: pre;" direction="ltr" dominant-baseline="text-before-edge">mov 0b1010 reg C;</text></g><g stroke-linecap="round"><g transform="translate(431.6769470108883 466.66666666666663) rotate(0 36.66666666666674 162.5)"><path d="M0.43 1.03 C12.72 54.95, 60.43 270.56, 72.6 324.64 M-0.81 0.53 C11.98 55.13, 62.67 272.16, 74.92 325.99" stroke="#1e1e1e" stroke-width="2" fill="none"></path></g><g transform="translate(431.6769470108883 466.66666666666663) rotate(0 36.66666666666674 162.5)"><path d="M58.58 300.84 C63.83 304.62, 64.81 311.08, 74.92 325.99 M58.58 300.84 C65.39 308.74, 71.02 318.82, 74.92 325.99" stroke="#1e1e1e" stroke-width="2" fill="none"></path></g><g transform="translate(431.6769470108883 466.66666666666663) rotate(0 36.66666666666674 162.5)"><path d="M78.57 296.22 C79.84 301, 76.79 308.39, 74.92 325.99 M78.57 296.22 C78.5 305.87, 77.2 317.55, 74.92 325.99" stroke="#1e1e1e" stroke-width="2" fill="none"></path></g></g><mask></mask><g transform="translate(508.343613677555 791.6666666666666) rotate(0 -72.5 28.333333333333258)" stroke="none"><path fill="#1e1e1e" d="M 2.14,0.53 Q 2.14,0.53 1.58,2.43 1.03,4.33 0.67,5.86 0.31,7.39 -1.03,8.45 -2.39,9.52 -4.93,10.70 -7.47,11.89 -8.60,12.07 -9.73,12.25 -12.53,12.97 -15.33,13.70 -19.10,13.66 -22.87,13.63 -27.32,13.56 -31.77,13.50 -35.09,13.44 -38.41,13.38 -40.31,13.38 -42.21,13.39 -44.20,12.89 -46.20,12.39 -47.65,11.70 -49.09,11.01 -52.10,9.04 -55.11,7.07 -56.73,5.94 -58.36,4.81 -59.68,3.84 -61.00,2.88 -62.39,2.07 -63.78,1.26 -66.23,-0.11 -68.68,-1.48 -71.44,-2.02 -74.20,-2.57 -76.96,-3.34 -79.72,-4.11 -81.50,-4.91 -83.28,-5.71 -84.35,-5.90 -85.42,-6.09 -87.17,-6.22 -88.93,-6.35 -91.15,-6.47 -93.36,-6.59 -96.22,-6.66 -99.08,-6.74 -101.61,-6.31 -104.14,-5.89 -106.65,-5.25 -109.16,-4.61 -110.58,-3.83 -112.00,-3.05 -113.80,-2.61 -115.59,-2.16 -116.79,-1.92 -117.99,-1.69 -119.85,0.61 -121.71,2.92 -123.24,4.36 -124.77,5.80 -125.78,7.62 -126.80,9.44 -127.77,10.91 -128.74,12.38 -129.57,13.85 -130.40,15.33 -132.32,17.93 -134.24,20.52 -135.50,22.50 -136.77,24.47 -137.79,26.25 -138.81,28.04 -139.09,29.20 -139.37,30.37 -140.08,32.32 -140.78,34.27 -141.58,36.53 -142.39,38.79 -142.71,41.51 -143.03,44.23 -143.19,47.32 -143.35,50.41 -143.42,52.69 -143.50,54.97 -143.49,56.90 -143.49,58.82 -143.39,60.12 -143.29,61.42 -143.20,63.21 -143.11,65.00 -143.16,65.30 -143.21,65.60 -143.36,65.87 -143.50,66.14 -143.72,66.35 -143.95,66.56 -144.22,66.68 -144.50,66.81 -144.80,66.84 -145.11,66.87 -145.40,66.81 -145.70,66.74 -145.96,66.58 -146.22,66.42 -146.42,66.19 -146.61,65.96 -146.72,65.67 -146.83,65.39 -146.85,65.09 -146.86,64.78 -146.78,64.49 -146.70,64.20 -146.53,63.95 -146.35,63.70 -146.11,63.51 -145.87,63.33 -145.58,63.23 -145.29,63.14 -144.99,63.14 -144.68,63.14 -144.39,63.24 -144.11,63.34 -143.86,63.52 -143.62,63.71 -143.45,63.96 -143.28,64.21 -143.20,64.51 -143.12,64.80 -143.14,65.10 -143.16,65.41 -143.27,65.69 -143.39,65.97 -143.59,66.20 -143.78,66.43 -144.05,66.59 -144.31,66.75 -144.60,66.81 -144.90,66.87 -145.20,66.84 -145.51,66.81 -145.78,66.68 -146.06,66.55 -146.28,66.34 -146.50,66.13 -146.64,65.86 -146.78,65.59 -146.83,65.29 -146.88,64.99 -146.88,64.99 -146.88,64.99 -146.77,63.19 -146.67,61.39 -146.55,60.09 -146.43,58.79 -146.37,56.84 -146.32,54.90 -146.28,52.59 -146.24,50.29 -146.12,47.09 -146.00,43.90 -145.68,40.85 -145.35,37.81 -144.64,35.52 -143.92,33.22 -143.30,31.23 -142.68,29.24 -142.11,27.89 -141.53,26.54 -140.53,24.67 -139.53,22.79 -138.30,20.66 -137.06,18.53 -135.36,16.00 -133.66,13.46 -132.73,11.86 -131.80,10.26 -130.88,9.01 -129.97,7.76 -128.80,5.43 -127.63,3.11 -126.28,1.56 -124.93,0.02 -123.93,-1.07 -122.94,-2.16 -122.13,-3.15 -121.31,-4.14 -119.92,-4.76 -118.54,-5.38 -117.40,-5.42 -116.26,-5.46 -114.80,-5.67 -113.35,-5.87 -111.63,-6.63 -109.91,-7.39 -107.28,-8.11 -104.65,-8.82 -101.86,-9.33 -99.07,-9.85 -96.17,-9.87 -93.28,-9.88 -90.97,-9.88 -88.67,-9.88 -86.56,-9.73 -84.44,-9.58 -83.16,-9.10 -81.89,-8.62 -80.40,-7.85 -78.92,-7.08 -76.26,-6.41 -73.59,-5.75 -70.36,-5.15 -67.12,-4.56 -64.48,-3.26 -61.84,-1.96 -60.27,-0.99 -58.71,-0.02 -57.58,0.93 -56.46,1.89 -54.58,3.05 -52.71,4.20 -51.12,5.50 -49.54,6.80 -48.40,7.23 -47.27,7.67 -46.26,8.33 -45.25,9.00 -43.72,9.46 -42.19,9.92 -40.31,9.91 -38.43,9.90 -35.12,9.80 -31.80,9.70 -27.39,9.56 -22.98,9.41 -19.45,9.18 -15.91,8.95 -14.54,8.79 -13.16,8.63 -11.82,7.99 -10.48,7.36 -8.57,7.19 -6.66,7.03 -5.58,6.27 -4.51,5.51 -3.73,4.42 -2.95,3.33 -2.54,1.40 -2.14,-0.53 -2.04,-0.78 -1.95,-1.03 -1.80,-1.25 -1.64,-1.47 -1.44,-1.64 -1.24,-1.82 -1.01,-1.94 -0.77,-2.06 -0.51,-2.13 -0.25,-2.19 0.00,-2.19 0.27,-2.19 0.53,-2.12 0.79,-2.06 1.02,-1.93 1.26,-1.81 1.46,-1.63 1.65,-1.45 1.80,-1.23 1.95,-1.02 2.05,-0.77 2.14,-0.52 2.17,-0.25 2.20,0.00 2.17,0.27 2.14,0.53 2.14,0.53 L 2.14,0.53 Z"></path></g><g transform="translate(505.01028034422177 794.9999999999999) rotate(0 63.33333333333326 42.50000000000006)" stroke="none"><path fill="#1e1e1e" d="M 1.68,-1.26 Q 1.68,-1.26 3.04,0.71 4.39,2.69 5.91,5.01 7.43,7.33 9.37,9.15 11.31,10.96 12.68,12.24 14.05,13.52 15.34,13.85 16.63,14.19 18.09,14.34 19.54,14.49 21.11,14.55 22.68,14.61 23.84,14.57 24.99,14.54 28.07,14.15 31.16,13.76 35.97,12.69 40.78,11.63 43.86,11.19 46.94,10.75 48.74,10.50 50.53,10.26 53.75,10.22 56.97,10.18 62.16,10.18 67.34,10.18 70.98,10.20 74.62,10.21 78.08,10.23 81.54,10.24 85.03,10.74 88.51,11.24 90.41,11.41 92.31,11.57 94.66,12.18 97.01,12.78 99.46,13.54 101.90,14.29 104.11,16.17 106.31,18.06 108.04,19.23 109.76,20.40 111.55,21.93 113.33,23.46 114.65,25.13 115.98,26.80 117.41,28.40 118.84,30.00 120.02,31.72 121.21,33.44 121.86,34.71 122.50,35.98 122.84,37.08 123.19,38.17 123.70,39.95 124.22,41.72 124.92,42.78 125.61,43.85 126.08,45.04 126.55,46.22 127.07,49.15 127.60,52.09 127.80,54.84 128.00,57.59 128.06,60.20 128.11,62.81 128.12,65.84 128.13,68.86 128.20,70.62 128.26,72.38 128.32,74.09 128.37,75.80 128.47,77.00 128.56,78.21 128.61,79.68 128.67,81.15 127.87,82.24 127.08,83.33 127.05,83.58 127.02,83.83 126.93,84.06 126.84,84.30 126.70,84.50 126.56,84.71 126.37,84.88 126.18,85.04 125.96,85.16 125.74,85.28 125.49,85.34 125.25,85.40 125.00,85.40 124.75,85.40 124.50,85.34 124.26,85.28 124.03,85.16 123.81,85.05 123.62,84.88 123.43,84.71 123.29,84.51 123.15,84.30 123.06,84.06 122.97,83.83 122.94,83.58 122.91,83.33 122.96,83.64 123.00,83.95 122.96,83.62 122.91,83.28 122.97,82.95 123.03,82.62 123.20,82.33 123.36,82.03 123.61,81.80 123.86,81.58 124.17,81.44 124.48,81.31 124.82,81.28 125.15,81.25 125.48,81.33 125.81,81.41 126.09,81.59 126.38,81.77 126.59,82.03 126.81,82.29 126.92,82.61 127.04,82.92 127.05,83.26 127.06,83.60 126.97,83.92 126.87,84.24 126.67,84.52 126.48,84.80 126.21,84.99 125.93,85.19 125.61,85.29 125.29,85.39 124.95,85.39 124.61,85.38 124.30,85.27 123.98,85.15 123.71,84.94 123.45,84.73 123.27,84.45 123.08,84.16 123.00,83.84 122.92,83.51 122.94,83.17 122.97,82.84 123.10,82.53 123.23,82.21 123.45,81.96 123.68,81.71 123.97,81.54 124.26,81.37 124.60,81.31 124.93,81.24 125.26,81.29 125.60,81.33 125.90,81.48 126.20,81.63 126.44,81.86 126.68,82.10 126.88,82.71 127.08,83.33 127.05,83.58 127.02,83.83 126.93,84.06 126.84,84.30 126.70,84.50 126.56,84.71 126.37,84.88 126.18,85.04 125.96,85.16 125.74,85.28 125.49,85.34 125.25,85.40 125.00,85.40 124.75,85.40 124.50,85.34 124.26,85.28 124.03,85.16 123.81,85.05 123.62,84.88 123.43,84.71 123.29,84.51 123.15,84.30 123.06,84.06 122.97,83.83 122.94,83.58 122.91,83.33 123.78,82.24 124.65,81.16 124.70,79.69 124.75,78.22 124.84,77.02 124.93,75.82 124.96,74.12 125.00,72.42 125.03,70.66 125.06,68.91 124.97,65.93 124.88,62.95 124.72,60.44 124.56,57.93 124.24,55.40 123.92,52.88 123.09,49.30 122.25,45.73 121.51,44.26 120.77,42.79 120.10,39.99 119.43,37.19 119.14,36.10 118.84,35.00 117.82,33.42 116.80,31.83 115.28,30.17 113.76,28.50 112.67,27.00 111.57,25.49 109.91,24.07 108.24,22.65 106.37,21.38 104.50,20.11 102.75,18.51 101.01,16.91 98.66,16.22 96.32,15.54 94.16,15.01 92.00,14.48 90.06,14.25 88.13,14.01 84.84,13.55 81.55,13.10 78.09,13.13 74.63,13.16 71.00,13.20 67.36,13.25 62.21,13.33 57.06,13.41 54.00,13.55 50.93,13.69 49.21,13.86 47.48,14.03 44.55,14.58 41.62,15.12 36.78,16.37 31.94,17.63 28.39,18.14 24.85,18.66 23.65,18.54 22.45,18.42 20.73,18.28 19.01,18.14 17.24,17.83 15.46,17.51 13.67,16.75 11.88,15.98 10.50,14.67 9.12,13.37 6.85,11.35 4.59,9.34 2.97,7.15 1.35,4.97 -0.16,3.11 -1.68,1.26 -1.81,1.04 -1.94,0.82 -2.01,0.58 -2.08,0.33 -2.09,0.08 -2.10,-0.17 -2.05,-0.42 -2.00,-0.67 -1.89,-0.89 -1.78,-1.12 -1.62,-1.32 -1.46,-1.52 -1.25,-1.67 -1.05,-1.82 -0.81,-1.92 -0.58,-2.02 -0.33,-2.06 -0.08,-2.10 0.17,-2.08 0.42,-2.06 0.66,-1.98 0.90,-1.90 1.12,-1.76 1.33,-1.63 1.51,-1.44 1.68,-1.26 1.68,-1.26 L 1.68,-1.26 Z"></path></g><g stroke-linecap="round"><g transform="translate(633.343613677555 473.33333333333326) rotate(0 65.83333333333326 164.16666666666669)"><path d="M0.71 1.02 C16.85 30.01, 74.01 118.62, 95.74 173.18 C117.46 227.74, 125.26 302.65, 131.06 328.37 M-0.38 0.51 C16.24 29.76, 76.24 119.77, 97.96 174.64 C119.69 229.51, 124.61 304.13, 129.98 329.71" stroke="#1e1e1e" stroke-width="1" fill="none"></path></g><g transform="translate(633.343613677555 473.33333333333326) rotate(0 65.83333333333326 164.16666666666669)"><path d="M115.64 303.36 C120.11 307.13, 121.1 313.08, 129.98 329.71 M115.64 303.36 C118.94 311.86, 123.59 318.83, 129.98 329.71" stroke="#1e1e1e" stroke-width="1" fill="none"></path></g><g transform="translate(633.343613677555 473.33333333333326) rotate(0 65.83333333333326 164.16666666666669)"><path d="M135.93 300.31 C136.22 304.83, 133.05 311.4, 129.98 329.71 M135.93 300.31 C133.05 309.59, 131.54 317.48, 129.98 329.71" stroke="#1e1e1e" stroke-width="1" fill="none"></path></g></g><mask></mask><g transform="translate(768.343613677555 806.6666666666666) rotate(0 -59.16666666666663 40.833333333333314)" stroke="none"><path fill="#e03131" d="M 0,1.76 Q 0,1.76 -2.39,1.70 -4.79,1.64 -7.24,1.59 -9.70,1.55 -12.18,1.51 -14.66,1.48 -18.68,0.97 -22.69,0.47 -26.23,0.25 -29.77,0.03 -34.62,-0.06 -39.47,-0.15 -42.02,-0.20 -44.57,-0.25 -46.14,-0.17 -47.70,-0.09 -49.31,-0.03 -50.92,0.02 -52.33,0.50 -53.74,0.98 -55.87,1.60 -58.00,2.22 -60.87,2.95 -63.74,3.69 -67.38,4.47 -71.01,5.25 -72.34,6.06 -73.67,6.87 -75.90,7.21 -78.13,7.55 -79.65,9.40 -81.17,11.26 -84.43,14.10 -87.69,16.94 -89.99,19.06 -92.30,21.18 -94.18,23.45 -96.07,25.73 -97.34,27.62 -98.60,29.52 -99.00,30.76 -99.39,32.00 -100.07,33.57 -100.74,35.14 -100.95,37.43 -101.15,39.72 -101.08,41.69 -101.01,43.66 -100.95,45.85 -100.88,48.05 -101.52,50.30 -102.16,52.56 -102.91,54.11 -103.66,55.67 -103.94,57.33 -104.21,58.99 -104.94,61.85 -105.67,64.71 -107.58,67.14 -109.49,69.56 -111.24,71.43 -112.99,73.30 -114.16,74.61 -115.33,75.92 -115.68,77.91 -116.03,79.91 -116.11,81.71 -116.18,83.51 -116.26,83.85 -116.35,84.19 -116.54,84.48 -116.73,84.78 -117.00,84.99 -117.27,85.21 -117.60,85.33 -117.93,85.45 -118.28,85.46 -118.63,85.46 -118.96,85.36 -119.29,85.26 -119.58,85.05 -119.86,84.85 -120.06,84.56 -120.26,84.28 -120.37,83.94 -120.47,83.61 -120.46,83.26 -120.45,82.91 -120.32,82.59 -120.20,82.26 -119.98,81.99 -119.76,81.72 -119.47,81.53 -119.17,81.34 -118.83,81.26 -118.49,81.18 -118.15,81.21 -117.80,81.24 -117.48,81.38 -117.16,81.52 -116.90,81.75 -116.64,81.98 -116.47,82.29 -116.30,82.59 -116.24,82.94 -116.17,83.28 -116.22,83.62 -116.27,83.97 -116.43,84.28 -116.58,84.59 -116.83,84.84 -117.08,85.09 -117.39,85.24 -117.70,85.39 -118.05,85.44 -118.40,85.48 -118.74,85.42 -119.08,85.35 -119.38,85.18 -119.69,85.00 -119.92,84.74 -120.15,84.48 -120.29,84.16 -120.42,83.84 -120.45,83.49 -120.48,83.14 -120.48,83.14 -120.48,83.14 -120.23,81.22 -119.99,79.30 -119.63,77.65 -119.27,76.01 -118.54,74.83 -117.81,73.65 -116.59,72.41 -115.37,71.17 -113.76,69.31 -112.16,67.45 -110.68,65.61 -109.20,63.77 -108.73,61.09 -108.25,58.41 -107.94,56.06 -107.64,53.72 -107.02,52.61 -106.40,51.51 -106.08,49.76 -105.76,48.00 -105.74,46.67 -105.72,45.33 -105.55,43.47 -105.39,41.61 -105.26,40.49 -105.12,39.36 -104.91,37.77 -104.70,36.18 -104.25,34.94 -103.80,33.70 -103.05,32.24 -102.30,30.78 -101.58,29.40 -100.87,28.02 -99.53,26.00 -98.19,23.98 -96.19,21.56 -94.20,19.13 -91.88,16.96 -89.57,14.79 -86.47,12.04 -83.36,9.30 -81.19,7.02 -79.02,4.75 -77.08,4.39 -75.13,4.03 -73.41,3.19 -71.68,2.36 -68.12,1.53 -64.56,0.69 -61.78,-0.10 -59.00,-0.90 -56.86,-1.65 -54.71,-2.39 -52.83,-2.86 -50.94,-3.34 -49.30,-3.26 -47.67,-3.19 -46.10,-3.08 -44.54,-2.97 -41.98,-2.94 -39.43,-2.91 -34.52,-2.84 -29.61,-2.76 -25.98,-2.57 -22.35,-2.38 -18.50,-1.93 -14.66,-1.48 -12.18,-1.51 -9.70,-1.55 -7.24,-1.59 -4.79,-1.64 -2.39,-1.70 0,-1.76 0.21,-1.73 0.42,-1.71 0.62,-1.63 0.81,-1.55 0.99,-1.43 1.16,-1.31 1.30,-1.15 1.44,-1.00 1.54,-0.81 1.64,-0.62 1.69,-0.41 1.74,-0.21 1.74,0.00 1.74,0.21 1.69,0.41 1.64,0.62 1.54,0.81 1.44,1.00 1.30,1.15 1.16,1.31 0.99,1.43 0.81,1.55 0.61,1.63 0.42,1.71 0.21,1.73 -0.00,1.76 -0.00,1.76 L 0,1.76 Z"></path></g><g transform="translate(763.343613677555 811.6666666666666) rotate(0 67.5 35)" stroke="none"><path fill="#e03131" d="M -0.80,-1.61 Q -0.80,-1.61 1.13,-2.51 3.08,-3.41 5.30,-4.70 7.52,-5.99 9.03,-6.69 10.54,-7.40 11.94,-8.48 13.34,-9.57 16.66,-10.64 19.98,-11.71 22.73,-12.57 25.47,-13.43 26.99,-14.28 28.50,-15.12 29.78,-15.64 31.06,-16.16 34.04,-16.75 37.03,-17.34 41.26,-17.58 45.48,-17.82 47.57,-18.36 49.66,-18.89 51.13,-19.25 52.60,-19.61 55.23,-19.68 57.87,-19.75 63.35,-19.28 68.82,-18.81 73.95,-18.60 79.08,-18.39 82.70,-18.29 86.33,-18.19 89.41,-17.66 92.50,-17.12 95.35,-15.89 98.21,-14.66 100.23,-14.17 102.25,-13.69 103.92,-12.43 105.59,-11.18 107.14,-9.69 108.70,-8.19 111.81,-4.12 114.93,-0.05 117.19,3.09 119.45,6.24 120.93,9.09 122.41,11.95 124.42,14.98 126.42,18.02 127.83,21.36 129.23,24.70 130.31,28.55 131.39,32.40 132.30,34.91 133.21,37.43 133.63,40.08 134.05,42.72 134.25,44.80 134.44,46.88 134.97,49.59 135.50,52.29 135.74,55.47 135.98,58.65 136.08,60.94 136.18,63.24 136.22,66.14 136.26,69.05 136.28,71.23 136.29,73.42 136.35,75.31 136.41,77.20 136.47,78.96 136.54,80.72 136.59,82.43 136.65,84.14 136.75,86.23 136.86,88.33 136.81,88.62 136.76,88.92 136.62,89.19 136.48,89.45 136.26,89.66 136.04,89.87 135.77,90.00 135.49,90.12 135.19,90.16 134.89,90.19 134.60,90.12 134.31,90.06 134.05,89.90 133.79,89.75 133.59,89.52 133.40,89.29 133.29,89.01 133.18,88.73 133.16,88.43 133.14,88.13 133.22,87.84 133.30,87.55 133.47,87.30 133.64,87.05 133.88,86.87 134.12,86.68 134.41,86.59 134.69,86.49 134.99,86.49 135.30,86.49 135.58,86.59 135.87,86.68 136.11,86.86 136.35,87.05 136.52,87.30 136.69,87.55 136.77,87.84 136.85,88.13 136.83,88.43 136.81,88.73 136.70,89.01 136.59,89.29 136.40,89.52 136.20,89.75 135.94,89.90 135.68,90.06 135.39,90.12 135.10,90.19 134.80,90.16 134.50,90.12 134.22,90.00 133.95,89.87 133.73,89.66 133.51,89.46 133.37,89.19 133.23,88.92 133.18,88.63 133.13,88.33 133.13,88.33 133.13,88.33 133.23,86.23 133.34,84.14 133.39,82.43 133.44,80.73 133.50,78.97 133.56,77.21 133.60,75.33 133.65,73.44 133.63,71.26 133.61,69.09 133.56,66.22 133.52,63.36 133.42,61.10 133.31,58.85 133.09,55.83 132.86,52.81 132.29,49.96 131.72,47.10 131.58,45.12 131.44,43.13 131.07,40.73 130.71,38.32 129.77,35.72 128.82,33.12 127.79,29.42 126.77,25.73 125.47,22.62 124.18,19.50 122.09,16.35 120.00,13.20 118.60,10.52 117.21,7.84 114.96,4.74 112.71,1.64 109.72,-2.23 106.73,-6.11 105.20,-7.52 103.67,-8.94 102.59,-10.03 101.51,-11.12 99.31,-11.63 97.12,-12.14 94.57,-13.27 92.01,-14.39 89.14,-14.87 86.26,-15.36 82.62,-15.42 78.98,-15.48 73.78,-15.64 68.58,-15.80 63.29,-16.19 58.00,-16.59 55.59,-16.44 53.18,-16.30 51.80,-16.15 50.43,-16.01 48.06,-15.36 45.70,-14.70 41.72,-14.40 37.73,-14.10 34.92,-13.43 32.12,-12.75 31.04,-12.54 29.96,-12.32 28.19,-11.44 26.42,-10.56 23.69,-9.62 20.96,-8.69 18.15,-7.77 15.34,-6.86 13.60,-5.54 11.87,-4.21 10.51,-3.75 9.15,-3.29 6.86,-1.85 4.58,-0.41 2.69,0.60 0.80,1.61 0.60,1.69 0.39,1.76 0.18,1.78 -0.03,1.81 -0.25,1.77 -0.46,1.74 -0.67,1.66 -0.87,1.58 -1.05,1.45 -1.22,1.33 -1.36,1.16 -1.51,0.99 -1.60,0.80 -1.70,0.60 -1.75,0.39 -1.80,0.18 -1.79,-0.03 -1.79,-0.25 -1.73,-0.46 -1.68,-0.67 -1.57,-0.86 -1.46,-1.05 -1.32,-1.21 -1.17,-1.37 -0.99,-1.49 -0.80,-1.61 -0.80,-1.61 L -0.80,-1.61 Z"></path></g><g stroke-linecap="round"><g transform="translate(780.0102803442215 468.33333333333326) rotate(0 182.5 162.5)"><path d="M-1.06 0.7 C46.88 28.86, 226.83 115.36, 287.72 169.34 C348.61 223.32, 351.53 298.69, 364.29 324.57 M0.58 0.02 C48.92 27.83, 229.07 113.47, 290.11 167.75 C351.15 222.02, 354.47 299.36, 366.82 325.66" stroke="#1e1e1e" stroke-width="1" fill="none"></path></g><g transform="translate(780.0102803442215 468.33333333333326) rotate(0 182.5 162.5)"><path d="M348.99 301.54 C355.65 308, 361.58 315.18, 366.82 325.66 M348.99 301.54 C354.51 308.34, 359.07 314.35, 366.82 325.66" stroke="#1e1e1e" stroke-width="1" fill="none"></path></g><g transform="translate(780.0102803442215 468.33333333333326) rotate(0 182.5 162.5)"><path d="M368.67 295.72 C369.37 303.78, 369.32 312.72, 366.82 325.66 M368.67 295.72 C368.96 304, 368.32 311.55, 366.82 325.66" stroke="#1e1e1e" stroke-width="1" fill="none"></path></g></g><mask></mask><g transform="translate(1151.6769470108884 794.9999999999999) rotate(0 -103.33333333333337 50.83333333333337)" stroke="none"><path fill="#1e1e1e" d="M -0.46,1.84 Q -0.46,1.84 -2.33,1.32 -4.21,0.80 -5.65,1.10 -7.09,1.40 -9.20,1.91 -11.31,2.41 -12.78,2.76 -14.25,3.10 -15.91,3.27 -17.56,3.43 -19.22,3.51 -20.88,3.58 -22.54,3.61 -24.20,3.65 -26.82,3.56 -29.44,3.48 -31.33,3.87 -33.22,4.26 -37.12,4.44 -41.02,4.61 -43.11,4.67 -45.20,4.74 -48.02,4.74 -50.84,4.75 -54.34,5.22 -57.83,5.68 -63.26,5.88 -68.69,6.08 -72.41,6.16 -76.14,6.24 -79.16,6.27 -82.19,6.30 -85.38,6.31 -88.58,6.32 -92.18,7.26 -95.78,8.20 -99.29,9.08 -102.81,9.97 -108.14,11.30 -113.46,12.64 -116.13,13.66 -118.80,14.68 -120.33,15.61 -121.87,16.54 -124.51,17.89 -127.16,19.24 -129.67,20.74 -132.19,22.24 -134.26,23.38 -136.33,24.51 -138.21,25.04 -140.10,25.58 -141.05,27.01 -142.00,28.44 -143.49,30.55 -144.98,32.65 -147.16,34.62 -149.34,36.60 -150.65,37.89 -151.96,39.18 -152.39,40.84 -152.81,42.50 -153.44,43.69 -154.08,44.87 -154.84,45.87 -155.60,46.86 -157.08,47.90 -158.55,48.95 -159.46,49.74 -160.36,50.54 -161.20,51.36 -162.04,52.19 -163.42,53.43 -164.80,54.67 -167.12,55.78 -169.44,56.90 -170.66,57.77 -171.87,58.64 -172.81,59.49 -173.75,60.35 -174.60,61.20 -175.45,62.05 -177.46,63.36 -179.46,64.66 -180.65,65.67 -181.85,66.69 -183.46,67.68 -185.07,68.68 -187.29,69.52 -189.52,70.37 -190.17,71.67 -190.82,72.97 -191.52,74.04 -192.22,75.10 -192.30,76.32 -192.38,77.53 -193.04,78.84 -193.70,80.15 -195.06,81.58 -196.41,83.00 -196.81,84.84 -197.21,86.68 -197.89,88.15 -198.56,89.61 -199.34,91.03 -200.11,92.45 -201.10,93.33 -202.08,94.21 -202.21,96.27 -202.35,98.32 -203.06,99.48 -203.78,100.63 -203.88,102.23 -203.99,103.83 -204.14,104.24 -204.29,104.66 -204.56,105.00 -204.84,105.34 -205.21,105.58 -205.58,105.82 -206.00,105.93 -206.43,106.04 -206.87,106.00 -207.31,105.97 -207.71,105.80 -208.12,105.63 -208.44,105.33 -208.77,105.04 -208.99,104.66 -209.21,104.28 -209.29,103.85 -209.38,103.41 -209.32,102.98 -209.26,102.54 -209.07,102.15 -208.88,101.75 -208.57,101.44 -208.26,101.13 -207.86,100.93 -207.47,100.73 -207.04,100.67 -206.60,100.61 -206.17,100.69 -205.74,100.77 -205.35,100.99 -204.97,101.20 -204.67,101.53 -204.38,101.85 -204.20,102.26 -204.03,102.66 -203.99,103.10 -203.95,103.54 -204.06,103.96 -204.16,104.39 -204.39,104.76 -204.63,105.14 -204.97,105.41 -205.31,105.69 -205.73,105.84 -206.14,106.00 -206.58,106.01 -207.02,106.02 -207.44,105.90 -207.86,105.77 -208.22,105.51 -208.58,105.26 -208.83,104.90 -209.09,104.55 -209.22,104.13 -209.35,103.71 -209.34,103.27 -209.33,102.83 -209.33,102.83 -209.33,102.83 -208.28,100.07 -207.22,97.31 -207.12,95.75 -207.01,94.18 -205.71,92.10 -204.41,90.02 -203.28,87.93 -202.15,85.84 -201.84,84.12 -201.52,82.40 -200.80,81.09 -200.08,79.77 -199.07,78.57 -198.06,77.37 -197.47,76.03 -196.88,74.69 -195.80,72.95 -194.73,71.20 -194.08,70.11 -193.44,69.02 -192.22,68.04 -191.01,67.05 -189.09,66.15 -187.18,65.25 -185.80,64.41 -184.43,63.56 -183.11,62.49 -181.79,61.43 -180.13,60.09 -178.47,58.76 -177.48,57.92 -176.48,57.07 -175.33,56.18 -174.18,55.30 -172.73,54.33 -171.27,53.36 -169.57,52.40 -167.87,51.44 -166.56,50.06 -165.26,48.67 -164.27,47.82 -163.29,46.98 -162.15,46.10 -161.02,45.23 -159.97,44.59 -158.91,43.96 -157.68,42.71 -156.46,41.45 -156.04,40.39 -155.63,39.33 -154.82,38.19 -154.01,37.05 -152.60,35.80 -151.19,34.54 -149.23,32.79 -147.27,31.03 -145.78,28.86 -144.28,26.69 -142.72,24.84 -141.16,22.99 -139.39,22.56 -137.62,22.13 -135.61,21.01 -133.60,19.89 -131.02,18.32 -128.43,16.76 -125.85,15.41 -123.26,14.05 -121.50,13.13 -119.75,12.21 -116.93,11.14 -114.11,10.07 -108.79,8.73 -103.46,7.39 -99.95,6.50 -96.44,5.61 -92.53,4.62 -88.62,3.63 -85.42,3.60 -82.22,3.58 -79.21,3.53 -76.20,3.49 -72.50,3.39 -68.80,3.29 -63.51,3.07 -58.22,2.85 -54.55,2.32 -50.88,1.80 -48.10,1.73 -45.33,1.66 -43.26,1.55 -41.20,1.44 -37.59,1.20 -33.98,0.97 -31.73,0.39 -29.48,-0.17 -26.86,-0.27 -24.25,-0.37 -22.62,-0.38 -20.99,-0.38 -19.41,-0.40 -17.83,-0.42 -16.36,-0.47 -14.90,-0.52 -13.55,-0.68 -12.20,-0.84 -9.93,-1.53 -7.66,-2.21 -5.55,-2.47 -3.44,-2.72 -1.49,-2.28 0.46,-1.84 0.67,-1.75 0.88,-1.67 1.07,-1.54 1.26,-1.41 1.41,-1.24 1.56,-1.07 1.67,-0.87 1.77,-0.66 1.83,-0.44 1.88,-0.22 1.88,0.00 1.88,0.23 1.82,0.45 1.77,0.67 1.66,0.88 1.55,1.08 1.40,1.25 1.25,1.42 1.06,1.55 0.87,1.68 0.66,1.76 0.44,1.84 0.22,1.87 -0.00,1.89 -0.23,1.87 -0.46,1.84 -0.46,1.84 L -0.46,1.84 Z"></path></g><g transform="translate(1146.6769470108884 794.9999999999999) rotate(0 122.5 44.166666666666686)" stroke="none"><path fill="#1e1e1e" d="M 0,-1.56 Q 0,-1.56 2.87,-1.52 5.75,-1.49 9.84,-1.46 13.94,-1.44 21.43,-1.42 28.92,-1.40 37.85,-1.39 46.79,-1.38 52.50,-1.37 58.22,-1.36 62.17,-0.87 66.11,-0.38 68.22,-0.17 70.32,0.03 73.57,0.11 76.82,0.20 82.04,0.24 87.27,0.28 91.95,0.78 96.64,1.28 100.49,1.49 104.33,1.70 107.04,2.28 109.75,2.87 113.71,3.58 117.67,4.30 124.64,5.57 131.60,6.83 137.44,7.85 143.27,8.87 147.81,10.78 152.34,12.69 156.66,14.94 160.97,17.20 164.75,19.61 168.52,22.03 171.99,23.98 175.46,25.93 179.75,27.70 184.05,29.46 188.75,31.17 193.45,32.88 197.82,34.08 202.18,35.28 206.14,37.79 210.10,40.29 213.09,41.77 216.07,43.25 217.91,44.40 219.75,45.55 221.10,46.46 222.44,47.38 224.97,50.30 227.49,53.22 229.46,55.37 231.43,57.52 232.84,60.01 234.25,62.50 235.77,65.44 237.29,68.38 238.02,70.16 238.75,71.93 239.53,72.96 240.30,73.99 241.17,75.48 242.03,76.98 242.53,78.22 243.02,79.45 243.64,80.77 244.25,82.08 244.64,83.30 245.02,84.51 245.98,85.81 246.94,87.11 247.08,87.45 247.23,87.79 247.26,88.16 247.28,88.53 247.19,88.89 247.10,89.25 246.90,89.56 246.69,89.87 246.40,90.10 246.11,90.34 245.76,90.46 245.41,90.59 245.04,90.59 244.67,90.60 244.31,90.49 243.96,90.38 243.66,90.16 243.36,89.94 243.14,89.64 242.93,89.33 242.82,88.98 242.72,88.62 242.73,88.25 242.74,87.88 242.87,87.53 243.00,87.18 243.24,86.90 243.47,86.61 243.79,86.41 244.10,86.21 244.46,86.13 244.83,86.04 245.20,86.07 245.57,86.10 245.91,86.25 246.25,86.40 246.52,86.65 246.80,86.90 246.98,87.23 247.16,87.55 247.22,87.92 247.29,88.28 247.24,88.65 247.19,89.02 247.02,89.35 246.85,89.68 246.59,89.94 246.32,90.20 245.99,90.37 245.65,90.53 245.28,90.58 244.92,90.62 244.55,90.55 244.19,90.48 243.86,90.29 243.54,90.11 243.30,89.83 243.05,89.55 243.05,89.55 243.05,89.55 241.80,86.62 240.56,83.69 239.74,81.17 238.92,78.66 238.19,77.21 237.46,75.76 236.72,74.37 235.99,72.98 235.42,71.32 234.86,69.65 233.34,66.76 231.82,63.87 230.57,61.66 229.33,59.45 227.30,57.30 225.28,55.15 222.92,52.47 220.57,49.78 219.45,48.79 218.33,47.79 216.62,46.70 214.90,45.60 211.80,44.05 208.69,42.51 205.07,40.15 201.45,37.80 197.00,36.57 192.55,35.35 187.80,33.62 183.04,31.89 178.61,30.06 174.18,28.22 170.64,26.23 167.11,24.24 163.43,21.88 159.75,19.53 155.53,17.32 151.31,15.11 147.06,13.28 142.80,11.45 136.97,10.44 131.13,9.42 124.17,8.16 117.21,6.89 113.20,6.17 109.19,5.44 106.69,4.89 104.18,4.34 100.27,4.12 96.36,3.91 91.80,3.42 87.25,2.93 82.00,2.90 76.75,2.87 73.41,2.78 70.06,2.69 67.92,2.49 65.78,2.29 62.00,1.83 58.21,1.36 52.50,1.37 46.79,1.38 37.85,1.39 28.92,1.40 21.43,1.42 13.94,1.44 9.84,1.46 5.75,1.49 2.87,1.52 0,1.56 -0.18,1.53 -0.37,1.51 -0.54,1.45 -0.72,1.38 -0.88,1.27 -1.03,1.16 -1.16,1.02 -1.28,0.88 -1.37,0.72 -1.46,0.55 -1.50,0.37 -1.55,0.18 -1.55,-0.00 -1.55,-0.18 -1.50,-0.37 -1.46,-0.55 -1.37,-0.72 -1.28,-0.88 -1.16,-1.02 -1.03,-1.16 -0.88,-1.27 -0.72,-1.38 -0.54,-1.45 -0.37,-1.51 -0.18,-1.53 0.00,-1.56 0.00,-1.56 L 0,-1.56 Z"></path></g><g stroke-linecap="round"><g transform="translate(813.343613677555 196.66666666666663) rotate(0 0 55.833333333333314)"><path d="M-0.09 0.39 C-0.31 19.12, -0.8 94.36, -0.72 112.86" stroke="#1e1e1e" stroke-width="1.5" fill="none" stroke-dasharray="8 9"></path></g><g transform="translate(813.343613677555 196.66666666666663) rotate(0 0 55.833333333333314)"><path d="M-10.92 84.65 C-6.63 93.23, -1.76 104.83, -0.72 112.86" stroke="#1e1e1e" stroke-width="1.5" fill="none"></path></g><g transform="translate(813.343613677555 196.66666666666663) rotate(0 0 55.833333333333314)"><path d="M9.6 84.69 C6.77 93.24, 4.54 104.82, -0.72 112.86" stroke="#1e1e1e" stroke-width="1.5" fill="none"></path></g></g><mask></mask></svg>