<svg version="1.1" xmlns="http://www.w3.org/2000/svg" viewBox="0 0 1240.8822980608256 1007" width="1240.8822980608256" height="1007" filter="invert(93%) hue-rotate(180deg)">
  <!-- svg-source:excalidraw -->
  
  <defs>
    <style class="style-fonts">
      @font-face {
        font-family: "Virgil";
        src: url("https://file%2B.vscode-resource.vscode-cdn.net/home/kiarie404/.vscode/extensions/pomdtr.excalidraw-editor-3.7.4/public//dist/excalidraw-assets/Virgil.woff2");
      }
      @font-face {
        font-family: "Cascadia";
        src: url("https://file%2B.vscode-resource.vscode-cdn.net/home/kiarie404/.vscode/extensions/pomdtr.excalidraw-editor-3.7.4/public//dist/excalidraw-assets/Cascadia.woff2");
      }
      @font-face {
        font-family: "Assistant";
        src: url("https://file%2B.vscode-resource.vscode-cdn.net/home/kiarie404/.vscode/extensions/pomdtr.excalidraw-editor-3.7.4/public//dist/excalidraw-assets/Assistant-Regular.woff2");
      }
    </style>
    
  </defs>
  <rect x="0" y="0" width="1240.8822980608256" height="1007" fill="#ffffff"></rect><g stroke-linecap="round" transform="translate(293.28571428571456 10) rotate(0 194 227)"><path d="M-0.56 1.06 C79.09 2.99, 156.44 1.36, 388.8 -1.58 M0.22 0.76 C116.36 -0.42, 232.14 -0.47, 388.27 -0.98 M386.24 1.3 C388.91 107.42, 391.72 214.47, 386.16 455.35 M388.12 -0.33 C391.01 166, 390.51 332.41, 387.15 454.69 M388.12 456.32 C250.47 451.71, 116.12 450.23, -2.05 451.91 M386.86 453.95 C291.83 456.31, 193.24 455.32, 0.1 453.05 M1.25 452.27 C0.58 297.19, -2.41 139.31, -1.48 -1.86 M-0.55 453.87 C-0.01 325.27, 0.62 194.56, -0.93 -0.37" stroke="#1e1e1e" stroke-width="1" fill="none"></path></g><g transform="translate(344.6658717564177 434) rotate(0 142.61984252929688 12.5)"><text x="142.61984252929688" y="0" font-family="Virgil, Segoe UI Emoji" font-size="20px" fill="#1e1e1e" text-anchor="middle" style="white-space: pre;" direction="ltr" dominant-baseline="text-before-edge">Your Computer's motherboard</text></g><g stroke-linecap="round" transform="translate(383.28571428571433 745) rotate(0 115.5 71.5)"><path d="M32 0 C82.02 -1.43, 135.26 1.03, 199 0 M32 0 C88.78 2.32, 142.31 0.24, 199 0 M199 0 C220.82 0.12, 230.7 11.8, 231 32 M199 0 C220.07 -2.74, 233.22 14.98, 231 32 M231 32 C235.59 59.08, 228.85 85.26, 231 111 M231 32 C230.72 51.06, 232.23 71.83, 231 111 M231 111 C232.5 133.95, 224.3 143.05, 199 143 M231 111 C229.65 132.76, 219.69 140.17, 199 143 M199 143 C144.41 144.68, 95.13 140.95, 32 143 M199 143 C141.02 141.56, 85.19 142.17, 32 143 M32 143 C9.65 141.82, -0.63 130.16, 0 111 M32 143 C9.22 147.29, -3.1 129.46, 0 111 M0 111 C3.27 91.49, 2.39 75.18, 0 32 M0 111 C0.81 84.79, 1.19 54.63, 0 32 M0 32 C3.21 9.58, 7.54 2.82, 32 0 M0 32 C-3 14.11, 9.04 4.19, 32 0" stroke="#1e1e1e" stroke-width="1" fill="none"></path></g><g stroke-linecap="round" transform="translate(515.2857142857143 746) rotate(0 43 22)"><path d="M11 0 C27.72 -2.67, 50.68 -2.45, 75 0 M11 0 C34.44 0.24, 52.98 -0.92, 75 0 M75 0 C79.41 -2.37, 82.79 7.41, 86 11 M75 0 C80.59 -2.26, 89.94 4.11, 86 11 M86 11 C88.06 19.46, 89.99 25.95, 86 33 M86 11 C84.39 16.8, 86.92 20.23, 86 33 M86 33 C86.15 40.37, 83.24 44.7, 75 44 M86 33 C82.26 43.36, 86.35 39.76, 75 44 M75 44 C53.85 44.34, 24.16 46.74, 11 44 M75 44 C59.68 43.74, 48.77 43.97, 11 44 M11 44 C7.41 44.75, -1.42 41.47, 0 33 M11 44 C3.06 42.2, 2.27 40.88, 0 33 M0 33 C2.11 23.03, -1.23 18.24, 0 11 M0 33 C1.08 28.91, -0.66 23.95, 0 11 M0 11 C2.65 5.87, 1.23 2.7, 11 0 M0 11 C-3.35 -0.35, 1.11 -0.45, 11 0" stroke="#1e1e1e" stroke-width="1" fill="none"></path></g><g transform="translate(536.5857325962612 755.5) rotate(0 21.699981689453125 12.5)"><text x="21.699981689453125" y="0" font-family="Virgil, Segoe UI Emoji" font-size="20px" fill="#1e1e1e" text-anchor="middle" style="white-space: pre;" direction="ltr" dominant-baseline="text-before-edge">ROM</text></g><g stroke-linecap="round" transform="translate(467.8843642374984 747) rotate(0 16.079942140790763 22.04508196721315)"><path d="M8.04 0 C11.38 1.75, 13.38 0.95, 24.12 0 M8.04 0 C12.79 1.86, 14.76 1.58, 24.12 0 M24.12 0 C31.75 3.58, 33.23 6.43, 32.16 8.04 M24.12 0 C27.53 -2.77, 31.58 5.52, 32.16 8.04 M32.16 8.04 C29.59 16.05, 31.16 26.64, 32.16 36.05 M32.16 8.04 C31.1 13.65, 34.47 17.78, 32.16 36.05 M32.16 36.05 C32.49 44.73, 26.1 43.31, 24.12 44.09 M32.16 36.05 C35.11 44.91, 33.7 40.99, 24.12 44.09 M24.12 44.09 C18.27 45.81, 15.18 46.78, 8.04 44.09 M24.12 44.09 C19.14 44.09, 12.32 43.36, 8.04 44.09 M8.04 44.09 C0.5 47.41, -1.97 39.93, 0 36.05 M8.04 44.09 C4.31 46.34, 3.18 41.39, 0 36.05 M0 36.05 C2.32 29.01, -1.42 14.45, 0 8.04 M0 36.05 C1.19 28.84, 0.38 21.43, 0 8.04 M0 8.04 C0 -0.5, 3.66 -3.42, 8.04 0 M0 8.04 C-1.42 4.03, 5.71 -0.51, 8.04 0" stroke="#1e1e1e" stroke-width="1" fill="none"></path></g><g transform="translate(478.4961438416681 765.0222567907144) rotate(0 5.468162536621094 4.022825176498742)"><text x="5.468162536621094" y="0" font-family="Virgil, Segoe UI Emoji" font-size="6.436520282397996px" fill="#1e1e1e" text-anchor="middle" style="white-space: pre;" direction="ltr" dominant-baseline="text-before-edge">mcu</text></g><g stroke-linecap="round"><g transform="translate(499.0068328970933 758.4115718418516) rotate(0 7.521263259402133 0)"><path d="M0 0 C2.51 0, 12.54 0, 15.04 0 M0 0 C2.51 0, 12.54 0, 15.04 0" stroke="#1e1e1e" stroke-width="1" fill="none"></path></g></g><mask></mask><g stroke-linecap="round"><g transform="translate(501.0816641410664 765.673481195757) rotate(0 6.743201542912232 0)"><path d="M0 0 C2.25 0, 11.24 0, 13.49 0 M0 0 C2.25 0, 11.24 0, 13.49 0" stroke="#1e1e1e" stroke-width="1" fill="none"></path></g></g><mask></mask><g stroke-linecap="round"><g transform="translate(498.4881250861 772.4166827386692) rotate(0 8.039971070395382 0.2593539054966243)"><path d="M0 0 C2.68 0.09, 13.4 0.43, 16.08 0.52 M0 0 C2.68 0.09, 13.4 0.43, 16.08 0.52" stroke="#1e1e1e" stroke-width="1" fill="none"></path></g></g><mask></mask><g stroke-linecap="round"><g transform="translate(497.9694172751068 779.1598842815815) rotate(0 8.039971070395382 0.2593539054966243)"><path d="M0 0 C2.68 0.09, 13.4 0.43, 16.08 0.52 M0 0 C2.68 0.09, 13.4 0.43, 16.08 0.52" stroke="#1e1e1e" stroke-width="1" fill="none"></path></g></g><mask></mask><g stroke-linecap="round"><g transform="translate(452.3231299077007 758.1522179363549) rotate(0 7.521263259402133 0)"><path d="M0 0 C2.51 0, 12.54 0, 15.04 0 M0 0 C2.51 0, 12.54 0, 15.04 0" stroke="#1e1e1e" stroke-width="1" fill="none"></path></g></g><mask></mask><g stroke-linecap="round"><g transform="translate(454.3979611516738 765.4141272902605) rotate(0 6.743201542912232 0)"><path d="M0 0 C2.25 0, 11.24 0, 13.49 0 M0 0 C2.25 0, 11.24 0, 13.49 0" stroke="#1e1e1e" stroke-width="1" fill="none"></path></g></g><mask></mask><g stroke-linecap="round"><g transform="translate(451.8044220967075 772.1573288331726) rotate(0 8.039971070395382 0.2593539054966243)"><path d="M0 0 C2.68 0.09, 13.4 0.43, 16.08 0.52 M0 0 C2.68 0.09, 13.4 0.43, 16.08 0.52" stroke="#1e1e1e" stroke-width="1" fill="none"></path></g></g><mask></mask><g stroke-linecap="round"><g transform="translate(451.28571428571433 778.9005303760848) rotate(0 8.039971070395382 0.2593539054966243)"><path d="M0 0 C2.68 0.09, 13.4 0.43, 16.08 0.52 M0 0 C2.68 0.09, 13.4 0.43, 16.08 0.52" stroke="#1e1e1e" stroke-width="1" fill="none"></path></g></g><mask></mask><g stroke-linecap="round" transform="translate(434.28571428571433 807) rotate(0 81 83.5)"><path d="M14 32.49 C19.51 23.48, 31.46 17.66, 41.05 12.57 C50.65 7.48, 60.94 3.22, 71.57 1.95 C82.19 0.68, 93.8 1.38, 104.79 4.94 C115.79 8.5, 128.87 15.67, 137.53 23.3 C146.18 30.93, 152.31 40.64, 156.71 50.71 C161.11 60.77, 164.11 72.66, 163.94 83.68 C163.76 94.7, 160.48 106.4, 155.66 116.8 C150.84 127.21, 143.09 138.16, 135.03 146.1 C126.96 154.04, 117.98 161.33, 107.25 164.44 C96.53 167.55, 81.97 166.34, 70.68 164.74 C59.4 163.14, 48.89 160.3, 39.52 154.85 C30.15 149.39, 20.82 141, 14.46 132.01 C8.09 123.03, 3.4 112.37, 1.33 100.94 C-0.74 89.51, -5.04 78.86, 2.03 63.46 C9.09 48.05, 31.66 18.8, 43.72 8.51 C55.78 -1.78, 74.09 0.09, 74.4 1.74 M49.43 4.31 C58.41 -1.74, 71.14 -3.83, 82.26 -2.78 C93.38 -1.73, 105.81 4.79, 116.15 10.63 C126.49 16.46, 137.56 23.51, 144.3 32.22 C151.04 40.93, 153.65 51.79, 156.56 62.86 C159.48 73.93, 162.91 87.25, 161.8 98.65 C160.69 110.05, 155.96 121.96, 149.9 131.27 C143.83 140.57, 134.93 148.94, 125.4 154.49 C115.88 160.03, 103.8 162.57, 92.75 164.55 C81.69 166.53, 69.38 168.9, 59.07 166.36 C48.76 163.83, 38.96 156.6, 30.87 149.32 C22.79 142.03, 15.86 132.46, 10.58 122.66 C5.29 112.86, 0.07 101.55, -0.85 90.51 C-1.76 79.48, 1 66.87, 5.08 56.45 C9.16 46.03, 15.71 36.91, 23.62 28 C31.53 19.09, 47.87 6.75, 52.52 3 C57.17 -0.75, 51.45 4.19, 51.52 5.52" stroke="none" stroke-width="0" fill="#ffffff"></path><path d="M15.64 29.83 C20.97 20.93, 33.2 15.85, 43.02 10.67 C52.85 5.5, 63.83 -0.23, 74.58 -1.22 C85.34 -2.22, 97.36 0.27, 107.56 4.73 C117.76 9.2, 127.99 17.81, 135.79 25.57 C143.59 33.32, 150.31 40.91, 154.36 51.26 C158.4 61.62, 159.85 76.26, 160.04 87.7 C160.24 99.14, 160 109.95, 155.52 119.89 C151.04 129.84, 142.01 140.09, 133.14 147.38 C124.28 154.67, 113.09 160.33, 102.32 163.63 C91.55 166.92, 79.57 169.02, 68.52 167.18 C57.46 165.33, 45.01 158.97, 35.98 152.55 C26.96 146.13, 20.13 137.94, 14.37 128.65 C8.61 119.36, 3.51 107.51, 1.43 96.8 C-0.65 86.08, -2.19 76.82, 1.89 64.36 C5.97 51.9, 20.37 29.73, 25.93 22.01 C31.49 14.29, 34.62 16.62, 35.24 18.06 M145.07 29.12 C152.65 36.48, 157.38 47.13, 160.45 58.54 C163.51 69.95, 165.42 86.27, 163.47 97.6 C161.53 108.93, 154.62 117.5, 148.8 126.55 C142.98 135.59, 137.76 145.51, 128.55 151.88 C119.33 158.24, 104.27 162.54, 93.53 164.75 C82.78 166.97, 74.22 167.66, 64.1 165.16 C53.98 162.67, 42 156.75, 32.81 149.78 C23.61 142.8, 13.87 133.02, 8.92 123.32 C3.97 113.61, 3.54 103.12, 3.11 91.55 C2.69 79.99, 3.01 64.85, 6.36 53.93 C9.71 43.01, 15.69 33.7, 23.23 26.04 C30.77 18.38, 41.02 12.16, 51.61 7.97 C62.2 3.79, 76.4 1.25, 86.77 0.94 C97.13 0.62, 104.57 1.28, 113.79 6.08 C123.01 10.89, 137.89 25.84, 142.1 29.77 C146.31 33.69, 139.92 29.12, 139.06 29.62" stroke="#1e1e1e" stroke-width="1" fill="none"></path></g><g stroke-linecap="round" transform="translate(402.28571428571433 756) rotate(0 21.102409638554207 46.5)"><path d="M0 0 C0 0, 0 0, 0 0 M0 0 C0 0, 0 0, 0 0 M-0.71 7.99 C0.65 3.55, 2.9 2.9, 4.52 -0.39 M-0.49 6.36 C0.75 4.77, 2.93 2.99, 5.28 0.3 M-2.19 12.77 C5.08 9.44, 7.27 8.41, 8.5 -2.99 M-0.72 12.75 C3.24 8.29, 6.37 5.51, 10.02 -1.33 M3.03 21.67 C7.19 13.2, 7.32 5.94, 14.62 -0.8 M-0.53 19.56 C4.48 14.57, 5.22 10.78, 15.46 1.04 M1.28 22.77 C7.1 12.41, 16.05 9.62, 22.13 0.83 M-0.71 25.63 C6.46 18.36, 10.14 14.03, 21.92 -1.98 M-1.72 27.31 C9.66 24.44, 13.94 14.5, 27.63 -2.25 M-0.44 31.15 C6.43 22.43, 13.88 13.63, 27.91 0.48 M-2.33 34.01 C8.74 20.62, 25.14 12.84, 28.01 -0.29 M0.13 37.34 C9.42 24.77, 21.13 12.83, 32.72 0.91 M2.27 39.85 C7.03 31.77, 16.99 23.95, 34.45 3.99 M1.83 42.73 C8.5 32.31, 20.22 18.97, 35.1 1.03 M-0.18 50.53 C12.16 34.37, 32.22 15.47, 41.39 -2.44 M0.65 47.3 C11.45 40.63, 17.89 29.18, 42.7 -0.4 M3.31 51.46 C12.11 39.25, 28.54 23.09, 43.81 9.45 M0.44 53.12 C11.64 42.77, 25.92 28.18, 41.62 6.4 M1.54 62.06 C15.65 41.88, 29.55 30.08, 45.3 15.53 M-0.21 60.19 C12.67 45.29, 24.81 31.79, 40.95 12.69 M-0.6 66.69 C9.29 52.16, 27.05 41.69, 44.07 15.23 M0.74 67.1 C9.6 57.02, 20.72 44.48, 43.12 17.46 M3.7 73.21 C12.84 56.18, 23.08 41.5, 40.07 27.95 M-1.05 71.13 C15.37 57.87, 28.79 39.58, 43.34 25.55 M0.91 75.46 C16.13 61.2, 32.52 43.52, 43.22 32.05 M1.85 80.38 C13.3 66.81, 21.63 51.68, 42.31 32.23 M-2.47 88.23 C12.71 69.86, 25.52 55.4, 39.98 35.13 M1.34 86.41 C12.8 70.04, 24.5 58.69, 41.08 35.09 M2.59 89.57 C12.72 81.87, 17.1 70.95, 41.69 45.01 M0.72 92.11 C10.98 80.26, 21.4 65.92, 41.8 42.7 M-0.09 91.2 C19.79 82.25, 32.01 65.5, 46.32 48.23 M3.28 91.77 C13.24 84.47, 21.71 73.3, 41.85 50.65 M10.77 89.89 C20.67 82.11, 25.82 75.2, 40.29 52.59 M7.32 92.05 C19.87 81.08, 28.54 70.83, 44.01 53.78 M10.77 97.08 C26 82.66, 35.38 69.46, 38.77 58.06 M15.52 91.33 C23.23 85.19, 28.34 77.39, 41.15 62.73 M19.05 94.25 C28.76 80.75, 38.48 69.94, 44.21 71.15 M20.33 92.54 C27.88 83.36, 33.35 73.71, 43.16 67.86 M24.6 94.04 C26.36 89.08, 33.99 83.41, 38.7 75.8 M22.84 94.04 C30.42 88.51, 34.68 80.08, 41.62 71.82 M28.13 94.79 C35.23 91.4, 41.09 82.83, 41.74 76.11 M30.8 93.78 C31.81 90.84, 35.73 86.98, 43.89 77.81 M35.2 92.5 C38.45 90.94, 39.11 88.44, 40.89 83.64 M33.88 93.67 C36.99 92.39, 39.1 88.44, 42.99 85.46 M40.87 93.52 C40.85 93.36, 41.71 92.64, 42.66 91.08 M40.44 93.77 C41.02 93.14, 41.59 92.79, 42.3 91.31" stroke="#b2f2bb" stroke-width="0.5" fill="none"></path><path d="M-1.4 -2.19 C12.71 -4.25, 25.28 -3.88, 42.89 -1.37 M0.49 -0.35 C9.32 1.69, 18.44 -0.03, 42.76 0.39 M44.78 -1.04 C40.06 22.52, 45.98 43.5, 41.62 91.51 M43.5 0.12 C41.55 21.41, 43.07 39.22, 41.11 92.65 M44.28 92.66 C29.71 89.99, 20.37 97.64, -0.87 95.07 M42.61 93.49 C27.31 92.94, 11.88 94.65, -0.59 91.01 M-2.17 94.86 C-2.32 61.64, 2.16 33.06, -2.15 -0.39 M-1.2 93.53 C0.2 60.9, -2.27 31.05, -1.68 -1.86" stroke="#1e1e1e" stroke-width="1" fill="none"></path></g><g transform="translate(408.83947890473735 793.1626506024097) rotate(0 14.54864501953125 9.337349397590373)"><text x="14.54864501953125" y="0" font-family="Virgil, Segoe UI Emoji" font-size="7.46987951807229px" fill="#1e1e1e" text-anchor="middle" style="white-space: pre;" direction="ltr" dominant-baseline="text-before-edge">board </text><text x="14.54864501953125" y="9.337349397590362" font-family="Virgil, Segoe UI Emoji" font-size="7.46987951807229px" fill="#1e1e1e" text-anchor="middle" style="white-space: pre;" direction="ltr" dominant-baseline="text-before-edge">circuitry</text></g><g stroke-linecap="round"><g transform="translate(459.1256808522104 806.4715952502705) rotate(313.2207372087812 -4.50282357173927 58.161471134965836)"><path d="M0.69 0.02 C-1.83 2.26, -16.59 -5.68, -15.22 13.34 C-13.85 32.36, 4.58 96.69, 8.93 114.15 M-2.38 -2.44 C-5.08 -1.02, -18 -10.71, -16.35 9.05 C-14.71 28.8, 4.06 98.75, 7.49 116.08" stroke="#1e1e1e" stroke-width="1" fill="none"></path></g></g><mask></mask><g stroke-linecap="round"><g transform="translate(458.40837410539336 799.2982695962971) rotate(313.2207372087812 3.0018823811595325 57.7862358373209)"><path d="M1.92 2.48 C2.71 21.32, 6.28 93.57, 6.63 112.8 M-0.48 1.35 C-0.17 20.45, 3.03 96.22, 4.74 114.93" stroke="#1e1e1e" stroke-width="1" fill="none"></path></g></g><mask></mask><g stroke-linecap="round" transform="translate(359.28571428571433 677) rotate(0 143.5 160)"><path d="M1.88 1.66 C95.23 3.32, 188.05 4.24, 285.82 2.3 M-1.16 -0.73 C69.42 3.2, 139.8 3.4, 288.1 -1.31 M286.12 -0.13 C281.51 120.18, 282.58 247.55, 288.71 322.28 M285.9 -1.27 C285.32 70.49, 283.89 142.74, 287.06 320.91 M287.98 317.49 C213.9 321.33, 135.12 324.69, 1.17 320.75 M287.65 321.11 C201.19 316.68, 119.23 317.42, 1.2 318.75 M-2.46 319.05 C-0.74 222.43, -1.36 122.05, 1.68 -0.37 M0.12 320.32 C-0.79 200.7, 0.92 79.55, 0.12 -0.45" stroke="#1e1e1e" stroke-width="1" fill="none"></path></g><g transform="translate(432.76579393659324 682) rotate(0 70.0199203491211 12.5)"><text x="70.0199203491211" y="0" font-family="Virgil, Segoe UI Emoji" font-size="20px" fill="#1e1e1e" text-anchor="middle" style="white-space: pre;" direction="ltr" dominant-baseline="text-before-edge">The Hard-Disk</text></g><g stroke-linecap="round" transform="translate(342.28571428571433 131) rotate(0 154.5 25.5)"><path d="M1.65 2.53 C86.76 -0.63, 168.98 -2.29, 308.99 -0.73 M1.06 0.26 C102.41 1.13, 205.87 0.39, 308.9 -0.01 M308.67 0.01 C307.83 11.54, 306.23 34.27, 312.02 54.93 M308.87 -1.19 C309.08 17.21, 308.03 37.8, 308.1 51.15 M310.22 53.59 C211.07 54.81, 110.45 51.88, 2.54 48.51 M308.72 50.87 C237.03 52.86, 164 51.85, 0.34 51.92 M2.1 48.07 C-0.22 33, 2.2 21.63, 2.02 2.36 M-1.21 52.17 C-1.02 30.34, -0.32 11.06, 0.63 0.77" stroke="#1e1e1e" stroke-width="1" fill="none"></path></g><g transform="translate(397.7258159092495 144) rotate(0 99.05989837646484 12.5)"><text x="99.05989837646484" y="0" font-family="Virgil, Segoe UI Emoji" font-size="20px" fill="#1e1e1e" text-anchor="middle" style="white-space: pre;" direction="ltr" dominant-baseline="text-before-edge">An App (eg Browser)</text></g><g stroke-linecap="round" transform="translate(344.5000000000001 202.64285714285717) rotate(0 154 104.71428571428574)"><path d="M0 0 C0 0, 0 0, 0 0 M0 0 C0 0, 0 0, 0 0 M-1.07 6.09 C2.5 3.15, 2.52 2.34, 3.62 1.51 M0.44 6.35 C1.86 4.28, 2.06 3.48, 5.67 0.79 M-0.93 12.43 C5.59 6.39, 8.73 1.78, 11.11 1.99 M-0.99 11.96 C5.06 6.44, 6.48 1.84, 9.65 0.12 M-4.09 16.78 C2.43 9.37, 9.14 8.67, 12.5 -1.64 M1.11 18.81 C4.91 12.19, 12.75 4.18, 16.81 1.78 M3.34 20.15 C8.08 18.99, 11.78 8.6, 21.79 2.85 M1.78 25.83 C4.76 16.17, 12.5 11.65, 20.05 -1.95 M-2.59 28.11 C11.71 18.9, 18.24 4.55, 27.25 2.02 M1.49 31.03 C10.96 19.99, 21.48 5.78, 27.05 0.66 M-3.18 36.89 C6.54 28.81, 14.51 12.59, 29.8 -1.9 M1.34 36.16 C8.36 26.62, 16.98 15.24, 31.8 1.14 M0.4 43.91 C16.2 25.16, 28.26 11.8, 33.66 -0.18 M0.9 42.74 C11.31 28.93, 25.21 10.82, 37.31 -1.29 M-3.08 50.36 C12.89 28.59, 30.42 13.26, 39.3 0.65 M0.38 48.29 C15.18 31.78, 29.22 15.42, 40.95 0.15 M-2.58 56.1 C7.92 41.03, 21.2 30.72, 49.98 1.01 M1.38 54.88 C14.36 35.69, 27.92 20.1, 49.32 -0.28 M1.71 58.04 C15.69 41.99, 37.58 22.48, 56.72 2.55 M1.71 61.04 C16.48 36.92, 37.95 15.91, 51.63 -1.03 M-1.27 68.99 C18.25 51.87, 32.48 25.29, 60.81 -1.57 M0.15 66.36 C16.04 49.28, 29.47 34.11, 58.59 -1.31 M0.3 72.29 C16.97 47.57, 37.03 28.76, 66.83 -0.51 M-1.41 71.64 C13.44 58.62, 25.89 44.56, 63.76 -1.31 M2.94 80.25 C14.41 61.78, 25.64 47.36, 65.13 0.58 M0.19 79 C15.13 58.99, 35.39 38.05, 70.46 1.79 M4.17 81.11 C21.99 61.91, 45.92 37.58, 72.83 -1.25 M2.11 84.52 C24.36 53.28, 51.43 24.96, 73.1 1.58 M1.06 93.41 C21.56 62.4, 40.8 39.8, 76.31 -0.44 M-1.64 90.08 C23.85 61.95, 47.75 30.92, 80.08 -1.6 M-1.47 96.86 C21.71 69.72, 47.64 41.92, 88.24 3.27 M0.53 96.05 C30.23 60.96, 61.41 26.51, 83.18 -0.89 M3.15 106.92 C23.25 81.5, 39.11 56.09, 90.07 3.13 M-0.05 105.32 C17.78 84.47, 38.97 64.14, 88.41 1.06 M0.92 113.27 C31.19 70.65, 61.03 38.5, 96.99 3.59 M1.85 111.52 C21.68 84.06, 46.98 59.74, 97.4 -0.09 M-2.39 114.81 C37.35 71.13, 76.35 23.49, 100.51 2.62 M2.08 115.6 C37.99 71.1, 79.07 22.56, 102.24 1.52 M1.28 117.94 C26.72 98.15, 40.83 70.32, 109.38 1.89 M1.95 121.69 C28.83 90.37, 58.17 55.57, 106.91 -2.18 M-1.41 131.52 C33.34 90.71, 65.26 49.41, 108.14 -2.96 M1.02 129.77 C22.29 100.09, 46.03 73.5, 110.13 -1.29 M-3.39 137.38 C34.57 96.89, 71.95 58.4, 113.42 -3.29 M-0.82 135.73 C45.59 83.46, 88.35 34.92, 118.07 0.63 M0.57 140.84 C29.68 105.96, 60.64 68.66, 119.79 1 M-1.16 139.59 C31.35 105.69, 62.92 71.43, 122.5 -1.26 M-1.74 149.68 C53.43 90.68, 99.05 36.66, 125.46 3.98 M1.66 146.01 C44.94 93.48, 90.54 38.15, 126.98 -0.97 M-1.39 148.85 C50.96 97.25, 100.75 37.98, 132.69 -2.95 M-0.51 152.29 C44.5 100.22, 88.91 50.23, 131.66 -0.98 M-0.65 157.51 C36.86 119.67, 70.98 79.75, 138.19 -2.17 M-1.16 157.06 C35.23 119.14, 69.69 79.39, 135.84 -0.7 M-1.61 163.08 C47.76 113.45, 87.9 62.32, 142.58 -1.69 M-0.72 163.6 C26.73 128.38, 58.93 94.29, 143.3 -0.25 M0.98 168.6 C37.81 129.51, 76.98 83.14, 147.73 1.7 M-0.49 169.63 C57.25 104.12, 110.94 41.98, 146.66 -0.27 M-0.03 179.71 C35.19 137.37, 66.23 101.13, 151.55 2.13 M1.9 177.78 C59.75 108.13, 120.66 36.26, 153.65 0.7 M1.38 183.85 C54.59 123.23, 108.11 65.22, 159.6 -1.96 M0.63 182.56 C45.77 129.03, 87.95 81.28, 157.79 0.21 M-1.83 186.05 C47.39 141.14, 94.95 83.38, 166.51 -0.65 M-0.13 190.43 C52.96 128.49, 105.89 65.29, 164.19 0.92 M-1.85 196.95 C42.26 141.85, 84.53 95.39, 167.61 0.36 M1.67 193.48 C36.37 153.84, 74.33 109.52, 170.86 1.51 M-1.45 203.26 C46.34 153.27, 85.36 102.74, 173.25 0.67 M1.06 202.79 C56.89 138.88, 110.28 78.76, 174.46 -1.05 M0.37 208.26 C57.96 132.76, 120.08 63.71, 180.6 -1.6 M0.49 205.94 C45.41 153.57, 94.63 98.39, 180.92 -0.99 M1.82 209.7 C53.83 152.84, 109.61 89.62, 188.7 -3.2 M3.19 210.56 C48.21 158.6, 96.46 104.66, 185.46 -1.02 M9.32 210.3 C67.89 144.23, 124.22 71.04, 190.04 -2.08 M6.1 211.86 C77.93 130.83, 145.91 48.81, 189.48 1.61 M9.78 212.48 C74.56 146.26, 134.12 73.82, 196.83 -2.97 M12.48 210.52 C84.01 129.5, 154.96 52.08, 196.46 1.22 M16.31 211.77 C73.97 142.58, 127.83 76.9, 201.91 1 M16.46 210.22 C76.23 139.87, 138.32 71.93, 200.73 0.41 M23.26 213.91 C86.23 139.96, 145.68 65.99, 205.26 -2.04 M22.84 211.51 C84.34 138.2, 145.45 67.34, 208.17 -0.74 M28.43 210.38 C65.05 167.74, 108.89 122.98, 211.64 0.31 M29.67 210.04 C73.61 164.86, 116.77 115.14, 212.6 -0.2 M35.02 209.35 C102.09 131.63, 171.95 48.04, 220.31 2.08 M33.57 210.42 C83.87 156.16, 131.72 101.41, 216.52 -1.68 M37.03 211.28 C97.74 144.2, 155.9 76.01, 222.63 -2.57 M39.94 212.15 C104.01 134.79, 171.93 58.07, 222.86 -1.05 M45.75 209.17 C91.24 155.17, 136.58 100.4, 228.63 -0.68 M43.78 211.2 C100.75 143.34, 158.08 79.65, 228.06 -0.08 M50.62 213.22 C111.16 143.33, 167.82 75.37, 233.93 2.84 M49.03 210.58 C115.57 133.24, 180.27 59.54, 232.25 0.98 M58 208.15 C94.07 170.11, 133.68 122.56, 239.52 -1.53 M55.54 209.51 C118.09 138.07, 178.72 67.28, 237.79 -0.42 M58.09 208.53 C115.39 147.56, 170.97 85.82, 246.46 -0.87 M60.05 211.03 C133.75 127.38, 206.01 45.34, 244.38 0.72 M63.81 209.96 C136.75 129.52, 208.01 51.79, 250.74 -0.36 M64.61 211.13 C109.66 160.19, 154.73 108.42, 250.2 -0.85 M71.58 213.77 C125.84 148.13, 186.12 79.93, 256.8 2.35 M71.41 212.45 C113.15 159.82, 159.98 105.19, 253.56 0.08 M75.53 208.8 C109.73 165.51, 147.55 120.49, 256.82 -1.22 M75.85 210.45 C144.1 133.57, 211.67 56.71, 260.01 -0.96 M83.6 208.42 C118.7 161.9, 165.49 109.24, 263.35 0.65 M82.89 210.08 C117.39 164.99, 157.19 119.29, 266.2 -1.22 M88.85 207.76 C128.24 162.91, 174.07 117.74, 270.12 3.08 M87.81 212 C150.38 139.32, 213.92 68.06, 270.1 1.36 M91.56 208.48 C148.95 146.4, 208.84 86.55, 278.6 -2.77 M92.57 210.82 C159.58 130.96, 225.57 49.32, 276.31 0.53 M95.18 212.76 C145.72 156.44, 196.19 98.03, 283.34 1.01 M98.89 212.01 C145.84 156.22, 190.61 106.97, 281.7 1.44 M103.88 211.25 C170.37 135.66, 236.44 60.02, 286.2 -1.94 M103.03 211.73 C165.92 137.14, 229.8 64.43, 286.94 0.73 M105.51 208.63 C144.64 172.49, 183.67 128.3, 294.06 -0.82 M106.71 211.44 C141.28 165.99, 179.93 123.6, 291.28 0.14 M115.46 213.75 C161.16 158.27, 206.61 102, 296.16 -0.35 M112.08 212.33 C178.13 139.36, 239.04 65.92, 297.95 -1.2 M116.2 211.47 C168.88 152.42, 223.55 95.82, 304.77 -2.22 M116.84 212.97 C156.87 164.33, 195.67 119.88, 302.84 0.76 M126.1 212.72 C188.15 135.63, 259.42 55.86, 308.03 1.27 M125.05 211.52 C177.88 150.73, 231.97 89.26, 309.05 1.16 M129.59 211.72 C196.2 134.56, 258.28 59.67, 308.58 5.1 M129.69 210.18 C191.32 137.99, 251.53 68.81, 310.58 2.1 M134.34 210.72 C199.01 134.92, 261.23 63.62, 309.14 7.85 M133.3 210.61 C192.87 145.08, 246.34 82.97, 308.81 8.89 M138.19 214.21 C179.11 167.69, 218.38 122.09, 311.25 16.06 M140.02 212.2 C188.39 157.2, 235.04 104.63, 311.71 13.76 M143.53 210.01 C209.14 134.92, 273.92 58.59, 307.89 18.11 M145.05 210.31 C189.67 160, 233.28 109.07, 311.28 21.15 M148.7 214.05 C214.36 138.34, 276.81 69.32, 314.03 26.12 M151.73 210.42 C186.47 171.52, 219.3 133.29, 310.49 27.48 M156.18 212.91 C200.63 160.3, 245.75 104.99, 312.42 30.71 M154.25 210.78 C219.6 138.51, 280.86 67.81, 312.09 31.68 M163.93 208.78 C214.13 152.88, 272 86.69, 313.49 41.7 M162.25 209.75 C218.42 149.2, 273 84.7, 309.85 38.32 M166.75 207.83 C201.93 173.78, 231.85 141.99, 310.24 43.77 M166.04 211.5 C206.81 167.86, 245.23 123.8, 310.09 44.78 M167.98 212.89 C204.66 173.22, 233.59 138.01, 313.39 53.28 M171.98 209.78 C207.32 171.53, 240.98 129.62, 309.7 51.65 M174.69 209.98 C229.96 156.46, 276.97 99.73, 310.79 58.36 M177.12 211.12 C209.44 172.09, 244.02 136.55, 310.98 55.62 M181.3 209.62 C225.26 158.51, 262.19 107.03, 306.79 67.07 M181.18 211.1 C234.17 153.13, 284.87 93.13, 309.34 64.5 M185.05 214.32 C220.74 169.55, 251.73 136.03, 311.61 72.67 M189.22 211.13 C217.69 179.68, 245.79 147.21, 309.23 67.84 M192.02 214.16 C232.07 170.23, 262.13 132.15, 308.9 72.3 M194.1 211.81 C220.33 181.94, 247.49 149.88, 310.89 75.19 M195.09 213.81 C238.18 166.25, 274.24 129.07, 314.03 84.93 M197.92 212.38 C227.27 175.52, 259.11 140.83, 312.31 81.1 M204.2 214.66 C228.79 182.14, 254.95 143.45, 310.36 90.47 M202.88 210.68 C224.25 183.72, 244.97 157.93, 309.96 85.56 M207.27 209.07 C232.98 184.08, 259.5 149.32, 311.8 92.1 M208.68 210.96 C228.39 184.01, 250.45 160.53, 309.69 93.9 M216.76 210.66 C237.09 182.42, 260.59 163.58, 307.11 103.2 M215.38 211.85 C239.36 180.31, 262.21 152.93, 311.43 101.37 M222.68 208.48 C258.35 174.31, 293.85 126.71, 309.71 101.87 M220.78 210.12 C239.33 183.97, 260.43 159.27, 311.32 105.31 M223.01 213.34 C251.08 182.75, 274.9 146.07, 311.45 113.46 M223.29 212.65 C257.07 174.1, 292.62 135.23, 311.93 113.27 M232.15 212.77 C256.48 190.73, 277.33 164.91, 306.94 117.52 M230.65 213.02 C252.99 185.25, 275.29 158.1, 310.92 119.61 M234.62 213.5 C256.22 184.17, 284.82 150.4, 308.07 126.12 M234.09 211.62 C255.65 191.16, 268.89 172.35, 311.96 125.39 M242.86 212.03 C255.74 197.34, 266.77 179.95, 312.37 130.75 M238.5 211.79 C256.34 189.69, 272.19 169.37, 309.41 131.01 M249.61 213.56 C268.31 185.23, 291.11 157.86, 312.72 136.92 M247.1 212.45 C261.69 192.38, 280.72 167.24, 310.49 136.3 M250.38 214.27 C273.66 186.15, 287.38 164.41, 307.23 142.59 M252.38 211.98 C273.03 184.96, 297.54 158.7, 309.45 144.66 M260.43 211.57 C274.23 190.82, 291.92 171.28, 307.5 149.21 M257.43 212.06 C276.79 190.83, 293.21 167.93, 312.28 147.71 M265.31 210.35 C281.6 195.71, 296.74 174.66, 313.16 151.97 M262.83 209.58 C279.28 190.55, 297.13 171.23, 311.58 153.14 M269.86 209.21 C284.14 192.4, 301.31 170.7, 312.22 158.75 M268.02 212.51 C274.74 200.47, 285.92 191.24, 311.28 161.33 M272.65 214.74 C284.44 197.03, 293.87 187.44, 306.84 168.68 M270.18 211.77 C284.13 196.31, 297.26 185.09, 312.79 165.48 M275.06 211.76 C287.54 205.17, 296.22 194.28, 307.08 174.62 M277.6 209.09 C292.47 198.04, 301.22 180.65, 309.18 171.75 M279.74 209.57 C286.85 206.93, 293.54 193.95, 307.3 182.15 M284.57 212.91 C292.26 198.16, 305.14 188.51, 309.88 179.88 M291.6 212.17 C299.45 204.88, 307.9 192.16, 308.63 183.83 M288.73 210.25 C295.95 199.94, 306.41 189.68, 311.55 187.04 M292.32 208.57 C299.89 204.95, 309.09 196.48, 311.32 194.19 M293.97 210.57 C298.78 203.84, 302.52 199.52, 310.82 192.49 M297.54 207.36 C299.96 205.56, 306.87 198.94, 308.72 196.34 M299.7 209.77 C300.83 207.25, 305.13 202.25, 310.45 197.64 M305.24 210.17 C305.01 210.3, 306.8 207.75, 311.26 201.83 M304.07 210.36 C306.1 209.04, 306.84 206.58, 309.94 203.05" stroke="#eebefa" stroke-width="0.5" fill="none"></path><path d="M-1.24 -0.62 C105.83 -1.9, 214.04 1.21, 305.79 -2.42 M0.91 -0.31 C67.49 -0.02, 135.59 0.51, 309.26 -0.37 M308.73 -0.87 C306.69 69.71, 303.18 132.44, 306.8 209.32 M309.03 -0.68 C311.93 50.44, 312.07 103.49, 307.21 209.96 M310.44 207.36 C190.3 205.75, 77.22 205.11, -1.4 207.09 M307.96 208.52 C193.63 209.52, 78.92 209.5, 0.25 209.36 M-1.63 208.94 C-0.63 157.75, 2.4 104.68, 3.22 2.32 M-1.69 209.98 C3.53 154.89, 2.14 101.69, -0.25 0.24" stroke="#1e1e1e" stroke-width="1" fill="none"></path></g><g transform="translate(417.67008209228527 207.64285714285717) rotate(0 80.82991790771484 12.5)"><text x="80.82991790771484" y="0" font-family="Virgil, Segoe UI Emoji" font-size="20px" fill="#1e1e1e" text-anchor="middle" style="white-space: pre;" direction="ltr" dominant-baseline="text-before-edge">Kernel (eg Linux)</text></g><g stroke-linecap="round" transform="translate(356.8571428571429 345) rotate(0 140.5 22.071428571428584)"><path d="M0 0 C0 0, 0 0, 0 0 M0 0 C0 0, 0 0, 0 0 M-0.38 6.86 C2.03 3.44, 5.06 1.1, 5.62 0.56 M-0.41 5.9 C1.55 4.29, 2.53 1.84, 4.31 0.55 M2.06 10.25 C1.61 5.51, 9.69 3.21, 11.13 1.75 M0.98 11.18 C4.63 8.94, 6.65 4.6, 9.18 0.76 M2.79 20.97 C3.75 13.96, 2.47 14.19, 15.43 3.96 M0.86 16.71 C7.58 9.52, 12.01 4.91, 16.96 1.15 M-0.49 26.51 C9.53 16.58, 8.49 7.54, 22.22 -2.58 M-1.59 25.79 C5.27 19.56, 9.07 11.17, 19.78 -1.02 M3.6 33.25 C2.62 20.96, 12.5 17.95, 24.55 -2.98 M0.56 29.99 C8.68 19.91, 16.55 10.73, 24.93 1.49 M2.42 35.96 C12.85 18.86, 25.55 4.64, 34.73 -1.93 M-0.8 36.32 C8.13 31.41, 14.39 22.49, 30.76 -0.66 M-1.96 39.25 C10.15 34.19, 18.22 18.81, 39.4 2.57 M-0.71 41.4 C8.3 34.69, 14.99 22.02, 34.91 0.93 M0.18 44.67 C18.86 34.4, 24.75 14.2, 45.08 0.89 M1.41 46.84 C16.52 27.1, 32.01 10.04, 41.52 -1.5 M9.13 47.9 C22.35 32.03, 29.01 21.82, 49.11 -2.46 M6.3 44.86 C22.6 27.62, 39.05 11.85, 45.76 -1.68 M14.01 44.79 C31.58 28.25, 42.83 14.59, 53.2 0.97 M14.76 44.68 C26.62 32.22, 41.3 15.45, 53.03 -1.27 M20.35 47.33 C30.18 39.64, 36.86 26.06, 58.41 1.23 M16.85 44.9 C26.64 36.87, 37.64 24.06, 59.54 0.35 M20.27 45.16 C31.8 38.28, 42.68 21.85, 62.65 -0.2 M23.68 47.33 C39.58 28.53, 54.33 11.7, 63.44 0.13 M27.48 47.31 C36.28 33.71, 48.7 25.73, 71.66 3.3 M28.07 47.15 C41.47 32.24, 57.65 15.91, 69.48 1.52 M34.81 47.95 C46.87 33.18, 53.14 23.92, 72.58 -2.76 M35.66 47.02 C46.36 29.23, 60.95 19.19, 76.08 0.58 M41.18 44.18 C51.08 31.56, 64.62 15.91, 76.85 3.79 M37.54 47.25 C49.63 34.35, 60.3 24.16, 80.01 0.12 M41.12 49.71 C56.34 27.63, 69.59 19.61, 85.8 -0.48 M45.37 43.83 C52.7 35.44, 63.39 26.21, 83.47 -0.2 M51.76 48.68 C59.73 31.94, 69.81 18.95, 93.59 -2.86 M48.03 46.66 C63 31.12, 73.8 19.07, 90.75 -1.72 M53.67 50.11 C65.38 29.62, 79.66 18.1, 92.74 3.25 M54.04 46.36 C63.72 39.2, 73.08 26.29, 95.33 -0.68 M61.14 45.92 C73.15 37.7, 77.63 26, 101.11 -3.87 M59.5 44.66 C72.64 33, 83.18 18.91, 100.51 1.93 M64.49 48.94 C80.87 30.68, 94.46 12.78, 103.44 3.41 M64.01 44.79 C74.4 33.42, 84.5 25.88, 106.54 -1.53 M74.87 43.38 C86.21 31.89, 103.72 13.04, 110.28 -0.07 M73.11 46.34 C80.79 34.55, 94.26 18.65, 111.26 0.81 M79.3 42.62 C89.72 32.21, 95.79 26.28, 114.92 2.12 M74.89 47.38 C90.24 30.22, 108.49 11.65, 116.55 -0.85 M78.12 46.91 C94.29 38.56, 102.65 22.56, 123.59 2.08 M83.18 46.59 C92.9 34.46, 101.68 20.44, 120.21 0.47 M88.07 45.19 C100.61 29.45, 110.19 17.32, 129.79 -2.41 M86.1 45.41 C101.69 29.22, 114.84 14.18, 127.93 -1.17 M91.7 44.76 C112.44 26.66, 123.01 9.79, 135.13 -1.48 M93.23 46.13 C105.9 31.93, 117.21 20.77, 131.7 -1.71 M96.42 49.08 C107.01 33.97, 122.61 22.6, 136.32 -3.31 M96.24 46.02 C103.64 36.9, 114.93 27.48, 138.48 -0.98 M100.01 47.52 C116.22 29.37, 128.28 14.07, 146.66 3.53 M103.99 47.48 C113.77 31.88, 127.28 16.87, 141.3 -0.56 M109.59 49.09 C117.63 28.25, 131.88 16.33, 151.06 3.9 M107.14 48.13 C118.45 35.89, 129.4 22.75, 147.86 -1.68 M115.13 48.18 C123.01 35.61, 134.12 23.55, 151.53 1.78 M113.34 46.97 C129.33 28.54, 142.8 13.14, 155.74 0.92 M116.44 42.37 C134.01 29.96, 144.02 19.6, 162.18 -1.92 M119.78 46.49 C133.38 28.73, 145.39 15.95, 156.91 1.13 M120.71 46.11 C138.39 26.86, 154.81 8.79, 166.73 -3.68 M124.36 46.77 C133.25 35.1, 144.13 25.13, 164.95 -0.46 M129.45 44.49 C145.03 33.93, 150.76 14.7, 169.48 -3.55 M130.33 47.65 C143.62 30.7, 155.61 18.22, 167.63 1.65 M136.05 47.01 C145.74 32, 160.75 13.26, 176.87 0.56 M133.35 46.82 C147.21 33.59, 158.3 19.5, 174.05 -0.09 M136.74 49.35 C150.87 28.95, 161.54 12.4, 176.39 -1.36 M138.17 45.98 C150.8 34.19, 156.84 27.02, 179.25 -0.09 M144.09 47.02 C160.98 26.05, 173.28 11.59, 182.18 -1.69 M145.74 44.91 C155.76 31.45, 168.81 18.92, 187.35 -1.54 M150.04 45.25 C166.12 26.99, 182.53 7.85, 189.95 2.62 M149.84 47.66 C162.35 29.49, 177.27 14.95, 192.16 1.75 M155.37 48.61 C167.98 30.22, 184.08 16.9, 198.53 -0.27 M156.19 44.62 C173.14 29.36, 186.46 10.75, 196.33 -0.57 M164.71 46.86 C177.3 32.39, 190.23 15.1, 204.84 -3.26 M163.09 46.68 C170.27 34.44, 179.28 24.19, 199.94 -1.19 M167.4 45.39 C174 34.86, 186.71 25.15, 209.4 1.37 M167.88 48.1 C182.15 29.49, 192.49 17.01, 207.67 -1.11 M175.75 47.23 C185.3 32.64, 189.9 24.61, 211.35 -0.25 M170.85 44.86 C188.66 27.57, 201.01 11.23, 213.37 0.57 M175.3 43.08 C190.29 35.06, 196.75 15.72, 213.91 2.14 M175.15 45.06 C188.18 30.58, 199.66 16.52, 219.24 0.7 M185.75 49.77 C200.52 26.41, 218.68 12.83, 219.42 -3.26 M181.24 47.8 C194.05 32.16, 208.63 16.56, 224.41 -1.71 M183.84 48.05 C206.14 32.01, 218.48 7.21, 226.79 3.35 M187.54 45.28 C202.42 28.92, 216.92 11.77, 228.09 0.54 M196.96 44.28 C206.49 33.56, 221.19 16.75, 234.58 3.2 M193.55 44.94 C204.78 29.36, 219.72 17.39, 234.2 1.05 M202.07 48.28 C211.57 29.09, 226.91 9.55, 237.75 1.41 M196.46 47.59 C211.46 34.91, 221.59 20.38, 237.82 -1.35 M203.24 46.94 C211.62 36.28, 229.34 24.11, 242.01 0.99 M202.28 45.52 C217.58 29.5, 231.94 11.68, 245.09 -0.23 M210.65 46.12 C221.42 32.93, 241.12 7.56, 246.08 0.87 M210.48 44.64 C224.12 30.43, 235.71 13.84, 249.15 0.84 M214.07 44.28 C229.47 32.75, 238.53 18.31, 254.52 2.34 M213.11 46.6 C229.79 27.58, 245.13 8.55, 252.58 -0.85 M217.89 50.31 C229.98 32.04, 237.18 23.94, 256.74 2.89 M219.39 46.9 C231.33 32.01, 244.32 16.63, 260.05 -1.02 M222.57 49.23 C232.61 32.73, 249.57 20.81, 264.52 1.86 M226.9 45.04 C232.2 38.95, 242.22 29.07, 265.4 1.72 M227.71 43.96 C243.4 33.98, 253.67 14.45, 266.97 2.27 M230.14 46.64 C243.79 28.38, 258.06 12.57, 268.32 0 M237.47 45.08 C244.94 34.33, 256.96 25.5, 276.07 0.53 M235.71 45.53 C248.54 30.84, 264.72 11.83, 277.44 -0.19 M239.66 48.55 C260.38 26.5, 276.09 12.48, 281.63 4.19 M238.88 45.94 C251.36 34.81, 260.38 21.46, 278.96 -1.36 M243.14 49.5 C256.38 29.54, 274.69 14.44, 286.21 0.72 M246.77 44.56 C263.22 27.25, 275.41 13.78, 285.16 2.59 M248.91 43.94 C267.02 27.29, 276.87 17.3, 281.98 8.48 M250.95 44.71 C260.74 34.8, 271.24 24.98, 284.92 9.75 M255.56 42.53 C263.91 38.49, 274.14 26.82, 284.99 14.21 M258.53 46.43 C262.06 39.03, 272.74 30.04, 283.58 16.06 M262.27 48.35 C271.45 33.17, 281.4 30.75, 284.08 20.54 M260.86 44.66 C266.19 38.89, 275.04 32.34, 285.51 19.19 M266.33 46.6 C272.42 40.89, 275.34 32.23, 287.22 28.04 M268.59 47.27 C272.49 39.12, 278.82 33.36, 282.04 24.94 M273.92 46.36 C273.12 43.04, 280.16 42.58, 285.91 33.6 M272.36 45.43 C273.92 44.67, 277.25 38.64, 282.19 33.98 M275.81 46.88 C281.15 44.38, 282.32 41.93, 285.78 37.84 M277.33 47.13 C279.14 45.42, 281.74 43.14, 283.66 39.89" stroke="#b2f2bb" stroke-width="0.5" fill="none"></path><path d="M0.26 3.02 C58.06 4.38, 119.76 1.07, 281.99 -2.84 M0.66 -0.28 C94.82 -2.57, 188 -1.41, 280.1 1.06 M283.53 3.07 C279.71 13.43, 280.73 20.8, 284.31 42.22 M281.72 -1.89 C281.58 9.32, 281.91 20.47, 279.17 44.61 M282.68 43.13 C211.34 45.76, 146.68 44.75, -0.87 42.25 M279.64 43.96 C188.49 43.67, 99.55 43.82, -1.14 44.47 M0.34 45.54 C1.61 35.11, 0.09 21.44, -3.2 -2.24 M0.74 44.96 C-2.41 32.69, -2.26 18.67, 0.39 1.13" stroke="#1e1e1e" stroke-width="1" fill="none"></path></g><g transform="translate(420.7172350202288 354.57142857142856) rotate(0 76.63990783691406 12.5)"><text x="76.63990783691406" y="0" font-family="Virgil, Segoe UI Emoji" font-size="20px" fill="#1e1e1e" text-anchor="middle" style="white-space: pre;" direction="ltr" dominant-baseline="text-before-edge">Hard-disk driver</text></g><g mask="url(#mask-amfUGyOGvjVRzL2VnKwt3)" stroke-linecap="round"><g transform="translate(510.1173323644134 472) rotate(0 -0.33310864520649375 101)"><path d="M0.32 -2.2 C1.65 72.58, -0.72 143.35, 1.96 203.29 M-1.49 -0.81 C2.46 74.95, 1.84 149.52, -1.16 203.5" stroke="#1e1e1e" stroke-width="1" fill="none"></path></g><g transform="translate(510.1173323644134 472) rotate(0 -0.33310864520649375 101)"><path d="M11.01 23.51 C7.57 16.66, 1.51 5.21, 3.26 -0.76 M8.99 25.06 C5.9 16.92, 1.7 7.39, -0.23 -0.53" stroke="#1e1e1e" stroke-width="1" fill="none"></path></g><g transform="translate(510.1173323644134 472) rotate(0 -0.33310864520649375 101)"><path d="M-9.51 23.56 C-5.64 16.41, -4.37 4.94, 3.26 -0.76 M-11.53 25.11 C-7.12 16.84, -3.81 7.28, -0.23 -0.53" stroke="#1e1e1e" stroke-width="1" fill="none"></path></g><g transform="translate(510.1173323644134 472) rotate(0 -0.33310864520649375 101)"><path d="M-10.01 172.49 C-6.11 185.6, -5.2 194.37, 1.77 204.93 M-12.02 174.04 C-6.99 186.53, -4.05 197.74, -1.71 205.17" stroke="#1e1e1e" stroke-width="1" fill="none"></path></g><g transform="translate(510.1173323644134 472) rotate(0 -0.33310864520649375 101)"><path d="M10.5 173.26 C7.08 186.37, 0.68 194.87, 1.77 204.93 M8.48 174.81 C6 187.13, 1.45 198.06, -1.71 205.17" stroke="#1e1e1e" stroke-width="1" fill="none"></path></g></g><mask id="mask-amfUGyOGvjVRzL2VnKwt3"><rect x="0" y="0" fill="#fff" width="610.7835496548264" height="774"></rect><rect x="403.81433693942165" y="548" fill="#000" width="211.9397735595703" height="50" opacity="1"></rect></mask><g transform="translate(403.81433693942176 548) rotate(0 106.54245054958665 24.649449434844996)"><text x="105.96988677978516" y="0" font-family="Virgil, Segoe UI Emoji" font-size="20px" fill="#1e1e1e" text-anchor="middle" style="white-space: pre;" direction="ltr" dominant-baseline="text-before-edge">Physical SATA link to</text><text x="105.96988677978516" y="25" font-family="Virgil, Segoe UI Emoji" font-size="20px" fill="#1e1e1e" text-anchor="middle" style="white-space: pre;" direction="ltr" dominant-baseline="text-before-edge">th external Disk</text></g><g stroke-linecap="round"><g transform="translate(803.4748609849703 702.1399712570353) rotate(351.54567514944483 -113.57142857142856 17.142857142857167)"><path d="M-2.92 1.3 C-55.05 7.83, -113.26 16.25, -228.1 32.86" stroke="#1971c2" stroke-width="1.5" fill="none" stroke-dasharray="8 9"></path></g><g transform="translate(803.4748609849703 702.1399712570353) rotate(351.54567514944483 -113.57142857142856 17.142857142857167)"><path d="M-3.46 17.31 C-1.14 10.79, -4.29 7.26, -3.77 0.05" stroke="#1971c2" stroke-width="1.5" fill="none"></path></g><g transform="translate(803.4748609849703 702.1399712570353) rotate(351.54567514944483 -113.57142857142856 17.142857142857167)"><path d="M-7.54 -12.41 C-4.31 -11.74, -6.47 -8.05, -3.77 0.05" stroke="#1971c2" stroke-width="1.5" fill="none"></path></g><g transform="translate(803.4748609849703 702.1399712570353) rotate(351.54567514944483 -113.57142857142856 17.142857142857167)"><path d="M-205.1 20.21 C-207.87 19.97, -217.83 23.52, -229.23 31.19" stroke="#1971c2" stroke-width="1.5" fill="none"></path></g><g transform="translate(803.4748609849703 702.1399712570353) rotate(351.54567514944483 -113.57142857142856 17.142857142857167)"><path d="M-202.17 40.52 C-205.6 35.36, -216.27 33.98, -229.23 31.19" stroke="#1971c2" stroke-width="1.5" fill="none"></path></g></g><mask></mask><g transform="translate(803.3932786667418 639.3184031110457) rotate(351.54567514944483 94.03990173339844 25)"><text x="0" y="0" font-family="Virgil, Segoe UI Emoji" font-size="20px" fill="#1971c2" text-anchor="start" style="white-space: pre;" direction="ltr" dominant-baseline="text-before-edge">ROM containing the</text><text x="0" y="25" font-family="Virgil, Segoe UI Emoji" font-size="20px" fill="#1971c2" text-anchor="start" style="white-space: pre;" direction="ltr" dominant-baseline="text-before-edge">Firmware</text></g><g stroke-linecap="round"><g transform="translate(898.5714285714283 803.5714285714287) rotate(0 -204.9999999999999 0.7142857142856656)"><path d="M2.37 3.35 C-59.48 10.57, -116.68 15.13, -189 32.02 M-188.34 27.91 C-274.68 7.42, -357.65 -8.6, -408.96 -26.87" stroke="#1971c2" stroke-width="1.5" fill="none" stroke-dasharray="8 9"></path></g><g transform="translate(898.5714285714283 803.5714285714287) rotate(0 -204.9999999999999 0.7142857142856656)"><path d="M6.02 20.74 C1.32 16.32, 0.74 8.64, 0.97 5.94" stroke="#1971c2" stroke-width="1.5" fill="none"></path></g><g transform="translate(898.5714285714283 803.5714285714287) rotate(0 -204.9999999999999 0.7142857142856656)"><path d="M2.26 -9.02 C-0.77 -4.32, -0.2 -2.9, 0.97 5.94" stroke="#1971c2" stroke-width="1.5" fill="none"></path></g><g transform="translate(898.5714285714283 803.5714285714287) rotate(0 -204.9999999999999 0.7142857142856656)"><path d="M-376.65 -25.34 C-390.93 -24.87, -400.09 -28.49, -410.82 -23.42" stroke="#1971c2" stroke-width="1.5" fill="none"></path></g><g transform="translate(898.5714285714283 803.5714285714287) rotate(0 -204.9999999999999 0.7142857142856656)"><path d="M-382.49 -5.67 C-395.33 -11.16, -402.7 -20.79, -410.82 -23.42" stroke="#1971c2" stroke-width="1.5" fill="none"></path></g></g><mask></mask><g transform="translate(915.7142857142857 799.2857142857143) rotate(0 127.05986022949219 37.5)"><text x="0" y="0" font-family="Virgil, Segoe UI Emoji" font-size="20px" fill="#1971c2" text-anchor="start" style="white-space: pre;" direction="ltr" dominant-baseline="text-before-edge">Processor found</text><text x="0" y="25" font-family="Virgil, Segoe UI Emoji" font-size="20px" fill="#1971c2" text-anchor="start" style="white-space: pre;" direction="ltr" dominant-baseline="text-before-edge">within the Hard-disk.</text><text x="0" y="50" font-family="Virgil, Segoe UI Emoji" font-size="20px" fill="#1971c2" text-anchor="start" style="white-space: pre;" direction="ltr" dominant-baseline="text-before-edge">It executes the Firmware</text></g><g stroke-linecap="round"><g transform="translate(240 772.1428571428572) rotate(0 90 3.571428571428555)"><path d="M0.68 -2.8 C66.81 -1, 143.31 3.77, 183.91 5.95" stroke="#1971c2" stroke-width="1.5" fill="none" stroke-dasharray="8 9"></path></g><g transform="translate(240 772.1428571428572) rotate(0 90 3.571428571428555)"><path d="M1.86 -19.89 C-1.31 -12.73, 3.18 -5.4, 3.61 -3.7" stroke="#1971c2" stroke-width="1.5" fill="none"></path></g><g transform="translate(240 772.1428571428572) rotate(0 90 3.571428571428555)"><path d="M0.51 10.08 C-2.52 5.54, 2.49 1.18, 3.61 -3.7" stroke="#1971c2" stroke-width="1.5" fill="none"></path></g><g transform="translate(240 772.1428571428572) rotate(0 90 3.571428571428555)"><path d="M155.86 11.82 C162.82 9.75, 180.34 8.35, 187.81 4.75" stroke="#1971c2" stroke-width="1.5" fill="none"></path></g><g transform="translate(240 772.1428571428572) rotate(0 90 3.571428571428555)"><path d="M157.01 -8.67 C163.78 -2.73, 180.86 3.86, 187.81 4.75" stroke="#1971c2" stroke-width="1.5" fill="none"></path></g></g><mask></mask><g transform="translate(10 755.0000000000001) rotate(0 128.77984619140625 50)"><text x="0" y="0" font-family="Virgil, Segoe UI Emoji" font-size="20px" fill="#1971c2" text-anchor="start" style="white-space: pre;" direction="ltr" dominant-baseline="text-before-edge">Circuitry that controls</text><text x="0" y="25" font-family="Virgil, Segoe UI Emoji" font-size="20px" fill="#1971c2" text-anchor="start" style="white-space: pre;" direction="ltr" dominant-baseline="text-before-edge">the arm and disks.</text><text x="0" y="50" font-family="Virgil, Segoe UI Emoji" font-size="20px" fill="#1971c2" text-anchor="start" style="white-space: pre;" direction="ltr" dominant-baseline="text-before-edge">Circuitry gets orders from</text><text x="0" y="75" font-family="Virgil, Segoe UI Emoji" font-size="20px" fill="#1971c2" text-anchor="start" style="white-space: pre;" direction="ltr" dominant-baseline="text-before-edge">processor.</text></g><g transform="translate(742.857142857143 26.428571428571615) rotate(0 219.28973388671875 50)"><text x="0" y="0" font-family="Virgil, Segoe UI Emoji" font-size="20px" fill="#1e1e1e" text-anchor="start" style="white-space: pre;" direction="ltr" dominant-baseline="text-before-edge">The driver is typically not found</text><text x="0" y="25" font-family="Virgil, Segoe UI Emoji" font-size="20px" fill="#1e1e1e" text-anchor="start" style="white-space: pre;" direction="ltr" dominant-baseline="text-before-edge">in the external device. It is usually part of</text><text x="0" y="50" font-family="Virgil, Segoe UI Emoji" font-size="20px" fill="#1e1e1e" text-anchor="start" style="white-space: pre;" direction="ltr" dominant-baseline="text-before-edge">the kernel or the runtime that </text><text x="0" y="75" font-family="Virgil, Segoe UI Emoji" font-size="20px" fill="#1e1e1e" text-anchor="start" style="white-space: pre;" direction="ltr" dominant-baseline="text-before-edge">interacts with the external device</text></g><g transform="translate(747.142857142857 167.857142857143) rotate(0 241.86972045898438 125)"><text x="0" y="0" font-family="Virgil, Segoe UI Emoji" font-size="20px" fill="#1e1e1e" text-anchor="start" style="white-space: pre;" direction="ltr" dominant-baseline="text-before-edge">The driver indirectly controls the Hadware while</text><text x="0" y="25" font-family="Virgil, Segoe UI Emoji" font-size="20px" fill="#1e1e1e" text-anchor="start" style="white-space: pre;" direction="ltr" dominant-baseline="text-before-edge">the firmware directly controls the moving parts</text><text x="0" y="50" font-family="Virgil, Segoe UI Emoji" font-size="20px" fill="#1e1e1e" text-anchor="start" style="white-space: pre;" direction="ltr" dominant-baseline="text-before-edge">of the hard-disk</text><text x="0" y="75" font-family="Virgil, Segoe UI Emoji" font-size="20px" fill="#1e1e1e" text-anchor="start" style="white-space: pre;" direction="ltr" dominant-baseline="text-before-edge"></text><text x="0" y="100" font-family="Virgil, Segoe UI Emoji" font-size="20px" fill="#1e1e1e" text-anchor="start" style="white-space: pre;" direction="ltr" dominant-baseline="text-before-edge">The driver builds upon the </text><text x="0" y="125" font-family="Virgil, Segoe UI Emoji" font-size="20px" fill="#1e1e1e" text-anchor="start" style="white-space: pre;" direction="ltr" dominant-baseline="text-before-edge">{firmware + device interface}.  </text><text x="0" y="150" font-family="Virgil, Segoe UI Emoji" font-size="20px" fill="#1e1e1e" text-anchor="start" style="white-space: pre;" direction="ltr" dominant-baseline="text-before-edge"></text><text x="0" y="175" font-family="Virgil, Segoe UI Emoji" font-size="20px" fill="#1e1e1e" text-anchor="start" style="white-space: pre;" direction="ltr" dominant-baseline="text-before-edge">In as much as the driver indirectly controls the </text><text x="0" y="200" font-family="Virgil, Segoe UI Emoji" font-size="20px" fill="#1e1e1e" text-anchor="start" style="white-space: pre;" direction="ltr" dominant-baseline="text-before-edge">hardware, it also acts as an interface btwn</text><text x="0" y="225" font-family="Virgil, Segoe UI Emoji" font-size="20px" fill="#1e1e1e" text-anchor="start" style="white-space: pre;" direction="ltr" dominant-baseline="text-before-edge">the Kernel and the external device </text></g></svg>