<svg version="1.1" xmlns="http://www.w3.org/2000/svg" viewBox="0 0 1179.83400617327 391.23576603306947" width="1179.83400617327" height="391.23576603306947" filter="invert(93%) hue-rotate(180deg)">
  <!-- svg-source:excalidraw -->
  
  <defs>
    <style class="style-fonts">
      @font-face {
        font-family: "Virgil";
        src: url("https://file%2B.vscode-resource.vscode-cdn.net/home/kiarie404/.vscode/extensions/pomdtr.excalidraw-editor-3.7.4/public//dist/excalidraw-assets/Virgil.woff2");
      }
      @font-face {
        font-family: "Cascadia";
        src: url("https://file%2B.vscode-resource.vscode-cdn.net/home/kiarie404/.vscode/extensions/pomdtr.excalidraw-editor-3.7.4/public//dist/excalidraw-assets/Cascadia.woff2");
      }
      @font-face {
        font-family: "Assistant";
        src: url("https://file%2B.vscode-resource.vscode-cdn.net/home/kiarie404/.vscode/extensions/pomdtr.excalidraw-editor-3.7.4/public//dist/excalidraw-assets/Assistant-Regular.woff2");
      }
    </style>
    
  </defs>
  <rect x="0" y="0" width="1179.83400617327" height="391.23576603306947" fill="#ffffff"></rect><g stroke-linecap="round" transform="translate(383.28571428571433 129.2357660330694) rotate(0 115.5 71.5)"><path d="M32 0 C63.71 2.51, 102.96 -1.91, 199 0 M32 0 C84.56 1.88, 137.31 -0.58, 199 0 M199 0 C216.66 2.51, 233.81 6.77, 231 32 M199 0 C220.73 -4.21, 226.61 6.95, 231 32 M231 32 C229.58 47.2, 232.31 67.81, 231 111 M231 32 C230.39 60.72, 232.41 89.25, 231 111 M231 111 C228.53 129.92, 219.01 145.16, 199 143 M231 111 C233.75 131.89, 219.4 142.58, 199 143 M199 143 C142.62 147.52, 87.19 141.41, 32 143 M199 143 C132.9 143.8, 65.03 144.2, 32 143 M32 143 C8.29 141.01, -3.69 136.1, 0 111 M32 143 C10.47 146.5, -2.63 134.48, 0 111 M0 111 C0.88 84.91, 1.76 58.95, 0 32 M0 111 C2.27 88.08, 0.71 61.17, 0 32 M0 32 C-1.42 14.33, 12.93 0.63, 32 0 M0 32 C1.21 7.05, 9.8 -1.18, 32 0" stroke="#1e1e1e" stroke-width="1" fill="none"></path></g><g stroke-linecap="round" transform="translate(515.2857142857143 130.2357660330694) rotate(0 43 22)"><path d="M11 0 C30.75 -3.53, 45.46 -0.03, 75 0 M11 0 C29.75 -1.75, 47.93 -0.01, 75 0 M75 0 C85.15 -3.89, 86.35 0, 86 11 M75 0 C77.94 -3.72, 81.83 1.67, 86 11 M86 11 C87.91 22.29, 88.66 30.72, 86 33 M86 11 C86.01 15.58, 84.4 20.9, 86 33 M86 33 C84.68 42.49, 84.73 43.62, 75 44 M86 33 C85.07 39.92, 84.22 43.94, 75 44 M75 44 C54.44 41.48, 33.6 43.07, 11 44 M75 44 C50.76 42.35, 27.54 42.2, 11 44 M11 44 C-0.02 47.77, -0.17 43.38, 0 33 M11 44 C1.04 46.15, 0.95 39.26, 0 33 M0 33 C1.33 25.51, 0.39 19.65, 0 11 M0 33 C-0.15 26.7, -1.11 23.59, 0 11 M0 11 C2.26 4.29, 4.71 -3.14, 11 0 M0 11 C-0.87 2.49, 1.06 3.64, 11 0" stroke="#1e1e1e" stroke-width="1" fill="none"></path></g><g transform="translate(535.5025111607143 139.7357660330694) rotate(0 22.783203125 12.5)"><text x="22.783203125" y="0" font-family="Virgil, Segoe UI Emoji" font-size="20px" fill="#1e1e1e" text-anchor="middle" style="white-space: pre;" direction="ltr" dominant-baseline="text-before-edge">ROM</text></g><g stroke-linecap="round" transform="translate(467.8843642374984 131.2357660330694) rotate(0 16.079942140790763 22.04508196721315)"><path d="M8.04 0 C11.7 -0.69, 18.35 -1.05, 24.12 0 M8.04 0 C13.6 -1.77, 17.04 -1.67, 24.12 0 M24.12 0 C25.66 -3.24, 28.53 0.94, 32.16 8.04 M24.12 0 C33.56 -0.85, 30.63 4.97, 32.16 8.04 M32.16 8.04 C30.64 15.07, 31.76 29.43, 32.16 36.05 M32.16 8.04 C31.15 16.15, 33.01 21.92, 32.16 36.05 M32.16 36.05 C31.35 41.05, 31.12 44.04, 24.12 44.09 M32.16 36.05 C34.64 42.07, 32.61 46.5, 24.12 44.09 M24.12 44.09 C22.64 44.49, 15.18 42.17, 8.04 44.09 M24.12 44.09 C18.5 45.44, 15.77 45.15, 8.04 44.09 M8.04 44.09 C0.4 45.96, 0.82 40.47, 0 36.05 M8.04 44.09 C1.63 44.67, -0.88 43.01, 0 36.05 M0 36.05 C-1.84 32.25, 3.26 21.7, 0 8.04 M0 36.05 C1.33 28.9, 0.72 19.56, 0 8.04 M0 8.04 C-0.76 1.66, 0.41 3.17, 8.04 0 M0 8.04 C-0.33 4.3, 3.21 4.31, 8.04 0" stroke="#1e1e1e" stroke-width="1" fill="none"></path></g><g transform="translate(478.4360928773126 149.2580228237838) rotate(0 5.5282135009765625 4.022825176498742)"><text x="5.5282135009765625" y="0" font-family="Virgil, Segoe UI Emoji" font-size="6.436520282397996px" fill="#1e1e1e" text-anchor="middle" style="white-space: pre;" direction="ltr" dominant-baseline="text-before-edge">mcu</text></g><g stroke-linecap="round"><g transform="translate(499.0068328970933 142.647337874921) rotate(0 7.521263259402133 0)"><path d="M0 0 C2.51 0, 12.54 0, 15.04 0 M0 0 C2.51 0, 12.54 0, 15.04 0" stroke="#1e1e1e" stroke-width="1" fill="none"></path></g></g><mask></mask><g stroke-linecap="round"><g transform="translate(501.0816641410664 149.90924722882647) rotate(0 6.743201542912232 0)"><path d="M0 0 C2.25 0, 11.24 0, 13.49 0 M0 0 C2.25 0, 11.24 0, 13.49 0" stroke="#1e1e1e" stroke-width="1" fill="none"></path></g></g><mask></mask><g stroke-linecap="round"><g transform="translate(498.4881250861 156.65244877173865) rotate(0 8.039971070395382 0.2593539054966243)"><path d="M0 0 C2.68 0.09, 13.4 0.43, 16.08 0.52 M0 0 C2.68 0.09, 13.4 0.43, 16.08 0.52" stroke="#1e1e1e" stroke-width="1" fill="none"></path></g></g><mask></mask><g stroke-linecap="round"><g transform="translate(497.9694172751068 163.39565031465094) rotate(0 8.039971070395382 0.2593539054966243)"><path d="M0 0 C2.68 0.09, 13.4 0.43, 16.08 0.52 M0 0 C2.68 0.09, 13.4 0.43, 16.08 0.52" stroke="#1e1e1e" stroke-width="1" fill="none"></path></g></g><mask></mask><g stroke-linecap="round"><g transform="translate(452.3231299077007 142.38798396942428) rotate(0 7.521263259402133 0)"><path d="M0 0 C2.51 0, 12.54 0, 15.04 0 M0 0 C2.51 0, 12.54 0, 15.04 0" stroke="#1e1e1e" stroke-width="1" fill="none"></path></g></g><mask></mask><g stroke-linecap="round"><g transform="translate(454.3979611516738 149.64989332332988) rotate(0 6.74320154291226 0)"><path d="M0 0 C2.25 0, 11.24 0, 13.49 0 M0 0 C2.25 0, 11.24 0, 13.49 0" stroke="#1e1e1e" stroke-width="1" fill="none"></path></g></g><mask></mask><g stroke-linecap="round"><g transform="translate(451.8044220967075 156.39309486624205) rotate(0 8.039971070395382 0.2593539054966243)"><path d="M0 0 C2.68 0.09, 13.4 0.43, 16.08 0.52 M0 0 C2.68 0.09, 13.4 0.43, 16.08 0.52" stroke="#1e1e1e" stroke-width="1" fill="none"></path></g></g><mask></mask><g stroke-linecap="round"><g transform="translate(451.28571428571433 163.13629640915434) rotate(0 8.039971070395382 0.2593539054966243)"><path d="M0 0 C2.68 0.09, 13.4 0.43, 16.08 0.52 M0 0 C2.68 0.09, 13.4 0.43, 16.08 0.52" stroke="#1e1e1e" stroke-width="1" fill="none"></path></g></g><mask></mask><g stroke-linecap="round" transform="translate(434.28571428571433 191.2357660330694) rotate(0 81 83.50000000000003)"><path d="M49.81 6.99 C59.38 2.09, 73.1 1.84, 83.67 1.87 C94.25 1.9, 103.27 2.55, 113.27 7.16 C123.28 11.77, 136.27 20.63, 143.68 29.54 C151.09 38.44, 155.02 50.13, 157.75 60.59 C160.48 71.05, 160.93 81.59, 160.06 92.28 C159.18 102.97, 157.59 115.09, 152.51 124.74 C147.44 134.38, 138.82 143.5, 129.59 150.16 C120.36 156.83, 108.27 162.39, 97.13 164.7 C85.99 167.02, 73.26 166.38, 62.76 164.06 C52.25 161.75, 43.08 157.28, 34.11 150.81 C25.15 144.34, 14.41 135.08, 8.96 125.24 C3.51 115.41, 2.17 103.14, 1.39 91.8 C0.61 80.46, 1.16 67.78, 4.29 57.2 C7.42 46.61, 4.36 37.61, 20.15 28.29 C35.94 18.98, 78.97 1.09, 99.02 1.31 C119.07 1.54, 140.89 28.37, 140.46 29.64 M148.37 35.91 C155.8 44.53, 159.6 57.23, 161.15 67.57 C162.71 77.9, 159.63 87.01, 157.68 97.91 C155.72 108.82, 155.22 123.6, 149.42 133.01 C143.63 142.41, 132.55 148.77, 122.92 154.34 C113.29 159.92, 102.53 165.46, 91.64 166.47 C80.76 167.48, 68.44 163.37, 57.61 160.38 C46.79 157.4, 35.31 156.04, 26.71 148.55 C18.11 141.06, 10.26 126.58, 6.02 115.47 C1.77 104.35, 0.83 93.02, 1.23 81.85 C1.63 70.69, 4.6 58.15, 8.4 48.5 C12.2 38.84, 16.16 31.33, 24.02 23.92 C31.88 16.52, 44.5 8.03, 55.55 4.07 C66.59 0.1, 79.78 -1.32, 90.29 0.12 C100.8 1.56, 109.46 6.65, 118.62 12.69 C127.77 18.74, 141.11 32.81, 145.24 36.39 C149.36 39.97, 144.41 33.46, 143.36 34.15" stroke="none" stroke-width="0" fill="#ffffff"></path><path d="M129.93 17.63 C138.95 23.24, 146.11 32.65, 151.21 42.43 C156.31 52.21, 159.34 64.61, 160.54 76.3 C161.75 87.99, 161.93 101.87, 158.43 112.58 C154.93 123.29, 147.33 132.43, 139.56 140.58 C131.79 148.73, 121.93 156.89, 111.81 161.47 C101.69 166.05, 89.74 168.26, 78.84 168.05 C67.94 167.84, 56.14 165.56, 46.41 160.22 C36.67 154.88, 27.3 145.01, 20.45 136.03 C13.6 127.04, 8.38 116.82, 5.29 106.31 C2.2 95.79, 1.02 84.19, 1.92 72.93 C2.82 61.67, 5.29 48.66, 10.69 38.76 C16.08 28.85, 25.19 20.02, 34.28 13.49 C43.38 6.95, 54 1.43, 65.25 -0.45 C76.51 -2.33, 85.91 -7.86, 101.8 2.23 C117.69 12.31, 151.58 41.44, 160.58 60.06 C169.58 78.67, 157.42 113.43, 155.79 113.92 M90.21 1.01 C100.67 0.71, 112.16 4.56, 122.18 10.8 C132.19 17.04, 143.83 29.07, 150.29 38.43 C156.76 47.78, 159.55 55.78, 160.96 66.95 C162.38 78.11, 161.07 94.15, 158.77 105.42 C156.47 116.68, 153.5 126.38, 147.15 134.54 C140.81 142.7, 130.72 149.13, 120.72 154.37 C110.71 159.6, 98.47 164.23, 87.11 165.95 C75.75 167.67, 62.87 168.13, 52.56 164.7 C42.26 161.26, 32.92 153.04, 25.26 145.35 C17.61 137.67, 10.71 129.62, 6.63 118.57 C2.56 107.51, 0.86 91.24, 0.82 79.03 C0.78 66.81, 2.11 54.89, 6.39 45.3 C10.67 35.72, 18.33 28.9, 26.5 21.51 C34.67 14.13, 44.93 4.56, 55.42 1.01 C65.9 -2.55, 83.99 -0.46, 89.43 0.21 C94.87 0.88, 88.3 3.48, 88.07 5.03" stroke="#1e1e1e" stroke-width="1" fill="none"></path></g><g stroke-linecap="round" transform="translate(402.28571428571433 140.2357660330694) rotate(0 21.102409638554207 46.5)"><path d="M0 0 C0 0, 0 0, 0 0 M0 0 C0 0, 0 0, 0 0 M0.84 5.94 C0.56 3.65, 1.98 1.81, 3.88 1.86 M0.21 6.66 C1.78 3.94, 2.08 3.66, 5.18 0.65 M1.52 9.22 C2.31 11.87, 4.18 3.34, 11.94 -2.19 M1.32 12 C3.86 8.6, 7.46 2.36, 11.53 -0.61 M-1.27 20.4 C8.37 11.12, 14.76 2.9, 17.92 -0.43 M0.97 19.02 C6.83 13.84, 8.12 6.54, 16.34 -0.49 M1.84 25.77 C7.6 20.98, 10.44 13.92, 17.46 -0.5 M-1.28 23.51 C6.87 16, 17.67 5.43, 19.4 -0.76 M-3.44 29.48 C9.55 24.72, 12.87 9.1, 22.99 4.27 M-1.93 30.69 C6.01 23.76, 12.96 16.15, 27.94 0.31 M0.65 35.78 C8.48 30.85, 13.28 17.57, 28.95 2.49 M-1.35 35.98 C10.63 23.95, 21.13 12.01, 33.42 0.62 M1.57 43.34 C17.69 24.16, 26.56 9.37, 34.08 2.98 M-1.07 40.93 C7.4 30.5, 18.1 22.08, 34.92 1.87 M-2.26 48.3 C10.35 36.84, 27.02 26.25, 41.94 -2.55 M-1.37 49.03 C7.71 39.72, 16.38 29.65, 40.7 1.05 M-1.56 55.68 C6.55 42.12, 14.53 32.68, 45.69 5.38 M-0.32 54.14 C12.98 42.09, 22.75 26.14, 42.15 8.19 M-2.28 62.23 C10.63 41.86, 29.44 33.7, 43.61 11.3 M1.35 60.1 C10.19 46.36, 23.65 34.75, 42.42 12.57 M-1.66 67.84 C13.97 46.05, 34.63 33.81, 40.7 17.99 M1.24 69.06 C11.07 53.93, 24.04 41.69, 43.16 16.75 M-3.02 70.59 C14.94 56.9, 27.03 37.17, 39.19 27.41 M1.62 73.43 C11.21 60.31, 21.91 49.31, 40.14 26.39 M1.54 77.77 C14.11 66.21, 19.75 51.03, 46.38 28.18 M-0.08 79.72 C12.26 67.55, 24.02 52.91, 44.2 30.6 M-0.99 85.29 C15.02 71.38, 24.27 56.49, 40.62 34.37 M1.66 84.87 C12.86 69.41, 25.32 54.63, 40.4 37.62 M1.45 92.55 C6.12 80.94, 19.34 69.18, 43.2 40.97 M-0.46 91.96 C13.21 72.41, 31.05 55.26, 41.01 43.12 M0.43 94.83 C11.98 84.36, 17.81 73.89, 39.59 50.89 M1.1 95.5 C11.68 83.25, 22.48 72.46, 43.85 50.15 M10.47 93.1 C20.42 78.41, 34.13 68.77, 44.74 53.99 M9.17 96.14 C19.93 80.76, 36.82 63.5, 42.76 56.99 M9.56 93.3 C18.65 90.04, 29.52 77.01, 38.92 62.55 M11.61 96.74 C20.86 87.46, 27.38 76.51, 40.54 61.48 M17.01 96.03 C27.09 82.65, 33.96 78.81, 45.73 70.03 M16.22 97.02 C23.89 88.21, 26.71 81.92, 44.09 68.72 M26.74 95.05 C25.77 90.11, 30.7 82.79, 43.91 70.57 M25.2 92.9 C28.69 86.41, 36.14 82.34, 41.35 75.38 M29.23 92.07 C30.36 92.94, 36.53 87.27, 40.66 77.98 M30.17 96.16 C30.84 91.64, 35.58 86.91, 43.73 77.62 M35.31 92.76 C36.54 92.86, 41.79 90.36, 41.41 87.52 M34.02 94.31 C37.29 92.21, 39.27 89.01, 41.17 86.43 M38.86 96.07 C40.26 93.27, 41.69 93.47, 41.7 91.88 M39.74 95.53 C40.64 93.84, 41.72 91.95, 42.86 91.12" stroke="#b2f2bb" stroke-width="0.5" fill="none"></path><path d="M-1.9 -3.29 C14.77 0.19, 29.15 -3.03, 39.79 -1.32 M-0.41 -0.18 C15.76 0.05, 30.95 0.37, 43.56 1.05 M44.66 0.67 C41.51 17.81, 42.33 37.65, 40.21 89.31 M41.06 0.94 C42.54 36.19, 41.67 73.57, 41.82 93.69 M40.43 96.63 C34.33 93.26, 18.47 91.33, 3.66 95.26 M41.83 92.49 C27.75 93.92, 15.42 93.04, 0.23 94.87 M-3.4 90.8 C3.35 59.6, -1.75 29.83, -0.62 -3.97 M1.84 94.08 C0.52 55.6, 0.03 21.37, 0.15 1.74" stroke="#1e1e1e" stroke-width="1" fill="none"></path></g><g transform="translate(410.76546614838963 177.39841663547907) rotate(0 12.622657775878906 9.337349397590373)"><text x="12.622657775878906" y="0" font-family="Virgil, Segoe UI Emoji" font-size="7.46987951807229px" fill="#1e1e1e" text-anchor="middle" style="white-space: pre;" direction="ltr" dominant-baseline="text-before-edge">board </text><text x="12.622657775878906" y="9.337349397590362" font-family="Virgil, Segoe UI Emoji" font-size="7.46987951807229px" fill="#1e1e1e" text-anchor="middle" style="white-space: pre;" direction="ltr" dominant-baseline="text-before-edge">circuitry</text></g><g stroke-linecap="round"><g transform="translate(459.1256808522104 190.70736128333994) rotate(313.2207372087812 -4.50282357173927 58.16147113496581)"><path d="M0.52 -1.37 C-2.26 0.44, -20.13 -9.55, -18.99 10.32 C-17.86 30.19, 2.51 100.21, 7.33 117.83 M-2.64 4.06 C-4.31 6.25, -14.81 -5.15, -13.53 13.03 C-12.25 31.21, 0.86 95.54, 5.02 113.12" stroke="#1e1e1e" stroke-width="1" fill="none"></path></g></g><mask></mask><g stroke-linecap="round"><g transform="translate(458.40837410539336 183.53403562936666) rotate(313.2207372087812 3.0018823811595325 57.7862358373209)"><path d="M-1.73 -1.69 C-0.97 18.05, 3.51 97.58, 5.08 117.08 M2.52 3.57 C2.78 22.61, 1.63 93.77, 2.34 112.89" stroke="#1e1e1e" stroke-width="1" fill="none"></path></g></g><mask></mask><g stroke-linecap="round" transform="translate(359.28571428571433 61.23576603306941) rotate(0 143.50000000000006 160.00000000000003)"><path d="M1.63 1.81 C68.05 0.82, 136.41 2.67, 286.96 1.63 M-1.28 1.48 C89.52 -1.34, 180.66 -3.22, 286.17 -0.64 M289.64 -0.12 C286.9 75.35, 286.08 154.48, 286.34 319.36 M286.51 0.16 C285.74 99.44, 287.42 201.29, 287.18 319.53 M287.47 320.79 C208.72 321.88, 134.42 320.74, 2.39 319.78 M287.4 318.68 C190.08 322.77, 93.71 324.71, -1.14 318.73 M2.52 317.99 C1.18 246.05, 2.2 165.79, -1.58 -1.82 M1.3 318.93 C-0.67 210.86, 0.49 98.7, 1.38 -0.98" stroke="#1e1e1e" stroke-width="1" fill="none"></path></g><g transform="translate(442.52692522321433 66.23576603306941) rotate(0 60.2587890625 12.5)"><text x="60.2587890625" y="0" font-family="Virgil, Segoe UI Emoji" font-size="20px" fill="#1e1e1e" text-anchor="middle" style="white-space: pre;" direction="ltr" dominant-baseline="text-before-edge">The Hard-Disk</text></g><g stroke-linecap="round"><g transform="translate(803.4748609849703 86.37573729010472) rotate(351.54567514944483 -113.57142857142856 17.142857142857167)"><path d="M-0.31 1.4 C-81.84 13.39, -163.05 26.2, -225.36 31.4" stroke="#1971c2" stroke-width="1.5" fill="none" stroke-dasharray="8 9"></path></g><g transform="translate(803.4748609849703 86.37573729010472) rotate(351.54567514944483 -113.57142857142856 17.142857142857167)"><path d="M1.54 17.48 C1.04 12.51, 0.74 7.59, 1.27 -1.15" stroke="#1971c2" stroke-width="1.5" fill="none"></path></g><g transform="translate(803.4748609849703 86.37573729010472) rotate(351.54567514944483 -113.57142857142856 17.142857142857167)"><path d="M-2.7 -12.22 C-1.74 -6.48, -0.5 -0.72, 1.27 -1.15" stroke="#1971c2" stroke-width="1.5" fill="none"></path></g><g transform="translate(803.4748609849703 86.37573729010472) rotate(351.54567514944483 -113.57142857142856 17.142857142857167)"><path d="M-198.79 19.84 C-208.19 25, -217.26 30.31, -223.26 28.01" stroke="#1971c2" stroke-width="1.5" fill="none"></path></g><g transform="translate(803.4748609849703 86.37573729010472) rotate(351.54567514944483 -113.57142857142856 17.142857142857167)"><path d="M-196.6 40.24 C-206.75 38.05, -216.61 36.02, -223.26 28.01" stroke="#1971c2" stroke-width="1.5" fill="none"></path></g></g><mask></mask><g transform="translate(803.3932786667418 23.554169144115065) rotate(351.54567514944483 94.03990173339838 25)"><text x="0" y="0" font-family="Virgil, Segoe UI Emoji" font-size="20px" fill="#1971c2" text-anchor="start" style="white-space: pre;" direction="ltr" dominant-baseline="text-before-edge">ROM containing the</text><text x="0" y="25" font-family="Virgil, Segoe UI Emoji" font-size="20px" fill="#1971c2" text-anchor="start" style="white-space: pre;" direction="ltr" dominant-baseline="text-before-edge">Firmware</text></g><g stroke-linecap="round"><g transform="translate(898.5714285714283 187.80719460449808) rotate(0 -204.9999999999999 0.7142857142856656)"><path d="M0.57 2.72 C-61.73 8.37, -123.74 19.71, -184.68 29.25 M-189.17 26.88 C-242.62 16.95, -292.49 3.12, -411.94 -25.55" stroke="#1971c2" stroke-width="1.5" fill="none" stroke-dasharray="8 9"></path></g><g transform="translate(898.5714285714283 187.80719460449808) rotate(0 -204.9999999999999 0.7142857142856656)"><path d="M3.02 19.62 C3.48 9.99, 4.15 6.12, 2.42 3.22" stroke="#1971c2" stroke-width="1.5" fill="none"></path></g><g transform="translate(898.5714285714283 187.80719460449808) rotate(0 -204.9999999999999 0.7142857142856656)"><path d="M-1.02 -10.11 C0.81 -9.64, 2.86 -3.38, 2.42 3.22" stroke="#1971c2" stroke-width="1.5" fill="none"></path></g><g transform="translate(898.5714285714283 187.80719460449808) rotate(0 -204.9999999999999 0.7142857142856656)"><path d="M-381.55 -26.13 C-390.2 -30.79, -398.55 -28.08, -409.48 -24.88" stroke="#1971c2" stroke-width="1.5" fill="none"></path></g><g transform="translate(898.5714285714283 187.80719460449808) rotate(0 -204.9999999999999 0.7142857142856656)"><path d="M-386.41 -6.19 C-393.39 -17.71, -400.09 -21.79, -409.48 -24.88" stroke="#1971c2" stroke-width="1.5" fill="none"></path></g></g><mask></mask><g transform="translate(915.7142857142857 183.52148031878374) rotate(0 127.05986022949213 37.5)"><text x="0" y="0" font-family="Virgil, Segoe UI Emoji" font-size="20px" fill="#1971c2" text-anchor="start" style="white-space: pre;" direction="ltr" dominant-baseline="text-before-edge">Processor found</text><text x="0" y="25" font-family="Virgil, Segoe UI Emoji" font-size="20px" fill="#1971c2" text-anchor="start" style="white-space: pre;" direction="ltr" dominant-baseline="text-before-edge">within the Hard-disk.</text><text x="0" y="50" font-family="Virgil, Segoe UI Emoji" font-size="20px" fill="#1971c2" text-anchor="start" style="white-space: pre;" direction="ltr" dominant-baseline="text-before-edge">It executes the Firmware</text></g><g stroke-linecap="round"><g transform="translate(240 156.37862317592663) rotate(0 90 3.571428571428555)"><path d="M3.91 -1.8 C68.77 6.35, 130.03 6.1, 178.3 4.76" stroke="#1971c2" stroke-width="1.5" fill="none" stroke-dasharray="8 9"></path></g><g transform="translate(240 156.37862317592663) rotate(0 90 3.571428571428555)"><path d="M7.7 -18.13 C6.45 -10.77, 2.41 -7.43, 2.64 -3.59" stroke="#1971c2" stroke-width="1.5" fill="none"></path></g><g transform="translate(240 156.37862317592663) rotate(0 90 3.571428571428555)"><path d="M5.99 11.83 C5.06 8.19, 1.65 0.51, 2.64 -3.59" stroke="#1971c2" stroke-width="1.5" fill="none"></path></g><g transform="translate(240 156.37862317592663) rotate(0 90 3.571428571428555)"><path d="M154.18 13.65 C162.93 12.67, 168.28 5.85, 176.6 2.38" stroke="#1971c2" stroke-width="1.5" fill="none"></path></g><g transform="translate(240 156.37862317592663) rotate(0 90 3.571428571428555)"><path d="M153.87 -6.87 C162.95 -0.3, 168.41 0.44, 176.6 2.38" stroke="#1971c2" stroke-width="1.5" fill="none"></path></g></g><mask></mask><g transform="translate(10 140.66433746164097) rotate(0 128.77984619140625 50)"><text x="0" y="0" font-family="Virgil, Segoe UI Emoji" font-size="20px" fill="#1971c2" text-anchor="start" style="white-space: pre;" direction="ltr" dominant-baseline="text-before-edge">Circuitry that controls</text><text x="0" y="25" font-family="Virgil, Segoe UI Emoji" font-size="20px" fill="#1971c2" text-anchor="start" style="white-space: pre;" direction="ltr" dominant-baseline="text-before-edge">the arn and disks.</text><text x="0" y="50" font-family="Virgil, Segoe UI Emoji" font-size="20px" fill="#1971c2" text-anchor="start" style="white-space: pre;" direction="ltr" dominant-baseline="text-before-edge">Circuitry gets orders from</text><text x="0" y="75" font-family="Virgil, Segoe UI Emoji" font-size="20px" fill="#1971c2" text-anchor="start" style="white-space: pre;" direction="ltr" dominant-baseline="text-before-edge">processor.</text></g></svg>