<svg version="1.1" xmlns="http://www.w3.org/2000/svg" viewBox="0 0 1408.7499999999998 1250.1270299407042" width="1408.7499999999998" height="1250.1270299407042" filter="invert(93%) hue-rotate(180deg)">
  <!-- svg-source:excalidraw -->
  
  <defs>
    <style class="style-fonts">
      @font-face {
        font-family: "Virgil";
        src: url("https://file%2B.vscode-resource.vscode-cdn.net/home/k/.vscode/extensions/pomdtr.excalidraw-editor-3.7.2/public//dist/excalidraw-assets/Virgil.woff2");
      }
      @font-face {
        font-family: "Cascadia";
        src: url("https://file%2B.vscode-resource.vscode-cdn.net/home/k/.vscode/extensions/pomdtr.excalidraw-editor-3.7.2/public//dist/excalidraw-assets/Cascadia.woff2");
      }
      @font-face {
        font-family: "Assistant";
        src: url("https://file%2B.vscode-resource.vscode-cdn.net/home/k/.vscode/extensions/pomdtr.excalidraw-editor-3.7.2/public//dist/excalidraw-assets/Assistant-Regular.woff2");
      }
    </style>
    
  </defs>
  <rect x="0" y="0" width="1408.7499999999998" height="1250.1270299407042" fill="#ffffff"></rect><g stroke-linecap="round" transform="translate(186.73015759957434 734.1270299407041) rotate(0 20 23)"><path d="M10 0 C12.9 -0.34, 20.08 -0.75, 30 0 M10 0 C18.22 -1.06, 25.54 0.4, 30 0 M30 0 C35.99 0.9, 40.38 2.82, 40 10 M30 0 C34.71 1.24, 40.95 3.12, 40 10 M40 10 C37.85 17.33, 40.59 25.29, 40 36 M40 10 C39.93 20.01, 40.51 28.27, 40 36 M40 36 C39.14 43.27, 38.49 46.07, 30 46 M40 36 C39.41 42.01, 35.16 45.55, 30 46 M30 46 C21.47 45.2, 15.35 45.55, 10 46 M30 46 C25.28 46.74, 18.34 45.11, 10 46 M10 46 C2.67 44.11, -1.25 43.81, 0 36 M10 46 C2.52 47.68, 2.02 40.79, 0 36 M0 36 C0.9 31.99, 0.71 26.31, 0 10 M0 36 C0.41 27.51, 0.42 21.69, 0 10 M0 10 C-1.69 2.33, 4.15 -0.12, 10 0 M0 10 C-1.8 4.64, 2.9 2.29, 10 0" stroke="#1e1e1e" stroke-width="2" fill="none"></path></g><g transform="translate(199.85016034615637 744.6270299407041) rotate(0 6.879997253417969 12.5)"><text x="6.879997253417969" y="0" font-family="Virgil, Segoe UI Emoji" font-size="20px" fill="#1e1e1e" text-anchor="middle" style="white-space: pre;" direction="ltr" dominant-baseline="text-before-edge">0</text></g><g stroke-linecap="round" transform="translate(232.73015759957434 735.1270299407041) rotate(0 20 23)"><path d="M10 0 C16.21 -1.11, 19.13 1.52, 30 0 M10 0 C17.12 0.78, 23 -0.44, 30 0 M30 0 C37.9 -1.28, 40.3 3.38, 40 10 M30 0 C38.01 2.29, 41.18 4.91, 40 10 M40 10 C41.34 20.68, 39.58 28.26, 40 36 M40 10 C40.33 16.65, 39.12 21.87, 40 36 M40 36 C38.51 43.65, 36.08 44.59, 30 46 M40 36 C41.06 40.7, 38.48 46.53, 30 46 M30 46 C24.22 47.62, 16.39 45.02, 10 46 M30 46 C22.6 46.33, 14.94 45.34, 10 46 M10 46 C3.81 46.98, 1.95 42.76, 0 36 M10 46 C5.11 44.91, 0.81 44.05, 0 36 M0 36 C-0.83 28.29, -1 18.92, 0 10 M0 36 C0.44 30.7, 0.43 25.99, 0 10 M0 10 C-0.36 1.47, 1.41 1.99, 10 0 M0 10 C-2.26 2.79, 2.67 -1.72, 10 0" stroke="#1e1e1e" stroke-width="2" fill="none"></path></g><g transform="translate(245.85016034615637 745.6270299407041) rotate(0 6.879997253417969 12.5)"><text x="6.879997253417969" y="0" font-family="Virgil, Segoe UI Emoji" font-size="20px" fill="#1e1e1e" text-anchor="middle" style="white-space: pre;" direction="ltr" dominant-baseline="text-before-edge">0</text></g><g stroke-linecap="round" transform="translate(454.73015759957434 738.1270299407041) rotate(0 20 23)"><path d="M10 0 C15.24 1.15, 17.49 -0.58, 30 0 M10 0 C13.8 0.52, 18.17 0.85, 30 0 M30 0 C37.12 0.4, 38.66 4.31, 40 10 M30 0 C37.39 1.75, 39.08 2.09, 40 10 M40 10 C39.52 20.35, 38.65 27.76, 40 36 M40 10 C40.17 19.19, 39.65 27.18, 40 36 M40 36 C41.21 42.72, 36.1 47.48, 30 46 M40 36 C38.96 42.86, 35.44 44.47, 30 46 M30 46 C26.55 46.03, 22.49 47.17, 10 46 M30 46 C25.36 44.82, 18.49 45.52, 10 46 M10 46 C1.84 44.05, -1.44 44.31, 0 36 M10 46 C3.42 45.92, -0.92 43.47, 0 36 M0 36 C1.53 28.16, 0.02 19.43, 0 10 M0 36 C-0.5 28.72, -0.91 20.16, 0 10 M0 10 C-1.19 3.68, 3.18 -1.11, 10 0 M0 10 C0.7 2.05, 3.36 -1.25, 10 0" stroke="#1e1e1e" stroke-width="2" fill="none"></path></g><g transform="translate(472.0201585151017 748.6270299407041) rotate(0 2.7099990844726562 12.5)"><text x="2.7099990844726562" y="0" font-family="Virgil, Segoe UI Emoji" font-size="20px" fill="#1e1e1e" text-anchor="middle" style="white-space: pre;" direction="ltr" dominant-baseline="text-before-edge">1</text></g><g stroke-linecap="round" transform="translate(410.73015759957434 738.1270299407041) rotate(0 20 23)"><path d="M10 0 C15.64 1.04, 23.67 -1.35, 30 0 M10 0 C17.15 0.04, 23.17 0.33, 30 0 M30 0 C37.29 1.52, 39.2 2.25, 40 10 M30 0 C38.08 -1.36, 38.35 2.95, 40 10 M40 10 C40.32 20.01, 41.79 28.15, 40 36 M40 10 C40.48 19.83, 39.6 30.35, 40 36 M40 36 C39.09 42.83, 35.6 44.67, 30 46 M40 36 C37.77 41.5, 37.66 46.7, 30 46 M30 46 C23.69 44.24, 16.18 48.1, 10 46 M30 46 C25.22 44.97, 21.22 46.76, 10 46 M10 46 C3.41 45.93, -0.8 43.36, 0 36 M10 46 C4.13 45.83, 1.09 44.4, 0 36 M0 36 C-0.02 28.72, -1.51 17.57, 0 10 M0 36 C-0.41 27.1, 0.11 17.29, 0 10 M0 10 C0.61 2.22, 3.36 -1.08, 10 0 M0 10 C-0.01 3.76, 1.39 1.73, 10 0" stroke="#1e1e1e" stroke-width="2" fill="none"></path></g><g transform="translate(423.8501603461564 748.6270299407041) rotate(0 6.879997253417969 12.5)"><text x="6.879997253417969" y="0" font-family="Virgil, Segoe UI Emoji" font-size="20px" fill="#1e1e1e" text-anchor="middle" style="white-space: pre;" direction="ltr" dominant-baseline="text-before-edge">0</text></g><g stroke-linecap="round" transform="translate(366.73015759957434 738.1270299407041) rotate(0 20 23)"><path d="M10 0 C17.91 -1.57, 25.55 0.6, 30 0 M10 0 C16.72 0.66, 22.4 -0.64, 30 0 M30 0 C37.9 -1.18, 38.57 3, 40 10 M30 0 C37.76 -1.38, 38.8 3.88, 40 10 M40 10 C41.79 18.12, 40.96 29.35, 40 36 M40 10 C39.47 17.95, 39.39 25.08, 40 36 M40 36 C38.06 41.65, 37.53 46.61, 30 46 M40 36 C39.94 43.36, 37.91 45.58, 30 46 M30 46 C23.9 45.72, 21.16 44.71, 10 46 M30 46 C25.99 46.13, 21.49 46.51, 10 46 M10 46 C4.03 45.86, 0.95 44.18, 0 36 M10 46 C4.33 46, 0.96 42.65, 0 36 M0 36 C1.18 24.66, -0.37 14.94, 0 10 M0 36 C0.33 27.19, 0.03 18.95, 0 10 M0 10 C-0.01 3.7, 1.64 1.51, 10 0 M0 10 C-0.42 5.1, 3.79 -1.56, 10 0" stroke="#1e1e1e" stroke-width="2" fill="none"></path></g><g transform="translate(384.0201585151017 748.6270299407041) rotate(0 2.7099990844726562 12.5)"><text x="2.7099990844726562" y="0" font-family="Virgil, Segoe UI Emoji" font-size="20px" fill="#1e1e1e" text-anchor="middle" style="white-space: pre;" direction="ltr" dominant-baseline="text-before-edge">1</text></g><g stroke-linecap="round" transform="translate(321.73015759957434 737.1270299407041) rotate(0 20 23)"><path d="M10 0 C14.7 -1.39, 19.57 0.58, 30 0 M10 0 C18.14 -0.48, 24.33 -0.06, 30 0 M30 0 C37.61 -1.2, 38.96 3.81, 40 10 M30 0 C37.79 2.24, 40.1 5.11, 40 10 M40 10 C40.15 16, 41.57 22.23, 40 36 M40 10 C38.89 17.51, 40.29 26.33, 40 36 M40 36 C39.95 43.27, 37.75 45.64, 30 46 M40 36 C37.85 40.45, 38.96 43.74, 30 46 M30 46 C22.53 44.41, 20.59 45.93, 10 46 M30 46 C24.42 46, 18.61 46.82, 10 46 M10 46 C4.2 46, 0.84 42.65, 0 36 M10 46 C5.22 44.26, -0.66 43.8, 0 36 M0 36 C0.42 29.87, -1.03 24.65, 0 10 M0 36 C-0.01 29.83, -0.85 24.05, 0 10 M0 10 C-0.37 4.87, 3.73 -1.35, 10 0 M0 10 C-0.29 1.15, 3.93 -1.98, 10 0" stroke="#1e1e1e" stroke-width="2" fill="none"></path></g><g transform="translate(334.8501603461564 747.6270299407041) rotate(0 6.879997253417969 12.5)"><text x="6.879997253417969" y="0" font-family="Virgil, Segoe UI Emoji" font-size="20px" fill="#1e1e1e" text-anchor="middle" style="white-space: pre;" direction="ltr" dominant-baseline="text-before-edge">0</text></g><g stroke-linecap="round" transform="translate(277.73015759957434 737.1270299407041) rotate(0 20 23)"><path d="M10 0 C16.18 -0.87, 18.23 1.17, 30 0 M10 0 C15.29 -0.57, 19.12 0.27, 30 0 M30 0 C37.64 1.95, 40.09 4.88, 40 10 M30 0 C35.58 0.81, 41.39 3.4, 40 10 M40 10 C40.36 16, 38.86 22.2, 40 36 M40 10 C40.09 16.78, 40.65 22.78, 40 36 M40 36 C38.13 40.74, 38.66 44.03, 30 46 M40 36 C39.45 42.01, 34.95 43.76, 30 46 M30 46 C25.37 45.21, 21.58 46.7, 10 46 M30 46 C24.58 46.15, 18.7 46.14, 10 46 M10 46 C4.98 44.49, -0.58 43.65, 0 36 M10 46 C1.72 45.34, -1.37 43.07, 0 36 M0 36 C-0.97 28.42, -0.94 20.78, 0 10 M0 36 C0.04 28.49, 0.42 18.77, 0 10 M0 10 C-0.25 1.43, 3.85 -1.72, 10 0 M0 10 C0.12 1.89, 2.69 -1.94, 10 0" stroke="#1e1e1e" stroke-width="2" fill="none"></path></g><g transform="translate(290.8501603461564 747.6270299407041) rotate(0 6.879997253417969 12.5)"><text x="6.879997253417969" y="0" font-family="Virgil, Segoe UI Emoji" font-size="20px" fill="#1e1e1e" text-anchor="middle" style="white-space: pre;" direction="ltr" dominant-baseline="text-before-edge">0</text></g><g stroke-linecap="round" transform="translate(520.2301575995743 737.6270299407041) rotate(0 44 24.5)"><path d="M12.25 0 C23.04 -0.27, 39.61 0.75, 75.75 0 M12.25 0 C27.79 -1.04, 45.05 -0.27, 75.75 0 M75.75 0 C83.38 0.62, 86.44 5.26, 88 12.25 M75.75 0 C82.21 0.2, 90.19 3.09, 88 12.25 M88 12.25 C86.87 20.73, 88.63 28.52, 88 36.75 M88 12.25 C88.84 17.44, 87.45 22.93, 88 36.75 M88 36.75 C88.91 44.49, 82.11 47.64, 75.75 49 M88 36.75 C89.57 45.28, 82.25 48.76, 75.75 49 M75.75 49 C62.45 48.76, 47.68 48.32, 12.25 49 M75.75 49 C54.23 49.68, 31.24 48.55, 12.25 49 M12.25 49 C3.92 50.26, -0.4 44.69, 0 36.75 M12.25 49 C4.55 50.39, -0.26 47.2, 0 36.75 M0 36.75 C0.05 31.26, 0.87 21.89, 0 12.25 M0 36.75 C-0.95 31.05, -0.63 26.68, 0 12.25 M0 12.25 C0.82 3.59, 4.68 1.88, 12.25 0 M0 12.25 C-1.38 5.02, 3.79 -0.56, 12.25 0" stroke="#1e1e1e" stroke-width="2" fill="none"></path></g><g transform="translate(557.3501603461564 749.6270299407041) rotate(0 6.879997253417969 12.5)"><text x="6.879997253417969" y="0" font-family="Virgil, Segoe UI Emoji" font-size="20px" fill="#1e1e1e" text-anchor="middle" style="white-space: pre;" direction="ltr" dominant-baseline="text-before-edge">0</text></g><g stroke-linecap="round" transform="translate(631.419126738236 735.6270299407041) rotate(0 44 24.5)"><path d="M12.25 0 C36.49 0.98, 56.84 1.69, 75.75 0 M12.25 0 C27.07 0.41, 41.51 0.94, 75.75 0 M75.75 0 C83.75 -1.07, 88.09 5.63, 88 12.25 M75.75 0 C81.8 1.89, 88.22 5.15, 88 12.25 M88 12.25 C86.9 19.64, 86.23 26.22, 88 36.75 M88 12.25 C87.17 19.89, 88.12 27.83, 88 36.75 M88 36.75 C86.65 44.87, 82.63 48.66, 75.75 49 M88 36.75 C89.17 43.48, 84.93 50.54, 75.75 49 M75.75 49 C57.5 46.59, 38.23 49.98, 12.25 49 M75.75 49 C53.42 49.59, 29.41 49.47, 12.25 49 M12.25 49 C4.39 47.88, -0.78 45.78, 0 36.75 M12.25 49 C2.87 49.6, -0.67 44.85, 0 36.75 M0 36.75 C-1.58 31.16, -0.27 24.19, 0 12.25 M0 36.75 C0.2 29.83, 0.49 22.91, 0 12.25 M0 12.25 C-0.66 6.02, 2.87 1.61, 12.25 0 M0 12.25 C-0.5 2.72, 3.7 -0.95, 12.25 0" stroke="#1e1e1e" stroke-width="2" fill="none"></path></g><g transform="translate(672.7091276537633 747.6270299407041) rotate(0 2.7099990844726562 12.5)"><text x="2.7099990844726562" y="0" font-family="Virgil, Segoe UI Emoji" font-size="20px" fill="#1e1e1e" text-anchor="middle" style="white-space: pre;" direction="ltr" dominant-baseline="text-before-edge">1</text></g><g stroke-linecap="round" transform="translate(744.2301575995743 734.1270299407041) rotate(0 20 23)"><path d="M10 0 C15.29 1.84, 18.27 0.09, 30 0 M10 0 C16.01 -0.4, 21.03 0.73, 30 0 M30 0 C37.78 -0.53, 41.66 1.36, 40 10 M30 0 C35.73 -0.23, 38.98 3.68, 40 10 M40 10 C41.05 21.99, 38.06 32.11, 40 36 M40 10 C40.78 19.71, 40.16 29.18, 40 36 M40 36 C38.59 43.12, 37.03 47.77, 30 46 M40 36 C39.67 41.59, 38.61 44.64, 30 46 M30 46 C23.93 46.64, 21.4 45.71, 10 46 M30 46 C23.25 45.2, 18.26 46.33, 10 46 M10 46 C1.62 45.69, -1.7 44, 0 36 M10 46 C2.71 46.32, -0.18 42.16, 0 36 M0 36 C1.9 27.88, 1.36 23.73, 0 10 M0 36 C-1.02 27.85, -0.92 19.5, 0 10 M0 10 C-0.87 3.15, 3.32 1.61, 10 0 M0 10 C-1.96 5.41, 4.09 -0.54, 10 0" stroke="#1e1e1e" stroke-width="2" fill="none"></path></g><g transform="translate(757.3501603461564 744.6270299407041) rotate(0 6.879997253417969 12.5)"><text x="6.879997253417969" y="0" font-family="Virgil, Segoe UI Emoji" font-size="20px" fill="#1e1e1e" text-anchor="middle" style="white-space: pre;" direction="ltr" dominant-baseline="text-before-edge">0</text></g><g stroke-linecap="round" transform="translate(790.2301575995743 735.1270299407041) rotate(0 20 23)"><path d="M10 0 C16.35 -0.04, 22.65 1.7, 30 0 M10 0 C14.98 0.72, 20.23 -0.16, 30 0 M30 0 C38.32 -1.97, 39.18 3.13, 40 10 M30 0 C35.65 0.35, 42.27 3.04, 40 10 M40 10 C38.23 19.58, 41.53 28.23, 40 36 M40 10 C40.06 15.9, 39.44 22.12, 40 36 M40 36 C40.36 44.44, 36.38 45.06, 30 46 M40 36 C41.94 41.31, 35.21 47.06, 30 46 M30 46 C23.23 45.6, 14.62 44.35, 10 46 M30 46 C22.32 45.96, 13.68 45.65, 10 46 M10 46 C1.63 47.34, -0.55 42.95, 0 36 M10 46 C3.15 45.5, -0.84 40.7, 0 36 M0 36 C0.92 29.36, 0.12 20.22, 0 10 M0 36 C-0.61 29.17, -0.18 22.29, 0 10 M0 10 C-0.02 4.95, 1.63 1.81, 10 0 M0 10 C0.76 2.8, 2.97 -1.5, 10 0" stroke="#1e1e1e" stroke-width="2" fill="none"></path></g><g transform="translate(803.3501603461564 745.6270299407041) rotate(0 6.879997253417969 12.5)"><text x="6.879997253417969" y="0" font-family="Virgil, Segoe UI Emoji" font-size="20px" fill="#1e1e1e" text-anchor="middle" style="white-space: pre;" direction="ltr" dominant-baseline="text-before-edge">0</text></g><g stroke-linecap="round" transform="translate(1012.2301575995743 738.1270299407041) rotate(0 20 23)"><path d="M10 0 C17.34 1.88, 24.64 1.12, 30 0 M10 0 C15.52 -0.39, 20.76 -1.11, 30 0 M30 0 C35.85 -0.2, 39.12 3.63, 40 10 M30 0 C38.93 -0.29, 40.35 4.58, 40 10 M40 10 C41.14 21.77, 38.32 30.91, 40 36 M40 10 C39.28 18.29, 40.16 27.01, 40 36 M40 36 C39.72 41.73, 38.36 44.82, 30 46 M40 36 C38.54 43.72, 38.55 44.46, 30 46 M30 46 C23.42 44.26, 18.78 44.25, 10 46 M30 46 C25.08 45.88, 21.03 46.7, 10 46 M10 46 C2.79 46.28, -0.16 42.23, 0 36 M10 46 C2.5 44.03, 0.25 44.59, 0 36 M0 36 C0.19 30.22, -0.91 21.73, 0 10 M0 36 C-0.21 27.87, 0.22 20.73, 0 10 M0 10 C-1.7 5.14, 3.99 -0.47, 10 0 M0 10 C-0.37 1.83, 4.42 -0.02, 10 0" stroke="#1e1e1e" stroke-width="2" fill="none"></path></g><g transform="translate(1029.5201585151017 748.6270299407041) rotate(0 2.7099990844726562 12.5)"><text x="2.7099990844726562" y="0" font-family="Virgil, Segoe UI Emoji" font-size="20px" fill="#1e1e1e" text-anchor="middle" style="white-space: pre;" direction="ltr" dominant-baseline="text-before-edge">1</text></g><g stroke-linecap="round" transform="translate(968.2301575995743 738.1270299407041) rotate(0 20 23)"><path d="M10 0 C14.99 0.94, 21.27 0.1, 30 0 M10 0 C18.06 -0.93, 24.05 -0.05, 30 0 M30 0 C35.78 0.3, 41.97 3.08, 40 10 M30 0 C37.01 1.25, 41.87 1.14, 40 10 M40 10 C38.75 20.67, 40.38 29.05, 40 36 M40 10 C40 18.57, 39.67 24.89, 40 36 M40 36 C41.69 41.49, 35.4 46.92, 30 46 M40 36 C41.88 41.13, 37.22 47, 30 46 M30 46 C26.18 44.13, 16.97 45.93, 10 46 M30 46 C22.85 46.64, 17.12 46.11, 10 46 M10 46 C3.18 45.56, -0.73 40.95, 0 36 M10 46 C3.58 47.93, -1.45 43.98, 0 36 M0 36 C-0.81 24.38, 0.14 14.93, 0 10 M0 36 C0.1 29.07, -0.74 21.43, 0 10 M0 10 C0.66 2.87, 3.01 -1.31, 10 0 M0 10 C1.09 3.32, 3.28 -1.17, 10 0" stroke="#1e1e1e" stroke-width="2" fill="none"></path></g><g transform="translate(981.3501603461564 748.6270299407041) rotate(0 6.879997253417969 12.5)"><text x="6.879997253417969" y="0" font-family="Virgil, Segoe UI Emoji" font-size="20px" fill="#1e1e1e" text-anchor="middle" style="white-space: pre;" direction="ltr" dominant-baseline="text-before-edge">0</text></g><g stroke-linecap="round" transform="translate(924.2301575995743 738.1270299407041) rotate(0 20 23)"><path d="M10 0 C16.86 0.17, 27.02 1, 30 0 M10 0 C15.06 0.1, 20.5 0.35, 30 0 M30 0 C38.64 -0.26, 40.3 4.42, 40 10 M30 0 C38.54 -2.2, 41.59 4.94, 40 10 M40 10 C40.01 20.04, 39.72 29, 40 36 M40 10 C39.9 17.92, 40.89 26.19, 40 36 M40 36 C38.73 43.58, 38.3 44.67, 30 46 M40 36 C40.55 43.66, 36.15 45.88, 30 46 M30 46 C23.76 45.93, 21.7 44.11, 10 46 M30 46 C24.03 46.27, 18.53 45.92, 10 46 M10 46 C2.61 44.29, 0.22 44.34, 0 36 M10 46 C1.88 47.31, 1.65 43.05, 0 36 M0 36 C0.28 25.97, 0.05 18.54, 0 10 M0 36 C-0.85 29.34, 0.33 20.65, 0 10 M0 10 C-0.32 2.03, 4.28 -0.02, 10 0 M0 10 C-0.05 2.17, 4.53 -2.06, 10 0" stroke="#1e1e1e" stroke-width="2" fill="none"></path></g><g transform="translate(937.3501603461564 748.6270299407041) rotate(0 6.879997253417969 12.5)"><text x="6.879997253417969" y="0" font-family="Virgil, Segoe UI Emoji" font-size="20px" fill="#1e1e1e" text-anchor="middle" style="white-space: pre;" direction="ltr" dominant-baseline="text-before-edge">0</text></g><g stroke-linecap="round" transform="translate(879.2301575995743 737.1270299407041) rotate(0 20 23)"><path d="M10 0 C18.36 1.08, 23.74 1.63, 30 0 M10 0 C13.59 0.17, 19.04 -0.11, 30 0 M30 0 C36.97 1.09, 41.63 1.42, 40 10 M30 0 C38.26 1.6, 42.12 1.69, 40 10 M40 10 C39.93 17.79, 40.48 28.75, 40 36 M40 10 C40.81 19.52, 39.33 30.67, 40 36 M40 36 C41.64 41.33, 37.14 46.87, 30 46 M40 36 C39.48 42.54, 34.72 47.99, 30 46 M30 46 C26.01 44.3, 21.1 44.31, 10 46 M30 46 C22.58 45.81, 14.96 45.17, 10 46 M10 46 C3.55 47.67, -1.26 43.8, 0 36 M10 46 C4.99 46.39, 0.44 41.79, 0 36 M0 36 C-0.07 29.87, -0.21 25.45, 0 10 M0 36 C0.55 25.87, 0.06 15.55, 0 10 M0 10 C0.95 3.32, 3.29 -1.01, 10 0 M0 10 C1.2 1.27, 1.4 1.33, 10 0" stroke="#1e1e1e" stroke-width="2" fill="none"></path></g><g transform="translate(892.3501603461564 747.6270299407041) rotate(0 6.879997253417969 12.5)"><text x="6.879997253417969" y="0" font-family="Virgil, Segoe UI Emoji" font-size="20px" fill="#1e1e1e" text-anchor="middle" style="white-space: pre;" direction="ltr" dominant-baseline="text-before-edge">0</text></g><g stroke-linecap="round" transform="translate(835.2301575995743 737.1270299407041) rotate(0 20 23)"><path d="M10 0 C15.76 1.55, 20.6 -0.93, 30 0 M10 0 C16.78 -0.16, 21.74 0.51, 30 0 M30 0 C38.3 -1.91, 41.39 4.73, 40 10 M30 0 C38.79 -1.64, 41.23 3.56, 40 10 M40 10 C40.44 17.96, 41.76 24.9, 40 36 M40 10 C39.59 17.04, 41.04 22.5, 40 36 M40 36 C40.48 43.53, 36.21 45.89, 30 46 M40 36 C38.05 44.66, 34.71 43.77, 30 46 M30 46 C23.59 44.13, 19.13 45.28, 10 46 M30 46 C23.36 45.1, 17.55 46.79, 10 46 M10 46 C2.07 47.14, 1.44 43, 0 36 M10 46 C3.77 45.12, -2.24 42.88, 0 36 M0 36 C-0.18 30.44, 1.62 23.21, 0 10 M0 36 C-0.25 25.2, 0.39 15.7, 0 10 M0 10 C-0.04 2.32, 4.37 -1.79, 10 0 M0 10 C-1.93 4.67, 1.78 0.47, 10 0" stroke="#1e1e1e" stroke-width="2" fill="none"></path></g><g transform="translate(848.3501603461564 747.6270299407041) rotate(0 6.879997253417969 12.5)"><text x="6.879997253417969" y="0" font-family="Virgil, Segoe UI Emoji" font-size="20px" fill="#1e1e1e" text-anchor="middle" style="white-space: pre;" direction="ltr" dominant-baseline="text-before-edge">0</text></g><g stroke-linecap="round" transform="translate(195.73015759957434 876.1270299407041) rotate(0 144 45.5)"><path d="M22.75 0 C114.6 0.19, 205.7 2.11, 265.25 0 M22.75 0 C90.8 -1.56, 157.98 -1.34, 265.25 0 M265.25 0 C281.95 0.26, 286.33 5.75, 288 22.75 M265.25 0 C280.16 -0.98, 289.25 5.86, 288 22.75 M288 22.75 C286.28 35.1, 288.69 43.49, 288 68.25 M288 22.75 C287.52 34.39, 289.07 46.52, 288 68.25 M288 68.25 C287.64 81.91, 279.04 92.51, 265.25 91 M288 68.25 C287.85 83.26, 282.31 90.31, 265.25 91 M265.25 91 C170.13 90.85, 72.8 90.18, 22.75 91 M265.25 91 C192.4 90.91, 120.31 91.21, 22.75 91 M22.75 91 C9.22 92.79, -1.92 83.47, 0 68.25 M22.75 91 C8.93 90.64, -0.38 84.16, 0 68.25 M0 68.25 C-0.21 57.74, -1.75 48.32, 0 22.75 M0 68.25 C-0.38 54.77, 0.05 40.2, 0 22.75 M0 22.75 C-1.03 6.13, 9.24 -0.46, 22.75 0 M0 22.75 C2.24 6.31, 8.22 0.24, 22.75 0" stroke="#1e1e1e" stroke-width="2" fill="none"></path></g><g transform="translate(318.0301759101212 909.1270299407041) rotate(0 21.699981689453125 12.5)"><text x="21.699981689453125" y="0" font-family="Virgil, Segoe UI Emoji" font-size="20px" fill="#1e1e1e" text-anchor="middle" style="white-space: pre;" direction="ltr" dominant-baseline="text-before-edge">ROM</text></g><g stroke-linecap="round" transform="translate(642.8874786501306 877.1270299407041) rotate(0 143.5 45.5)"><path d="M0 0 C100.84 -0.53, 199.59 0.39, 287 0 M0 0 C77.31 1.91, 156.23 1.56, 287 0 M287 0 C286.23 37.9, 287.1 73.95, 287 91 M287 0 C286.87 19.6, 286.3 40.21, 287 91 M287 91 C210.13 92.26, 132.78 91.64, 0 91 M287 91 C194.19 89.85, 100.64 90.43, 0 91 M0 91 C0.7 60.69, -0.39 33.34, 0 0 M0 91 C1.4 70.78, 1.02 49.64, 0 0" stroke="#1e1e1e" stroke-width="2" fill="none"></path></g><g transform="translate(712.0675628786462 910.1270299407041) rotate(0 74.31991577148438 12.5)"><text x="74.31991577148438" y="0" font-family="Virgil, Segoe UI Emoji" font-size="20px" fill="#1e1e1e" text-anchor="middle" style="white-space: pre;" direction="ltr" dominant-baseline="text-before-edge">Processing Unit</text></g><g stroke-linecap="round" transform="translate(175.73015759957434 997.1270299407041) rotate(0 444 121.5)"><path d="M32 0 C273.91 -1.28, 515.32 -1.42, 856 0 M32 0 C280.04 0.18, 528.6 0.22, 856 0 M856 0 C876.49 0.52, 889.51 10.95, 888 32 M856 0 C875.9 0.05, 887.89 10.11, 888 32 M888 32 C887.22 69.07, 889.84 104.71, 888 211 M888 32 C887 86.44, 885.97 140.89, 888 211 M888 211 C888.11 233.62, 878.46 241.99, 856 243 M888 211 C886.55 231.1, 879.53 243.54, 856 243 M856 243 C529.29 245.63, 203.44 245.56, 32 243 M856 243 C537.99 240.45, 219.88 240.39, 32 243 M32 243 C10.58 241.01, 0.05 231.62, 0 211 M32 243 C9.41 242.05, 0.91 232.63, 0 211 M0 211 C-0.21 150.47, -0.35 93.06, 0 32 M0 211 C-1.9 172.8, -1.29 134.29, 0 32 M0 32 C0.57 8.75, 10.37 -1.97, 32 0 M0 32 C-0.16 11, 8.55 0.27, 32 0" stroke="#1e1e1e" stroke-width="2" fill="none"></path></g><g transform="translate(553.4102341986954 1106.1270299407042) rotate(0 66.3199234008789 12.5)"><text x="66.3199234008789" y="0" font-family="Virgil, Segoe UI Emoji" font-size="20px" fill="#1e1e1e" text-anchor="middle" style="white-space: pre;" direction="ltr" dominant-baseline="text-before-edge">Storage Cells</text></g><g stroke-linecap="round"><g transform="translate(356.5993631874346 788.2572335328999) rotate(0 153.60216674386447 45.51175310929318)"><path d="M0 0 C-0.85 17.14, -0.89 32.95, 0 54.99 M0 0 C-0.31 19.22, -0.9 38.02, 0 54.99 M0 54.99 C92 53.27, 183.61 52.06, 305.31 53.1 M0 54.99 C101.16 55.95, 201.57 56.17, 305.31 53.1 M305.31 53.1 C307.3 63.32, 306.44 71.29, 307.2 91.02 M305.31 53.1 C306.11 63.07, 306.64 73.91, 307.2 91.02" stroke="#1e1e1e" stroke-width="2" fill="none"></path></g></g><mask></mask><g stroke-linecap="round"><g transform="translate(561.4022521792538 784.4645874404588) rotate(0 63.52682204838845 42.66726853996238)"><path d="M0 0 C0.61 12.98, -4.18 22.85, -3.79 36.03 M0 0 C-1.08 11.39, -3.52 24.21, -3.79 36.03 M-3.79 36.03 C26.77 36.39, 57.04 37.3, 130.85 39.82 M-3.79 36.03 C37.29 37.56, 77.85 39.73, 130.85 39.82 M130.85 39.82 C130.91 49.82, 128.19 59.57, 128.95 85.33 M130.85 39.82 C130.03 55.28, 129.64 71.71, 128.95 85.33" stroke="#1e1e1e" stroke-width="2" fill="none"></path></g></g><mask></mask><g stroke-linecap="round"><g transform="translate(677.0779579987072 788.2572335328999) rotate(0 27.496684170198023 41.719107016852035)"><path d="M0 0 C0.48 8.97, 0.95 17.18, 1.9 24.65 M0 0 C0.3 9.11, 1.79 17.47, 1.9 24.65 M1.9 24.65 C14.8 25.28, 25.33 23.81, 54.99 24.65 M1.9 24.65 C15.34 25.26, 28.68 25.34, 54.99 24.65 M54.99 24.65 C55.21 45.24, 52.38 61.77, 51.2 83.44 M54.99 24.65 C54.97 42.09, 53.51 57.36, 51.2 83.44" stroke="#1e1e1e" stroke-width="2" fill="none"></path></g></g><mask></mask><g stroke-linecap="round"><g transform="translate(885.6734930829678 790.1535565791204) rotate(0 0 41.71910701685209)"><path d="M0 0 C-0.08 22.8, -2.18 40.02, 0 83.44 M0 0 C-0.49 28.2, -0.48 54.99, 0 83.44" stroke="#1e1e1e" stroke-width="2" fill="none"></path></g></g><mask></mask><g stroke-linecap="round"><g transform="translate(481.75668423799084 924.7924928607795) rotate(0 82.49005251059384 0.9481615231102296)"><path d="M0 0 C62.16 0.99, 120.82 -0.51, 164.98 1.9" stroke="#1e1e1e" stroke-width="2.5" fill="none" stroke-dasharray="8 10"></path></g></g><mask></mask><g stroke-linecap="round"><g transform="translate(787.0646946794991 972.2005690162931) rotate(0 0 13.27426132354384)"><path d="M0 0 C-0.49 5.67, 0.26 10.72, 0 26.55" stroke="#1e1e1e" stroke-width="2.5" fill="none" stroke-dasharray="8 10"></path></g></g><mask></mask><g transform="translate(10 671.6666666666667) rotate(0 86.38990020751953 12.5)"><text x="0" y="0" font-family="Virgil, Segoe UI Emoji" font-size="20px" fill="#1e1e1e" text-anchor="start" style="white-space: pre;" direction="ltr" dominant-baseline="text-before-edge">Address register </text></g><g transform="translate(1065.4166666666663 677.9166666666667) rotate(0 88.4898910522461 12.5)"><text x="0" y="0" font-family="Virgil, Segoe UI Emoji" font-size="20px" fill="#1e1e1e" text-anchor="start" style="white-space: pre;" direction="ltr" dominant-baseline="text-before-edge">Data register = 1</text></g><g stroke-linecap="round" transform="translate(180.41666666666652 278.33333333333326) rotate(0 440.83333333333326 51.666666666666686)"><path d="M0 0 C0 0, 0 0, 0 0 M0 0 C0 0, 0 0, 0 0 M0.13 12.04 C4.26 9.45, 6.45 3.66, 10.63 -0.03 M0.13 12.04 C3.66 7.93, 6.55 4.24, 10.63 -0.03 M0.27 24.08 C7.32 17.89, 11.95 9.95, 21.26 -0.07 M0.27 24.08 C6.1 16.67, 13.37 10.2, 21.26 -0.07 M-0.26 36.88 C11.92 21.89, 21.94 9.02, 31.89 -0.1 M-0.26 36.88 C13.22 21.85, 25.69 7.59, 31.89 -0.1 M-0.12 48.92 C14.28 30.31, 30.17 14.32, 42.52 -0.14 M-0.12 48.92 C13.92 32.15, 27.48 15.4, 42.52 -0.14 M0.01 60.96 C16.96 43.37, 31.55 22.05, 53.15 -0.17 M0.01 60.96 C18.7 38.37, 37.29 16.6, 53.15 -0.17 M0.14 73 C16.05 56.59, 27.35 41.11, 63.78 -0.21 M0.14 73 C17.89 53.58, 35.82 33.66, 63.78 -0.21 M0.28 85.04 C18.65 65.02, 33.74 48.68, 74.41 -0.24 M0.28 85.04 C28.16 52.75, 56.98 18.77, 74.41 -0.24 M-0.25 97.84 C24.75 65.95, 52.28 34, 85.04 -0.28 M-0.25 97.84 C19.94 73.48, 39.27 50.81, 85.04 -0.28 M5.13 103.84 C27.17 77.66, 50.33 48.77, 95.67 -0.31 M5.13 103.84 C30.68 74.48, 55.74 47.05, 95.67 -0.31 M15.76 103.8 C34.47 81.55, 58.89 55.71, 106.3 -0.34 M15.76 103.8 C35.75 79.16, 58.72 53.56, 106.3 -0.34 M26.39 103.77 C53.07 71.4, 83.45 40.81, 116.27 0.38 M26.39 103.77 C48.39 80.08, 68.61 55.52, 116.27 0.38 M37.02 103.74 C72.3 64.14, 103.33 26.64, 126.91 0.34 M37.02 103.74 C60.24 74.68, 83.66 48.04, 126.91 0.34 M47.66 103.7 C81.97 66.79, 114.21 27.75, 137.54 0.31 M47.66 103.7 C77.77 68.48, 109.51 32.6, 137.54 0.31 M58.29 103.67 C95.83 62.69, 128.64 21.42, 148.17 0.27 M58.29 103.67 C77.21 82.35, 97.46 58.75, 148.17 0.27 M68.92 103.63 C101.49 65.89, 136.01 29.54, 158.8 0.24 M68.92 103.63 C95.08 72.63, 121.4 41.38, 158.8 0.24 M79.55 103.6 C109.56 70.81, 142.07 32.8, 169.43 0.2 M79.55 103.6 C111.12 67.71, 141.56 33.8, 169.43 0.2 M90.18 103.56 C117.24 71.97, 148.81 37.14, 180.06 0.17 M90.18 103.56 C108.71 80.65, 129.58 58.03, 180.06 0.17 M100.81 103.53 C123.93 77.79, 148.36 49.39, 190.69 0.13 M100.81 103.53 C117.71 81.15, 135.98 61.8, 190.69 0.13 M111.44 103.49 C146.47 62.93, 180.57 22.22, 201.32 0.1 M111.44 103.49 C137.21 72.67, 163.64 44.15, 201.32 0.1 M122.07 103.46 C143.08 77.8, 165.33 53.04, 211.95 0.06 M122.07 103.46 C149.88 71.71, 178.9 38.38, 211.95 0.06 M132.7 103.43 C152.38 78.71, 175.7 54.57, 222.58 0.03 M132.7 103.43 C161.17 71.54, 187.32 40.88, 222.58 0.03 M143.33 103.39 C181.08 63.43, 216.14 20.47, 233.21 0 M143.33 103.39 C171.46 69.35, 200.62 36.62, 233.21 0 M153.96 103.36 C175.58 81.64, 194.35 58.37, 243.84 -0.04 M153.96 103.36 C179.28 74.62, 204.53 44.64, 243.84 -0.04 M164.59 103.32 C185.51 79.99, 206.97 55.48, 254.47 -0.07 M164.59 103.32 C201.58 63.03, 235.76 22.31, 254.47 -0.07 M175.22 103.29 C202.8 76.1, 225.21 47.93, 265.1 -0.11 M175.22 103.29 C202.48 69.26, 231.51 37.26, 265.1 -0.11 M185.85 103.25 C209.74 75.44, 231.04 49.55, 275.73 -0.14 M185.85 103.25 C208.23 77.47, 230.98 50.18, 275.73 -0.14 M196.48 103.22 C230.18 62.9, 266.79 24.04, 286.36 -0.18 M196.48 103.22 C223.65 72.24, 250.57 40.17, 286.36 -0.18 M207.11 103.18 C227.08 79.92, 249.02 55.41, 296.99 -0.21 M207.11 103.18 C238.76 68.1, 269.26 32.71, 296.99 -0.21 M217.74 103.15 C241.94 75.8, 266.15 43.83, 307.62 -0.25 M217.74 103.15 C251.7 63.68, 286.11 24.85, 307.62 -0.25 M228.37 103.12 C256.47 69.65, 286.58 38.92, 318.25 -0.28 M228.37 103.12 C249.34 77.3, 271.65 53.86, 318.25 -0.28 M238.34 103.84 C257.35 82.83, 277.84 59.25, 328.88 -0.31 M238.34 103.84 C267.38 72.52, 294.71 38.22, 328.88 -0.31 M248.97 103.8 C273.97 74.24, 298.12 44.84, 339.51 -0.35 M248.97 103.8 C272.98 76.28, 297.15 49.27, 339.51 -0.35 M259.6 103.77 C290.74 72.49, 317.37 38.07, 349.48 0.37 M259.6 103.77 C288.53 71.01, 317.26 37.53, 349.48 0.37 M270.23 103.73 C300.97 72.35, 330 38.87, 360.11 0.34 M270.23 103.73 C292.84 76.77, 315.46 51.04, 360.11 0.34 M280.86 103.7 C309.28 71.64, 332.36 41.54, 370.74 0.3 M280.86 103.7 C302.42 78.82, 323.45 54.8, 370.74 0.3 M291.49 103.66 C311.4 78.26, 333.7 54.8, 381.37 0.27 M291.49 103.66 C310.56 82.13, 328.78 60.83, 381.37 0.27 M302.12 103.63 C331.82 69.27, 357.9 38.37, 392 0.23 M302.12 103.63 C332.15 67.59, 362.03 33.09, 392 0.23 M312.75 103.59 C333.05 78.64, 357.15 50.68, 402.63 0.2 M312.75 103.59 C334.49 79.08, 354.48 55.55, 402.63 0.2 M323.38 103.56 C349.27 73.8, 373.73 43.96, 413.26 0.16 M323.38 103.56 C355.37 66.76, 386.65 30.5, 413.26 0.16 M334.01 103.52 C367.64 61.89, 403.82 23.14, 423.89 0.13 M334.01 103.52 C368.36 63.98, 402.54 23.31, 423.89 0.13 M344.64 103.49 C366.12 78.07, 385.56 56.13, 434.52 0.1 M344.64 103.49 C379.43 63.18, 414.72 22.63, 434.52 0.1 M355.27 103.46 C386.59 70.01, 414.37 32.15, 445.15 0.06 M355.27 103.46 C377.23 78.14, 401.43 50.37, 445.15 0.06 M365.9 103.42 C392.65 73.12, 417.29 41, 455.78 0.03 M365.9 103.42 C388.15 77.27, 412.24 51.42, 455.78 0.03 M376.53 103.39 C405.06 67.84, 438.51 34.87, 466.41 -0.01 M376.53 103.39 C408.91 65.53, 441.38 27.99, 466.41 -0.01 M387.16 103.35 C417.06 71.37, 443.16 37.43, 477.04 -0.04 M387.16 103.35 C419.24 66.55, 451.12 29.38, 477.04 -0.04 M397.79 103.32 C422.02 75.21, 449.18 45.2, 487.67 -0.08 M397.79 103.32 C430.52 66.42, 463.08 28.26, 487.67 -0.08 M408.42 103.28 C431.01 75.48, 457.27 48.58, 498.3 -0.11 M408.42 103.28 C440.56 68.26, 471.63 32.86, 498.3 -0.11 M419.05 103.25 C442.11 75.14, 466.44 47.94, 508.93 -0.15 M419.05 103.25 C440.12 77.37, 461.24 53.97, 508.93 -0.15 M429.68 103.21 C450.05 78.68, 470.02 58.25, 519.56 -0.18 M429.68 103.21 C455.97 74.26, 482.06 42.92, 519.56 -0.18 M440.31 103.18 C459.77 82.39, 477.51 60.66, 530.19 -0.22 M440.31 103.18 C469.03 69.58, 498.89 35, 530.19 -0.22 M450.94 103.15 C483.57 63.67, 518.02 21.7, 540.82 -0.25 M450.94 103.15 C479.61 71.8, 509.04 37.46, 540.82 -0.25 M461.57 103.11 C481.2 79.29, 502.78 52.24, 551.45 -0.28 M461.57 103.11 C487.62 74.33, 511.26 45.1, 551.45 -0.28 M471.55 103.83 C496.2 75.38, 521.8 45.03, 562.08 -0.32 M471.55 103.83 C507.18 64.63, 541.2 24.74, 562.08 -0.32 M482.18 103.8 C509.9 72.04, 537.58 40.25, 572.71 -0.35 M482.18 103.8 C508.73 74.39, 535.3 45.08, 572.71 -0.35 M492.81 103.76 C523.41 70.25, 552.29 37.98, 582.69 0.37 M492.81 103.76 C517.44 77.47, 541.28 49.21, 582.69 0.37 M503.44 103.73 C536.21 65.72, 570.68 26.45, 593.32 0.33 M503.44 103.73 C527.67 74.66, 552.78 45.16, 593.32 0.33 M514.07 103.69 C537.69 75.05, 563.04 48.12, 603.95 0.3 M514.07 103.69 C546.74 64.91, 581.15 26.93, 603.95 0.3 M524.7 103.66 C541.54 80.29, 560.53 59.15, 614.58 0.26 M524.7 103.66 C554 71.13, 581.93 36.52, 614.58 0.26 M535.33 103.62 C569.14 66.88, 600.82 30.9, 625.21 0.23 M535.33 103.62 C569.42 64.23, 603.85 25.93, 625.21 0.23 M545.96 103.59 C566.88 81.23, 585.71 59.47, 635.84 0.19 M545.96 103.59 C564.23 83.01, 582.3 60.83, 635.84 0.19 M556.59 103.56 C593.85 63.7, 629.01 22.5, 646.47 0.16 M556.59 103.56 C589.81 66.65, 622.7 28.01, 646.47 0.16 M567.22 103.52 C585.17 81.51, 602.41 62.19, 657.1 0.13 M567.22 103.52 C590.14 76.66, 613.94 48.5, 657.1 0.13 M577.85 103.49 C601.59 75.07, 621.1 48.72, 667.73 0.09 M577.85 103.49 C600.65 77.26, 625.57 50.92, 667.73 0.09 M588.48 103.45 C625.03 62.43, 657.86 21.45, 678.36 0.06 M588.48 103.45 C620.66 66.04, 655.19 28.62, 678.36 0.06 M599.11 103.42 C627.94 67.43, 660.71 32.96, 688.99 0.02 M599.11 103.42 C616.5 82.03, 636.17 62.1, 688.99 0.02 M609.74 103.38 C628.97 77.2, 652.71 54.43, 699.62 -0.01 M609.74 103.38 C637.76 72.3, 664.52 39.31, 699.62 -0.01 M620.37 103.35 C654.24 62.33, 689.71 22.47, 710.25 -0.05 M620.37 103.35 C638.2 82.99, 656.64 61.14, 710.25 -0.05 M631 103.31 C665.18 64.66, 696.51 28.19, 720.88 -0.08 M631 103.31 C650.5 81.29, 668.58 59.77, 720.88 -0.08 M641.63 103.28 C665.6 79.57, 686.15 52.77, 731.51 -0.12 M641.63 103.28 C668.72 73.77, 693.32 44.71, 731.51 -0.12 M652.26 103.24 C675.52 75.56, 704.05 46.23, 742.14 -0.15 M652.26 103.24 C685.11 66.16, 718.23 29.67, 742.14 -0.15 M662.89 103.21 C686.69 77.56, 707.97 50.76, 752.77 -0.19 M662.89 103.21 C688.88 71.85, 716.53 41.43, 752.77 -0.19 M673.52 103.18 C697.76 78.8, 721.34 51.8, 763.4 -0.22 M673.52 103.18 C704.77 65.76, 736.47 30.12, 763.4 -0.22 M684.15 103.14 C710.1 73.22, 731.49 45.82, 774.03 -0.25 M684.15 103.14 C713.82 67.8, 744.95 31.77, 774.03 -0.25 M694.78 103.11 C729.23 62.4, 763.35 24.4, 784.66 -0.29 M694.78 103.11 C723.95 68.47, 752.63 35.59, 784.66 -0.29 M704.75 103.83 C731.71 73.77, 760.92 43.55, 795.29 -0.32 M704.75 103.83 C736.29 68.36, 767.26 32.27, 795.29 -0.32 M715.38 103.79 C750.77 62.88, 788.32 21.41, 805.92 -0.36 M715.38 103.79 C747.66 69.04, 779.89 32.38, 805.92 -0.36 M726.01 103.76 C746.36 78.57, 769.05 53.26, 815.89 0.36 M726.01 103.76 C752.2 75.2, 776.41 46.87, 815.89 0.36 M736.64 103.72 C757.89 82.83, 777.46 59.22, 826.52 0.33 M736.64 103.72 C757.02 81.85, 777.76 57.97, 826.52 0.33 M747.27 103.69 C773.71 70.86, 801.05 40.17, 837.15 0.29 M747.27 103.69 C776.84 68.85, 806.22 35.53, 837.15 0.29 M757.9 103.65 C777.35 82.05, 796.16 60.66, 847.78 0.26 M757.9 103.65 C785.77 71.39, 812.77 40.12, 847.78 0.26 M768.53 103.62 C787.09 80.46, 809.44 57.04, 858.41 0.22 M768.53 103.62 C799.5 67.19, 829.71 33.49, 858.41 0.22 M779.16 103.59 C811.33 68.75, 839.65 31.9, 869.04 0.19 M779.16 103.59 C802.37 76.1, 824.44 51.37, 869.04 0.19 M789.79 103.55 C811.92 77.82, 835.34 49.76, 879.67 0.16 M789.79 103.55 C823.65 64.41, 856.38 26.73, 879.67 0.16 M800.42 103.52 C831.1 69.01, 859.02 33.11, 882.43 9.18 M800.42 103.52 C824.41 76.68, 846.46 50.6, 882.43 9.18 M811.05 103.48 C836.4 76.61, 860.44 46.54, 881.91 21.97 M811.05 103.48 C832.9 77.76, 855.86 51.5, 881.91 21.97 M821.68 103.45 C839.82 80.66, 861.02 61.11, 882.04 34.01 M821.68 103.45 C840.1 79.38, 861.38 57.71, 882.04 34.01 M832.31 103.41 C843.94 92.42, 852.76 79.34, 882.17 46.06 M832.31 103.41 C848.06 85.28, 864.34 66.62, 882.17 46.06 M842.94 103.38 C857.82 86.34, 871.45 68.75, 882.31 58.1 M842.94 103.38 C853.5 90.19, 864.22 78.84, 882.31 58.1 M853.57 103.34 C863.67 89.8, 878.27 77.36, 882.44 70.14 M853.57 103.34 C865.22 91.54, 875.19 78.69, 882.44 70.14 M864.2 103.31 C872.35 97.13, 878.67 86.15, 881.92 82.93 M864.2 103.31 C870.55 96.69, 875.23 88.56, 881.92 82.93 M874.83 103.28 C876.63 101.59, 879.33 98.69, 882.05 94.97 M874.83 103.28 C876.16 101.58, 878.38 99.49, 882.05 94.97 M0.16 103.47 C0.16 103.47, 0.16 103.47, 0.16 103.47 M0.16 103.47 C0.16 103.47, 0.16 103.47, 0.16 103.47 M12.2 103.34 C7.71 99.02, 2.27 96.77, 0.12 92.84 M12.2 103.34 C8.16 100.53, 5.48 96.7, 0.12 92.84 M24.24 103.2 C19.2 97.8, 12.19 93.27, 0.09 82.21 M24.24 103.2 C17.14 97.9, 10.98 92.97, 0.09 82.21 M36.28 103.07 C22.41 90.99, 12.31 79.38, 0.05 71.58 M36.28 103.07 C24.69 93.79, 13.99 82.67, 0.05 71.58 M49.07 103.59 C37.9 93.13, 29.04 86.71, 0.02 60.95 M49.07 103.59 C33.16 91.04, 19.03 78.38, 0.02 60.95 M61.12 103.46 C39.84 88.15, 22.03 71.21, -0.02 50.32 M61.12 103.46 C47.63 92.09, 33.44 78.97, -0.02 50.32 M73.16 103.33 C52.8 84.05, 32.3 65.91, -0.05 39.69 M73.16 103.33 C49.83 84.54, 27.38 63.81, -0.05 39.69 M85.2 103.19 C52.77 75.99, 20.27 46.92, -0.09 29.06 M85.2 103.19 C57.54 79.34, 29.88 54.71, -0.09 29.06 M97.24 103.06 C77.03 83.46, 57.96 69.51, -0.12 18.43 M97.24 103.06 C69.65 79.73, 42.9 55.67, -0.12 18.43 M110.03 103.58 C83.3 82.67, 60.79 61.93, -0.15 7.8 M110.03 103.58 C83.58 81.82, 56.53 58.36, -0.15 7.8 M122.07 103.45 C85.5 72.13, 47.91 38.63, 1.32 -1.52 M122.07 103.45 C88.33 74.45, 56.8 46.49, 1.32 -1.52 M134.12 103.32 C106.12 78.75, 78.1 54.25, 13.36 -1.65 M134.12 103.32 C100.36 74.17, 67.86 45.52, 13.36 -1.65 M146.16 103.18 C100.44 62.39, 54.02 21.2, 25.4 -1.79 M146.16 103.18 C106.19 68.82, 67.07 35.1, 25.4 -1.79 M158.2 103.05 C119.58 70.43, 79.26 33.92, 38.2 -1.26 M158.2 103.05 C124.36 75.47, 89.65 46.37, 38.2 -1.26 M170.99 103.57 C137.98 75.5, 102.82 44.09, 50.24 -1.4 M170.99 103.57 C132.32 69.82, 93.81 35.19, 50.24 -1.4 M183.03 103.44 C155.27 81.05, 129.96 56.84, 62.28 -1.53 M183.03 103.44 C158 82.5, 133.32 62.25, 62.28 -1.53 M195.07 103.31 C167.27 77.39, 136.14 51.28, 74.32 -1.66 M195.07 103.31 C152.25 66.76, 109.2 30.93, 74.32 -1.66 M207.12 103.17 C174.18 76.65, 142.45 45.89, 86.36 -1.8 M207.12 103.17 C169.88 69.5, 131.22 35.15, 86.36 -1.8 M219.16 103.04 C176.8 64.69, 129.38 25.14, 99.16 -1.27 M219.16 103.04 C183.54 70.78, 144.95 38.9, 99.16 -1.27 M231.95 103.56 C203.55 76.38, 172.56 52, 111.2 -1.41 M231.95 103.56 C206.47 82.66, 182.3 61.09, 111.2 -1.41 M243.99 103.43 C199.3 60.99, 151.27 22.36, 123.24 -1.54 M243.99 103.43 C205.49 69.95, 166.55 38.17, 123.24 -1.54 M256.03 103.3 C207.55 60.79, 158.83 21.67, 135.28 -1.67 M256.03 103.3 C212.08 63.7, 168.04 24.69, 135.28 -1.67 M268.07 103.16 C235.79 77.42, 206.17 50.06, 147.32 -1.81 M268.07 103.16 C230.05 71.67, 194.78 40.69, 147.32 -1.81 M280.11 103.03 C241.52 69.6, 201.55 32.62, 160.12 -1.28 M280.11 103.03 C253.05 78.03, 224.05 53.29, 160.12 -1.28 M292.91 103.55 C244.05 60.27, 199.62 21.92, 172.16 -1.42 M292.91 103.55 C266.26 78.65, 237.71 54.27, 172.16 -1.42 M304.95 103.42 C255.15 61.25, 207.7 21.39, 184.2 -1.55 M304.95 103.42 C267.64 69.12, 227.44 35.51, 184.2 -1.55 M316.99 103.29 C268.57 60.93, 222.65 19.37, 196.24 -1.68 M316.99 103.29 C287.23 76.92, 256.69 50.63, 196.24 -1.68 M329.03 103.15 C297.99 76.08, 268.01 47.54, 208.28 -1.81 M329.03 103.15 C294.39 72.74, 260.46 43.05, 208.28 -1.81 M341.07 103.02 C296.93 64.09, 251.15 29.73, 221.08 -1.29 M341.07 103.02 C297.95 65.96, 254.44 29.51, 221.08 -1.29 M353.87 103.54 C314.9 67.05, 272.8 31.31, 233.12 -1.43 M353.87 103.54 C319.26 72.29, 284.8 41.5, 233.12 -1.43 M365.91 103.41 C321.03 64.99, 274.11 24.36, 245.16 -1.56 M365.91 103.41 C325.76 67.67, 284.26 32.49, 245.16 -1.56 M377.95 103.28 C330.67 63.24, 286.99 25.16, 257.2 -1.69 M377.95 103.28 C352.23 82.34, 327.68 60.6, 257.2 -1.69 M389.99 103.14 C342.89 61.2, 294.29 21.72, 269.24 -1.82 M389.99 103.14 C366.13 82.24, 340.12 59.21, 269.24 -1.82 M402.03 103.01 C372.56 80.03, 343.92 55.88, 282.03 -1.3 M402.03 103.01 C371.05 76.51, 343.18 51.23, 282.03 -1.3 M414.83 103.53 C371.69 66.66, 330.33 30.12, 294.08 -1.43 M414.83 103.53 C365.14 63.11, 318.37 21, 294.08 -1.43 M426.87 103.4 C384.56 68.04, 342.37 30.82, 306.12 -1.57 M426.87 103.4 C389.88 70.27, 352.38 40.26, 306.12 -1.57 M438.91 103.27 C402.89 71.64, 369.31 44.8, 318.16 -1.7 M438.91 103.27 C398.48 67.35, 355.07 29.38, 318.16 -1.7 M450.95 103.14 C420.11 78.79, 394.23 51.98, 330.2 -1.83 M450.95 103.14 C424.88 79.42, 398.66 57.74, 330.2 -1.83 M463.75 103.66 C437.94 82.89, 414.13 59.9, 342.99 -1.31 M463.75 103.66 C426.84 71.85, 387.84 39.1, 342.99 -1.31 M475.79 103.53 C448.65 83.01, 423.95 60.89, 355.03 -1.44 M475.79 103.53 C437.35 69.39, 398.53 37.6, 355.03 -1.44 M487.83 103.39 C462.01 80.84, 437.27 57.58, 367.07 -1.58 M487.83 103.39 C441.37 63.31, 395.96 23, 367.07 -1.58 M499.87 103.26 C468.88 78.34, 439.54 48.04, 379.12 -1.71 M499.87 103.26 C465.21 75.92, 432.96 47.05, 379.12 -1.71 M511.91 103.13 C463.98 60.98, 416.74 21.53, 391.16 -1.84 M511.91 103.13 C483.03 80.74, 456.01 55.68, 391.16 -1.84 M524.71 103.65 C482.53 67.06, 441.91 33.4, 403.95 -1.32 M524.71 103.65 C494.39 76.59, 463.64 50.03, 403.95 -1.32 M536.75 103.52 C499.94 71.68, 464.1 41.62, 415.99 -1.45 M536.75 103.52 C493.13 64.24, 447.35 26.12, 415.99 -1.45 M548.79 103.38 C506.53 68.38, 465.15 30.83, 428.03 -1.59 M548.79 103.38 C506.71 66.96, 465.38 30.31, 428.03 -1.59 M560.83 103.25 C526.04 70.06, 488.2 38.91, 440.07 -1.72 M560.83 103.25 C520.51 70.43, 482.8 36.22, 440.07 -1.72 M572.87 103.12 C538.07 75.1, 501.55 43.79, 452.87 -1.2 M572.87 103.12 C530.01 65.59, 486.57 29.75, 452.87 -1.2 M585.66 103.64 C561.28 83.12, 535.02 61.73, 464.91 -1.33 M585.66 103.64 C557.93 80.28, 529.73 54.55, 464.91 -1.33 M597.71 103.51 C557.64 71.43, 519.63 34.32, 476.95 -1.46 M597.71 103.51 C574.19 83.32, 547.67 60.41, 476.95 -1.46 M609.75 103.37 C577.74 73.55, 545.22 46.5, 488.99 -1.6 M609.75 103.37 C582.08 78.44, 552.55 52.78, 488.99 -1.6 M621.79 103.24 C582.84 68.53, 544.4 34.46, 501.03 -1.73 M621.79 103.24 C583.02 69.61, 543.32 35.27, 501.03 -1.73 M633.83 103.11 C592.04 65.33, 546.36 27.54, 513.83 -1.21 M633.83 103.11 C595.33 69.81, 556.89 37.35, 513.83 -1.21 M646.62 103.63 C605.21 70.04, 567.72 35.82, 525.87 -1.34 M646.62 103.63 C612.09 73.82, 578.73 46.07, 525.87 -1.34 M658.66 103.5 C636.27 81.97, 610.43 61.11, 537.91 -1.47 M658.66 103.5 C626.61 77.4, 595.19 50.33, 537.91 -1.47 M670.71 103.36 C633.87 72.74, 601.17 44.24, 549.95 -1.61 M670.71 103.36 C633 69.13, 593.92 36.52, 549.95 -1.61 M682.75 103.23 C642.55 69.15, 600.31 33.53, 561.99 -1.74 M682.75 103.23 C650.65 74.96, 619.98 49.17, 561.99 -1.74 M694.79 103.1 C662.16 72.55, 626.51 44.79, 574.79 -1.22 M694.79 103.1 C666.98 79.03, 638.29 54.62, 574.79 -1.22 M707.58 103.62 C664.82 68.29, 622.22 29.25, 586.83 -1.35 M707.58 103.62 C667.57 69.8, 627.48 36.4, 586.83 -1.35 M719.62 103.49 C678.69 65.06, 633.87 30.35, 598.87 -1.48 M719.62 103.49 C679.52 69.21, 641.46 34.84, 598.87 -1.48 M731.66 103.35 C702.84 75.93, 670 48.45, 610.91 -1.62 M731.66 103.35 C695.95 71.64, 659.88 41.5, 610.91 -1.62 M743.71 103.22 C715.27 77.57, 683.93 52.52, 622.95 -1.75 M743.71 103.22 C696.37 61.33, 649.88 20.36, 622.95 -1.75 M755.75 103.09 C719.54 70.86, 682.6 39.22, 635.75 -1.23 M755.75 103.09 C729.77 80.46, 703.85 58.75, 635.75 -1.23 M768.54 103.61 C739.65 78.28, 705.93 48.94, 647.79 -1.36 M768.54 103.61 C722.43 63.02, 675.49 22.62, 647.79 -1.36 M780.58 103.48 C734.5 65.39, 688.88 26.71, 659.83 -1.49 M780.58 103.48 C739.36 67.77, 696.78 31.75, 659.83 -1.49 M792.62 103.34 C766.98 78.51, 742.92 59.45, 671.87 -1.63 M792.62 103.34 C750.93 67.89, 709.78 32.04, 671.87 -1.63 M804.66 103.21 C755.44 60.9, 709.02 20.71, 683.91 -1.76 M804.66 103.21 C759.16 64.46, 714.68 24.63, 683.91 -1.76 M816.71 103.08 C782.72 72.57, 750.15 45.94, 696.71 -1.24 M816.71 103.08 C790.86 80.63, 765.32 58.08, 696.71 -1.24 M829.5 103.6 C790.93 69.71, 753.01 35.6, 708.75 -1.37 M829.5 103.6 C783.03 63.78, 737.15 24.75, 708.75 -1.37 M841.54 103.47 C797.77 65.76, 757.49 30.5, 720.79 -1.5 M841.54 103.47 C807.27 72.38, 771 42.03, 720.79 -1.5 M853.58 103.33 C813.77 69.03, 772.99 32.2, 732.83 -1.64 M853.58 103.33 C821.16 74.18, 787.54 45.14, 732.83 -1.64 M865.62 103.2 C834.13 77.35, 805.14 47.1, 744.87 -1.77 M865.62 103.2 C823.44 65.37, 780.42 28.9, 744.87 -1.77 M877.66 103.07 C846.63 76.47, 817.33 48.31, 757.67 -1.25 M877.66 103.07 C830.97 61.11, 783.53 19.42, 757.67 -1.25 M885.18 99 C842.08 64.52, 800.07 26.49, 769.71 -1.38 M885.18 99 C848.42 67.15, 810.97 34.79, 769.71 -1.38 M885.14 88.37 C848.66 57.46, 809.8 26.63, 781.75 -1.51 M885.14 88.37 C855.91 65.23, 828.05 40.83, 781.75 -1.51 M885.11 77.74 C852.47 51.14, 819.53 20.85, 793.79 -1.65 M885.11 77.74 C866.31 62.74, 849.58 45.61, 793.79 -1.65 M885.07 67.11 C858.11 46.58, 833.15 23.33, 805.83 -1.78 M885.07 67.11 C865.18 49.43, 844.11 30.86, 805.83 -1.78 M885.04 56.48 C866.36 39.9, 845.56 23.02, 818.62 -1.26 M885.04 56.48 C862.66 35.95, 838.66 16.47, 818.62 -1.26 M885 45.85 C870.58 33.83, 858.4 19.55, 830.67 -1.39 M885 45.85 C866.56 30.33, 848.84 13.37, 830.67 -1.39 M884.97 35.22 C868.69 21.18, 855.71 8.92, 842.71 -1.52 M884.97 35.22 C876.18 26.97, 867.39 20.39, 842.71 -1.52 M885.69 25.24 C872.82 16.12, 861.95 4.03, 854.75 -1.65 M885.69 25.24 C877.39 16.83, 868.84 9.81, 854.75 -1.65 M885.66 14.61 C879.51 7.65, 870.2 1.51, 866.79 -1.79 M885.66 14.61 C879.56 7.82, 873.09 1.92, 866.79 -1.79 M885.62 3.98 C884.99 3.46, 884 2.48, 879.58 -1.27 M885.62 3.98 C883.81 2.37, 881.52 0.59, 879.58 -1.27" stroke="#99e9f2" stroke-width="1" fill="none"></path><path d="M0 0 C185.71 -2.6, 371.83 -2.99, 881.67 0 M0 0 C258.58 -2.76, 517.44 -2.36, 881.67 0 M881.67 0 C880.27 29.6, 880.6 56.78, 881.67 103.33 M881.67 0 C883.57 30.77, 883.1 61.76, 881.67 103.33 M881.67 103.33 C674.63 103.68, 467.51 102.42, 0 103.33 M881.67 103.33 C545.24 101.77, 209.41 101.29, 0 103.33 M0 103.33 C1.27 82.7, 1.09 60.01, 0 0 M0 103.33 C1.76 62.52, 0.18 22.87, 0 0" stroke="#1e1e1e" stroke-width="2" fill="none"></path></g><g transform="translate(264.5903625488279 317.49999999999994) rotate(0 356.6596374511719 12.5)"><text x="356.6596374511719" y="0" font-family="Virgil, Segoe UI Emoji" font-size="20px" fill="#1e1e1e" text-anchor="middle" style="white-space: pre;" direction="ltr" dominant-baseline="text-before-edge">RAM part whose addresses have been directly mapped to SSD registers</text></g><g stroke-linecap="round" transform="translate(518.7499999999998 10) rotate(0 280.0000000000001 52.49999999999997)"><path d="M26.25 0 C149.51 -0.11, 273.37 0.9, 533.75 0 M26.25 0 C136.75 2.31, 246.3 2.16, 533.75 0 M533.75 0 C549.8 1.95, 558.53 8.89, 560 26.25 M533.75 0 C552.68 1.41, 560.65 8.04, 560 26.25 M560 26.25 C560.06 42.21, 560.93 59.61, 560 78.75 M560 26.25 C561.28 38.9, 560.35 51.18, 560 78.75 M560 78.75 C559.63 97.68, 550.93 106.51, 533.75 105 M560 78.75 C560.54 97.85, 549.79 103.28, 533.75 105 M533.75 105 C430.13 105.07, 326.13 105.46, 26.25 105 M533.75 105 C418.88 106.14, 303.81 106.31, 26.25 105 M26.25 105 C7.5 103.11, 2 96.91, 0 78.75 M26.25 105 C8.12 106.36, 0.35 97.04, 0 78.75 M0 78.75 C0.3 58.72, -0.5 40.47, 0 26.25 M0 78.75 C-0.48 65.09, -0.87 53.33, 0 26.25 M0 26.25 C0.22 9.23, 9.87 0.36, 26.25 0 M0 26.25 C-1.14 10.74, 10.11 1.79, 26.25 0" stroke="#1e1e1e" stroke-width="2" fill="none"></path></g><g transform="translate(778.5600204467771 49.99999999999994) rotate(0 20.189979553222656 12.5)"><text x="20.189979553222656" y="0" font-family="Virgil, Segoe UI Emoji" font-size="20px" fill="#1e1e1e" text-anchor="middle" style="white-space: pre;" direction="ltr" dominant-baseline="text-before-edge">CPU</text></g><g stroke-linecap="round"><g transform="translate(208.75 731.6666666666666) rotate(0 2.5 -175.83333333333331)"><path d="M0.25 -0.04 C0.98 -58.44, 3.76 -292.01, 4.36 -350.7" stroke="#1e1e1e" stroke-width="2.5" fill="none" stroke-dasharray="8 10"></path></g></g><mask></mask><g stroke-linecap="round"><g transform="translate(253.75 735) rotate(0 3.3333333333333144 -174.16666666666663)"><path d="M-0.83 -0.95 C0.06 -59.07, 5.08 -291.38, 6.41 -349.22" stroke="#1e1e1e" stroke-width="2.5" fill="none" stroke-dasharray="8 10"></path></g></g><mask></mask><g stroke-linecap="round"><g transform="translate(298.75 740) rotate(0 3.3333333333333144 -180)"><path d="M-0.54 1.12 C0.44 -58.86, 5.14 -299.87, 6.54 -360.03" stroke="#1e1e1e" stroke-width="2.5" fill="none" stroke-dasharray="8 10"></path></g></g><mask></mask><g stroke-linecap="round"><g transform="translate(343.75 740) rotate(0 2.5 -177.5)"><path d="M1.03 0.27 C1.72 -58.9, 3.49 -295.09, 4.03 -354.38" stroke="#1e1e1e" stroke-width="2.5" fill="none" stroke-dasharray="8 10"></path></g></g><mask></mask><g stroke-linecap="round"><g transform="translate(387.8889638217787 738.7226410793761) rotate(0 2.5 -177.5)"><path d="M0.03 -0.02 C1.1 -59.17, 4.94 -294.8, 5.92 -353.95" stroke="#1e1e1e" stroke-width="2.5" fill="none" stroke-dasharray="8 10"></path></g></g><mask></mask><g stroke-linecap="round"><g transform="translate(426.2222971551121 740.3893077460428) rotate(0 2.5 -177.5)"><path d="M1.19 -0.81 C2.37 -59.94, 5.59 -296.65, 6.08 -355.54" stroke="#1e1e1e" stroke-width="2.5" fill="none" stroke-dasharray="8 10"></path></g></g><mask></mask><g stroke-linecap="round"><g transform="translate(472.8889638217788 735.3893077460428) rotate(0 2.5 -177.5)"><path d="M-0.62 0.84 C0.16 -58.23, 3.49 -294.36, 4.32 -353.83" stroke="#1e1e1e" stroke-width="2.5" fill="none" stroke-dasharray="8 10"></path></g></g><mask></mask><g stroke-linecap="round"><g transform="translate(582.8889638217788 732.0559744127095) rotate(0 0.8333333333333712 -177.5)"><path d="M-1.07 0.3 C-0.67 -59.14, 2.24 -296.76, 2.74 -356.1" stroke="#1e1e1e" stroke-width="2.5" fill="none" stroke-dasharray="8 10"></path></g></g><mask></mask><g stroke-linecap="round"><g transform="translate(659.5556304884453 737.0559744127096) rotate(0 2.5 -177.5)"><path d="M0.18 0.99 C0.74 -58.2, 3.4 -296.15, 4.21 -355.38" stroke="#1e1e1e" stroke-width="2.5" fill="none" stroke-dasharray="8 10"></path></g></g><mask></mask><g stroke-linecap="round"><g transform="translate(764.5822975245612 729.5671414407591) rotate(0 0.8333333333333712 -177.5)"><path d="M-0.93 1.01 C-0.59 -58.06, 2.18 -296.18, 2.69 -355.52" stroke="#1e1e1e" stroke-width="2.5" fill="none" stroke-dasharray="8 10"></path></g></g><mask></mask><g stroke-linecap="round"><g transform="translate(811.248964191228 736.2338081074258) rotate(0 0.8333333333333712 -177.5)"><path d="M0.58 0.24 C1.15 -58.97, 2.44 -296.43, 2.48 -355.65" stroke="#1e1e1e" stroke-width="2.5" fill="none" stroke-dasharray="8 10"></path></g></g><mask></mask><g stroke-linecap="round"><g transform="translate(859.5822975245612 737.9004747740926) rotate(0 0.8333333333333712 -177.5)"><path d="M-0.38 -0.63 C-0.23 -59.94, 0.44 -297.06, 0.61 -355.93" stroke="#1e1e1e" stroke-width="2.5" fill="none" stroke-dasharray="8 10"></path></g></g><mask></mask><g stroke-linecap="round"><g transform="translate(901.248964191228 736.2338081074258) rotate(0 0.8333333333333712 -177.5)"><path d="M0.61 -0.16 C0.55 -59.62, 0.45 -296.66, 0.53 -355.7" stroke="#1e1e1e" stroke-width="2.5" fill="none" stroke-dasharray="8 10"></path></g></g><mask></mask><g stroke-linecap="round"><g transform="translate(946.2489641912277 737.9004747740925) rotate(0 0.8333333333333712 -177.5)"><path d="M-0.65 0.32 C-0.64 -59.17, 0.27 -296.77, 0.68 -355.88" stroke="#1e1e1e" stroke-width="2.5" fill="none" stroke-dasharray="8 10"></path></g></g><mask></mask><g stroke-linecap="round"><g transform="translate(982.9156308578945 742.9004747740925) rotate(0 0.8333333333333712 -177.5)"><path d="M0.12 -1.19 C0.48 -60.1, 2.12 -295.02, 2.35 -354" stroke="#1e1e1e" stroke-width="2.5" fill="none" stroke-dasharray="8 10"></path></g></g><mask></mask><g stroke-linecap="round"><g transform="translate(1034.582297524561 736.2338081074258) rotate(0 0.8333333333333712 -177.5)"><path d="M-0.94 -0.21 C-0.87 -59.3, 0.41 -296.07, 0.9 -355.35" stroke="#1e1e1e" stroke-width="2.5" fill="none" stroke-dasharray="8 10"></path></g></g><mask></mask><g stroke-linecap="round" transform="translate(1072.0833333333333 276.66666666666674) rotate(0 156.66666666666663 50.833333333333314)"><path d="M0 0 C0 0, 0 0, 0 0 M0 0 C0 0, 0 0, 0 0 M0.13 12.04 C2.8 8.48, 7.06 3.39, 10.63 -0.03 M0.13 12.04 C4.39 7.7, 8.48 1.97, 10.63 -0.03 M0.27 24.08 C4.95 18.58, 11.58 10.3, 21.26 -0.07 M0.27 24.08 C9.14 14.8, 17.57 4.72, 21.26 -0.07 M-0.26 36.88 C9.1 25.7, 18.43 13.47, 31.89 -0.1 M-0.26 36.88 C8.7 24.79, 18.9 14.54, 31.89 -0.1 M-0.12 48.92 C13.36 35.36, 27.2 19.96, 42.52 -0.14 M-0.12 48.92 C14.41 32.48, 26.45 17.07, 42.52 -0.14 M0.01 60.96 C17.28 41.76, 30.92 22.78, 53.15 -0.17 M0.01 60.96 C16.6 42.2, 34.55 22.28, 53.15 -0.17 M0.14 73 C26.26 44.79, 50.07 15.9, 63.78 -0.21 M0.14 73 C17.32 53.07, 33.55 33.83, 63.78 -0.21 M0.28 85.04 C27.26 51.15, 58.14 21.59, 74.41 -0.24 M0.28 85.04 C20.75 62.39, 39.73 39.29, 74.41 -0.24 M-0.25 97.84 C30.2 64.81, 55.09 35.95, 85.04 -0.28 M-0.25 97.84 C26.11 66.01, 55.23 33.63, 85.04 -0.28 M3.82 105.35 C30.36 73.97, 56.03 43.03, 95.67 -0.31 M3.82 105.35 C25.97 81.32, 48.69 56.36, 95.67 -0.31 M14.45 105.31 C50.16 63.45, 82.48 25.51, 106.3 -0.34 M14.45 105.31 C43.64 72.35, 73.69 37.36, 106.3 -0.34 M25.08 105.28 C49.07 76.73, 71.98 49.16, 116.27 0.38 M25.08 105.28 C57.97 70.58, 89.16 34.45, 116.27 0.38 M35.71 105.25 C56.76 81.08, 78.2 59.88, 126.91 0.34 M35.71 105.25 C56.93 80.42, 75.99 58.47, 126.91 0.34 M46.34 105.21 C69.12 77.08, 96.71 46.65, 137.54 0.31 M46.34 105.21 C79.2 69.78, 110.27 31.87, 137.54 0.31 M56.97 105.18 C89.78 67.69, 124.09 30.33, 148.17 0.27 M56.97 105.18 C85.91 72.83, 115.14 38.75, 148.17 0.27 M67.6 105.14 C102.45 62.77, 136.31 26.52, 158.8 0.24 M67.6 105.14 C91.01 80.56, 111.17 55.38, 158.8 0.24 M78.23 105.11 C105.33 73.39, 131.67 40.81, 169.43 0.2 M78.23 105.11 C100.9 79.76, 124.13 53.59, 169.43 0.2 M88.86 105.07 C122.51 64.94, 158.7 22.84, 180.06 0.17 M88.86 105.07 C109.19 78.75, 132.05 54.11, 180.06 0.17 M99.49 105.04 C134.58 67.17, 168.14 30.32, 190.69 0.13 M99.49 105.04 C132.01 66.42, 165.9 27.11, 190.69 0.13 M110.12 105 C145.1 62.34, 180.89 22.15, 201.32 0.1 M110.12 105 C145.6 64.3, 183.01 21.74, 201.32 0.1 M120.75 104.97 C145.53 77.09, 174.24 44.25, 211.95 0.06 M120.75 104.97 C154.05 64.91, 190.38 25.14, 211.95 0.06 M131.38 104.93 C153.29 81, 175.24 54.12, 222.58 0.03 M131.38 104.93 C151.45 82.18, 170.94 59.27, 222.58 0.03 M142.01 104.9 C164.71 80.37, 185.15 55.54, 233.21 0 M142.01 104.9 C171.11 71.61, 200.29 37.74, 233.21 0 M152.64 104.87 C174.54 79.75, 195.53 53.1, 243.84 -0.04 M152.64 104.87 C173.11 83.05, 191.22 59.89, 243.84 -0.04 M163.27 104.83 C196.12 65.99, 232.92 25.24, 254.47 -0.07 M163.27 104.83 C196.6 65.67, 230.93 28.6, 254.47 -0.07 M173.9 104.8 C197.5 75.86, 222.55 48.74, 265.1 -0.11 M173.9 104.8 C206.63 68.39, 240.33 31.96, 265.1 -0.11 M183.88 105.52 C212.5 73.53, 239.28 44.1, 275.73 -0.14 M183.88 105.52 C220.15 63.22, 256.83 21.02, 275.73 -0.14 M194.51 105.48 C220.18 73.19, 247.19 42.89, 286.36 -0.18 M194.51 105.48 C214.93 79.74, 237.44 55.05, 286.36 -0.18 M205.14 105.45 C240.78 62.92, 275.98 24.23, 296.99 -0.21 M205.14 105.45 C229.66 77.25, 252.95 49.98, 296.99 -0.21 M215.77 105.41 C249.99 64.31, 285.76 24.57, 307.62 -0.25 M215.77 105.41 C241.95 75.76, 267.35 47.84, 307.62 -0.25 M226.4 105.38 C254.53 73.85, 279.63 46.1, 316.28 1.98 M226.4 105.38 C257.33 69.82, 286.72 34.02, 316.28 1.98 M237.03 105.34 C265.43 70.91, 293.31 40.88, 315.76 14.78 M237.03 105.34 C264.4 74.84, 292.98 43.84, 315.76 14.78 M247.66 105.31 C263.02 85.88, 281.58 67.03, 315.89 26.82 M247.66 105.31 C268.57 79.02, 291.38 53.06, 315.89 26.82 M258.29 105.28 C277.18 84.19, 299.55 60.44, 316.02 38.86 M258.29 105.28 C276.96 81.6, 297.51 59.03, 316.02 38.86 M268.92 105.24 C279.23 91.58, 293.19 78.52, 316.15 50.9 M268.92 105.24 C280.68 91.11, 294.79 77.58, 316.15 50.9 M279.55 105.21 C291.17 91.17, 302.32 76.19, 316.29 62.94 M279.55 105.21 C287.02 96.23, 295.64 88.39, 316.29 62.94 M290.18 105.17 C295.59 97.89, 302.04 92.26, 315.77 75.74 M290.18 105.17 C297.74 96.21, 306.81 85.62, 315.77 75.74 M300.81 105.14 C307.41 99.98, 312.21 92.58, 315.9 87.78 M300.81 105.14 C304.22 99.39, 309.52 94.66, 315.9 87.78 M0.23 101.86 C0.23 101.86, 0.23 101.86, 0.23 101.86 M0.23 101.86 C0.23 101.86, 0.23 101.86, 0.23 101.86 M12.27 101.73 C7.8 97.72, 5.78 93.78, 0.19 91.23 M12.27 101.73 C9.86 99.45, 5.57 96.86, 0.19 91.23 M24.31 101.6 C18.07 95.37, 12.72 93.2, 0.16 80.6 M24.31 101.6 C18.45 97.46, 13.38 92.3, 0.16 80.6 M36.35 101.46 C26 94.8, 17.26 86.9, 0.12 69.97 M36.35 101.46 C25.98 91.77, 15.95 83.96, 0.12 69.97 M49.15 101.99 C34.86 91.66, 22.5 76.42, 0.09 59.34 M49.15 101.99 C34.94 90.24, 20.53 77.78, 0.09 59.34 M61.19 101.85 C40.63 83.75, 19.37 64.31, 0.05 48.71 M61.19 101.85 C38.45 82.19, 14.89 62.38, 0.05 48.71 M73.23 101.72 C42.14 76.37, 15 49.07, 0.02 38.08 M73.23 101.72 C47.39 79.42, 21.68 56.04, 0.02 38.08 M85.27 101.59 C59.86 81.69, 37.41 56.93, -0.01 27.45 M85.27 101.59 C62.46 82.25, 41 64.79, -0.01 27.45 M97.31 101.45 C71.51 78.51, 43.45 55.78, -0.05 16.82 M97.31 101.45 C66.16 75.57, 35.82 49.63, -0.05 16.82 M110.1 101.98 C76.01 74.32, 44.78 44.67, -0.08 6.19 M110.1 101.98 C69.16 66.2, 29.03 31.34, -0.08 6.19 M122.14 101.84 C96.8 81.93, 75.56 58.25, 4.41 -0.5 M122.14 101.84 C94.32 78.69, 65.81 55.23, 4.41 -0.5 M134.19 101.71 C92.88 65.91, 52.71 33.75, 17.21 0.02 M134.19 101.71 C101.81 71.95, 68.01 43.37, 17.21 0.02 M146.23 101.58 C103.15 64.62, 57.15 26.98, 29.25 -0.11 M146.23 101.58 C120.81 80.22, 94.26 57.77, 29.25 -0.11 M158.27 101.45 C120.3 67.47, 83.26 33.48, 41.29 -0.24 M158.27 101.45 C126.36 73.51, 94.76 45.91, 41.29 -0.24 M171.06 101.97 C131.28 64.61, 89.25 28.12, 53.33 -0.38 M171.06 101.97 C127.97 65.12, 84.01 26.17, 53.33 -0.38 M183.1 101.83 C153.58 75.08, 123 47.31, 65.37 -0.51 M183.1 101.83 C144.98 68.85, 108.33 35.91, 65.37 -0.51 M195.14 101.7 C150.67 64.97, 108.32 24.3, 78.16 0.01 M195.14 101.7 C168.6 79.82, 145.66 60.06, 78.16 0.01 M207.19 101.57 C171.07 67.78, 134.66 36.42, 90.21 -0.12 M207.19 101.57 C165.83 66.92, 124.11 29.87, 90.21 -0.12 M219.23 101.44 C183.42 72.63, 150.47 43.7, 102.25 -0.25 M219.23 101.44 C186.11 72.29, 152.77 42.8, 102.25 -0.25 M232.02 101.96 C209.32 81.18, 182.32 62.73, 114.29 -0.39 M232.02 101.96 C187.97 63.34, 144.15 24.73, 114.29 -0.39 M244.06 101.83 C196.63 62.25, 152.76 20.71, 126.33 -0.52 M244.06 101.83 C203.46 65.22, 160.03 29.92, 126.33 -0.52 M256.1 101.69 C217.67 66.85, 176.34 32.71, 139.12 0 M256.1 101.69 C216.28 69.22, 177.25 34.3, 139.12 0 M268.14 101.56 C244.84 78.48, 220.16 60.36, 151.16 -0.13 M268.14 101.56 C223.97 62.54, 179.08 23.98, 151.16 -0.13 M280.19 101.43 C243.85 71.53, 207.58 37.02, 163.21 -0.26 M280.19 101.43 C247.51 72.49, 213.64 42.77, 163.21 -0.26 M292.98 101.95 C259.7 72.88, 221.75 41.69, 175.25 -0.4 M292.98 101.95 C251.27 65.49, 209.16 28.61, 175.25 -0.4 M305.02 101.82 C279.82 82.41, 255.12 58.81, 187.29 -0.53 M305.02 101.82 C256.65 60.76, 210.1 21.98, 187.29 -0.53 M313.29 98.4 C285.23 73.56, 257 47.07, 200.08 -0.01 M313.29 98.4 C280.6 69.72, 249.52 42.08, 200.08 -0.01 M313.25 87.77 C284.62 64.39, 260.18 39.5, 212.12 -0.14 M313.25 87.77 C276.87 56.89, 241.74 24.94, 212.12 -0.14 M313.97 77.8 C285.69 55.34, 260.22 29.61, 224.16 -0.27 M313.97 77.8 C279.27 47.39, 245.39 17.85, 224.16 -0.27 M313.94 67.17 C293.05 49.48, 272.7 30.38, 236.21 -0.41 M313.94 67.17 C286.33 43.34, 257.21 19.98, 236.21 -0.41 M313.91 56.54 C292.82 37.68, 272.06 21.55, 249 0.12 M313.91 56.54 C296.64 41.88, 278.28 24.36, 249 0.12 M313.87 45.91 C298.27 32.2, 279.8 16.72, 261.04 -0.02 M313.87 45.91 C297.85 30.85, 279.72 15.35, 261.04 -0.02 M313.84 35.28 C298.77 20.42, 281.2 5.58, 273.08 -0.15 M313.84 35.28 C304.5 25.89, 293.96 18.43, 273.08 -0.15 M313.8 24.65 C305.29 19.61, 300.65 14.12, 285.12 -0.28 M313.8 24.65 C306.18 16.91, 297.41 10.33, 285.12 -0.28 M313.77 14.02 C307.82 10.16, 306.92 7.45, 297.16 -0.42 M313.77 14.02 C308.49 10.1, 303.41 4.53, 297.16 -0.42 M313.73 3.39 C312.73 3.07, 312.42 1.4, 309.96 0.11 M313.73 3.39 C312.8 2.74, 312.25 1.82, 309.96 0.11" stroke="#ffd8a8" stroke-width="1" fill="none"></path><path d="M0 0 C67.98 2.55, 136.95 1.26, 313.33 0 M313.33 0 C312.99 26.95, 315.02 49.26, 313.33 101.67 M313.33 101.67 C222.66 101.44, 128.51 103.15, 0 101.67 M0 101.67 C-2.34 78.36, -1.65 56.55, 0 0" stroke="#1e1e1e" stroke-width="2.5" fill="none" stroke-dasharray="8 10"></path></g><g transform="translate(1084.580154418945 302.50000000000006) rotate(0 144.1698455810547 25)"><text x="144.1698455810547" y="0" font-family="Virgil, Segoe UI Emoji" font-size="20px" fill="#1e1e1e" text-anchor="middle" style="white-space: pre;" direction="ltr" dominant-baseline="text-before-edge">Functions that utilize MMIO-</text><text x="144.1698455810547" y="25" font-family="Virgil, Segoe UI Emoji" font-size="20px" fill="#1e1e1e" text-anchor="middle" style="white-space: pre;" direction="ltr" dominant-baseline="text-before-edge">programming</text></g><g stroke-linecap="round" transform="translate(178.75 230.0000000000001) rotate(0 609.9999999999999 75.83333333333331)"><path d="M0 0 C282.79 0.6, 567.2 1.82, 1220 0 M1220 0 C1218.64 34.74, 1218.19 66.23, 1220 151.67 M1220 151.67 C762.86 157.07, 305.41 156.94, 0 151.67 M0 151.67 C-0.6 116.32, -0.51 78.14, 0 0" stroke="#1e1e1e" stroke-width="2.5" fill="none" stroke-dasharray="8 10"></path></g><g transform="translate(767.0833333333333 240.00000000000006) rotate(0 20.999984741210938 12.5)"><text x="0" y="0" font-family="Virgil, Segoe UI Emoji" font-size="20px" fill="#1e1e1e" text-anchor="start" style="white-space: pre;" direction="ltr" dominant-baseline="text-before-edge">RAM</text></g><g stroke-linecap="round"><g transform="translate(800.4166666666665 113.33333333333343) rotate(0 0 59.16666666666666)"><path d="M0 0 C-0.91 31.22, -3.03 63.67, 0 118.33" stroke="#1e1e1e" stroke-width="2.5" fill="none" stroke-dasharray="8 10"></path></g></g><mask></mask></svg>